<svg xmlns="http://www.w3.org/2000/svg" viewBox="0 0 2112.33 349.97"><defs><style>.cls-1,.cls-18{fill:#fff;}.cls-2{fill:gray;}.cls-3,.cls-9{fill:#b9aebd;}.cls-3{opacity:0.35;}.cls-4{fill:#fffeff;}.cls-5{fill:#fefefe;}.cls-6{fill:#b8afbe;}.cls-7{fill:#c2b9c6;}.cls-8{fill:#fdfdfd;}.cls-10{fill:#f9f9fa;}.cls-11{fill:#391b47;}.cls-12{fill:#29abe2;}.cls-13{fill:#2976b4;}.cls-14{fill:none;stroke:#666;stroke-linecap:round;stroke-linejoin:round;opacity:0.9;}.cls-15{fill:#666;}.cls-16{fill:#333;}.cls-17{fill:#371b45;}.cls-18{stroke:#371b45;stroke-width:3px;}</style></defs><g id="Layer_2" data-name="Layer 2"><g id="Layer_1-2" data-name="Layer 1"><path class="cls-1" d="M2112.33,350H0q96.84-34.91,201.37-63.4c81.76-22.27,166.76-41.43,254.47-57.24q67.95-12.26,138-21.73a3444.88,3444.88,0,0,1,462.34-30.74c250.3,0,489.53,26.28,709.27,74.13q55.47,12,109.26,26,26.47,6.85,52.53,14.11Q2022.91,317.75,2112.33,350Z"/><path class="cls-2" d="M597.71,229.36a70.95,70.95,0,1,1-141.89,0c0-.48,0-1,0-1.44q67.95-12.27,138-21.74A70.35,70.35,0,0,1,597.71,229.36Z"/><circle class="cls-2" cx="699.87" cy="297.47" r="29.8"/><circle class="cls-2" cx="333.79" cy="300.31" r="29.8"/><circle class="cls-2" cx="728.25" cy="240.71" r="12.77"/><circle class="cls-2" cx="1440.55" cy="229.36" r="12.77"/><circle class="cls-2" cx="1812.31" cy="328.69" r="12.77"/><path class="cls-2" d="M1927.24,290.38a28.38,28.38,0,1,1-52.55-14.85q26.47,6.86,52.53,14.11C1927.24,289.87,1927.24,290.12,1927.24,290.38Z"/><path class="cls-3" d="M1581.11,277a3.39,3.39,0,0,0,.41,5.65c16.84,9.32,68.7,41.63,88.48,45.5,87,17,123-27,120-31-61.1-81.47-186.82-33.38-195.51-30.19a3.67,3.67,0,0,0-.89.49Z"/><rect class="cls-1" x="1604" y="63.1" width="7" height="24"/><path class="cls-4" d="M1624,174.1c-.31,2.1-.74,6.89-1,9-.39,3.17-.77,5.81-1,9-.18,2.51,0,4.48,0,7,0,4.66-1.26,11.34-1,16,.14,2.64.89,5.35,1,8,.09,2.32,2.83,5,2.92,7.32a1.36,1.36,0,0,0,.6,1.05,16.32,16.32,0,0,0,6.35,3.11,32.83,32.83,0,0,0,7.44,1.14,76.57,76.57,0,0,0,12.39-.54,33.71,33.71,0,0,0,3.47-.5.9.9,0,0,0-.2-.59c-.78-1.31-1.61-2.6-2.32-3.94a52.38,52.38,0,0,1-5.84-22.22,5.21,5.21,0,0,1,.07-2.42c-.05-.46.27-.33.46-.24a20.93,20.93,0,0,0,2.16,1,21.37,21.37,0,0,1,3.63.71c2.09.4,4.17.82,6.26,1.21s4.25.76,6.39,1c2.57.3,5.16.46,7.74.66.81.07,1.62.13,2.44.13,2.3,0,4.59,0,6.89,0,2.62,0,5.24-.11,7.85-.18a17.42,17.42,0,0,1,3.61,0l.45-.08c0-.11.13-.11.23-.06l2-.52c.41-.23.38.07.4.33a20.63,20.63,0,0,1-.52,6.12,39.64,39.64,0,0,1-4.69,11.94,65.18,65.18,0,0,1-5.29,7.59,4.1,4.1,0,0,0-1,1.6,56.17,56.17,0,0,0,7.78,2.1,42.17,42.17,0,0,0,7.26.93,26.32,26.32,0,0,0,11.35-1.71,18.5,18.5,0,0,0,2.25-1.18,1.88,1.88,0,0,0,.94-1.44c.61-3.23,1.23-6.45,1.9-9.67.74-3.52,1.4-7.06,2-10.6.8-4.53,1.45-9.08,1.82-13.67.1-1.34.38-2.67.4-4,0-2.77.41-5.52.42-8.28,0-1.09.15-2.19.06-3.28a2.32,2.32,0,0,0-.4-.13l-5.85-.42c-1.52-.11-3-.43-4.51-.69a38.09,38.09,0,0,1-4.34-1c-.62-.18-.66-.16-.72.48-.11,1.06-.15,2.13-.28,3.19a8.7,8.7,0,0,1-9.2,7.53q-23.87-1.84-47.71-3.73a8.74,8.74,0,0,1-7.84-7.26,17.41,17.41,0,0,1,.08-3.82c0-.92,2.66-5.87,1.74-5.84a22.59,22.59,0,0,1-5,0c-.88-.09-9.13-.81-10-1C1627,172.86,1625.07,174.09,1624,174.1Z"/><path class="cls-5" d="M1639.35,116.93a1,1,0,0,1,.05.81q-1.87,7.23-3.71,14.46t-3.59,14.6c-.65,2.67-1.24,5.36-1.86,8,0,.21-.07.42-.12.63-.09.43,0,.63.52.69,3.63.41,7.28.65,10.93.89a1.37,1.37,0,0,1,.38-.15c1.11-.06,1.11-.05,1.2-1.15a4.34,4.34,0,0,1,.06-.63,5.76,5.76,0,0,1,1.19-3,11.11,11.11,0,0,1,2-4.41,9.39,9.39,0,0,1,8.38-3.69c14.51,1.1,27.71,3,42.22,4.08a9.56,9.56,0,0,1,9,9,8.33,8.33,0,0,1,1,0c-.06.33-1.07-.34-1,0,.23.15-.06.76,0,1a19,19,0,0,1,0,5,30.74,30.74,0,0,0,5,1c3.44.48,7.39.69,11,1-.84-11.22-2.31-24.08-3.7-35.16a1.92,1.92,0,0,0-1,.39,65,65,0,0,1-34.55,7.26c-1.24-.08-2.46-.26-3.69-.42a65,65,0,0,1-24.61-8.39,61.93,61.93,0,0,1-14.24-11.4C1640,117.11,1639.76,116.84,1639.35,116.93Z"/><path class="cls-5" d="M1656.41,238c-2.81.37-5.61.75-8.44.94a61.91,61.91,0,0,1-12.62-.29,27.55,27.55,0,0,1-9.69-3,.51.51,0,0,0-.45-.06c0,1.17.08,2.37.15,3.56.14,2.43.3,4.86.44,7.29,0,.79,0,.79.81.78a39,39,0,0,1,14.9,2.38,19,19,0,0,1,6.06,3.68,2.56,2.56,0,0,1,.76.87c-.19.26-.4,0-.55,0a40.62,40.62,0,0,0-10.52-2.86,45.19,45.19,0,0,0-7.62-.52c-1.1,0-2.2,0-3.29,0a9.5,9.5,0,0,0-3.73.69,23.55,23.55,0,0,0-6.69,3.66c-2.44,2-4.16,4.46-4,7.83a2.91,2.91,0,0,0,.31,1.53,4.28,4.28,0,0,1,1.53.44,44.71,44.71,0,0,0,9.59,2.31,69,69,0,0,0,12.53.61,47.56,47.56,0,0,0,10.8-1.68c3.25-1,6.15-2.33,8-5.47,2.69-4.44,4.55-9.05,4.23-14.33a24.94,24.94,0,0,0-1.8-7.75A.87.87,0,0,0,1656.41,238Z"/><path class="cls-6" d="M1639.35,116.93c.41-.09.65.18.89.45a61.93,61.93,0,0,0,14.24,11.4,65,65,0,0,0,24.61,8.39c1.23.16,2.45.34,3.69.42a65,65,0,0,0,34.55-7.26,1.92,1.92,0,0,1,1-.39q-.36-3.19-.74-6.39c0-.25-.08-.49-.1-.73a.62.62,0,0,1,.48-.72.53.53,0,0,1,.67.37,17,17,0,0,1,.61,1.69c.43,1.41.85,2.83,1.28,4.24a2.07,2.07,0,0,0,.94-.43c1-.64,2-1.26,2.92-1.91a1,1,0,0,1,.86-.27c-1.63-2.78-3.32-5.52-5.16-8.27l-2.34,1.25a63,63,0,0,1-38.53,6.73,63.49,63.49,0,0,1-22.4-7.67,62,62,0,0,1-13.55-10.39.81.81,0,0,0-1.22-.16c-2,1.22-4,2.59-5.9,4l-.83.64c.32,0,.5.22.66.45,1,1.34,2.07,2.56,3.13,3.82a.83.83,0,0,1,.27.76Z"/><path class="cls-5" d="M1722.28,272.85a7.23,7.23,0,0,0,.14-5.66,12.33,12.33,0,0,0-3.4-4.94,28,28,0,0,0-6-4.17,11.92,11.92,0,0,0-3.79-.94c-2-.35-4.06-.63-6.1-.79a45.23,45.23,0,0,0-14.25,1l-.91.21a1.93,1.93,0,0,1,.77-.76,20.46,20.46,0,0,1,9.21-3.32,39.86,39.86,0,0,1,9.64-.08,19.56,19.56,0,0,1,3.14.5c.62.16.75-.09.85-.55.24-1.06.49-2.13.72-3.2.59-2.76,1.16-5.53,1.74-8.29a1.33,1.33,0,0,0,.06-.74c-.3-.19-.54.06-.78.16a27.64,27.64,0,0,1-11.24,1.84c-.7,0-1.41,0-2.12,0a64.5,64.5,0,0,1-15.24-3.18c-.2-.07-.41-.11-.61-.17-.53,0-.71.41-.91.79-.39.75-.8,1.5-1.16,2.27A24.09,24.09,0,0,0,1679.5,254a25.29,25.29,0,0,0,2.46,9.63,7.92,7.92,0,0,0,2.58,3,24.59,24.59,0,0,0,7,3.4,57.16,57.16,0,0,0,13.93,2.82,12.34,12.34,0,0,0,2.31.32,11.07,11.07,0,0,1,2.23,0,61.83,61.83,0,0,0,8.82-.1A20.36,20.36,0,0,1,1722.28,272.85Z"/><path class="cls-5" d="M1702.7,174.85a2.31,2.31,0,0,0,.17-.82l1.29-16.53c0-.14,0-.28,0-.43a.18.18,0,0,1-.08-.27,6.25,6.25,0,0,0-5.59-6l-32.18-2.51-.53,0c-.3,0-.47.06-.48.38s0,.43,0,.64c-.27,3.44-2,7.35-2.24,10.79-.13,1.56.86,2,2,3s1.88,3,3,4c2.12,1.86,3.21,3.2,3,6-.07.87,0,2.59,0,3.89a.7.7,0,0,0,1.06.59c1.06-.62,2.33-1.55,3.09-2a15.13,15.13,0,0,0,6.37-6.52c.15-.28.15-.75.65-.73a6.36,6.36,0,0,1,.32-1.56,8.2,8.2,0,0,1,16.06,0,13.3,13.3,0,0,1,0,4.13c.3.26.26.63.3,1a7.26,7.26,0,0,0,.74,2.86,1.52,1.52,0,0,0,2.48.55C1702.23,175.17,1702.4,174.92,1702.7,174.85Z"/><path class="cls-7" d="M1697.59,30.51a2.28,2.28,0,0,0-1.36-.9,37.25,37.25,0,0,0-5.21-1.46,67.37,67.37,0,0,0-11.39-1.38,61.91,61.91,0,0,0-23.35,3.11,23.12,23.12,0,0,0-11.81,9.31,40.74,40.74,0,0,0-5.33,12.11,62.51,62.51,0,0,0-1.94,10.42c-.13,1.23-.34,2.46-.4,3.7-.08,1.55-.11,3.11-.15,4.67a.66.66,0,0,0,.15.5c.23,0,.28-.17.35-.3a99.79,99.79,0,0,1,7.31-11.1,136.52,136.52,0,0,1,10.67-12.84,43.55,43.55,0,0,1,12.48-8.94,70.12,70.12,0,0,1,29.4-6.66C1697.21,30.75,1697.44,30.78,1697.59,30.51Z"/><path class="cls-8" d="M1653.24,14.39A45.36,45.36,0,0,1,1661,12a66.75,66.75,0,0,1,14.22-1.69,84.59,84.59,0,0,1,11.35.63,100.86,100.86,0,0,1,19.66,4.37,90.3,90.3,0,0,1,18,8,72.58,72.58,0,0,1,12,8.65,56.48,56.48,0,0,1,6,6.23c.26.31,3.48,3.66,3.81,3.93-.6-1.71-2.14-7.43-3-9-2.17-4-7-8.62-10-12-3.61-4.09-7.62-5.61-12.19-8.59a60.52,60.52,0,0,0-17.42-7.7,63.53,63.53,0,0,0-6.45-1.32,55.84,55.84,0,0,0-7.19-.65,57.35,57.35,0,0,0-11.84.88A60.53,60.53,0,0,0,1665,7.51a61.59,61.59,0,0,0-11.25,6.2c-.19.14-.68.19-.5.66Z"/><path class="cls-5" d="M1622,142.5a20.53,20.53,0,0,0,1.64-5.12,29.29,29.29,0,0,0,.75-6.85,32.79,32.79,0,0,0-2-11.22c-.09-.23-.14-.49-.39-.61a8.55,8.55,0,0,0-1.35-.6c-.25-.07-.38.27-.53.45a10.17,10.17,0,0,1-3,2.64,4.61,4.61,0,0,1-3.12.79,2,2,0,0,0-.91.26,19.69,19.69,0,0,1-7.91,1.87,8.3,8.3,0,0,0-2.51.37,7.07,7.07,0,0,0-4.69,6.07,12,12,0,0,0,4.25,11,15,15,0,0,0,8.8,3.64,16.19,16.19,0,0,0,7.4-1.12C1619.61,143.64,1620.74,143,1622,142.5Z"/><path class="cls-9" d="M1722.28,272.85a20.36,20.36,0,0,0-3.49.26,61.83,61.83,0,0,1-8.82.1,11.07,11.07,0,0,0-2.23,0,12.34,12.34,0,0,1-2.31-.32A57.16,57.16,0,0,1,1691.5,270a24.59,24.59,0,0,1-7-3.4,7.92,7.92,0,0,1-2.58-3,25.29,25.29,0,0,1-2.46-9.63,24.09,24.09,0,0,1,2.54-11.19c.36-.77.77-1.52,1.16-2.27.2-.38.38-.79.91-.79l-6.46-2.41c-.09,0-2.5-1.18-2.65-1.19-.23,1.47-.78,3.53-1,5-.45,2.9-1.66,8.08-2,11-.57,4.87.23,11.13,1,16,.14.87,1.76,3.14,2,4,.5,1.83,2.49,1.91,4,3,2.28,1.63,6.34,2.21,9,3,3.78,1.11,7.15,2.22,11,3,3.14.63,7.81-.16,11,0s4.13-2.13,7.17-3.27a8.21,8.21,0,0,0,5-4.48A.73.73,0,0,0,1722.28,272.85Z"/><path class="cls-5" d="M1668.28,177.73c.32-1.81.34-3.64.49-5.46a.25.25,0,0,1-.09-.29,4.55,4.55,0,0,0-1.79-3.14c-1.11-1-2.25-2-3.33-3a7.61,7.61,0,0,1-2.53-6.38c.23-3.4.52-6.8.79-10.2,0-.25,0-.5.06-.74.06-.41-.09-.59-.51-.61-.7,0-1.41-.11-2.12-.16-1.63-.13-3.26-.24-4.89-.39-3.38-.31-7.2,2.21-7.36,4.71,0,.12.83.71.72.77q-.24,3.12-.5,6.22a1.51,1.51,0,0,0,.06.73c.4,0,.59.36.82.62a12.33,12.33,0,0,1,2,3.34c.77,1.86,1.46,3.76,2.23,5.63a13.91,13.91,0,0,0,2.85,4.56,13.05,13.05,0,0,0,7.55,3.55A42.24,42.24,0,0,0,1668.28,177.73Z"/><path class="cls-8" d="M1598.52,92.22a4.05,4.05,0,0,1-1.49.23,11.68,11.68,0,0,1-1.78-.19,11,11,0,0,1-1.66-.43c-1.27-.45-2.55-.87-3.82-1.32a5.12,5.12,0,0,0-.77-.2,2.24,2.24,0,0,0-.58,0,3.36,3.36,0,0,1-.82-.82c-1-1.17-2-2.31-2.93-3.52a52.22,52.22,0,0,1-5.11-7.56,11.65,11.65,0,0,1-1.49-4.17,2,2,0,0,1,1.41-2.43,2.5,2.5,0,0,1,1.3,0,9.05,9.05,0,0,1,3,1.4,34.19,34.19,0,0,1,6.4,6l.45.53-1.32,8.77.2.15a7.6,7.6,0,0,0,1.13,1.52,1,1,0,0,0,.83.4,21.23,21.23,0,0,1,4,.6A23,23,0,0,1,1598.52,92.22Z"/><path class="cls-8" d="M1601.88,63.84a3.17,3.17,0,0,1,1.15-.78,8.7,8.7,0,0,0-1.46,3.32,36.67,36.67,0,0,0-.91,9.8,78.58,78.58,0,0,0,.75,9.93,1.66,1.66,0,0,1-1,1.9l-.07,0a1.83,1.83,0,0,0,0-.57,76.76,76.76,0,0,1-1-9.92,36.72,36.72,0,0,1,.7-9.81A8,8,0,0,1,1601.88,63.84Z"/><path class="cls-8" d="M1608.54,83.73c0,.41.62,1,.46,1.37-.62.39-1.84.62-2.45,1l1.74-11.54c.24,2.94,1.71,5.51.16,8.86A.25.25,0,0,0,1608.54,83.73Z"/><path class="cls-6" d="M1626.08,178.14a13.5,13.5,0,0,1,3.17.33,21.43,21.43,0,0,0,2.65.27,65.15,65.15,0,0,0,8.5.27c.92,0,.91,0,.86.93a17.41,17.41,0,0,0-.08,3.82A8.74,8.74,0,0,0,1649,191q23.85,1.89,47.71,3.73a8.7,8.7,0,0,0,9.2-7.53c.13-1.06.17-2.13.28-3.19.06-.64.1-.66.72-.48a38.09,38.09,0,0,0,4.34,1c1.5.26,3,.58,4.51.69l5.85.42a2.32,2.32,0,0,1,.4.13c.16-1.19,0-2.38,0-3.6a67.13,67.13,0,0,1-16.31-1.65,2.42,2.42,0,0,0-.23,1.31,9.59,9.59,0,0,1-6.49,8.18,10.51,10.51,0,0,1-4.09.48q-21.66-1.69-43.32-3.39a9.71,9.71,0,0,1-9.09-8.51,8.78,8.78,0,0,1,0-1.7c0-.8,1.22-2.88.46-2.86a19.8,19.8,0,0,1-4,0c-2.5-.23-9.54-.5-12-1-.77-.16-.49,1.44-.53,2.21C1626.42,176.26,1626.22,177.19,1626.08,178.14Z"/><path class="cls-9" d="M1622,142.5a1.33,1.33,0,0,1-.13.62,12.92,12.92,0,0,1-8.19,7.51,9.85,9.85,0,0,1-4.49.62c-1.15-.19-2.3-.35-3.45-.58a14,14,0,0,1-8.19-4.82h0a16.86,16.86,0,0,1-2.08-3.17,31.15,31.15,0,0,1-3-11.12,80.58,80.58,0,0,1-.19-8.37c0-.23,0-.5.25-.69l.07,0c.29.09.6.18.9.3a7.67,7.67,0,0,0,2.52.33c.39,0,.5-.25.26-.55a3.78,3.78,0,0,0-.61-.59l-.5-.39h0c-.73-.56-1.48-1.11-2.18-1.69a5,5,0,0,1-1.62-1.63,1.43,1.43,0,0,1,.81.21,15.38,15.38,0,0,0,2.58,1h0c.3.09.61.17.91.24s.65.15,1,.21.46.1.7.13l.4.07.83.12c.46.06.92.11,1.37.14l.63,0,.62,0h.48l.94,0c.48,0,1-.06,1.43-.11.26,0,.52-.06.78-.1l.53-.08.51-.09.53-.11q.39-.07.78-.18t.78-.21a15.76,15.76,0,0,0,9.54-7.36,19.77,19.77,0,0,0,2.84-9,2.12,2.12,0,0,1,.28-1.43s.12.1.13.16a19,19,0,0,1-.17,7.16,18.43,18.43,0,0,1-1.51,4.22l0,0a.08.08,0,0,1,0,0,28.54,28.54,0,0,1-2.66,4.2c-.75,1-1.49,2-2.25,3l-.06.08A1.05,1.05,0,0,0,1614,122a2,2,0,0,0-.91.26,19.69,19.69,0,0,1-7.91,1.87,8.3,8.3,0,0,0-2.51.37,7.37,7.37,0,0,0-.7.3c-.14.06-.27.13-.4.2a7.11,7.11,0,0,0-1,.63h0a6.31,6.31,0,0,0-1,.95l-.1.12a2.08,2.08,0,0,0-.24.34,5,5,0,0,0-.45.74,5.12,5.12,0,0,0-.25.53c0,.09-.08.18-.11.27a5.34,5.34,0,0,0-.18.52c-.08.26-.15.53-.21.8s-.09.44-.12.67-.08.62-.1.93a11.94,11.94,0,0,0,0,2.16.34.34,0,0,1,0,.1,9.88,9.88,0,0,0,.19,1.11,5.66,5.66,0,0,0,.15.59c0,.15.08.3.13.45s.16.47.25.7l.24.55c.09.2.19.41.3.6a4.68,4.68,0,0,0,.3.54,14.12,14.12,0,0,0,2.75,3.3,15,15,0,0,0,8.8,3.63,16.19,16.19,0,0,0,7.4-1.12c.31-.12.61-.24.91-.38l.88-.41.57-.27.76-.34Z"/><path class="cls-6" d="M1702.7,174.85c-.3.07-.47.32-.7.48a1.52,1.52,0,0,1-2.48-.55,7.26,7.26,0,0,1-.74-2.86c0-.35,0-.72-.3-1-.35.15-.32.52-.44.8a7.81,7.81,0,0,1-3.1,3.66,8,8,0,0,1-8.37.31,7.77,7.77,0,0,1-4.26-6.87c0-.18,0-.36-.16-.46-.5,0-.5.45-.65.73a15.13,15.13,0,0,1-6.37,6.52c-1,.55-4,1.07-5.13,1.47-.32,2.57-.76,6.42-1,9,0,.4,1.59,0,2,0,.21,0,1.79,1,2,1,7.65.59,14.36,1.33,22,2,2.89.25,6.75-3.62,7.26-7.57.27-2.11.34-4.24.5-6.37A1.21,1.21,0,0,0,1702.7,174.85Z"/><path class="cls-9" d="M1656.41,238a.87.87,0,0,1,.77.61,24.94,24.94,0,0,1,1.8,7.75c.32,5.28-1.54,9.89-4.23,14.33-1.89,3.14-4.79,4.51-8,5.47a47.56,47.56,0,0,1-10.8,1.68,69,69,0,0,1-12.53-.61,44.71,44.71,0,0,1-9.59-2.31,4.28,4.28,0,0,0-1.53-.44,6.58,6.58,0,0,0,2.5,4.28,13.87,13.87,0,0,0,5.46,2.77,39.68,39.68,0,0,0,10.5,1.43,112.8,112.8,0,0,0,14-.57,31,31,0,0,0,9.31-2,8.62,8.62,0,0,0,4.88-4.76,36.65,36.65,0,0,0,2.25-8.28,77.5,77.5,0,0,0,.87-9.84c.09-2.62.2-5.23.09-7.85,0-.71.05-1.42.07-2.13,0-.4-.14-.58-.58-.49C1659.88,237.34,1658.14,237.66,1656.41,238Z"/><path class="cls-5" d="M1725.22,125.79a1,1,0,0,0-.86.27c-1,.65-1.94,1.27-2.92,1.91a2.07,2.07,0,0,1-.94.43c.45,2.1.91,4.2,1.36,6.31.51,2.38.88,4.78,1.24,7.19.06.41.13.83.2,1.24.11.06.2.13.06.25l.13.6c.34.07.38.39.48.64.35.89.67,1.79,1,2.67a80.93,80.93,0,0,1,2.86,9c.47,1.81,1.73,6,2.15,7.81,2.72-1.26,6.16-5.66,8-8,.46-.59-.43-1.4,0-2,.31-.44-.55-.55-.71-1.08a101.08,101.08,0,0,0-4.4-12.18,145.3,145.3,0,0,0-6.61-13.21C1725.93,127,1725.57,126.41,1725.22,125.79Z"/><path class="cls-6" d="M1686,238.1a11.82,11.82,0,0,1,.85-3,65.18,65.18,0,0,0,5.29-7.59,39.64,39.64,0,0,0,4.69-11.94,20.63,20.63,0,0,0,.52-6.12c0-.26,0-.56-.4-.33.27.49-.21.6-.43.8a23.74,23.74,0,0,1-6.47,4.24,36.61,36.61,0,0,1-9.32,2.87c-.54.09-2.72-.39-2.73.12,0,.35,0,1.64,0,2-.1,2.37-.73,4.64-1,7s-1.65,4.8-2,7c-.19,1.18,2.93,2.57,4,3C1681.27,237,1683.66,237.4,1686,238.1Z"/><path class="cls-7" d="M1740,67.1c.23-1.4-.55-1.68-1-3-1.43-4.22-7.6-3.52-11.53-1.71a12.72,12.72,0,0,0-6.49,7.28,12,12,0,0,0-.58,8c.71,2.41,1.07,5.81,3.6,6.43,1.43.35,4.67,1.56,6,1s6-.92,7-2c2.13-2.22,2.25-9.08,3-12C1740.12,70.62,1740,67.59,1740,67.1Z"/><path class="cls-6" d="M1646.88,205.51a5.21,5.21,0,0,0-.07,2.42,52.38,52.38,0,0,0,5.84,22.22c.71,1.34,1.54,2.63,2.32,3.94a.9.9,0,0,1,.2.59c2.08-.22,4.12-.71,6.17-1.07a.84.84,0,0,0,.82-1c0-2,0-4,0-5.94-.05-1.52,0-3,0-4.56,0-1.85.23-3.69.34-5.53.06-.82,0-.81-.75-1.09a34.89,34.89,0,0,1-12.49-7.33C1648.42,207.35,1647.75,206.34,1646.88,205.51Z"/><path class="cls-6" d="M1668.28,177.73a42.24,42.24,0,0,1-5.51-.21,13.05,13.05,0,0,1-7.55-3.55,13.91,13.91,0,0,1-2.85-4.56c-.77-1.87-1.46-3.77-2.23-5.63-.5-1.21-3.14-12.68-2.14-14.68.16-.32.4,0,0,0-.19.28-2,10.68-2,11-.42,5.3-1.63,11.69-2,17-.25,3.54,3.67,5.51,6.31,6.41a6,6,0,0,0,1.25.24l15.18,1.18.21,0c.82,0,.84,0,.9-.76.14-1.62.27-3.25.38-4.88A5.23,5.23,0,0,0,1668.28,177.73Z"/><path class="cls-10" d="M1643.61,24a46.89,46.89,0,0,1,19.68-7.22,70,70,0,0,1,13-.59c1.39.06,2.77.09,4.14.24,3,.3,6,.69,8.94,1.22a121.92,121.92,0,0,1,12.69,3,95.65,95.65,0,0,1,26,11.64A59,59,0,0,1,1739,41.44c2.83,3,5.1,12,7,15.66.21-.06,5-.85,5-1-1.35-3.18-4.92-10.25-7-13-5.37-7.11-15.1-13.38-22.83-17.69a94.4,94.4,0,0,0-24.23-9.25,99.09,99.09,0,0,0-12.34-2.11c-2.44-.26-4.87-.38-7.31-.41a63.46,63.46,0,0,0-14.54,1.4A50,50,0,0,0,1646,21.79a26.3,26.3,0,0,0-3.27,2.35C1643,24.28,1643.3,24,1643.61,24Z"/><path class="cls-9" d="M1714,118.1c-26,3.92-53.11-1.46-73.19-18.92.78,2.35,9.06,10.21,13.9,13.39a61.23,61.23,0,0,0,17.53,8c6.23,1.72,13.3,3.76,19.76,3.51C1697.53,123.88,1710.5,120,1714,118.1Z"/><path class="cls-5" d="M1639.35,116.94a.83.83,0,0,0-.27-.76c-1.06-1.26-2.17-2.48-3.13-3.82-.16-.23-.34-.46-.66-.45-2.31,1.7-4.54,3.51-7,5a14.58,14.58,0,0,1-2.85,1.42c-.51.17-.54.38-.38.84a34,34,0,0,1,1.67,7.44,35.15,35.15,0,0,1-.72,11.7c-.08.35-.13.7-.19,1.05.36.21.51-.15.69-.31a45.3,45.3,0,0,0,5-5.19c.21-.26.33-.65.78-.62a17.32,17.32,0,0,0,1.2-3.27q2.12-6.21,4.57-12.3C1638.4,116.8,1638.45,116.77,1639.35,116.94Z"/><path class="cls-8" d="M1756.68,81.8c.43-.65,4.15-2,4.32-2.7.58-2.47.45-6.52,1-9,1.46-6.61-5.55-9.46-9.69-11.16a2,2,0,0,0-.92-.25c0,2,.15,4,0,6-.15,2.65-.34,5.29-.75,7.92a64,64,0,0,1-2.81,11.18c-.13.39,0,.85-.33,1.2a13.68,13.68,0,0,0,8.59-2.88A.82.82,0,0,1,1756.68,81.8Z"/><path class="cls-8" d="M1617.88,50.68l-.09,1c.39,0,.46.39.63.64A14.11,14.11,0,0,0,1620.6,55a17.5,17.5,0,0,0,4.32,2.8c.22-1.65.42-3.3.67-5a61.42,61.42,0,0,1,2.81-11.18,70.46,70.46,0,0,1,3.68-8.46c.06-.12.12-.25.23-.45a5.76,5.76,0,0,0-2.53-.14,11.55,11.55,0,0,0-9.92,9c-.66,2.75-1.2,5.52-1.79,8.29,0,.17,0,.35-.06.52A.2.2,0,0,1,1617.88,50.68Z"/><path class="cls-8" d="M1725,183.1c-.09.25-2.09.72-2,1a8.91,8.91,0,0,1,1,2c-.13,1.72-1.13,5.19-1,7,1.29-.65,5.9-2.18,7-3,2.74-2.06,4-5.89,5.83-8.79a21.87,21.87,0,0,0,3.41-9.16,24,24,0,0,0,.3-2.41,51,51,0,0,0-1.22-12.47A34,34,0,0,1,1728,166.1c1.22.71,2.19,1,3,2,1.18,1.44,1.8,2.16,2,4,.29,2.63,1.26,4.7-.43,6.72a9.08,9.08,0,0,1-5.27,3.16,4,4,0,0,0-.59.86C1726.35,183.46,1725.59,182.62,1725,183.1Z"/><path class="cls-5" d="M1731.15,171.33a5.77,5.77,0,0,0-5.11-4.42c-3.61-.2-7.23-.28-10.83-.65-2.47-.26-4.94-.48-7.37-1-.17,0-.35,0-.53-.06-.37-.07-1.29-.47-1.31-.12-.07,1-.93,1-1,2s-.93,3.93-1,5c2.58.8,7.59,1,10.25,1.3,1.51.19,3,.18,4.55.23,2.3.09,4.6,0,6.89,0a8,8,0,0,0,3.59-.84A3.42,3.42,0,0,0,1731.15,171.33Z"/><path class="cls-9" d="M1622.34,162.2a6,6,0,0,0,4.17,8.84,90.33,90.33,0,0,0,11.68,1.6c1.27.08,2.55.07,3.82.08.79,0,.87-.07.93-.81.14-1.77.26-3.54.38-5.31a4.06,4.06,0,0,1-.83.12c-1.6-.1-3.19,0-4.79-.13l-4.12-.48c-2.18-.25-4.34-.67-6.51-1a7.77,7.77,0,0,1-4.15-2A1.4,1.4,0,0,1,1622.34,162.2Z"/><path class="cls-9" d="M1731.15,171.33a3.42,3.42,0,0,1-1.87,1.47,8,8,0,0,1-3.59.84c-2.29,0-4.59.08-6.89,0-1.52,0-3,0-4.55-.23-2.66-.35-7.67-.5-10.25-1.3-.13,1.48-.84,3.52-1,5-.06.53,2.49,1.89,3,2,1.14.24,3.85.79,5,1a60.45,60.45,0,0,0,9,1c2.33.05,4.67.15,7,0,3.21-.22,4.27-5,4.39-8.11A3.9,3.9,0,0,0,1731.15,171.33Z"/><path class="cls-9" d="M1694.31,209.73a17.42,17.42,0,0,0-3.61,0c-2.61.07-5.23.18-7.85.18-2.3,0-4.59,0-6.89,0-.82,0-1.63-.06-2.44-.13-2.58-.2-5.17-.36-7.74-.66-2.14-.25-4.27-.62-6.39-1s-4.17-.81-6.26-1.21a21.37,21.37,0,0,0-3.63-.71,48.81,48.81,0,0,0,5.11,2.57,90.34,90.34,0,0,0,9.78,3.87,21.38,21.38,0,0,0,4,.72,60.12,60.12,0,0,0,8.59.51,30.72,30.72,0,0,0,5.56-.83,103,103,0,0,0,11.18-3C1693.9,210,1694.18,210,1694.31,209.73Z"/><path class="cls-5" d="M1622.34,162.2a1.4,1.4,0,0,0,.58.85,7.77,7.77,0,0,0,4.15,2c2.17.37,4.33.79,6.51,1l4.12.48c1.6.17,3.19,0,4.79.13a4.06,4.06,0,0,0,.83-.12l.48-5.91-.16-.2c-1.23-.07-2.46-.15-3.69-.18-2.3-.07-4.59-.3-6.87-.52-1.69-.17-3.37-.44-5.06-.55A5.77,5.77,0,0,0,1622.34,162.2Z"/><path class="cls-9" d="M1624.92,57.82a17.5,17.5,0,0,1-4.32-2.8,14.11,14.11,0,0,1-2.18-2.69c-.17-.25-.24-.6-.63-.64a11.58,11.58,0,0,0,1.37,11.1,10.84,10.84,0,0,0,4.72,3.83,2.37,2.37,0,0,0,1,.29C1624.74,63.87,1624.79,60.84,1624.92,57.82Z"/><path class="cls-7" d="M1709.88,91.77a4,4,0,0,0,5.94,4.08A5.68,5.68,0,0,0,1719,90.3a3.94,3.94,0,0,0-5-3.58A5.51,5.51,0,0,0,1709.88,91.77Z"/><path class="cls-9" d="M1760,80.1a38.1,38.1,0,0,0-3.88,2,13.68,13.68,0,0,1-8.59,2.88c-.7,1.66-1.39,3.32-2.1,5-.41,1-3,4.17-3.43,5.18a21.94,21.94,0,0,0,5,1c4.85-.61,11-7.23,12-12C1759.14,83.41,1760.15,80.83,1760,80.1Z"/><path class="cls-9" d="M1632.28,133.24c-.45,0-.57.36-.78.62a45.3,45.3,0,0,1-5,5.19c-.18.16-.33.52-.69.31l-.66,2.1A17.68,17.68,0,0,1,1620,150a5.73,5.73,0,0,0,2-.52,34.79,34.79,0,0,0,6.19-3,1.66,1.66,0,0,0,.79-1.06c1-3.8,2-7.57,3.23-11.31A1.38,1.38,0,0,0,1632.28,133.24Z"/><path class="cls-8" d="M1588.5,99.85a29,29,0,0,0,3.23,1.56,19,19,0,0,1-4.14-1.84l-.09,0a5.71,5.71,0,0,0-1.43-.89,1.84,1.84,0,0,1,.79-2.21l.06,0a4.69,4.69,0,0,1,1.24-.53l-.51,3.32A3,3,0,0,0,1588.5,99.85Z"/><path class="cls-6" d="M1611.06,112.55a2.72,2.72,0,0,0-.72.45,11.54,11.54,0,0,1-5.35,2.2,27.66,27.66,0,0,1-2.87.19l.48-3.16h0a2.38,2.38,0,0,0,.15-.52,0,0,0,0,0,0,0,4,4,0,0,0,.11-1.26v0a1.07,1.07,0,0,0,0-.25,3.1,3.1,0,0,1,.28-1.49h0c0-.06,0-.13.08-.2a4.74,4.74,0,0,1,.55-1h0s0,0,0,0a2.63,2.63,0,0,1,2-1.19c.57-.06,1-.61,1.64-.63C1607.53,108.51,1608.26,111.07,1611.06,112.55Z"/><path class="cls-8" d="M1586.7,108.16a15.11,15.11,0,0,0,3,1.7,17.25,17.25,0,0,1-3.39-1.68l-.24-.15c-.49-.32-.78-.94-1.46-1a2.73,2.73,0,0,1,.65-2h0c.43-.73.45-.73,1.23-.33l.32.16-.46,3.07C1586.45,108,1586.57,108.07,1586.7,108.16Z"/><path class="cls-8" d="M1599.45,110.38l-.35.12a1.18,1.18,0,0,0,.19-.11l.15-.11A.31.31,0,0,1,1599.45,110.38Z"/><path class="cls-9" d="M1730,164.1c-.42-1.82-1.68-6-2.15-7.81a80.93,80.93,0,0,0-2.86-9c-.35-.88-.67-1.78-1-2.67-.1-.25-.14-.57-.48-.64a6.8,6.8,0,0,0-.49,2.11c.45,3.93.75,8.05,1,12,.11,1.65-1.1,4.34-1,6,0,.66,2.39,1.18,3,1C1727.18,164.74,1728.94,164.76,1730,164.1Z"/><path class="cls-9" d="M1610,85a1.72,1.72,0,0,1-1,1.33,7,7,0,0,0-1.3.92c-.35.3-.68.61-1,.92a33,33,0,0,0-5.6,6.65c-.3.48-.57.7-1.13.42a23.32,23.32,0,0,0-4.25-1.71,20.45,20.45,0,0,0-5.11-.84,1.08,1.08,0,0,1-.9-.47c-.23-.32-.5-.61-.74-.93a3.43,3.43,0,0,1-.51-.85,2.11,2.11,0,0,1,.62.05,4.91,4.91,0,0,1,.83.24c1.37.53,2.75,1,4.11,1.58a11.38,11.38,0,0,0,1.79.51,12.15,12.15,0,0,0,1.91.23,3.86,3.86,0,0,0,1.6-.28,4.05,4.05,0,0,0,1.62-1.13,41.5,41.5,0,0,1,7-6.15c.66-.49,1.31-1,2-1.41A2.5,2.5,0,0,1,1610,85Z"/><path class="cls-9" d="M1599.45,110.38a1.37,1.37,0,0,1-.75,1.4,4.64,4.64,0,0,1-2.19.73,17.46,17.46,0,0,1-4.29-.16,15.18,15.18,0,0,1-6.15-2.53l0,0a4.24,4.24,0,0,1-1.28-1.35,1.39,1.39,0,0,1-.18-1.4c.68,0,1,.66,1.46,1l.24.15a17.25,17.25,0,0,0,3.39,1.68l.2.08a19.16,19.16,0,0,0,2.49.71l.1,0a12.85,12.85,0,0,0,6.63-.17Z"/><path class="cls-9" d="M1598.07,104.64c-.49,0-.88,0-1.26-.11a26.2,26.2,0,0,1-3.3-.72,29.73,29.73,0,0,1-5.82-2.33l-.35-.21a3,3,0,0,1-1.27-2.64,5.71,5.71,0,0,1,1.43.89l.09,0a19,19,0,0,0,4.14,1.84l0,0a17,17,0,0,0,2,.48,21.23,21.23,0,0,0,3.3.37,3.88,3.88,0,0,0,.27.79C1597.58,103.57,1597.88,104.07,1598.07,104.64Z"/><path class="cls-9" d="M1729.12,122.67a20.49,20.49,0,0,0-3.27-7.32,1.09,1.09,0,0,0-.13-.17c-.68-.91-.68-.91-1.65-.26s-1.08.73-.34,1.9c1.42,2.27,2.83,4.56,4.25,6.84A1.28,1.28,0,0,1,1729.12,122.67Z"/><path class="cls-9" d="M1610.6,99.23c-.7-.63-1.44-.37-2.17-.08-1.58.62-3.13,1.3-4.76,1.79a10.07,10.07,0,0,1-3.22.49,2.44,2.44,0,0,0,2.86,1.9,8.4,8.4,0,0,0,4.54-2.54,5.89,5.89,0,0,0,.72-.78A1.85,1.85,0,0,1,1610.6,99.23Z"/><path class="cls-9" d="M1633.65,108.78c1.25-.72,2.33-1.68,3.55-2.46l2.58-1.65c.19-.12.54-.2.32-.53s-.31-.58-.7-.55a1.21,1.21,0,0,0-.3.11,19.54,19.54,0,0,0-6.3,4.37C1633.16,108.21,1633.24,108.7,1633.65,108.78Z"/><path class="cls-10" d="M1627.47,150.84,1625,152c-.23.11-.43.23-.45.53-.09,1.26-.19,2.52-.29,3.76l.2,0c.64-.16,1.47-.14,1.87-.54s.38-1.24.53-1.89c.12-.48.25-1,.32-1.44A5.52,5.52,0,0,0,1627.47,150.84Z"/><path class="cls-9" d="M1644.4,152.12a5.76,5.76,0,0,0-1.19,3,4.34,4.34,0,0,0-.06.63c-.09,1.1-.09,1.09-1.2,1.15a1.37,1.37,0,0,0-.38.15,8.83,8.83,0,0,0,2,.08.56.56,0,0,0,.59-.6C1644.2,155.06,1644.48,153.6,1644.4,152.12Z"/><path class="cls-10" d="M1633.65,108.78c-.41-.08-.49-.57-.85-.71a12.43,12.43,0,0,0-2.51,3.21A22.89,22.89,0,0,0,1633.65,108.78Z"/><path class="cls-10" d="M1729.12,122.67a1.28,1.28,0,0,0-1.14,1l1.53,2.65A12.87,12.87,0,0,0,1729.12,122.67Z"/><path class="cls-9" d="M1707.92,161.83a9.26,9.26,0,0,0-.1-3.48c-.06-.24-.06-.5-.3-.66a25.57,25.57,0,0,0-.38,3.59C1707.07,161.93,1707.56,161.8,1707.92,161.83Z"/><path class="cls-6" d="M1725.51,184.64a6,6,0,0,0,1.2-1.8,4,4,0,0,1,.59-.86l-.62.09c-1.21.16-1.22.16-1.23,1.41C1725.45,183.87,1725.49,184.25,1725.51,184.64Z"/><path class="cls-7" d="M1746.3,51.08c0,.16,0,.35-.25.4.44,1,.87,2.05,1.36,3.18A6.25,6.25,0,0,0,1746.3,51.08Z"/><path class="cls-7" d="M1643.61,24c-.31,0-.57.27-.89.13A3.66,3.66,0,0,0,1641,26Z"/><path class="cls-7" d="M1623.07,173.45a.92.92,0,0,0-.15.93C1623.26,174.1,1623.17,173.79,1623.07,173.45Z"/><path class="cls-8" d="M1653.25,14.37l-.18,0c.06-.19.11-.06.17,0Z"/><path class="cls-6" d="M1668.68,172a.25.25,0,0,0,.09.29A.19.19,0,0,0,1668.68,172Z"/><path class="cls-9" d="M1643.64,160.49l.16.2C1643.86,160.54,1643.8,160.48,1643.64,160.49Z"/><path class="cls-9" d="M1617.88,50.68a.2.2,0,0,0,.13-.27A.24.24,0,0,0,1617.88,50.68Z"/><path class="cls-6" d="M1725.49,185.69a.18.18,0,0,0-.07-.27Z"/><path class="cls-9" d="M1600.52,100.43a.19.19,0,0,0,.13-.26A.21.21,0,0,0,1600.52,100.43Z"/><path class="cls-6" d="M1647.72,152.87a.24.24,0,0,0,.14-.27C1647.73,152.65,1647.67,152.74,1647.72,152.87Z"/><path class="cls-6" d="M1704.07,156.8a.18.18,0,0,0,.08.27A.21.21,0,0,0,1704.07,156.8Z"/><path class="cls-9" d="M1695,209.59c-.1-.05-.18-.05-.23.06S1694.93,209.67,1695,209.59Z"/><path class="cls-9" d="M1723.36,143.39c.14-.12.05-.19-.06-.25Z"/><path class="cls-9" d="M1707.49,156.45l0,.24"/><path class="cls-9" d="M1608.45,83.44a.27.27,0,0,0,.09.29A.19.19,0,0,0,1608.45,83.44Z"/><path class="cls-11" d="M1682.15,168.38c.2.1.16.28.16.46a7.77,7.77,0,0,0,4.26,6.87,8,8,0,0,0,8.37-.31,7.81,7.81,0,0,0,3.1-3.66c.12-.28.09-.65.44-.8a13.3,13.3,0,0,0,0-4.13,8.2,8.2,0,0,0-16.06,0A6.36,6.36,0,0,0,1682.15,168.38Zm3.91-3.14,0,0a.49.49,0,0,1,.13-.38,5.59,5.59,0,0,1,7.1-1.29,3.51,3.51,0,0,1,2,2.16v0c.34-.06.21.2.23.36a2.8,2.8,0,0,1,.59,2.07c0,.36,0,.71,0,1.07a5.56,5.56,0,0,1-6.39,4.83,5.47,5.47,0,0,1-4.65-4.41c-.16-.67-.46-1.45.08-2.13a3.06,3.06,0,0,1,.67-2C1685.84,165.39,1685.88,165.22,1686.06,165.24Z"/><path class="cls-12" d="M1685.74,165.48a3.06,3.06,0,0,0-.67,2,11.46,11.46,0,0,1,1.78,1.48,6.77,6.77,0,0,0,7.92.06c.41-.32.72-.79,1.28-.9a2.8,2.8,0,0,0-.59-2.07c-.06-.14-.36-.11-.23-.36v0c-.34,0-.48-.26-.7-.42a6.66,6.66,0,0,0-6.92-.88c-.55.23-1.06.54-1.59.81l0,0C1686,165.4,1685.86,165.42,1685.74,165.48Z"/><path class="cls-13" d="M1696.05,168.16c-.56.11-.87.58-1.28.9a6.77,6.77,0,0,1-7.92-.06,11.46,11.46,0,0,0-1.78-1.48c-.54.68-.24,1.46-.08,2.13a5.47,5.47,0,0,0,4.65,4.41,5.56,5.56,0,0,0,6.39-4.83C1696,168.87,1696.05,168.52,1696.05,168.16Z"/><path class="cls-10" d="M1686,165.26c.53-.27,1-.58,1.59-.81a6.66,6.66,0,0,1,6.92.88c.22.16.36.46.7.42a3.51,3.51,0,0,0-2-2.16,5.59,5.59,0,0,0-7.1,1.29A.49.49,0,0,0,1686,165.26Z"/><path class="cls-10" d="M1695.23,165.73c-.13.25.17.22.23.36C1695.44,165.93,1695.57,165.67,1695.23,165.73Z"/><path class="cls-10" d="M1685.74,165.48c.12-.06.27-.08.32-.24C1685.88,165.22,1685.84,165.39,1685.74,165.48Z"/><path class="cls-14" d="M1564.18,256.29s5.74-6.43,2-8.38-12-8.65-9.16-9.53"/><path class="cls-15" d="M1569.73,247.51s-23.16,1-24.26,12.61,14.27,9.27,12.46,14-1.74,18.36,15.87,12.91c10.9-3.37,13.28-12.27,16.87-12.64,5.08-.52,8.95-19.09-.05-21.24-5-1.18-8-10.65-12.51-10.18s-20.95,7.8-22.39,9.57c-3.23,4-2.86,7.57-2.86,7.57"/><path class="cls-1" d="M1592,121.74l-.24,1.78c0,.33-.09.65-.13,1-.09.63-.17,1.27-.26,1.91a9.84,9.84,0,0,1-2.66-3.2c.63.1,1.25.19,1.87.24a17.89,17.89,0,0,1-1.35-2.06A22.08,22.08,0,0,0,1592,121.74Z"/><path class="cls-1" d="M1605.08,21.91q-2.6,20.28-5.2,40.14-1.28,9.72-2.54,19.34c0,.36-.09.72-.14,1.08-.25,1.91-.51,3.82-.76,5.72-.13,1-.25,1.93-.38,2.9a74.52,74.52,0,0,0-5.47-6.58c-.44,3.28-.88,6.56-1.32,9.82a1.37,1.37,0,0,0,.2.13,6.15,6.15,0,0,0,1.13,1.44.81.81,0,0,0,.83.27,23.69,23.69,0,0,1,4-.27c-.06.41-.11.81-.17,1.22,0,.22,0,.44-.08.67-.09.64-.17,1.28-.26,1.92s-.17,1.26-.25,1.89h0a12.9,12.9,0,0,0-5.63.56q-.43.16-.84.36l-.51,3.7a2.36,2.36,0,0,0,.85.6,19,19,0,0,0,3.23,1.12l0,0a13.47,13.47,0,0,0,2,.1l0,.28c-.08.62-.17,1.24-.25,1.86l-.27,2a21.78,21.78,0,0,1-6-1.71l-.13-.06c-.09.69-.19,1.38-.28,2.07-.15,1.13-.31,2.27-.46,3.4.11.08.23.18.36.26a11.41,11.41,0,0,0,3,1.41l.2,0a13.69,13.69,0,0,0,2.49.33.34.34,0,0,0,.1,0s0,.06,0,.09l-.24,1.8a11.34,11.34,0,0,1-6.15-1.8l0,0-.6,4.34a12.85,12.85,0,0,0,3,3.86,2.79,2.79,0,0,1,.91,2.69,76.33,76.33,0,0,0,0,12.28q-1.29,9.47-2.58,18.85c-2.14-.18-4.27-.43-6.41-.75-49.3-7.3-98.61-49.53-147.91-39.42q9.16-57.07,18.33-114.8c49.31-6.26,98.61,29,147.92,18.51C1600.81,23.09,1602.94,22.55,1605.08,21.91Z"/><path class="cls-16" d="M1498.69,83a16.61,16.61,0,0,0-3.14-2.79,241.37,241.37,0,0,0-23.23-15.08,8.88,8.88,0,0,1-4.38-4.92,6.51,6.51,0,0,1,0-4.27,5.59,5.59,0,0,1,4.29-3.78c2.54-.61,5.09-1.12,7.64-1.59,20.19-3.7,40.38-3.94,60.56-6.72,3.24-.46,5.87.84,8.14,3.4a1,1,0,0,1,.23.42A3.62,3.62,0,0,1,1548,49a31.09,31.09,0,0,1-3.23,3.26,156,156,0,0,1-15.34,11.93c-2.55,1.79-5.13,3.49-7.7,5.18-3.56,2.34-7.16,4.57-10.77,6.76-1.67,1-3.34,2-5,3-1.87,1.1-3.75,2.19-5.68,3.2A5.86,5.86,0,0,1,1498.69,83Z"/><path class="cls-12" d="M1498.69,83a5.86,5.86,0,0,0,1.52-.65c1.93-1,3.81-2.1,5.68-3.2q2.52-1.47,5-3c3.61-2.18,7.21-4.42,10.77-6.76,2.57-1.69,5.15-3.4,7.7-5.18a156,156,0,0,0,15.34-11.93A32.08,32.08,0,0,0,1548,49a3.42,3.42,0,0,0,.8-1.35c.18,0,.25.2.34.33a9.84,9.84,0,0,1,1.87,5.27,7.63,7.63,0,0,1-.53,3q-3.71,9.82-7.41,19.35-3.36,8.64-6.72,17-4,10.08-8,19.86c-.85,2.08-1.7,4.14-2.57,6.19-1.07,2.54-3.68,3.06-6.18,2.19a12.11,12.11,0,0,1-7.28-7c-1.72-4-3.37-8-5-12q-3.36-8-6.71-15.75A15.26,15.26,0,0,0,1498.69,83Z"/><path class="cls-12" d="M1601.35,120.51l-.78,5.1h0l-1.74,11.53-1.16,7.65-.16,1a16.86,16.86,0,0,1-2.08-3.17,31.15,31.15,0,0,1-3-11.12,80.58,80.58,0,0,1-.19-8.37c0-.23,0-.5.25-.69l.07,0c0-.28,0-.57,0-.85s0-.51.26-.69a10.23,10.23,0,0,1,1,.34,4.54,4.54,0,0,0,1.31.3c-.73-.56-1.48-1.11-2.18-1.69a5,5,0,0,1-1.62-1.63l0,0a11.69,11.69,0,0,1-2.66-3.32c.63.18,1.25.35,1.87.49a21.45,21.45,0,0,1-1.35-2.09c.93.29,1.85.55,2.77.75l-.24,1.59-.13.87.24.2a4.83,4.83,0,0,0,1.58,1.66l1.36,1.12h0c.3.09.61.17.91.24s.65.15,1,.21.46.1.7.13l.4.07.83.12c.46.06.92.11,1.37.14l.63,0,.62,0Z"/><path class="cls-12" d="M1597,149l-18.58,122.89a1.5,1.5,0,0,1-1.71,1.26l-13.57-2.06a1.49,1.49,0,0,1-1.26-1.7l18.42-121.83,5.12-33.85a14.4,14.4,0,0,0,3,3.9,2.74,2.74,0,0,1,.91,2.59,64.16,64.16,0,0,0,0,11.26c.08.84.19,1.67.32,2.51a30.23,30.23,0,0,0,3,9.5A18.15,18.15,0,0,0,1597,149Z"/><path class="cls-6" d="M1606.55,86.13l-.17,1.06-.06.41-.75,5,0,.28-1.19,7.9-.2,1.3-.18,1.16-.82,5.46h0l-.27,1.74v0l-.21,1.41a5.4,5.4,0,0,1-1.31,1.25c-.44.3-.91.54-1.37.81a15.21,15.21,0,0,1-8,.18l.27-1.73a15.18,15.18,0,0,1-6.15-2.53l0,0,.24-1.62,0-.3c.11.09.23.19.36.28a15.11,15.11,0,0,0,3,1.7l.2.08a19.16,19.16,0,0,0,2.49.71l.1,0a12.85,12.85,0,0,0,6.63-.17,1.18,1.18,0,0,0,.19-.11l.15-.11a1.28,1.28,0,0,0,.62-1.27,3.59,3.59,0,0,0-.87-2,1.1,1.1,0,0,0-.83-.39,48.07,48.07,0,0,1-4.89-1l-.23-.07a33.67,33.67,0,0,1-6-2.55l-.13-.07.26-1.67.25-1.7.06-.4a3,3,0,0,0,.85.68,29,29,0,0,0,3.23,1.56l0,0a17,17,0,0,0,2,.48,21.23,21.23,0,0,0,3.3.37,8.76,8.76,0,0,1,.89-4.75,13.3,13.3,0,0,0-3.32-1.32h0a12.36,12.36,0,0,0-5.63-.55,7.35,7.35,0,0,0-.84.2l.2-1.37.53-3.5.11-.67.27-1.79.2.15a7.6,7.6,0,0,0,1.13,1.52,1,1,0,0,0,.83.4,21.23,21.23,0,0,1,4,.6,23,23,0,0,1,3.1,1,3.78,3.78,0,0,0,1.5-1A38,38,0,0,1,1606.55,86.13Z"/><path class="cls-12" d="M1618,10.32l-7.68,50.81-1.14,7.53-.9,5.93a50.85,50.85,0,0,0-.84-6.12,14.45,14.45,0,0,0-1-3.23,9.48,9.48,0,0,0-.68-1.2,2.12,2.12,0,0,0-2.72-1,8.7,8.7,0,0,0-1.46,3.32,36.67,36.67,0,0,0-.91,9.8,78.58,78.58,0,0,0,.75,9.93,1.66,1.66,0,0,1-1,1.9l-.07,0a1.59,1.59,0,0,1-1,1.35,1.78,1.78,0,0,1-2.19-.8c-.35-.55-.71-1.09-1.07-1.62a83.29,83.29,0,0,0-5.47-7.21l.4-2.6.66-4.38,7-46.44,2.8-18.51a1.51,1.51,0,0,1,1.71-1.26l13.57,2.05A1.51,1.51,0,0,1,1618,10.32Z"/><path class="cls-15" d="M1556.41,268.87s30.67,5.93,29.93-1.26-7.94,12.95-7.94,12.95l-18-1.32Z"/><path class="cls-14" d="M1556,261.62s-10.24,5.05-9.18-1.48-1.85-1-3.7-1.94-10.41,6.33-10.32,1.66"/><path class="cls-14" d="M1568.61,276.53s5.36,12.26.69,12.17-3,10.22-1.16,11.2"/><path class="cls-14" d="M1586.52,269.41s6.71-8.28,8.47-2.63,11,10.51,13,6.81"/><path class="cls-5" d="M1594.76,119.52a15.38,15.38,0,0,1-2.58-1,1.43,1.43,0,0,0-.81-.21l0,0a11.69,11.69,0,0,1-2.66-3.32c.63.18,1.25.35,1.87.49.39.1.79.18,1.18.25l-.13.87.24.2a4.83,4.83,0,0,0,1.58,1.66Z"/><path class="cls-5" d="M1620.65,101.77a2.12,2.12,0,0,0-.28,1.43,19.77,19.77,0,0,1-2.84,9,15.76,15.76,0,0,1-9.54,7.36q-.39.12-.78.21t-.78.18l-.53.11-.51.09-.53.08c-.26,0-.52.08-.78.1-.47.05-.95.09-1.43.11l-.94,0h-.36l.77-5.12a27.66,27.66,0,0,0,2.87-.19,11.54,11.54,0,0,0,5.35-2.2,2.72,2.72,0,0,1,.72-.45c.53,0,1.12.56,1.58,0a.92.92,0,0,0,.16-.85h0s0,0,0,0,0,0,0-.07l-.09-.25c0-.13-.1-.25-.14-.37-.31-.9-.62-1.8-1-2.68a8.24,8.24,0,0,1,0-6.55c.5-1.23.22-1.86-1-2.49a1.34,1.34,0,0,0-.47-.29l-.19-.06-.06,0a1.4,1.4,0,0,0-.5,0h-.08l-.09,0-.18,0-.23.07-.37.14-1.58.64c-.49.19-1,.39-1.48.57-.32.13-.65.24-1,.35l-.05,0-.67.22-.74.2-.59.13-.45.07h-.13l-.44,0a6.33,6.33,0,0,1-.87,0,2.8,2.8,0,0,1,.07-1,.2.2,0,0,0,.13-.27,4,4,0,0,1,.51-1.38,23.35,23.35,0,0,1,2.21-3.51,0,0,0,0,1,0,0s0,0,0,0a24.52,24.52,0,0,1,2.14-2.42,26.82,26.82,0,0,1,2.71-2.38,11.6,11.6,0,0,1,3.7-2,2.31,2.31,0,0,1,2.8.87,37.4,37.4,0,0,1,2.9,4.17A21.14,21.14,0,0,1,1620.65,101.77Z"/><path class="cls-17" d="M1639.81,116.42a3.06,3.06,0,0,0-.61-.09.57.57,0,0,1,.08.13.63.63,0,0,1,.09.33.78.78,0,0,1,0,.14.64.64,0,0,1,.55.12A1,1,0,0,0,1639.81,116.42Zm-26.68-6.56c-.29-.91-.57-1.81-.92-2.7a8.29,8.29,0,0,1,.15-6.55c.54-1.22.27-1.85-.91-2.51a1.89,1.89,0,0,0-2,.74l0,0a1.4,1.4,0,0,1,.5,0l.06,0,.19.06a1.34,1.34,0,0,1,.47.29c1.19.63,1.47,1.26,1,2.49a8.24,8.24,0,0,0,0,6.55c.36.88.67,1.78,1,2.68,0,.12.1.24.14.37l.09.25s0,.05,0,.07,0,0,0,0h0a.64.64,0,0,0,.4-.24C1613.63,111,1613.3,110.39,1613.13,109.86Zm26.68,6.56a3.06,3.06,0,0,0-.61-.09.57.57,0,0,1,.08.13.63.63,0,0,1,.09.33.78.78,0,0,1,0,.14.64.64,0,0,1,.55.12A1,1,0,0,0,1639.81,116.42Zm-26.68-6.56c-.29-.91-.57-1.81-.92-2.7a8.29,8.29,0,0,1,.15-6.55c.54-1.22.27-1.85-.91-2.51a1.89,1.89,0,0,0-2,.74l0,0a1.4,1.4,0,0,1,.5,0l.06,0,.19.06a1.34,1.34,0,0,1,.47.29c1.19.63,1.47,1.26,1,2.49a8.24,8.24,0,0,0,0,6.55c.36.88.67,1.78,1,2.68,0,.12.1.24.14.37l.09.25s0,.05,0,.07,0,0,0,0h0a.64.64,0,0,0,.4-.24C1613.63,111,1613.3,110.39,1613.13,109.86Zm26.68,6.56a3.06,3.06,0,0,0-.61-.09.57.57,0,0,1,.08.13.63.63,0,0,1,.09.33.78.78,0,0,1,0,.14.64.64,0,0,1,.55.12A1,1,0,0,0,1639.81,116.42Zm-26.68-6.56c-.29-.91-.57-1.81-.92-2.7a8.29,8.29,0,0,1,.15-6.55c.54-1.22.27-1.85-.91-2.51a1.89,1.89,0,0,0-2,.74l0,0a1.4,1.4,0,0,1,.5,0l.06,0,.19.06a1.34,1.34,0,0,1,.47.29c1.19.63,1.47,1.26,1,2.49a8.24,8.24,0,0,0,0,6.55c.36.88.67,1.78,1,2.68,0,.12.1.24.14.37l.09.25s0,.05,0,.07,0,0,0,0h0a.64.64,0,0,0,.4-.24C1613.63,111,1613.3,110.39,1613.13,109.86Zm26.68,6.56a3.06,3.06,0,0,0-.61-.09.57.57,0,0,1,.08.13.63.63,0,0,1,.09.33.78.78,0,0,1,0,.14.64.64,0,0,1,.55.12A1,1,0,0,0,1639.81,116.42Zm-26.68-6.56c-.29-.91-.57-1.81-.92-2.7a8.29,8.29,0,0,1,.15-6.55c.54-1.22.27-1.85-.91-2.51a1.89,1.89,0,0,0-2,.74l0,0a1.4,1.4,0,0,1,.5,0l.06,0,.19.06a1.34,1.34,0,0,1,.47.29c1.19.63,1.47,1.26,1,2.49a8.24,8.24,0,0,0,0,6.55c.36.88.67,1.78,1,2.68,0,.12.1.24.14.37l.09.25s0,.05,0,.07,0,0,0,0h0a.64.64,0,0,0,.4-.24C1613.63,111,1613.3,110.39,1613.13,109.86Zm26.68,6.56a3.06,3.06,0,0,0-.61-.09.57.57,0,0,1,.08.13.63.63,0,0,1,.09.33.78.78,0,0,1,0,.14.64.64,0,0,1,.55.12A1,1,0,0,0,1639.81,116.42Zm-26.68-6.56c-.29-.91-.57-1.81-.92-2.7a8.29,8.29,0,0,1,.15-6.55c.54-1.22.27-1.85-.91-2.51a1.89,1.89,0,0,0-2,.74l0,0a1.4,1.4,0,0,1,.5,0l.06,0,.19.06a1.34,1.34,0,0,1,.47.29c1.19.63,1.47,1.26,1,2.49a8.24,8.24,0,0,0,0,6.55c.36.88.67,1.78,1,2.68,0,.12.1.24.14.37l.09.25s0,.05,0,.07,0,0,0,0h0a.64.64,0,0,0,.4-.24C1613.63,111,1613.3,110.39,1613.13,109.86Zm26.68,6.56a3.06,3.06,0,0,0-.61-.09.57.57,0,0,1,.08.13.63.63,0,0,1,.09.33.78.78,0,0,1,0,.14.64.64,0,0,1,.55.12A1,1,0,0,0,1639.81,116.42Zm-26.68-6.56c-.29-.91-.57-1.81-.92-2.7a8.29,8.29,0,0,1,.15-6.55c.54-1.22.27-1.85-.91-2.51a1.89,1.89,0,0,0-2,.74l0,0a1.4,1.4,0,0,1,.5,0l.06,0,.19.06a1.34,1.34,0,0,1,.47.29c1.19.63,1.47,1.26,1,2.49a8.24,8.24,0,0,0,0,6.55c.36.88.67,1.78,1,2.68,0,.12.1.24.14.37l.09.25s0,.05,0,.07,0,0,0,0h0a.64.64,0,0,0,.4-.24C1613.63,111,1613.3,110.39,1613.13,109.86Zm-16.49,11.29a3.84,3.84,0,0,0-.6-.61l-1.28-1-1.36-1.12a4.83,4.83,0,0,1-1.58-1.66l-.24-.2a6.55,6.55,0,0,1-1-1.12c-.62-.14-1.24-.31-1.87-.49a11.69,11.69,0,0,0,2.66,3.32l0,0a5,5,0,0,0,1.62,1.63c.7.58,1.45,1.13,2.18,1.69h0c.4,0,.79.06,1.19.08S1596.87,121.46,1596.64,121.15ZM1761.27,62.6a14.25,14.25,0,0,0-7.64-5.49,1.22,1.22,0,0,1-1-1.24,58.41,58.41,0,0,0-2.49-11.62,63.67,63.67,0,0,0-9.81-19A62,62,0,0,0,1716.52,6,63.8,63.8,0,0,0,1699.37.76a62.2,62.2,0,0,0-24,.91,63.14,63.14,0,0,0-22.88,10.45A62.13,62.13,0,0,0,1637.16,28a1.37,1.37,0,0,1-1.63.71,14.38,14.38,0,0,0-11.43,2.84,15.14,15.14,0,0,0-5.65,9.22c-.77,3.42-1.61,6.82-2.48,10.21a15.1,15.1,0,0,0,2.47,13.42,14.08,14.08,0,0,0,7.39,5.13,1.21,1.21,0,0,1,1,1.22,62.88,62.88,0,0,0,8.3,24.62c.82,1.41,1.7,2.78,2.63,4.13.43.62.43.64-.28,1a23.57,23.57,0,0,0-9.82,8.55,21.49,21.49,0,0,0-2.2,4.36,1.79,1.79,0,0,1-1.91,1.15.7.7,0,0,1-.59-.94c.16-.54.39-1.06.59-1.59a23.79,23.79,0,0,0-.66-18.51,34.23,34.23,0,0,0-4.64-7.61,5.06,5.06,0,0,0-4.31-2.09c-.91,0-1-.09-1-1,.13-1.49.14-3,.14-4.46a54.45,54.45,0,0,0-1.19-13,15.41,15.41,0,0,0-1.61-4.15l0-.06c-2.36-4-7-3.38-9.31-1a8.86,8.86,0,0,0-1.14,1.48,13.44,13.44,0,0,0-1.41,3.36,35.07,35.07,0,0,0-1.16,8.71c0,1.56,0,3.12,0,4.74,0,.36,0,.72,0,1.09a1.14,1.14,0,0,1-.16-.15,10.42,10.42,0,0,1-1.25-1.54,61.66,61.66,0,0,0-4.3-5.1,34.66,34.66,0,0,0-3.61-3.34,13.89,13.89,0,0,0-4.12-2.41,6,6,0,0,0-5.61.47,4.72,4.72,0,0,0-2.13,3.4,10.9,10.9,0,0,0,1.09,6,44.9,44.9,0,0,0,5.21,8.64c1.45,2,2.93,3.91,4.59,5.78a6.41,6.41,0,0,0-2.62,2,5.9,5.9,0,0,0-.73,5.27,2.57,2.57,0,0,1-.43,2.7,7,7,0,0,0-1.53,3.9,5.27,5.27,0,0,0,1.26,4,9.55,9.55,0,0,1,1.6,2.72,17.06,17.06,0,0,0,.83,1.79l.6-3.93,0,0a15.18,15.18,0,0,0,6.15,2.53l-.27,1.73a15.21,15.21,0,0,0,8-.18c.46-.27.93-.51,1.37-.81a5.4,5.4,0,0,0,1.31-1.25l.09-.14a0,0,0,0,0,0,0,4.38,4.38,0,0,0,.72-2.84,3.19,3.19,0,0,1,.29-1.45h0s0,0,0,0l.09-.21a3.07,3.07,0,0,1,2.65-2.22c.57,0,1-.58,1.65-.58,0,3,.69,5.53,3.45,7.07.39,0,.8.33,1.18.27a.64.64,0,0,0,.4-.24c.43-.49.1-1.07-.07-1.6-.29-.91-.57-1.81-.92-2.7a8.29,8.29,0,0,1,.15-6.55c.54-1.22.27-1.85-.91-2.51a1.89,1.89,0,0,0-2,.74l0,0h0a5.53,5.53,0,0,1-.71.74,8.42,8.42,0,0,1-4.53,2.42h-.07a2.68,2.68,0,0,1-2.18-.69,2,2,0,0,1-.64-1.26,2.61,2.61,0,0,1,.1-1,.21.21,0,0,1,.13-.26,3.73,3.73,0,0,1,.55-1.37,20.84,20.84,0,0,1,1.34-2.18,0,0,0,0,1,0,0s0,0,0,0a22.77,22.77,0,0,1,2.18-2.7,26.45,26.45,0,0,1,3.71-3.28,11.9,11.9,0,0,1,3.74-1.94,2.33,2.33,0,0,1,2.79.93,39.69,39.69,0,0,1,2.8,4.23,21,21,0,0,1,2.83,8.37s.12.1.13.16a19.19,19.19,0,0,1-.33,7.16,18.15,18.15,0,0,1-2.14,5.13l0,0a.08.08,0,0,1,0,0,29.32,29.32,0,0,1-2.21,3.19c-.79,1-1.57,2-2.37,3a1.17,1.17,0,0,0-.33,1,1.07,1.07,0,0,0,.15.38,4.67,4.67,0,0,0,3.14-.72,10.17,10.17,0,0,0,3.08-2.57c.16-.19.3-.52.55-.44a8.88,8.88,0,0,1,1.33.62c.25.13.29.39.37.62a32.47,32.47,0,0,1,1.75,11.26,28.42,28.42,0,0,1-.32,4v0s0,0,0,.05a25.58,25.58,0,0,1-.56,2.74,20.47,20.47,0,0,1-1.76,5.09,1.19,1.19,0,0,1-.14.61c-.07.16-.15.32-.23.48a12.78,12.78,0,0,1-8.12,6.85,9.59,9.59,0,0,1-4.5.52c-1.14-.2-2.3-.39-3.44-.65a13.93,13.93,0,0,1-7.77-4.62,17.43,17.43,0,0,1-2.32-3.59,31.15,31.15,0,0,1-2.71-11.18,67.38,67.38,0,0,1,0-7.52l-.07,0c-.29.19-.25.46-.25.69a80.58,80.58,0,0,0,.19,8.37,31.15,31.15,0,0,0,3,11.12,16.86,16.86,0,0,0,2.08,3.17h0L1597,149a18.32,18.32,0,0,0,8,3.77,32.74,32.74,0,0,0,14.77,0,1,1,0,0,1,.92,0c-.16,1.6-.33,3.25-.49,4.9,0,.28-.27.41-.42.6a9.26,9.26,0,0,0-1.12,10.54,2.81,2.81,0,0,1,.28,1.63c-.53,5.13-1,10.26-1.55,15.38a24.56,24.56,0,0,0,1.25,11,2.15,2.15,0,0,0,.19.5,5.19,5.19,0,0,1,.51,3.28c-.14,3.26-.2,6.51-.13,9.76,0,2.23,0,4.46.06,6.69.07,3.79.16,7.57.26,11.36q.12,4.56.26,9.13.14,4.29.29,8.59c0,.85.05.85-.81,1.16a28.32,28.32,0,0,0-7.65,3.89,13.5,13.5,0,0,0-5.48,7.85,10.78,10.78,0,0,0-.18,4.12,1.84,1.84,0,0,1,0,.74c.35.82.46,1.71.84,2.52a12.64,12.64,0,0,0,6.17,6.07,28.32,28.32,0,0,0,7.38,2.33,54.47,54.47,0,0,0,7.93.86c2.44.12,4.89.07,7.33,0a82.88,82.88,0,0,0,11.24-.84,23.86,23.86,0,0,0,6.9-2.1,10.66,10.66,0,0,0,5-4.8l.76-1.5c.07-.2.12-.41.2-.61a42.56,42.56,0,0,0,2.7-11.22c.52-4.08.73-8.19.87-12.3,0-1.41.1-2.83.12-4.25,0-2.93.06-5.87.13-8.8,0-1.67.15-3.33.16-5,0-2.31.41-4.58.39-6.89,0-.77.14-.82.93-.7,2.1.33,4.21.61,6.33.77,1,.07,2.06.1,3.08.13.35,0,.53.13.5.5s-.05.57-.08.85c-.37,2.78-.74,5.55-1.23,8.31s-1,5.43-1.47,8.14c-.72,3.86-1.43,7.72-2,11.61-.45,3-.74,6.13-1,9.21a41.08,41.08,0,0,0,.07,7.84c.15,1.3.34,2.59.51,3.89a1.56,1.56,0,0,1,.33.77c.75,3.27,2.86,5.48,5.59,7.2a32.45,32.45,0,0,0,7.51,3.23c2.4.76,4.85,1.33,7.3,1.93,2.72.66,5.45,1.27,8.22,1.68a52.77,52.77,0,0,0,7.95.69,27.2,27.2,0,0,0,7.88-1c3.57-1.06,6.38-3.05,7.9-6.58.09-.19.12-.42.34-.52.17-1.05.44-2.07.57-3.13a11.82,11.82,0,0,0-2.2-8.35,23.57,23.57,0,0,0-7.34-6.68l-.55-.33c-1.14-.7-1.15-.7-.82-2,1.18-4.6,2.24-9.22,3.29-13.84,1.24-5.45,2.51-10.89,3.69-16.35.67-3.15,1.37-6.3,1.92-9.47.36-2.06.78-4.11,1-6.18a3.23,3.23,0,0,1,.5-1.39,23.49,23.49,0,0,0,3.7-11.51,2.16,2.16,0,0,1,1.19-1.91,31.25,31.25,0,0,0,10.69-10.48,25.79,25.79,0,0,0,3.56-10.37,53,53,0,0,0-1.6-19.18,105.51,105.51,0,0,0-7.26-19.74,2.73,2.73,0,0,1-.26-1.53,33.56,33.56,0,0,0,.29-6.79,23.23,23.23,0,0,0-4.32-11.73c-.52-.73-.54-.73.15-1.24a57,57,0,0,0,13.76-14.66c.28-.42.5-.69,1.09-.55a12.61,12.61,0,0,0,6.51-.3,14.65,14.65,0,0,0,10.57-11.31c.92-3.85,1.92-7.68,2.78-11.55A14.68,14.68,0,0,0,1761.27,62.6Zm-126.93-30a71.29,71.29,0,0,0-3.85,8.38,61.27,61.27,0,0,0-3.06,11.12c-.28,1.64-.52,3.29-.77,4.93-.19,3-.31,6.05-.22,9.09a2.51,2.51,0,0,1-1-.31l-.59-.29a10.81,10.81,0,0,1-4-3.64,11.37,11.37,0,0,1-1.83-8.73,15.07,15.07,0,0,1,.7-2.4l.12-1a.22.22,0,0,1,.12-.26c0-.18,0-.35.08-.53.65-2.75,1.25-5.51,2-8.24a11.5,11.5,0,0,1,6.55-7.8h0a11.78,11.78,0,0,1,3.53-.93,5.6,5.6,0,0,1,2.52.19Zm-46.51,62.16a5.2,5.2,0,0,1,.53-.26,7,7,0,0,1,1.57-.42,11.47,11.47,0,0,1,5,.48l.64.19a13.56,13.56,0,0,1,3.32,1.4,8.92,8.92,0,0,0-1,4.73,23.41,23.41,0,0,0,.94,2.38c-.49,0-.88-.07-1.26-.13l-.19,0a25.64,25.64,0,0,1-3.6-.91c-.67-.22-1.34-.46-2-.73l0,0a29,29,0,0,1-3.23-1.56,3,3,0,0,1-.85-.68,3.17,3.17,0,0,1-.71-2.2,2.22,2.22,0,0,1-.08-.55A1.78,1.78,0,0,1,1587.83,94.74Zm11.61,15.54-.15.11a1.18,1.18,0,0,1-.19.11,4.65,4.65,0,0,1-2,.57,16.81,16.81,0,0,1-4.62-.32,14,14,0,0,1-2.58-.81l-.2-.08a15.11,15.11,0,0,1-3-1.7c-.13-.09-.25-.19-.36-.28a3.93,3.93,0,0,1-.91-1.12,1.36,1.36,0,0,1-.15-1.4,1.53,1.53,0,0,1,0-.36h0a3.44,3.44,0,0,1,.74-1.68c.42-.68.47-.72,1.1-.37l.13.07a33.67,33.67,0,0,0,6,2.55l.23.07a48.07,48.07,0,0,0,4.89,1,1.1,1.1,0,0,1,.83.39,3.59,3.59,0,0,1,.87,2A1.28,1.28,0,0,1,1599.44,110.28Zm10.29-27.72a3.52,3.52,0,0,1-.19,1.21,1.42,1.42,0,0,1-.89,1.87l-.18.08a12.55,12.55,0,0,0-2,1.41l-.08.06a29.13,29.13,0,0,0-5.25,5.39c-.29.39-.54.58-1.05.33s-1-.48-1.56-.69a23,23,0,0,0-3.1-1,21.23,21.23,0,0,0-4-.6,1,1,0,0,1-.83-.4,7.6,7.6,0,0,1-1.13-1.52l-.2-.15a4.43,4.43,0,0,1-.61-.69c-1-1.19-1.94-2.36-2.85-3.58a52.45,52.45,0,0,1-4.94-7.67,11.73,11.73,0,0,1-1.41-4.2,2.06,2.06,0,0,1,0-.61,2,2,0,0,1,2.75-1.74,8.9,8.9,0,0,1,2.92,1.46,32,32,0,0,1,5.84,5.66l.43.51a76.78,76.78,0,0,1,5,6.76c.61.9,1.2,1.82,1.77,2.75a1.79,1.79,0,0,0,2.11.86l.07,0a1.66,1.66,0,0,0,1-1.9,78.58,78.58,0,0,1-.75-9.93,36.67,36.67,0,0,1,.91-9.8,8.7,8.7,0,0,1,1.46-3.32,5.62,5.62,0,0,1,.46-.53c1-1,2.75-1.52,3.87.28A9.51,9.51,0,0,1,1608,64a14.64,14.64,0,0,1,1,3.25c.08.46.16.92.22,1.38a67.4,67.4,0,0,1,.45,13.62C1609.76,82.35,1609.8,82.44,1609.73,82.56Zm46.16-68.38h0c-.17-.47.31-.51.51-.64l1-.64a60.18,60.18,0,0,1,10.38-5.33,61.46,61.46,0,0,1,13-3.51,58.12,58.12,0,0,1,11.86-.62,56,56,0,0,1,7.17.8,63.5,63.5,0,0,1,6.42,1.47l1.72.52.1,0A59.58,59.58,0,0,1,1743,35.86a33.36,33.36,0,0,1,2.17,4.93,6.45,6.45,0,0,1-.84-.9q-.86-1.1-1.77-2.13h0a53.48,53.48,0,0,0-4-4.21,73.39,73.39,0,0,0-11.76-8.92,87,87,0,0,0-11.26-5.83l-.08,0-1.61-.68c-1.62-.66-3.25-1.27-4.9-1.85a100.42,100.42,0,0,0-19.57-4.79,86.07,86.07,0,0,0-11.34-.88,66.83,66.83,0,0,0-14.24,1.39,45.71,45.71,0,0,0-7.85,2.26v0l-.16,0C1655.79,14,1655.84,14.12,1655.89,14.18Zm-17.72,54.36h0c.06-1.23.11-2.44.2-3.67s.33-2.45.48-3.68A63.16,63.16,0,0,1,1641,50.8a40.64,40.64,0,0,1,5.59-12,23.17,23.17,0,0,1,12-9.06,61.86,61.86,0,0,1,23.41-2.6,67.15,67.15,0,0,1,11.36,1.62l1.41.35.08,0,.06,0h0a29.26,29.26,0,0,1,3.61,1.18,2.22,2.22,0,0,1,1.34.92c-.16.27-.39.24-.59.23a70.09,70.09,0,0,0-29.54,6,43.52,43.52,0,0,0-12.67,8.67,135.29,135.29,0,0,0-10.94,12.6,100.16,100.16,0,0,0-7.54,10.94c-.07.13-.13.34-.36.29a.66.66,0,0,1-.14-.5C1638.14,69.2,1638.15,68.87,1638.17,68.54Zm71.8,23.1a5.5,5.5,0,0,1,4.25-5,4.06,4.06,0,0,1,3.24.63h0a4,4,0,0,1,1.64,3.06,5.66,5.66,0,0,1-3.29,5.47,4.08,4.08,0,0,1-5.28-1.39h0A4.14,4.14,0,0,1,1710,91.64Zm.55,27.81c-3.54,1.84-13.39,3.77-18.93,3.86a62.07,62.07,0,0,1-19-2.52c-1.15-.34-2.28-.72-3.39-1.12l-.07,0a62.37,62.37,0,0,1-13.9-7.25,72.08,72.08,0,0,1-11.84-11l0,0,0,0a10.07,10.07,0,0,1-1.72-2.63,81.84,81.84,0,0,0,29.07,17.39l.08,0a85.9,85.9,0,0,0,35.65,3.76h0C1707.81,119.77,1709.16,119.63,1710.52,119.45Zm-78.07-11s0,0,0-.05,0,0,0,0l0,0a9.14,9.14,0,0,1,.88-.88l0,0a19.47,19.47,0,0,1,6.36-4.2.84.84,0,0,1,.3-.11c.39,0,.53.32.69.57s-.14.4-.33.52l-.35.21h0l-2.27,1.38c-1.24.75-2.34,1.69-3.61,2.38-.23.21-.47.42-.72.61a27.42,27.42,0,0,1-2.68,1.82A11.85,11.85,0,0,1,1632.45,108.43Zm10.87,51.84c0,.07,0,.13,0,.2-.19,1.89-.39,3.8-.59,5.69,0,.19,0,.37,0,.56-.14,1.58-.29,3.16-.44,4.74-.08.75-.16.81-.94.79-1.28,0-2.55-.05-3.82-.16a93.49,93.49,0,0,1-11.65-1.84,6,6,0,0,1-3.4-2,5.93,5.93,0,0,1,5.17-9.75c1.69.14,3.35.45,5,.65,2.28.27,4.56.56,6.85.67,1.24.06,2.47.17,3.7.26C1643.32,160.05,1643.38,160.12,1643.32,160.27Zm-21.17,13.24a.92.92,0,0,1,.17-.93C1622.41,172.92,1622.5,173.23,1622.15,173.51Zm1.75-18.11c.12-1.25.25-2.5.37-3.76,0-.29.23-.41.46-.51l2.48-1.06a2.44,2.44,0,0,1-.15,1,3.23,3.23,0,0,0-.16.59,14.19,14.19,0,0,1-.35,1.43c-.17.65-.16,1.48-.57,1.88a3.3,3.3,0,0,1-1.63.45l-.25.05Zm35.78,92a75.44,75.44,0,0,1-1.09,9.82,36.35,36.35,0,0,1-2.42,8.23,8.62,8.62,0,0,1-5,4.66,31.16,31.16,0,0,1-9.35,1.83,112.94,112.94,0,0,1-14,.27,40,40,0,0,1-10.47-1.65,14,14,0,0,1-5.4-2.89,6.56,6.56,0,0,1-2.4-4.34,2.8,2.8,0,0,1-.28-1.53c-.1-3.37,1.66-5.78,4.15-7.75a23.52,23.52,0,0,1,6.76-3.51,9.37,9.37,0,0,1,3.74-.61c1.1.06,2.2.1,3.29.1a46.22,46.22,0,0,1,7.62.68,40.78,40.78,0,0,1,10.45,3.09c.15.07.35.28.55,0a2.59,2.59,0,0,0-.75-.89,19.09,19.09,0,0,0-6-3.8,39.09,39.09,0,0,0-14.85-2.71c-.76,0-.76,0-.79-.79-.09-2.43-.2-4.87-.28-7.3,0-1.19,0-2.39-.08-3.56a.54.54,0,0,1,.46.07,27.61,27.61,0,0,0,9.62,3.17,62.47,62.47,0,0,0,12.6.56c2.84-.13,5.65-.46,8.46-.77,1.74-.29,3.48-.57,5.22-.87.44-.08.59.1.57.51,0,.7-.12,1.41-.11,2.12C1660,242.19,1659.83,244.8,1659.68,247.41Zm56.66,16a12.35,12.35,0,0,1,3.29,5,7.23,7.23,0,0,1-.26,5.66.75.75,0,0,1-.12.5,8.27,8.27,0,0,1-5.09,4.37,23.46,23.46,0,0,1-9.45,1,63,63,0,0,1-9.47-1.34c-3.84-.86-7.68-1.68-11.43-2.87a24.44,24.44,0,0,1-7.45-3.54,7.74,7.74,0,0,1-3-4.37,23.46,23.46,0,0,1-.56-2.59,53.3,53.3,0,0,1,.3-14.6c.4-2.91.82-5.81,1.33-8.71.25-1.46.51-2.91.76-4.38a1.71,1.71,0,0,1,.36,0l6.4,2.55.61.19a64.67,64.67,0,0,0,15.17,3.5c.71.07,1.41,0,2.12.08a27.35,27.35,0,0,0,11.27-1.6c.24-.09.49-.34.78-.14a1.25,1.25,0,0,1-.07.74c-.64,2.75-1.27,5.5-1.92,8.25-.25,1.07-.52,2.12-.79,3.18-.11.46-.24.71-.86.53a20.53,20.53,0,0,0-3.13-.57,40.37,40.37,0,0,0-9.64-.12,20.61,20.61,0,0,0-9.28,3.11,2,2,0,0,0-.79.75l.93-.19a44.92,44.92,0,0,1,14.26-.65c2,.2,4.07.52,6.09.92a11.55,11.55,0,0,1,3.76,1A28.38,28.38,0,0,1,1716.34,263.42Zm4.74-77.74a9.54,9.54,0,0,1-.09,1.41c.07,1.1-.1,2.19-.13,3.28-.07,2.76-.5,5.5-.6,8.27,0,1.34-.35,2.66-.49,4-.47,4.59-1.21,9.12-2.1,13.63-.7,3.54-1.44,7.06-2.26,10.56-.74,3.2-1.43,6.42-2.1,9.63a1.93,1.93,0,0,1-1,1.42l-.42.23h0a15.59,15.59,0,0,1-1.84.89,26.39,26.39,0,0,1-11.38,1.47,43,43,0,0,1-7.24-1.09,56.67,56.67,0,0,1-7.74-2.27c-2.32-.75-4.58-1.69-6.82-2.65-1.07-.45-1.07-.47-.86-1.65.4-2.19.9-4.36,1.2-6.57s.79-4.68,1-7.06c0-.35.09-.7.1-1.06,0-.51.22-.7.76-.78a36.08,36.08,0,0,0,9.38-2.68,23.62,23.62,0,0,0,6.56-4.09c.22-.2.7-.3.45-.79l-2,.47c-.06.08-.13.12-.23.06l-.45.07c-.13.26-.41.27-.63.33a103.68,103.68,0,0,1-11.25,2.76,29.9,29.9,0,0,1-5.57.71,58.62,58.62,0,0,1-8.58-.69,22,22,0,0,1-3.94-.8,93.62,93.62,0,0,1-9.69-4.08,49.86,49.86,0,0,1-5.06-2.68,10.23,10.23,0,0,1-1.17-.53l-1-.49c-.18-.09-.5-.23-.47.23.46.46.86,1,1.27,1.46a14.59,14.59,0,0,0,1.1,1.26,34.84,34.84,0,0,0,12.32,7.58c.8.31.81.29.74,1.12-.16,1.84-.39,3.67-.46,5.51-.06,1.52-.17,3-.16,4.56,0,2-.1,4-.11,6a.85.85,0,0,1-.84,1c-1.41.21-2.82.49-4.23.69-.65.1-1.3.18-2,.24a34.09,34.09,0,0,1-3.48.43,76.68,76.68,0,0,1-12.4.27,33.36,33.36,0,0,1-7.42-1.3l-.4-.13h0l-.05,0a15.69,15.69,0,0,1-5.82-3.1,1.36,1.36,0,0,1-.58-1.06c0-2.33-.12-4.65-.17-7,0-2.65,0-5.3-.1-7.94-.16-4.66-.09-9.32,0-14,.06-2.51.3-5,.53-7.53.3-3.18.6-6.35,1.06-9.51.3-2.11.61-4.21,1-6.3.16-.94.38-1.88.45-2.82,0-.77.29-.82,1.06-.65a66.58,66.58,0,0,0,7.43,1.25,54.94,54.94,0,0,0,6.79.49c.6,0,.76.07.77.48a3.4,3.4,0,0,1,0,.42,9.33,9.33,0,0,0,7.3,10.13h0a9.77,9.77,0,0,0,1.56.28l8.21.82h.08l34.95,3.49a10.74,10.74,0,0,0,4.1-.39,9,9,0,0,0,3.26-1.78h0a9.2,9.2,0,0,0,3.39-6.25,2.37,2.37,0,0,1,.26-1.31l.69.18a68.38,68.38,0,0,0,15.58,1.82C1721.07,184.23,1721.1,185,1721.08,185.68Zm-74.31-26.94q.33-3.11.64-6.21a.18.18,0,0,1,.14-.26c.21-2.49,3.24-5.45,6.62-5.07,1.62.18,3.25.33,4.87.49l2.13.21a.4.4,0,0,1,.2,0s0,0,0,0c.23.06.3.25.25.56s-.05.5-.07.74c-.34,3.4-.7,6.79-1,10.18a7.63,7.63,0,0,0,2.39,6.44c1.07,1,2.18,2,3.27,3a4.5,4.5,0,0,1,1.72,3.18.19.19,0,0,1,.09.29c-.2,1.78-.26,3.57-.59,5.34,0,0,0,.07,0,.1a5.65,5.65,0,0,1-.08,1.59c-.15,1.62-.32,3.25-.49,4.87a1.23,1.23,0,0,1-.15.65c-.1.13-.31.11-.76.08l-.22,0-6.22-.62h-.08l-8.84-.88-.57-.08h0l-.66-.18a6.46,6.46,0,0,1-4.31-6.94c.49-5.3,1-10.59,1.58-15.89a1.85,1.85,0,0,1,.2-.92A1.8,1.8,0,0,1,1646.77,158.74ZM1702,176c-.21,2.12-.33,4.26-.64,6.36a6.33,6.33,0,0,1-2.11,3.89,6.55,6.55,0,0,1-5,1.61c-7.62-.82-15.26-1.54-22.89-2.3-.21,0-.42-.06-.64-.07-.41,0-.54-.22-.5-.62.3-2.57.45-5.16.83-7.72a33.94,33.94,0,0,1,.3-3.5,8,8,0,0,0-2.65-7.07c-1.09-1-2.19-2-3.27-3a4.49,4.49,0,0,1-1.48-3.91c.36-3.42.69-6.85,1-10.28,0-.21,0-.42.06-.64s.16-.39.4-.38h.1l.52,0,32.12,3.21a6.23,6.23,0,0,1,5.46,6.07.22.22,0,0,1,.07.28c0,.14,0,.28,0,.42q-.82,8.25-1.64,16.5c0,.14,0,.28,0,.42h0a1.53,1.53,0,0,1-.14.39A1.88,1.88,0,0,1,1702,176Zm15.82,4a55.77,55.77,0,0,1-8.65-1c-1.14-.23-2.27-.54-3.41-.81-.5-.12-.67-.38-.61-.92.2-1.47.33-3,.49-4.44.1-1.06.19-2.12.29-3.18s.21-2.05.3-3.07c0-.35.16-.53.53-.45h0c.17,0,.33,0,.49.07a72.66,72.66,0,0,0,7.34,1.13c3.59.46,7.21.61,10.81.89a5.83,5.83,0,0,1,4.9,4,3,3,0,0,1,.13.52,3.94,3.94,0,0,1,.19,1.67,5.74,5.74,0,0,1-.46,2v0h0a6,6,0,0,1-5.37,3.66C1722.44,180.19,1720.11,180.13,1717.78,180Zm21.06-8.66a21.52,21.52,0,0,1-.35,2.41,21,21,0,0,1-2.59,7.41.37.37,0,0,1-.07.12c-.29.53-.61,1-.95,1.55a28,28,0,0,1-7.13,7.2,23,23,0,0,1-3.55,2.2,34.73,34.73,0,0,1,.25-5.24l-.06-.27a1.16,1.16,0,0,1,.1-.78c0-.39,0-.78,0-1.16,0-1.16,0-1.24,1-1.36l.27,0,.62-.08.11,0h0a9,9,0,0,0,5.22-3,9.82,9.82,0,0,0,1.49-2.28,9,9,0,0,0,.79-4.68,9.16,9.16,0,0,0-1.93-5,10.94,10.94,0,0,0-3-2.52c.53-.25,1-.51,1.55-.8a23,23,0,0,0,7.27-6.17A51,51,0,0,1,1738.84,171.37ZM1737,154.61h0a1.48,1.48,0,0,1-.23,1.38c-.44.59-.84,1.22-1.32,1.8a18.33,18.33,0,0,1-6.87,5.37,14.12,14.12,0,0,1-3.44,1.34c-.61.17-.63.13-.66-.53-.06-1.66-.12-3.32-.19-5q-.26-5.94-.82-11.84a5,5,0,0,1-.08-1.88l-.12-.61c0-.08,0-.17,0-.25l-.18-1.25c-.3-2.41-.62-4.82-1.08-7.21-.4-2.11-.82-4.22-1.22-6.33-.4-1.43-.79-2.86-1.19-4.28-.17-.57-.35-1.15-.57-1.7a.53.53,0,0,0-.67-.38.62.62,0,0,0-.5.7c0,.25.07.49.09.74.2,2.13.41,4.27.61,6.4,0,.43.09.86.13,1.29,0,0,0,.09,0,.13,1,10.22,1.74,20.44,2.31,30.76,0,.43,0,.86.07,1.29-3.6-.38-7.07-.61-10.49-1.17a11.72,11.72,0,0,1-3.1-.64c-.36,0-.85.08-.76-.56a25.39,25.39,0,0,1,.45-3.58,2.8,2.8,0,0,1,0-1c0-.08,0-.16,0-.24a9.81,9.81,0,0,0-9-9.26c-11.77-1.14-23.53-2.34-35.3-3.5h-.07l-8.06-.8a9.44,9.44,0,0,0-8.46,3.51,11.06,11.06,0,0,0-2.09,4.37c0,.26,0,.53,0,.79h0c0,1.21-.27,2.4-.34,3.61a.57.57,0,0,1-.6.58h-.22a9.59,9.59,0,0,1-1.77-.13c-3.65-.32-7.29-.63-10.91-1.13l-.13,0c-.37-.09-.47-.29-.37-.68,0-.21.08-.42.13-.62.67-2.67,1.32-5.35,2-8q1.92-7.26,3.91-14.51l.15-.55,0-.1c1.26-4.59,2.54-9.15,3.84-13.73,0-.06,0-.12.05-.18a1,1,0,0,0-.09-.63,3.06,3.06,0,0,0-.61-.09c-.29,0-.41.15-.6.55l-.11.25c-1.46,3.42-2.83,6.85-4.13,10.33a.42.42,0,0,0,0,.1c-.23.59-.44,1.18-.66,1.77a17,17,0,0,1-1.26,3.24.93.93,0,0,1,0,.44h0a3.37,3.37,0,0,1-.1.34h0s0,0,0,0c-1.27,3.72-2.44,7.46-3.48,11.24a1.65,1.65,0,0,1-.81,1,35.43,35.43,0,0,1-6.25,2.9l-.48.17a4.5,4.5,0,0,1-1.52.31,17.68,17.68,0,0,0,5.35-8.42c.24-.7.47-1.4.71-2.09.07-.35.13-.7.22-1,.3-1.21.55-2.42.73-3.64,0,0,0,0,0-.06a35.45,35.45,0,0,0,.22-8,33.53,33.53,0,0,0-1.5-7.48s0,0,0,0c-.14-.44-.1-.64.41-.8a14.77,14.77,0,0,0,2.87-1.36c2.5-1.43,4.77-3.2,7.11-4.85l.85-.61c2-1.36,3.91-2.69,6-3.87a.8.8,0,0,1,1.21.19,63.3,63.3,0,0,0,24.29,15.88l.07,0,.09,0a65,65,0,0,0,11.11,2.88,61.57,61.57,0,0,0,11.44.84,62.74,62.74,0,0,0,27.23-6.74l2.37-1.19c1.5,2.35,2.9,4.7,4.24,7.08.25.43.49.87.73,1.3.34.62.69,1.24,1,1.86a142.8,142.8,0,0,1,6.33,13.35A101.1,101.1,0,0,1,1737,154.61Zm-7.87-31.94h0a1.58,1.58,0,0,1,.09.31s0,0,0,0c.1.35.18.7.25,1a13.16,13.16,0,0,1,.31,3.66l-1.47-2.68c-1.37-2.32-2.73-4.63-4.11-6.94-.44-.73-.61-1-.42-1.27a2.81,2.81,0,0,1,.8-.61c1-.63,1-.63,1.65.28a.94.94,0,0,1,.12.18A20.66,20.66,0,0,1,1729.09,122.67ZM1738.54,72a8.94,8.94,0,0,1-.16,1.48,16.86,16.86,0,0,1-4.32,7.69,10.39,10.39,0,0,1-3.62,2.34,6.52,6.52,0,0,1-4.18.31,5.93,5.93,0,0,1-3.47-2.4,8,8,0,0,1-1.1-2.46,12,12,0,0,1,.75-8,12.77,12.77,0,0,1,6.64-7.15,6.64,6.64,0,0,1,6.53.34,6.86,6.86,0,0,1,2.63,3.74A8.34,8.34,0,0,1,1738.54,72Zm6.25-24a45,45,0,0,0-3.76-4.88,59.59,59.59,0,0,0-10.7-9.36,77.37,77.37,0,0,0-6.85-4.22c-.4-.24-.81-.45-1.22-.67l-.56-.3-.57-.3a108.11,108.11,0,0,0-16.53-6.7A122,122,0,0,0,1692,18.25c-3-.6-5.92-1-8.9-1.42-1.37-.17-2.76-.23-4.14-.32a69.19,69.19,0,0,0-13,.31,47,47,0,0,0-19.83,6.79l-2.64,1.9a3.59,3.59,0,0,1,1.74-1.78,25.71,25.71,0,0,1,3.32-2.28q.94-.59,1.92-1.11l.07,0a51,51,0,0,1,14.91-5.24A64.29,64.29,0,0,1,1680,14c2.43.09,4.86.26,7.29.58a98,98,0,0,1,12.29,2.37,100.23,100.23,0,0,1,13.85,4.68l.75.32c.41.18.81.35,1.21.55a82.78,82.78,0,0,1,8.22,4.22,62.49,62.49,0,0,1,19.55,17.23,41.62,41.62,0,0,1,5,9,6.23,6.23,0,0,1,1,3.6c-.47-1.15-.88-2.18-1.3-3.21a48.87,48.87,0,0,0-3.09-5.3Zm15.53,26.34c-.6,2.47-1.17,4.94-1.81,7.4a6,6,0,0,1-.64,2.11,4.9,4.9,0,0,1-.37,2.07,11.48,11.48,0,0,1-10,8.82,4.82,4.82,0,0,1-2.46-.12l.76-1.58q.33-.66.63-1.32c.75-1.63,1.47-3.28,2.21-4.93.29-.34.21-.8.36-1.19.09-.24.18-.48.26-.73a62.81,62.81,0,0,0,2.78-10.38c.47-2.62.71-5.26.92-7.9.16-2,.06-4,.1-6a2,2,0,0,1,.92.27,10.78,10.78,0,0,1,3.4,2.38A11.55,11.55,0,0,1,1760.32,74.31Zm-165.15,47.3h0c.4,0,.79.06,1.19.08s.5-.23.27-.54a3.84,3.84,0,0,0-.6-.61c-.42-.34-3.61.9-4,.56s1.85-2.32,1.4-2.7a4.83,4.83,0,0,1-1.58-1.66l-.24-.2a6.55,6.55,0,0,1-1-1.12c-.62-.14,5.1,2.86,4.47,2.68.8,1.28-4.81-.71-3.68.15l0,0a5,5,0,0,0,1.62,1.63C1593.69,120.5,1594.44,121.05,1595.17,121.61Zm44.64-5.19a3.06,3.06,0,0,0-.61-.09.57.57,0,0,1,.08.13.63.63,0,0,1,.09.33.78.78,0,0,1,0,.14.64.64,0,0,1,.55.12A1,1,0,0,0,1639.81,116.42Zm-26.68-6.56c-.29-.91-.57-1.81-.92-2.7a8.29,8.29,0,0,1,.15-6.55c.54-1.22.27-1.85-.91-2.51a1.89,1.89,0,0,0-2,.74l0,0a1.4,1.4,0,0,1,.5,0l.06,0,.19.06a1.34,1.34,0,0,1,.47.29c1.19.63,1.47,1.26,1,2.49a8.24,8.24,0,0,0,0,6.55c.36.88.67,1.78,1,2.68,0,.12.1.24.14.37l.09.25s0,.05,0,.07,0,0,0,0h0a.64.64,0,0,0,.4-.24C1613.63,111,1613.3,110.39,1613.13,109.86Zm26.68,6.56a3.06,3.06,0,0,0-.61-.09.57.57,0,0,1,.08.13.63.63,0,0,1,.09.33.78.78,0,0,1,0,.14.64.64,0,0,1,.55.12A1,1,0,0,0,1639.81,116.42Zm-26.68-6.56c-.29-.91-.57-1.81-.92-2.7a8.29,8.29,0,0,1,.15-6.55c.54-1.22.27-1.85-.91-2.51a1.89,1.89,0,0,0-2,.74l0,0a1.4,1.4,0,0,1,.5,0l.06,0,.19.06a1.34,1.34,0,0,1,.47.29c1.19.63,1.47,1.26,1,2.49a8.24,8.24,0,0,0,0,6.55c.36.88.67,1.78,1,2.68,0,.12.1.24.14.37l.09.25s0,.05,0,.07,0,0,0,0h0a.64.64,0,0,0,.4-.24C1613.63,111,1613.3,110.39,1613.13,109.86Zm26.68,6.56a3.06,3.06,0,0,0-.61-.09.57.57,0,0,1,.08.13.63.63,0,0,1,.09.33.78.78,0,0,1,0,.14.64.64,0,0,1,.55.12A1,1,0,0,0,1639.81,116.42Zm-26.68-6.56c-.29-.91-.57-1.81-.92-2.7a8.29,8.29,0,0,1,.15-6.55c.54-1.22.27-1.85-.91-2.51a1.89,1.89,0,0,0-2,.74l0,0a1.4,1.4,0,0,1,.5,0l.06,0,.19.06a1.34,1.34,0,0,1,.47.29c1.19.63,1.47,1.26,1,2.49a8.24,8.24,0,0,0,0,6.55c.36.88.67,1.78,1,2.68,0,.12.1.24.14.37l.09.25s0,.05,0,.07,0,0,0,0h0a.64.64,0,0,0,.4-.24C1613.63,111,1613.3,110.39,1613.13,109.86Zm26.68,6.56a3.06,3.06,0,0,0-.61-.09.57.57,0,0,1,.08.13.63.63,0,0,1,.09.33.78.78,0,0,1,0,.14.64.64,0,0,1,.55.12A1,1,0,0,0,1639.81,116.42Zm-26.68-6.56c-.29-.91-.57-1.81-.92-2.7a8.29,8.29,0,0,1,.15-6.55c.54-1.22.27-1.85-.91-2.51a1.89,1.89,0,0,0-2,.74l0,0a1.4,1.4,0,0,1,.5,0l.06,0,.19.06a1.34,1.34,0,0,1,.47.29c1.19.63,1.47,1.26,1,2.49a8.24,8.24,0,0,0,0,6.55c.36.88.67,1.78,1,2.68,0,.12.1.24.14.37l.09.25s0,.05,0,.07,0,0,0,0h0a.64.64,0,0,0,.4-.24C1613.63,111,1613.3,110.39,1613.13,109.86Zm26.68,6.56a3.06,3.06,0,0,0-.61-.09.57.57,0,0,1,.08.13.63.63,0,0,1,.09.33.78.78,0,0,1,0,.14.64.64,0,0,1,.55.12A1,1,0,0,0,1639.81,116.42Zm-26.68-6.56c-.29-.91-.57-1.81-.92-2.7a8.29,8.29,0,0,1,.15-6.55c.54-1.22.27-1.85-.91-2.51a1.89,1.89,0,0,0-2,.74l0,0a1.4,1.4,0,0,1,.5,0l.06,0,.19.06a1.34,1.34,0,0,1,.47.29c1.19.63,1.47,1.26,1,2.49a8.24,8.24,0,0,0,0,6.55c.36.88.67,1.78,1,2.68,0,.12.1.24.14.37l.09.25s0,.05,0,.07,0,0,0,0h0a.64.64,0,0,0,.4-.24C1613.63,111,1613.3,110.39,1613.13,109.86Zm26.68,6.56a3.06,3.06,0,0,0-.61-.09.57.57,0,0,1,.08.13.63.63,0,0,1,.09.33.78.78,0,0,1,0,.14.64.64,0,0,1,.55.12A1,1,0,0,0,1639.81,116.42Zm0,0a3.06,3.06,0,0,0-.61-.09.57.57,0,0,1,.08.13.63.63,0,0,1,.09.33.78.78,0,0,1,0,.14.64.64,0,0,1,.55.12A1,1,0,0,0,1639.81,116.42Zm-26.68-6.56c-.29-.91-.57-1.81-.92-2.7a8.29,8.29,0,0,1,.15-6.55c.54-1.22.27-1.85-.91-2.51a1.89,1.89,0,0,0-2,.74l0,0h.21a1.34,1.34,0,0,1,.2,0l.15,0,.19.06a1.34,1.34,0,0,1,.47.29c1.19.63,1.47,1.26,1,2.49a8.24,8.24,0,0,0,0,6.55c.36.88.67,1.78,1,2.68,0,.12.1.24.14.37l.09.25s0,.05,0,.07,0,0,0,0h0a.64.64,0,0,0,.4-.24C1613.63,111,1613.3,110.39,1613.13,109.86Z"/><path class="cls-12" d="M1592,114.08c-.92-.2-1.84-.46-2.77-.75a21.45,21.45,0,0,0,1.35,2.09c-.62-.14-1.24-.31-1.87-.49a11.69,11.69,0,0,0,2.66,3.32l-2,13.23a64.16,64.16,0,0,1,0-11.26,2.74,2.74,0,0,0-.91-2.59,14.4,14.4,0,0,1-3-3.9l.6-3.93,0,0a15.18,15.18,0,0,0,6.15,2.53Z"/><path class="cls-12" d="M1597.51,145.84h0L1597,149a18.15,18.15,0,0,1-4.41-5.53,30.23,30.23,0,0,1-3-9.5c-.13-.84-.24-1.67-.32-2.51l2-13.23,0,0a5,5,0,0,0,1.62,1.63c.7.58,1.45,1.13,2.18,1.69a4.54,4.54,0,0,1-1.31-.3,10.23,10.23,0,0,0-1-.34c-.29.18-.25.46-.26.69s0,.57,0,.85l-.07,0c-.29.19-.25.46-.25.69a80.58,80.58,0,0,0,.19,8.37,31.15,31.15,0,0,0,3,11.12A16.86,16.86,0,0,0,1597.51,145.84Z"/><path class="cls-12" d="M1602.12,115.39l-.77,5.12h-.12l-.62,0-.63,0c-.45,0-.91-.08-1.37-.14l-.83-.12-.4-.07c-.24,0-.47-.08-.7-.13s-.65-.13-1-.21-.61-.15-.91-.24h0l-1.36-1.12a4.83,4.83,0,0,1-1.58-1.66l-.24-.2.13-.87a15,15,0,0,0,7.77-.4A25.91,25.91,0,0,0,1602.12,115.39Z"/><path class="cls-12" d="M1602.6,112.23l-.48,3.16a25.91,25.91,0,0,1-2.64-.12c.45-.28.91-.53,1.34-.84A4.92,4.92,0,0,0,1602.6,112.23Z"/><path class="cls-12" d="M1602.66,111.84l-.06.38h0a4.92,4.92,0,0,1-1.78,2.2c-.43.31-.89.56-1.34.84a15,15,0,0,1-7.77.4l.24-1.59a15.21,15.21,0,0,0,8-.18c.46-.27.93-.51,1.37-.81A5.4,5.4,0,0,0,1602.66,111.84Z"/><path class="cls-6" d="M1600.06,109a1.28,1.28,0,0,1-.62,1.27,3.68,3.68,0,0,0-.91-1.89c-.2-.3-.52-.32-.84-.37-1.57-.27-3.15-.42-4.69-.83l.24-1.63.23.07a48.07,48.07,0,0,0,4.89,1,1.1,1.1,0,0,1,.83.39A3.59,3.59,0,0,1,1600.06,109Z"/><path class="cls-1" d="M1599.44,110.28l-.15.11a1.18,1.18,0,0,1-.19.11,12.85,12.85,0,0,1-6.63.17l.53-3.48c1.54.41,3.12.56,4.69.83.32,0,.64.07.84.37A3.68,3.68,0,0,1,1599.44,110.28Z"/><path class="cls-6" d="M1593.24,105.56l-.24,1.63-.21,0a32.47,32.47,0,0,1-6-2.33l.28-1.87.13.07A33.67,33.67,0,0,0,1593.24,105.56Z"/><path class="cls-1" d="M1593,107.19l-.53,3.48-.1,0a19.16,19.16,0,0,1-2.49-.71l-.2-.08a15.11,15.11,0,0,1-3-1.7c-.13-.09-.25-.19-.36-.28l.46-3.07a32.47,32.47,0,0,0,6,2.33Z"/><path class="cls-1" d="M1597.09,102.28a21.23,21.23,0,0,1-3.3-.37l.87-5.7a13.3,13.3,0,0,1,3.32,1.32A8.76,8.76,0,0,0,1597.09,102.28Z"/><path class="cls-1" d="M1594.66,96.21l-.87,5.7a17,17,0,0,1-2-.48l0,0a29,29,0,0,1-3.23-1.56,3,3,0,0,1-.85-.68l.51-3.32a7.35,7.35,0,0,1,.84-.2,12.36,12.36,0,0,1,5.63.55Z"/><path class="cls-12" d="M1596.06,87l-.64,4.23a21.23,21.23,0,0,0-4-.6,1,1,0,0,1-.83-.4,7.6,7.6,0,0,1-1.13-1.52l-.2-.15,1.32-8.77A83.29,83.29,0,0,1,1596.06,87Z"/><path class="cls-12" d="M1608.29,74.59l-1.74,11.54a38,38,0,0,0-6.53,5.14,3.78,3.78,0,0,1-1.5,1,23,23,0,0,0-3.1-1l.64-4.23c.36.53.72,1.07,1.07,1.62a1.78,1.78,0,0,0,2.19.8,1.59,1.59,0,0,0,1-1.35l.07,0a1.66,1.66,0,0,0,1-1.9,78.58,78.58,0,0,1-.75-9.93,36.67,36.67,0,0,1,.91-9.8,8.7,8.7,0,0,1,1.46-3.32,2.12,2.12,0,0,1,2.72,1,9.48,9.48,0,0,1,.68,1.2,14.45,14.45,0,0,1,1,3.23A50.85,50.85,0,0,1,1608.29,74.59Z"/><path class="cls-17" d="M1585.76,111.7a8.94,8.94,0,0,0,6.24,2.4l1-2-7-3Z"/><polygon class="cls-12" points="1588 120.1 1588 114.1 1600.07 115.41 1599.56 132.34 1596.54 151.32 1585 152.1 1588 120.1"/><path class="cls-12" d="M1588,91.1s3-1,11,1l5-5,2-7,2.22-6.38.87-4.43,1.32-8.68.74-4.93L1605,55.1l-10.38-1.54L1591.3,72.4Z"/><polygon class="cls-1" points="1574 62.1 1592.18 67.41 1588 91.1 1585.95 90.07 1576 85.1 1574 62.1"/><path class="cls-1" d="M1585.66,92.1a5.17,5.17,0,0,1,2.34-1l-1-1h-2Z"/><path class="cls-18" d="M1600.82,93.36,1589.7,91l-.85.12s-2.85-1-2.85-5,4.45-4.53,4.45-4.53,14.34,2.07,14.93,6.8S1600.82,93.36,1600.82,93.36Z"/><path class="cls-6" d="M1591.2,83.14a.38.38,0,0,0-.35.1l-.85.86,3,1,8,3,3,1a3.1,3.1,0,0,0-1-2c-1-1-4-2-4-2l-3-1h0Z"/><path class="cls-16" d="M1709,136.1h0a6,6,0,0,1,6,6h0a6,6,0,0,1-6,6h0a6,6,0,0,1-6-6h0A6,6,0,0,1,1709,136.1Zm3,2.46,0,0a.77.77,0,0,0-.82-.12l-5.65,2.34-.71.3a.56.56,0,0,0-.36.44.77.77,0,0,0,.07.45.94.94,0,0,0,.5.44l2.45,1a1.59,1.59,0,0,1,.34.18,1.27,1.27,0,0,1,.21.25l.87,1.32c.21.33.43.66.65,1a.83.83,0,0,0,.78.39.57.57,0,0,0,.54-.45l.15-.69c.16-.73.31-1.45.47-2.18l.39-1.81c.14-.67.29-1.33.43-2a.76.76,0,0,0,0-.3.94.94,0,0,0-.26-.45S1712.06,138.56,1712,138.56Z"/><path class="cls-1" d="M1707.83,143.51a1.59,1.59,0,0,0-.34-.18l-2.45-1a.94.94,0,0,1-.5-.44.77.77,0,0,1-.07-.45.56.56,0,0,1,.36-.44l.71-.3,5.65-2.34a.77.77,0,0,1,.82.12l0,0a.39.39,0,0,1-.06.15c-.08.13-.17.26-.26.38-.41.54-.84,1-1.28,1.56l-.65.75-.92,1-.42.46c-.16.18-.32.35-.49.51A.74.74,0,0,1,1707.83,143.51Z"/><path class="cls-12" d="M1707.83,143.51a.74.74,0,0,0,.13-.12c.17-.16.33-.33.49-.51l.42-.46.92-1,.65-.75c.44-.51.87-1,1.28-1.56.09-.12.18-.25.26-.38a.39.39,0,0,0,.06-.15s0,0,0,0a.94.94,0,0,1,.26.45.76.76,0,0,1,0,.3c-.14.67-.29,1.33-.43,2l-.39,1.81c-.16.73-.31,1.45-.47,2.18l-.15.69a.57.57,0,0,1-.54.45.83.83,0,0,1-.78-.39c-.22-.33-.44-.66-.65-1l-.87-1.32A1.27,1.27,0,0,0,1707.83,143.51Z"/></g></g></svg>