<svg xmlns="http://www.w3.org/2000/svg" viewBox="0 0 1545.84 1382.14"><defs><style>.cls-1{fill:#030273;}.cls-2{fill:#fdfdfe;}.cls-3{fill:#fbfafc;}.cls-4{fill:#feffff;}.cls-5{fill:#fefeff;}.cls-6{fill:#b1b2d4;}.cls-7{fill:#b2b1d4;}.cls-8{fill:#b1b1d3;}.cls-9{fill:#000072;}.cls-10{fill:#7e7fb8;}.cls-11{fill:#fff;}.cls-12{fill:#333;}.cls-13{fill:#29abe2;}</style></defs><g id="Layer_2" data-name="Layer 2"><g id="Layer_1-2" data-name="Layer 1"><path class="cls-1" d="M370.45,339.33c1.78-3.35,3-6.17,4.69-8.74,4.42-6.86,10.5-11.1,18.82-12.31,8.58-1.25,17.58,7,19.35,13a41.54,41.54,0,0,1,1.52,8.33,349.44,349.44,0,0,0,9.06,53.82A408.4,408.4,0,0,0,446.4,459a69,69,0,0,0,14.46,21.07c9.39,9.56,18.63,19.29,28.4,28.47a529,529,0,0,0,47.25,39.88c5.22,3.87,10.65,7.42,15.81,11.36a4.54,4.54,0,0,0,2.78,1.39c.65-1.15-.23-2.12-.68-3a138.07,138.07,0,0,1-7.42-18,4.1,4.1,0,0,0-3.55-3,61.5,61.5,0,0,1-30.16-14.49c-13.17-11.71-20.39-26.5-21.12-44.21A88.52,88.52,0,0,1,493.55,460c5.79-34,11.46-68,17.29-102,2-11.68,6.57-22.23,15.57-30.3,9.9-8.87,21.28-14.18,35-13.8a44.28,44.28,0,0,1,9.23.95c3,.75,5,0,6.68-2.74a207.41,207.41,0,0,1,17.22-23.61,240.54,240.54,0,0,1,28.66-29.32,290.9,290.9,0,0,1,27.7-20.92A234.75,234.75,0,0,1,675,224.15a262.79,262.79,0,0,1,86.29-26.33A287.54,287.54,0,0,1,805.57,196a278.56,278.56,0,0,1,155,52.89c15.25,11.29,29.44,23.83,41.67,38.34a285.35,285.35,0,0,1,32,46.28,260.39,260.39,0,0,1,21.29,52.47,48.32,48.32,0,0,1,1.9,7.81c.35,2.86,1.93,3.73,4.47,4a45,45,0,0,1,18.71,6.33c16.17,10.07,24.89,24.48,25.07,43.79a59.53,59.53,0,0,1-1,10.51c-6.1,36.1-12.05,72.24-18.37,108.31-2.8,15.94-11,28.78-24.06,38.53a60.88,60.88,0,0,1-36.68,12.29c-3.35,0-6.78.21-10.11-.59a4,4,0,0,0-4.43,1.59c-2.53,3.17-5.22,6.21-8,9.47,2.82,2,5.86,2.67,8.69,3.77a125,125,0,0,1,40.72,25.4c3.78,3.54,7.56,7.26,10.31,11.75a7.18,7.18,0,0,0,6.25,3.63,162.89,162.89,0,0,0,19-.37,169.11,169.11,0,0,0,82.09-26.6,7.4,7.4,0,0,0,3.84-6.54q.35-14.14.83-28.28c.24-7.31.55-14.62.84-21.94s.63-14.9.9-22.36.47-15.19.71-22.78c.25-8,.48-16,.78-24.05.38-9.71.86-19.41,1.23-29.12.26-7.17.38-14.35.62-21.52.25-7.46.56-14.91.85-22.36s.58-14.91.84-22.37.51-15.19.77-22.78c.26-7.74.36-15.48.85-23.21.37-5.87.44-11.89,4.5-16.87,4.54-5.57,10-8.78,17.52-8.47,9.57.41,16.68,5.09,20.26,13.9,1,2.54,1.12,5.22,1.32,7.89.27,3.63.51,3.92,3.86,4.08,4.78.24,9.57.33,14.36.5l24,.88c7,.26,14.07.53,21.1.77,7.6.25,15.2.45,22.79.69,8,.26,16,.5,24.06.81,9.71.37,19.41.86,29.12,1.22s19.13.57,28.7.88c7.17.23,14.35.55,21.52.79,8,.28,16,.49,24.06.8,9.7.37,19.41.84,29.12,1.22,7,.27,14.07.46,21.1.7,7.88.28,15.76.59,23.63.87,7.32.25,14.64.53,22,.7a17.12,17.12,0,0,1,3.79.29,7.62,7.62,0,0,1,4.8,11.37,37.17,37.17,0,0,1-2.2,3.11l-57.79,79.11c-.58.8-1.12,1.63-1.77,2.38-1.59,1.87-1.75,3.62-.21,5.71,2.17,2.95,4,6.14,6,9.22,5.19,8.08,10.76,15.91,16,23.93,7.37,11.19,14.54,22.51,21.94,33.68,3.67,5.53,7.47,11,11.06,16.55,1.75,2.73,2,5.29.57,7.94a7.6,7.6,0,0,1-7.34,4.17c-11-.39-21.94-.83-32.91-1.19-12-.39-23.92-.67-35.87-1.09-11.68-.42-23.35-1-35-1.42-12-.43-23.92-.69-35.87-1.12-9.71-.34-19.41-.89-29.12-1.24-9.56-.35-19.13-.5-28.69-.84-9.71-.34-19.41-.85-29.12-1.21s-19.13-.56-28.69-.88c-7.32-.25-14.63-.6-21.94-.86-7.88-.28-15.76-.47-23.63-.76-2.68-.1-5.33-.42-8-.35-1.83,0-2.61.81-2.7,2.47-.12,2.1-.16,4.22-.23,6.32-.33,10.27-.71,20.54-1,30.81-.08,3.56,0,3.69,3.71,4.24a22.79,22.79,0,0,1,13.9,7.37,25.85,25.85,0,0,1,6.83,14.27,47.18,47.18,0,0,1-2.51,23.73c-2.19,5.61-2.27,10.07,2.07,15.22,7.19,8.53,7.29,19,4.66,29.38a7.85,7.85,0,0,0,.37,5.62,38,38,0,0,1,2.62,23.57,33.46,33.46,0,0,1-5.06,12,6.38,6.38,0,0,0-.88,5.51c1.68,7.45,1.53,14.84-1.57,22a24.07,24.07,0,0,1-4,6.5c-2,2.29-2.53,5-2.51,7.86,0,10.07-3.66,18.46-11.44,24.85a26.08,26.08,0,0,1-11.13,5c-2.31.51-2.88,1.64-2.94,3.79-.28,10.27-.71,20.53-1,30.8-.23,7.17-.28,14.36-.63,21.52-.2,4-.23,8-1.52,12-4.09,12.73-20.2,18.71-31.57,11.51-8.29-5.26-11.16-13-10.6-22.46.48-8.14.57-16.31.86-24.46q.39-10.56.86-21.1c.22-5.06.46-10.13.75-15.19a2.84,2.84,0,0,0-1.64-3.11,46.61,46.61,0,0,1-8.85-5.78,4,4,0,0,0-3.57-.53c-7.79,1.49-15.61,2.34-23.56,1.23-2.35-.33-4.78.11-7.16-.44-1.35-.32-2.42.54-3.53,1.16a157.14,157.14,0,0,1-34.92,14,266.78,266.78,0,0,1-39.81,8c-4.07.45-8.11,1.14-12.18,1.58a4.35,4.35,0,0,0-4.08,3c-5.85,13.76-12.14,27.33-18.7,40.78-7.3,15-15.15,29.68-23.28,44.22-6.83,12.2-14.07,24.15-21.57,35.95q-14.1,22.17-29.78,43.27-20.14,27-42.83,51.94a592,592,0,0,1-45.34,44.42,212.94,212.94,0,0,1-18.46,14.85c-15.94,11.26-39.73,10.36-54.86-2.35-8.54-7.17-17.2-14.2-25.73-21.39-1.3-1.09-2.21-1.34-3.68-.4-14,8.88-29,15.78-43.87,22.92a282,282,0,0,0-28.79,16.11q-12.39,7.82-24,16.67c-9.77,7.42-19.1,15.4-28.14,23.71a423.28,423.28,0,0,0-40.7,43c-16.06,19.58-30.86,40.05-42,62.91a70.24,70.24,0,0,0-3.82,8.94c-3.63,11.13-11,19.31-20.43,25.72-14.5,9.87-30.77,14.58-48.24,15.17a62.15,62.15,0,0,1-14.73-.82c-8.41-1.74-16.1-4.86-22.4-11.1-9-9-19.14-16.7-28.95-24.78-11.54-9.52-23.2-18.9-34.86-28.28-8.26-6.63-16.59-13.17-24.92-19.71-14.55-11.42-29.07-22.88-43.71-34.18-9.28-7.17-18.66-14.22-28.19-21a73.12,73.12,0,0,1-16.71-16.07c-6-8.28-9.76-17.65-8.46-28.11.6-4.82,2.43-9.54,4.07-14.17,4.28-12,9.75-23.4,17.54-33.65a82.12,82.12,0,0,1,48.46-31.2,99.63,99.63,0,0,1,31.95-1.8c4.07.4,8.14.69,12.17,1.38a183,183,0,0,1,42.38,12.81c5.37,2.34,5.28,2.32,8.56-2.6,8.92-13.41,18.47-26.35,28.42-39a566.76,566.76,0,0,1,39-44.67c3.24-3.34,6.7-6.45,10-9.71,1.9-1.88,1.83-2.19-.24-3.94a13.53,13.53,0,0,0-8.4-3.11c-19.45-1.33-38.6.78-57.68,4.1-10.58,1.84-21,4.33-31.39,7.09a409.45,409.45,0,0,0-50.51,17.12,294.72,294.72,0,0,0-33.86,16.48,131,131,0,0,0-26.15,19.32,107.93,107.93,0,0,1-42.47,25.52c-14.24,4.52-28.82,5.72-43.42,1.75-10.23-2.79-19.06-8.11-25-17.09-8.39-12.7-18.82-23.59-29.42-34.36-18.31-18.61-37.3-36.56-55-55.78-8-8.72-16-17.55-22.67-27.36C49.63,916.5,44.77,904,45.24,890.18c.48-14.19,4.23-27.69,13.92-38.72a54.25,54.25,0,0,1,9-7.7c8.68-6.31,17.22-12.85,26.93-17.59,13.88-6.77,28.32-11.06,44-10.61,21.74.62,40.27,8.82,56.37,23.07a82.93,82.93,0,0,1,14.24,15.58c1.18,1.76,2.15,2,4.1.87a522.07,522.07,0,0,1,62.59-31.86,408.89,408.89,0,0,1,53.53-18.83c22.15-6,44.67-9.79,67.67-10.17,5.61-.09,11.25.4,16.87.69,6.11.33,12,1.5,18,2.41a31.29,31.29,0,0,1,7.37,1.82c2.91,1.2,3.49.82,4.64-2.13,4.72-12.09,9.31-24.22,14.68-36a5.67,5.67,0,0,0,.09-4.39c-4.08-13.94.07-27.6,12-36a25.57,25.57,0,0,1,8-3.74,5.54,5.54,0,0,0,3.71-3c1-1.8.87-3.15-.92-4.32-2.72-1.78-5.43-3.57-8.08-5.44a326.84,326.84,0,0,1-47.08-40.65A288.29,288.29,0,0,1,406.76,640c-4-5.14-8-10.28-11.57-15.67a315.19,315.19,0,0,1-21.82-37.69,257.23,257.23,0,0,1-15-38.18,8.29,8.29,0,0,0-3-4.4c-16.66-13-28.43-29.65-36-49.3a49.94,49.94,0,0,1-2.26-6.38c-.63-2.61-2.12-3.7-4.71-3.93a27.81,27.81,0,0,1-15.42-6.32c-6.81-5.5-10.61-12.78-12.42-21.13A59.36,59.36,0,0,1,284,431.8c2.07-9.72,6.32-18.07,14.86-23.73a10.25,10.25,0,0,0,4-5.27c2.66-7.1,6.44-13.47,13-17.79a20.22,20.22,0,0,1,6.16-2.74,3.08,3.08,0,0,0,2.61-3.69,137.5,137.5,0,0,1-.06-21.95c.62-8.64,2.24-17.28,7.51-24.37,6.75-9.09,15.9-12.62,27.23-7.7,5,2.17,7.22,6.93,9.74,11.32A29.86,29.86,0,0,1,370.45,339.33ZM303,462.25c3.47,5.59,8.94,7.3,15.06,7.69a4.4,4.4,0,0,0,3.9-2.11c.87-1.14.81-1.9-.33-2.8a54.64,54.64,0,0,1-4.42-3.91c-4-3.92-6.21-9-8.89-13.74a166.26,166.26,0,0,1-6-20.56C296.39,435.17,296.87,451.62,303,462.25Zm884,344.44a50.71,50.71,0,0,0,12.09,2c4.23.25,8.46.18,12.5-1.39,5-1.93,8-5.42,8.62-10.74a2.1,2.1,0,0,0-1.84-.06,71.6,71.6,0,0,1-21,1.25c-3.56-.29-6.79-1.78-10.32-1.82a77.19,77.19,0,0,1-24.33-13c-1.93,7.56-.35,12.42,5.24,16.5A39.62,39.62,0,0,0,1187,806.69ZM328.41,404.42c-.57-2.41-.72-4.94-2-7.25-3.14.68-4.85,2.91-6.43,5.23-3.82,5.61-5.32,11.65-3.07,18.3,1.33,9.13,3.81,17.89,8.43,25.94a19.64,19.64,0,0,0,5.21,6.08c3.13,2.33,6.47,2.71,10.35.81-4-4.13-7.86-7.85-10.71-12.42-5.33-8.56-7.41-17.45-1.76-26.62,1.57-2.54,2.23-4.69.92-7.34C329,406.27,329.19,405.16,328.41,404.42Zm852.46,469.35a41.46,41.46,0,0,0-.42,10.07c.19,4,3,6.59,6.46,6.35,3.83-.27,6.13-2.85,6.27-7q.94-26.28,1.91-52.56c.09-2.24,1.18-5-.26-6.54s-4.19-1-6.38-1.3c-1.89-.42-3.76-1-5.69-.79a22.06,22.06,0,0,0-.43,2.66c-.3,8.39-.68,16.79-.82,25.19C1181.37,857.84,1180.6,865.79,1180.87,873.77Zm10.46-93a18.21,18.21,0,0,0,3.52,1.36,46.27,46.27,0,0,0,25.72-2.3c6.85-2.73,10.2-9.23,8.65-16.79a13.31,13.31,0,0,0-4,1,93.28,93.28,0,0,1-16.55,3.22c-7,.73-14,.12-21-.7a98.63,98.63,0,0,1-12.42-3.85c-3.92-1.68-7.74-3.58-11.91-5.52.21,3.83,1.35,6.69,3.81,9.06a69.12,69.12,0,0,0,13,10C1183.61,778.28,1187.19,780.3,1191.33,780.81ZM475.25,738.35l-.42,1.5c-4,6.85-1.2,16.7,6,20.37,6.65,3.39,13.49,6.41,20.23,9.61,1.18.56,2.09.63,2.78-.73,1.78-3.51,3.62-7,5.44-10.48,3-5,5.89-10.1,8.93-15.32-1.59-.82-2.82-1.47-4.06-2.1a203.94,203.94,0,0,0-20.95-8.88c-7.2-2.69-12.67-1.1-17.32,5.16C475.45,737.62,475.15,737.84,475.25,738.35Zm543.22-70a252.63,252.63,0,0,0,25.7,2.93c-7.48-9.5-25.37-21.32-43-27.22a22.61,22.61,0,0,1-3.59-1.21c-5-2.6-8.75-1.57-13.17,2.21s-6.78,7.39-7.19,12.91c-.28,3.8-.53,3.8,3.4,4.48q17.93,3.09,35.84,6.17A2.29,2.29,0,0,0,1018.47,668.4Zm171.69,63.43a7.35,7.35,0,0,0-3.23-.9,102,102,0,0,1-14-2.94c-2.15-.68-4.3-1.32-6.43-2-1.22-.41-2.16-.4-2.8.93-2.07,4.26-.56,10.75,3.28,13.73a58.34,58.34,0,0,0,22.73,10.68c2.65.62,5.39,1.68,8.24.78,10.66,1.05,20.69-1.53,30.47-5.45a5.26,5.26,0,0,0,1.4-.91c5.23-4.47,7.19-14.52,4.1-21-.79.28-1.6.52-2.37.85-9.72,4.16-19.92,5.91-30.42,6.32C1197.44,732,1193.8,731.15,1190.16,731.83ZM363.61,389.68c0-5.19.49-10.4-.23-15.57a154.2,154.2,0,0,0-4.16-19.83c-1.32-4.76-2.61-9.54-5-13.89-1.67-3-4.18-3.61-7.07-1.8a8.41,8.41,0,0,0-3.06,3.42,33.56,33.56,0,0,0-3.22,9.1c-1.76,9.21-1.56,18.49-.84,27.76.45,5.72.51,11.52,2.48,17a11.47,11.47,0,0,0,1.49,5.64,47,47,0,0,1,15.41-2.4c5.26.12,5.27,0,4.56-5.51-.06-.42-.19-.82-.29-1.23l.23-1.54A.75.75,0,0,0,363.61,389.68Zm831,326.6a65.55,65.55,0,0,0,34.71-6.5,5,5,0,0,0,3-3.74c2.52-10.62-.73-18.34-10.36-24.16a34,34,0,0,0-15.43-5.27c-14-1.6-26.62,1.56-37.2,11.19-6,5.51-7,11.43-4.28,18.73a6.38,6.38,0,0,0,3.92,4.06,94.46,94.46,0,0,0,18.28,5.08C1189.57,716.07,1192,717.22,1194.57,716.28ZM379.38,392.52c-.24,2.26.37,4.48.34,6.71,0,2.47,1.25,3.4,3.39,4.07a136.93,136.93,0,0,1,28.09,12.39c.76.44,1.56,1.22,2.79.52q-2.37-8.44-4.75-16.9c-.31-1.5-.58-3-.94-4.49a375.87,375.87,0,0,1-8.84-54.08,17.89,17.89,0,0,0-.58-3.74c-1.14-3.53-3.15-4.26-6.44-2.56s-5.11,4.85-6.43,8.1a95.72,95.72,0,0,0-6.08,24.36A134.65,134.65,0,0,0,379.38,392.52Zm815,268.49c1.55.48,3.09-.28,4.63,0,2,.35,2.42-1,2.47-2.5.08-3,0-5.91.14-8.85q1-28.89,2-57.76,1.26-35.62,2.55-71.26c.85-23.61,1.65-47.22,2.53-70.83.77-20.8,1.64-41.59,2.45-62.39.16-4.07.33-8.15.32-12.23,0-4.77-2.79-7.26-7.37-6.88-3.48.45-5.12,2.55-5.37,5.93-.13,1.69-.37,3.37-.43,5-.44,12.07-.83,24.14-1.27,36.2-.43,11.79-.92,23.58-1.34,35.37-.49,13.88-.92,27.77-1.4,41.66-.35,9.83-.77,19.65-1.11,29.47-.48,13.75-.9,27.5-1.39,41.25-.43,11.92-1,23.85-1.37,35.77q-.78,21.88-1.48,43.77c-.21,6.29-.43,12.58-.66,19A22.65,22.65,0,0,0,1194.34,661ZM843.43,985.43a12.35,12.35,0,0,0-2.35-6.22c-2.78-4.4-5.54-8.82-8.48-13.1a409.19,409.19,0,0,0-36.37-46A331.41,331.41,0,0,0,760.82,887a5.91,5.91,0,0,0-6.27-1.06c-4.47,1.61-7.78,4.38-9.43,8.94-2.63,4-3,8.63-3.72,13.21-.51,3.22.47,5.34,2.94,7.31,22.17,17.75,41.07,38.63,57.92,61.39,4.7,6.36,9.28,12.8,13.57,19.46s11.55,8.58,18.51,6C839.74,1000.15,845.58,992.2,843.43,985.43Zm204.68-436.06c-.47,1.17-1,2.32-1.42,3.51a222.29,222.29,0,0,1-21.06,44.6c-.85,1.37-1.57,2.82-2.48,4.46a13.79,13.79,0,0,0,2,.33c23.23-.24,42.16-17,46-38.06,1.55-8.62,2.94-17.26,4.38-25.9.22-1.37.74-2.74.32-4.17a14.57,14.57,0,0,0,1.15-4.49q6.52-38.61,13-77.21c.18-1.11.25-2.24.37-3.35a.85.85,0,0,0-.21-1.11c1.09-17-13.94-33.34-28.5-34.47-.47.81-.13,1.62,0,2.43,3.19,20.85,2.49,41.74.67,62.63-.63,7.28-1.48,14.56-2.56,21.79-1,6.83-2.19,13.67-3.78,20.38-2,8.47-4.48,16.83-6.76,25.23-.52.15-.78.45-.63,1C1048.47,547.78,1048.29,548.57,1048.11,549.37Zm-535-111.13c-2.34,11.59-4.79,23.18-5.64,35-1.46,20.38,11.67,39.8,31.3,46.87.58.22,1.31.5,1.91-.22-.1-.67-.15-1.37-.31-2a233.32,233.32,0,0,1-5.66-44.75c-.13-3.5.31-7-.39-10.5a8.43,8.43,0,0,0,.43-3.75,248.73,248.73,0,0,1,2.65-33.18,228.86,228.86,0,0,1,4.41-24.11c1.87-7.65,3.52-15.35,5.75-22.91,4.46-15.12,9.38-30.06,16.66-44.13.75-1.46,1.86-2.85,2-4.67-2.24-1.26-4.67-.81-7-.72-14.63.5-28.48,11.69-31.66,25.51a.84.84,0,0,0-.55,1c-.21.81-.47,1.62-.62,2.45q-6.46,38.19-12.9,76.39C513.28,435.7,513.26,437,513.15,438.24ZM577.29,616.1a109.17,109.17,0,0,0,7.65,9c16.06,16.94,34.9,30.17,55.29,41.31,34.44,18.81,71.45,30.17,109.82,37.43A445.77,445.77,0,0,0,795.71,710c12.49,1,25,1.62,37.51,1.43,26.14-.39,51.94-3.38,77.16-10.64a204.14,204.14,0,0,0,41.77-17.07c5-2.71,7.33-6.12,7.1-11.58l1.59-9.35c-1.1-.41-1.55.29-2.12.61a200.54,200.54,0,0,1-19.67,9.85,241.26,241.26,0,0,1-67.74,17.44c-33.27,3.76-66.39,2-99.39-2.9a487.18,487.18,0,0,1-60-12.6c-24.93-7-49-16.09-71.61-28.67-22.12-12.29-42-27.44-58.59-46.69-.54-.63-1-1.43-2.17-1.12l-1.68,9.91q-.51,3.28-1,6.56C576.61,615.63,576.84,615.91,577.29,616.1ZM1094.1,775a38.77,38.77,0,0,0,10.33,11.57c5.3,4.2,11.35,6.37,17.94,8,7.43,1.85,14.74,1.79,22.2,1.33,1.92-.12,2.78-.83,2.42-2.91-1.24-7.34.33-14.29,3.25-21a4.18,4.18,0,0,0,.12-3.62,32.66,32.66,0,0,1-1.06-22.75,5.63,5.63,0,0,0,0-3.67c-3-8.44-2.1-16.6,1.81-24.55.47-.95,1.2-1.9.5-3.14-2.24-4-2.64-8.54-3.66-12.89.11-1,.25-2,.32-2.94.74-9.15,4.4-16.85,11.45-22.82a69.38,69.38,0,0,1,10.39-7.27c3.19-1.82,3.24-2,2.19-6.09-2.25,1.24-4.45,2.48-6.67,3.68a183.07,183.07,0,0,1-59.09,19.69,8.67,8.67,0,0,0-5.45,2.79,64.68,64.68,0,0,0-10.38,14.87c-6,12.32-8,25.37-6.78,38.93C1085,753.83,1087.57,765,1094.1,775ZM431.51,490.82c2.75-3.83,3.88-8.36,5.44-12.69a4.82,4.82,0,0,0-.34-4,303.21,303.21,0,0,1-13.1-30.26,7.75,7.75,0,0,0-3.78-4.23c-13.05-7.57-26.44-14.43-40.78-19.24-6.67-2.23-13.45-4.14-20.63-3.9-3.85.12-7.74.37-11,2.42-6.54,4.09-7.43,7.11-4.39,13.19a28.38,28.38,0,0,0,1.74,2.89c3.9,6,9.08,10.77,14.44,15.35,9.64,8.25,19.39,16.37,29.06,24.57.68.57,1.8.93,1.53,2.67a44.8,44.8,0,0,0-9.72-2.33c-.31-.28-.57-.71-.93-.82A101.46,101.46,0,0,1,357.82,465a4,4,0,0,0-4.67.07,33.16,33.16,0,0,1-13.48,4.72c-1.65.19-2.12,1.08-2.64,2.23a21.87,21.87,0,0,1-4.83,7.38,2.93,2.93,0,0,0-.8,3.73c1.11,2.59,1.89,5.32,3,7.9,6.87,16.1,16.52,30.12,30.55,40.88a6.89,6.89,0,0,0,4.63,1.59,69.25,69.25,0,0,0,25.93-5.37c16.54-7.25,27.83-19.81,35.74-35.71A5.42,5.42,0,0,0,431.51,490.82ZM982.79,838.71a19.64,19.64,0,0,0-2.93-.34c-9.86.33-19.72.16-29.56-.38-3-.17-4.48.77-5.72,3.45-10.86,23.44-23,46.21-36.13,68.44a674.78,674.78,0,0,1-47.05,69.75,10,10,0,0,0-2.39,7.24c.92,15.72-11.25,30-26.94,31.43a9.11,9.11,0,0,0-6.41,3.25c-9.67,10.48-20,20.31-30.59,29.82-4,3.56-8.45,6.55-12,10.63-5.42,4-10.93,7.94-16.22,12.14-2.36,1.88-5.2,3.22-7.31,5.77,8.19,6.85,15.92,13.88,24.24,20.13,10.42,7.83,21.78,8.4,33.43,2.45,4.58-2.34,8.22-5.94,12.11-9.16a519.31,519.31,0,0,0,50.43-48.19,680.29,680.29,0,0,0,76-100.37,834.89,834.89,0,0,0,52-97.59c1.41-3.12,3.11-6.18,4-9.91-6.72.31-13,.55-19.34.91C989.18,838.37,985.94,837.77,982.79,838.71ZM573.06,853.2c.36.7,1.12.82,1.73,1.13,15.37,7.71,30.69,15.52,45.71,23.89A611.5,611.5,0,0,1,673.81,911c5.41,3.8,10.81,7.63,16.49,11.63,25.35-36.31,50.67-72.43,77.08-108.06-11-8.84-22-17.3-33.43-25-.38-.87-1.33-1-2-1.46a588,588,0,0,0-88.6-51.39,477.88,477.88,0,0,0-44.52-18.17c-2.14-.75-3.32-.77-4.63,1.52-8.13,14.31-16.48,28.49-24.72,42.73-1.35,2.33-1.29,2.4,1.29,3.48,3.89,1.63,7.81,3.18,11.7,4.83,4.53,1.93,6,4.94,5,9.82a18.28,18.28,0,0,1-2.21,5q-14.78,28-29.62,56c-.42.79-1.22,1.53-.84,2.86C560.81,847.57,566.73,850.81,573.06,853.2ZM560.27,614.07a3.51,3.51,0,0,0,1.56-2.39c1.27-7.66,2.55-15.33,3.9-23a2.43,2.43,0,0,0-1.2-2.83c-.84-.52-1.63-1.1-2.48-1.61a425.12,425.12,0,0,1-41.34-28.48,584.9,584.9,0,0,1-58.58-52.33c-4.33-4.39-8.6-8.84-12.85-13.22-1.25.83-1.46,2-1.91,3a111.36,111.36,0,0,1-16.22,26.54,84.28,84.28,0,0,1-32.7,23.92c-7.7,2.29-15.42,4.46-23.91,4.88,12.36,35.66,31.16,67.15,55.7,95.27a294.41,294.41,0,0,0,62.17,53.92c1.54-2.32,2.9-4.28,4.18-6.28,16-25,34.11-48.36,55.18-69.35,2.37-2.37,5.16-4.34,7-7.2a.77.77,0,0,0,.6-.33A.64.64,0,0,0,560.27,614.07ZM1517.75,412a31.11,31.11,0,0,0,5.37-7.52L1226.2,393.88c-.09,2.81-.86,5.16-.12,7.54-.85,2.89-.5,5.88-.63,8.81-.53,11.93-1,23.87-1.37,35.8q-.86,24.63-1.66,49.27c-.29,8.84-.53,17.68-.79,26.52-.21,3.93-.47,7.85-.61,11.78-.29,8-.56,16-.74,24.06-.07,2.9,0,3,3,3.22,5.2.32,10.41.49,15.62.66,13.65.46,27.3.85,40.94,1.34,14.08.51,28.14,1.14,42.22,1.64,16.32.59,32.64,1.06,49,1.65,16,.58,32.08,1.27,48.12,1.84s32.36,1,48.54,1.63c13.94.49,27.86,1.14,41.8,1.51,2.24.06,4.63.72,6.93-.1a5.09,5.09,0,0,0-.3-1.08q-14.91-22.61-29.84-45.2-10.39-15.71-20.82-31.39a8,8,0,0,1-.57-8.39c.42-.89,1.24-1.58,1.26-2.65a31.17,31.17,0,0,0,4.31-5.21q22.5-30.79,45-61.6A12,12,0,0,0,1517.75,412ZM562.45,536.74l.07.18a3.64,3.64,0,0,0,.55,2.41c10.75,28.22,28.17,51.65,51.26,70.93,18.46,15.42,39.21,27,61.3,36.32a358.68,358.68,0,0,0,64.11,19.85,483.82,483.82,0,0,0,51.82,8.42c13.61,1.42,27.22,2.4,40.89,2.49,28.68.18,56.86-3,84.22-12.1a181.4,181.4,0,0,0,42-19.89,172.55,172.55,0,0,0,54.59-57c14.88-24.83,23.85-51.86,29.48-80.07a308.64,308.64,0,0,0,5.17-43.63c.63-11.69,1-23.37,0-35a223.77,223.77,0,0,0-17.79-69.4c-.52-1.21-.49-2.82-2-3.46-1-1.54-.89-3.42-1.69-5.09a237.27,237.27,0,0,0-33.17-51.41,243.66,243.66,0,0,0-49.54-44.5,260.66,260.66,0,0,0-132.1-44.34,256.19,256.19,0,0,0-92.13,11.21,240.85,240.85,0,0,0-77.08,40.46c-18.42,14.44-34.07,31.49-47.76,50.52-18.36,25.5-29,54.19-36.1,84.36a241.49,241.49,0,0,0-5.22,27.75c-1,8.66-2.1,17.3-2.62,26a225.59,225.59,0,0,0,3.15,54.62c1.87,10.12,4.16,20.16,8.27,29.67C561.77,536.5,562,536.71,562.45,536.74ZM287.19,954.89c-2.73-4.11-5.66-8.1-8.17-12.34-16.27-27.45-25.65-56.86-25.07-89.07.05-2.44-.38-2.71-2.66-1.5-8.46,4.5-17,8.79-25.28,13.68a170,170,0,0,1-33.14,15.7,10.52,10.52,0,0,1-4.55,1,83.59,83.59,0,0,1,11-16.5,23.35,23.35,0,0,0-1.38-2.12c-6.69-8.24-14.14-15.65-23.07-21.51-16-10.51-33.25-14-52-9.8-16,3.6-29.9,11.41-42.66,21.45a41.29,41.29,0,0,0-7,5.46c-8.08,7.1-11.81,16.52-12.69,26.83C59.47,898.73,63.63,910,71,920.22s15.61,19.28,24.07,28.37c15.29,16.44,31.55,31.91,47.37,47.83,12.75,12.82,25.29,25.8,35.45,40.88,4,6,10.3,9.1,17.21,10.71,11.48,2.68,22.72,1.32,33.77-2.35a92.4,92.4,0,0,0,35.32-21.09c11.52-11.08,24.74-19.6,38.79-27,4.94-2.6,10-5.05,15.3-7.74A239.42,239.42,0,0,1,287.19,954.89ZM583.4,645.79c-4.71-5.06-9.8-9.75-14.24-15.07-1.76-2.11-1.84-2.13-3.81-.24q-8.65,8.38-16.65,17.43a444.5,444.5,0,0,0-45.18,61.62c-1.65,2.68-3.57,5.27-4.66,8.46,8.85,3.53,17.48,7,25.69,11.35,1.26.67,2.09.47,2.7-.85a18.34,18.34,0,0,1,1.32-2.16c6.73-10.41,13.49-20.79,20.77-30.83,2.59-3.58,5.75-5.23,10.18-4,5.16,1.38,10.33,2.73,15.52,4a377.89,377.89,0,0,1,50.83,16.86,549.79,549.79,0,0,1,76.65,38.31q21.59,12.87,42.1,27.36c12.81,9,25.14,18.6,37.17,28.61a10.26,10.26,0,0,1,3.79,7.66c.71,10,1.63,19.94,2.44,29.91a13,13,0,0,1-2.55,9.42c-4.84,6.41-9.33,13.08-14,19.6-.89,1.24-1,2,.37,3,6.73,5.36,13.25,11,19.42,17,5.67,5.49,11.16,11.16,16.73,16.75a2.54,2.54,0,0,0,.32.75,392,392,0,0,1,40.44,52.11c.88,1.34,1.62,2.89,3.34,3.87,30.47-40.28,55.62-83.42,77.55-129.11a109.51,109.51,0,0,1-18.3-4.46c-5.72-2.06-11.4-4.27-16.52-8.52,8.86-2,31.09-3.45,41.48-2.6,12.94,1.06,25.9,1.25,38.86,1.16a499.45,499.45,0,0,0,70.82-5c16.34-2.45,32.45-5.92,48-11.66,2.45-.91,5.13-1.48,7.35-3.35-1.54-1-3-2-4.33-2.93-8.44-6-14.58-14-19.41-23-13.21-30.21-12.73-59.88,3.9-89.09-1.71-.1-3-.26-4.2-.24-25.27.45-50.27-2.24-75.17-6.21-7.81-1.24-15.6-2.62-23.39-3.94l-2.93-.48c-1.19-.18-1.91.24-1.94,1.54,0,.84-.05,1.69-.08,2.53a4,4,0,0,0-.76,2.38c-.24,3.9-2.35,6.54-5.54,8.5-2.4,1.47-4.76,3-7.18,4.46-20,11.86-41.82,19-64.45,23.69-40.46,8.39-81.19,7.88-122,2.71-9.78-1.24-19.55-2.75-29.25-4.75-12.28-2.52-24.5-5.23-36.6-8.52a361.74,361.74,0,0,1-64.82-24.26A265.74,265.74,0,0,1,596.9,656.8c-4-3.1-7.57-6.7-11.9-9.37l-.91-.87C584.16,646,584,645.76,583.4,645.79Zm-39.32,518c-14.3-7.36-28-15.59-40.69-25.61a230.9,230.9,0,0,1-53.24-59.7c-4.75-7.65-8.83-15.64-12.94-23.84a12.37,12.37,0,0,0-1.31,1.31c-5.63,7.94-11.45,15.74-16.81,23.86-7.61,11.55-15.49,22.87-24.83,33.11-1.06,1.17-1.89,2.72-3.5,3.13-.88-2.42-.24-4.62.1-6.84a85.54,85.54,0,0,1,4.25-16.75c.63-1.73.57-3-1.55-3.47a13.83,13.83,0,0,1-2.32-1,185.56,185.56,0,0,0-28-9.43c-14.52-3.66-29.14-5.17-44-2.82-21.68,3.44-38,15-49.23,33.75-.23.15-.54.26-.66.48a155.23,155.23,0,0,0-12.24,29.16c-1.69,5.65-.71,10.47,1.67,15.43a40,40,0,0,0,8.39,11.06c7.48,7.37,16.56,12.68,24.76,19.11,12.66,9.91,25.56,19.51,38.21,29.45q27.45,21.55,54.66,43.41c17.69,14.23,35.56,28.28,52.26,43.68a29.76,29.76,0,0,0,19.41,8.13,77.94,77.94,0,0,0,42.38-9.58c8.72-4.81,16-11.25,19.41-20.93A153.72,153.72,0,0,1,530,1254.55c12.76-22.39,28.16-42.88,45.06-62.28,3.58-4.12,7.26-8.15,11.3-12.69A270.25,270.25,0,0,1,544.08,1163.83Zm11.4-12c.17.22.29.54.51.64a249.22,249.22,0,0,0,39,13.69c3,.81,4.85-.07,7-2.12a385.59,385.59,0,0,1,55.92-45.1A337.46,337.46,0,0,1,705,1093.14c17.44-7.85,33.7-17.76,49.26-28.78a342.64,342.64,0,0,0,29.13-23.15c9.19-8.15,18.16-16.52,26.65-25.4,1.92-2,1.93-2.16-.31-3.8a29.51,29.51,0,0,1-7.05-7.82c-5.26-8-10.84-15.84-16.66-23.48A328.42,328.42,0,0,0,741.72,933c-2.48-2.17-5.1-4.2-7.77-6.4L712.7,956.71q-4.87,6.91-9.72,13.86a7.6,7.6,0,0,1-7.25,3.46c-2.42-.19-4.2-1.53-5.94-3-7.39-6.13-15.14-11.78-23-17.2-23.3-16-47.71-30.05-72.51-43.5s-50.27-26.13-75.9-38.2c-5.46-2.57-10.73-5.6-16.59-7.27-4.17-3-9.08-4.43-13.65-6.58-3.42-1.6-5.26-4-5.59-7.74-.56-6.31-1-12.66-2-18.9a27.21,27.21,0,0,1,2.26-17.13c.82-1.63,1.43-3.36,2.11-5.06,3.05-7.58,6.43-15,9.94-22.38,1.27-2.66,1.23-2.75-1.48-4-7.35-3.49-14.74-6.92-22.26-10.45a14.76,14.76,0,0,0-1.14,1.88c-3.22,8-6.46,15.9-9.58,23.9-1.78,4.58-3.26,9.28-5,13.87-1.62,4.28-5.84,6.33-9.84,4.73-9.38-3.75-19.14-5.46-29.16-6.4-16.81-1.59-33.46-.53-50.07,2-19.86,3-39.13,8.29-58.05,14.89-12.11,4.23-24,9.06-35.68,14.35-1.84.83-3.17,1.69-3.21,3.89,0,2.8-.24,5.6-.28,8.41a142,142,0,0,0,8.08,48.5,157.3,157.3,0,0,0,25.23,46.61,5.83,5.83,0,0,0,.55,1.12A234.47,234.47,0,0,0,332,981.57c1.89,1.73,3.45,1.12,5.32.39a416,416,0,0,1,44.2-14.53,355.73,355.73,0,0,1,57.27-10.84,267.84,267.84,0,0,1,29.69-1.26,132.41,132.41,0,0,1-8.94-23.63,89.14,89.14,0,0,1-3.47-25.08c1.61.6,1.74,2,2.26,3.11,4.78,10.06,9.36,20.24,15.45,29.6s12,18.5,21.59,24.62c1.49.95,2.21,1.38,3.88.09a162.14,162.14,0,0,1,24.39-16c11.81-6.15,23.92-11.47,37.25-13.42,2.2-.32,4.49,0,6.6-1l2.52.22c.59.43,1.68.26,1.67,1.4-3.12,1.91-6.2,3.89-9.38,5.71-17.13,9.82-34,20.12-49.46,32.39-4.42,3.49-9,6.87-13.11,10.66-17.84,16.28-33.83,34.29-49.14,52.93-2.24,2.74-2.27,4.79-.89,7.84a222.9,222.9,0,0,0,28.4,46.41,211.18,211.18,0,0,0,63.33,53.87C546,1147.59,550.42,1150.36,555.48,1151.8Zm25.15-438.66a12.26,12.26,0,0,0-2.36-1.21c-5.5-1.18-10.84-3-16.37-4.17-1.82-.38-2.54.08-3.39,1.31-2,2.91-4.06,5.77-6,8.7-10.31,15.47-20.15,31.24-29.14,47.52a457.14,457.14,0,0,0-24.8,51.25c-1.2,3-1.19,3.06,1.68,4.23,12.52,5.12,24.91,10.59,37.25,16.13,2.76,1.23,2.82,1.27,4.19-1.32q13.47-25.38,26.9-50.79c.87-1.63.94-2.65-1.12-3.42-4.08-1.54-8.05-3.4-12.12-5-5.9-2.28-7.31-7-4.09-12.64,3.54-6.25,7.19-12.44,10.8-18.65ZM496.52,835.76c.13,2.07.36,3.57.3,5.07-.15,3.57,1.56,5.34,4.82,6.81,33.43,15.06,66.37,31.13,98.65,48.55,25.44,13.74,50.47,28.16,74.33,44.53,3.52,2.41,7,4.85,10.72,7.41.45-2-.3-3.47-.32-5,0-4.16-2.14-6.81-5.46-9.28-22.49-16.67-46.31-31.2-70.85-44.57-29.87-16.27-60.46-31.08-91.63-44.7C510.4,841.68,503.69,838.84,496.52,835.76ZM701.3,945.62c.21-.07.4-.06.46-.15L725,912.72a4.51,4.51,0,0,0,1.19-3.09c-.36-3.3.81-6.41,1.14-9.62a7.22,7.22,0,0,0,0-3.65c-7.83,11.23-15.08,22.13-22.87,32.62C700.65,934.18,698.16,939.17,701.3,945.62Zm42.3-72.12c3.46-.79,5.8-2.51,8.62-2.77,2.11-.2,3.47-1.45,4.67-3.2,4.46-6.51,9.08-12.91,13.61-19.38,2.37-3.38,2.58-8.57.53-12.92Zm483.76-218.12c.27-2.56.55-4.51.66-6.48a21.47,21.47,0,0,0-.23-3.75c-.64-5.11-3.75-9.24-7.59-10.14-2.33-.55-2.68-.39-2.79,2-.33,6.7-.52,13.41-.81,20.11-.26,6.16,0,6.46,6,8,1.33.34,1.83,0,2.16-1.08Z"/><path class="cls-2" d="M1095,140.09c-1.43-.22-2-1.36-2.51-2.55a26.67,26.67,0,0,1-1.64-9.1c-.08-1.4-.07-2.81-.14-4.21-.24-4.71-2.51-8-7-9.53a42.34,42.34,0,0,1-9.24-4.13c-2-1.26-4.52-2.41-3.94-5.38s3.38-3.06,5.65-3.59a46.07,46.07,0,0,1,9.67-.83c5.08-.1,8.46-2.41,10.2-7.27a43.9,43.9,0,0,1,3.76-8.47,19.45,19.45,0,0,1,2.47-3.4c1.94-2,4.23-1.61,5.56.78a16,16,0,0,1,1.61,6.09c.28,2.52.41,5.06.45,7.59.08,5,2.58,8.15,7.11,9.93,3.13,1.24,6.37,2.27,9.22,4.13a15.9,15.9,0,0,1,3,2.32c1.57,1.69,1.27,3.65-.62,5.06a11.43,11.43,0,0,1-5.14,1.79,65.27,65.27,0,0,1-8.83.59,10.2,10.2,0,0,0-10,7.13c-1.38,3.7-2.69,7.42-5.07,10.63C1098.47,139.15,1097.21,140.54,1095,140.09Z"/><path class="cls-3" d="M1129.93,1092.2a3.88,3.88,0,0,1-2.6,2.52c-3.19,1.37-6.6,1.42-10,1.52-6.48.2-8.69,1.67-11,7.68a36,36,0,0,1-4.12,8.29c-1,1.34-2,2.78-4.11,2.36-1.9-.39-2.31-2-2.75-3.43a33.08,33.08,0,0,1-1.14-9.61c0-5.6-2.16-8.56-7.48-10.39a33.86,33.86,0,0,1-8-3.75c-1.47-1-3.25-2-2.85-4.29s2.26-2.75,4-3.19a34.21,34.21,0,0,1,8.8-.87c5.57.11,9.15-2.49,10.67-7.7a29.57,29.57,0,0,1,4-8.31c.88-1.28,1.89-2.53,3.72-2.34,2.06.21,2.66,1.73,3.22,3.42,1.13,3.42,1,7,1.12,10.45.11,4.49,2.25,7.4,6.33,9,3.51,1.43,7.14,2.63,10.18,5A4.35,4.35,0,0,1,1129.93,1092.2Z"/><path class="cls-3" d="M136.39,1229.59a4.31,4.31,0,0,1-2.88-3.06,30.35,30.35,0,0,1-1.44-7.43c-.36-4.21-2.65-6.7-6.67-7.63a24.57,24.57,0,0,1-7.45-2.8c-3-1.87-3-3.94.31-5.5a22.68,22.68,0,0,1,6.94-1.73c6.14-.8,7-1.61,8.73-7.29a24.89,24.89,0,0,1,2.46-6.23c.83-1.35,1.63-3,3.39-2.71s2.38,1.88,2.78,3.4a40.11,40.11,0,0,1,1.27,6.18c.44,4.59,2.38,7.55,7.23,8.51a17.64,17.64,0,0,1,7,2.79c1,.74,2.31,1.52,2.14,2.9a3.53,3.53,0,0,1-2.87,2.78,27.56,27.56,0,0,1-5.75,1.28c-5.48.32-9,2.52-9.8,8.41a15.47,15.47,0,0,1-3.09,6.86A2.49,2.49,0,0,1,136.39,1229.59Z"/><path class="cls-3" d="M1268.71,1126.27c.22-5,5.4-8.46,10.66-7.73s8.67,6,7.71,11.17c-.92,5-5.93,8.7-10.82,7.69C1270.9,1136.28,1267.19,1131.5,1268.71,1126.27Z"/><path class="cls-3" d="M904.11,1292.21a9.17,9.17,0,0,1,7.78,11.06c-.93,5.14-5.64,8.28-11,7.36s-8.31-5.17-7.36-10.78S898.68,1291.26,904.11,1292.21Z"/><path class="cls-3" d="M283.91,18.55c-5.52-1-8.53-5.22-7.53-10.69a9.34,9.34,0,1,1,18.44,3C293.87,16.71,289.79,19.57,283.91,18.55Z"/><path class="cls-3" d="M276.74,216.09a9,9,0,0,1-7.64-10.69,9.1,9.1,0,0,1,11.07-7.68c5.24,1,8.31,5.53,7.34,10.91S282.24,217.05,276.74,216.09Z"/><path class="cls-3" d="M174.85,481.07c-5.09-.78-8.39-5-7.74-9.8a8.86,8.86,0,0,1,10.14-7.88,8.61,8.61,0,0,1,7.55,10.26C184,478.75,179.84,481.84,174.85,481.07Z"/><path class="cls-3" d="M10.18,1162.05c5.34.81,8.42,5,7.54,10.22a8.81,8.81,0,0,1-10.38,7.51,9.1,9.1,0,0,1-7.23-10.33A8.75,8.75,0,0,1,10.18,1162.05Z"/><path class="cls-3" d="M1191.18,247.6a7.75,7.75,0,0,1,9.16-6.58,8.05,8.05,0,0,1-2.78,15.86C1193.86,256.16,1189.82,252.34,1191.18,247.6Z"/><path class="cls-3" d="M1351.23,314a7.92,7.92,0,0,1-6.52-9.29,7.75,7.75,0,0,1,9.26-6.48,8,8,0,0,1,6.64,9.23A8.28,8.28,0,0,1,1351.23,314Z"/><path class="cls-3" d="M484.76,44.4a5,5,0,0,1-4.52-5.54,4.84,4.84,0,0,1,5.69-4.26,4.94,4.94,0,1,1-1.17,9.8Z"/><path class="cls-3" d="M1207.41,1272.92a5,5,0,1,1-2.43,9.66,4.88,4.88,0,0,1-3.56-5.78A4.93,4.93,0,0,1,1207.41,1272.92Z"/><path class="cls-3" d="M1057.67,1378.3a5,5,0,0,1-6.16,3.63,5.06,5.06,0,0,1,2.51-9.8A5.17,5.17,0,0,1,1057.67,1378.3Z"/><path class="cls-3" d="M96.4,288a5,5,0,0,1-3.64-6.14c.75-2.4,3.62-4.19,5.91-3.68a4.87,4.87,0,0,1,3.63,6.46A4.79,4.79,0,0,1,96.4,288Z"/><path class="cls-3" d="M60.33,1039.89a4.48,4.48,0,0,1-3.92-5.05c.35-3,2.24-4.57,5.08-4.23a4.49,4.49,0,0,1,4.23,5.19A4.71,4.71,0,0,1,60.33,1039.89Z"/><path class="cls-3" d="M1431.18,202.92a4.07,4.07,0,0,1-3.6-4.77c.47-2.33,2.53-3.57,5.13-3.08s3.63,2,3.22,4.47C1435.48,202.19,1433.79,203.4,1431.18,202.92Z"/><path class="cls-4" d="M570,933.87l-2.52-.22c-.44-.88-1.31-1-2.13-1.16-3-.68-6.18-.53-9.24-.93A117.34,117.34,0,0,0,515,933.41a21.15,21.15,0,0,1-13.65-1.31A27.51,27.51,0,0,1,490.36,923a300.29,300.29,0,0,1-26.26-41.9c-1.6-3.15-3.06-6.39-5-9.35-3.31-5.18-9.43-4.71-12,.8-.66,1.4-1.14,2.88-1.66,4.34a114.36,114.36,0,0,0-5.77,24.66c-2,15.83-15.59,25-28.21,25.72a405,405,0,0,0-45.38,4.94,329,329,0,0,0-63.71,17,157.3,157.3,0,0,1-25.23-46.61,142,142,0,0,1-8.08-48.5c0-2.81.24-5.61.28-8.41,0-2.2,1.37-3.06,3.21-3.89,11.69-5.29,23.57-10.12,35.68-14.35,18.92-6.6,38.19-11.9,58.05-14.89,16.61-2.5,33.26-3.56,50.07-2,10,.94,19.78,2.65,29.16,6.4,4,1.6,8.22-.45,9.84-4.73,1.75-4.59,3.23-9.29,5-13.87,3.12-8,6.36-15.94,9.58-23.9a14.76,14.76,0,0,1,1.14-1.88c7.52,3.53,14.91,7,22.26,10.45,2.71,1.29,2.75,1.38,1.48,4-3.51,7.37-6.89,14.8-9.94,22.38-.68,1.7-1.29,3.43-2.11,5.06a27.21,27.21,0,0,0-2.26,17.13c1,6.24,1.42,12.59,2,18.9.33,3.76,2.17,6.14,5.59,7.74,4.57,2.15,9.48,3.6,13.65,6.58.21,1.59,1.61,2.26,2.6,3.2A232.19,232.19,0,0,0,533,890.48c22.17,15.12,45.49,28.34,69.23,40.82a81.36,81.36,0,0,1,33.57,32.5c11.13,19.56,12.83,40.64,9.58,62.3a93.27,93.27,0,0,1-3.75,14.7A118.65,118.65,0,0,1,612.14,1089q-24.92,24.81-47.75,51.54c-3.1,3.61-6.72,6.86-8.91,11.22-5.06-1.44-9.5-4.21-14-6.72a211.18,211.18,0,0,1-63.33-53.87,222.9,222.9,0,0,1-28.4-46.41c-1.38-3-1.35-5.1.89-7.84,15.31-18.64,31.3-36.65,49.14-52.93,4.15-3.79,8.69-7.17,13.11-10.66,15.51-12.27,32.33-22.57,49.46-32.39,3.18-1.82,6.26-3.8,9.38-5.71.73-.16.91-.72.54-1.21A1.43,1.43,0,0,0,570,933.87Z"/><path class="cls-5" d="M562.06,536c-4.11-9.51-6.4-19.55-8.27-29.67a225.59,225.59,0,0,1-3.15-54.62c.52-8.72,1.62-17.36,2.62-26A241.49,241.49,0,0,1,558.48,398c7.13-30.17,17.74-58.86,36.1-84.36,13.69-19,29.34-36.08,47.76-50.52a240.85,240.85,0,0,1,77.08-40.46,256.19,256.19,0,0,1,92.13-11.21,260.66,260.66,0,0,1,132.1,44.34,243.66,243.66,0,0,1,49.54,44.5,237.27,237.27,0,0,1,33.17,51.41c.8,1.67.68,3.55,1.69,5.09-.28,3.41.54,6.73.87,10.09a251.2,251.2,0,0,1,.63,31.28,282.36,282.36,0,0,1-2.41,30.32c-1,7.28-2.54,14.48-3.56,21.76s-3.32,14.29-4.7,21.5a5,5,0,0,1-2.12,3.52,137.48,137.48,0,0,0-29.32-67.87c-12.47-15.55-27.44-28.28-44.1-39.1a273.13,273.13,0,0,0-54.1-26.68A373.84,373.84,0,0,0,847.68,329c-10.16-2.49-20.57-3.7-30.85-5.63a303.08,303.08,0,0,0-49.56-4.81c-27.45-.58-54.57,1.84-81.12,9.21-23,6.38-44.14,16.32-62.66,31.51A134.27,134.27,0,0,0,587.8,404.3,157.94,157.94,0,0,0,577,433.06c-2.49,9.24-4.74,18.55-5.1,28.1a140.92,140.92,0,0,0,7.74,51.1,149,149,0,0,0,27.22,47.89A190.76,190.76,0,0,0,637,588.46c-2.73.29-4.64-1.6-6.83-2.66-24.44-11.84-46.32-27.23-64.92-47.12-.78-.83-1.46-1.73-2.73-1.76l-.07-.18C562.68,536.3,562.56,536.06,562.06,536Z"/><path class="cls-6" d="M585,647.43c4.33,2.67,7.92,6.27,11.9,9.37a265.74,265.74,0,0,0,46.31,28.66A361.74,361.74,0,0,0,708,709.72c12.1,3.29,24.32,6,36.6,8.52,9.7,2,19.47,3.51,29.25,4.75,40.76,5.17,81.49,5.68,122-2.71,22.63-4.7,44.43-11.83,64.45-23.69,2.42-1.44,4.78-3,7.18-4.46,3.19-2,5.3-4.6,5.54-8.5a4,4,0,0,1,.76-2.38c1.4,1,1.07,2.54,1.31,3.85,2.1,11.79,1.44,23.6,0,35.39a135.19,135.19,0,0,1-3.35,16.14c-1.14,4.66-2.33,9.3-3.92,13.82a24.38,24.38,0,0,0,18.85,32.1,184.35,184.35,0,0,0,34.56,2.28,292.82,292.82,0,0,0,53-5.63c1.37-.27,2.89-.31,3.35-2.06,4.83,9.05,11,17,19.41,23,1.37,1,2.79,1.89,4.33,2.93-2.22,1.87-4.9,2.44-7.35,3.35-15.55,5.74-31.66,9.21-48,11.66a499.45,499.45,0,0,1-70.82,5c-13,.09-25.92-.1-38.86-1.16-10.39-.85-32.62.56-41.48,2.6,5.12,4.25,10.8,6.46,16.52,8.52a109.51,109.51,0,0,0,18.3,4.46c-21.93,45.69-47.08,88.83-77.55,129.11-1.72-1-2.46-2.53-3.34-3.87a392,392,0,0,0-40.44-52.11,2.54,2.54,0,0,1-.32-.75,11.47,11.47,0,0,0,5.41-.63c13.53-4.13,24.72-11.63,33.12-23.06a173.91,173.91,0,0,0,15.84-26.51c6.56-13.36,11.06-27.42,14.56-41.82a53.34,53.34,0,0,0,.66-18.94c-1.88-15.89-9.23-28.9-21.38-39.17a57,57,0,0,0-31.95-13.35c-9.67-.92-19.37-1.49-29-2.56-8.54-.94-17-2.53-25.58-3.43-6.29-.65-12.46-2.35-18.67-3.63-9.67-2-19.28-4.14-28.84-6.63-10.93-2.84-21.72-6.07-32.3-10-26.24-9.66-51-22-73.11-39.44a186.71,186.71,0,0,1-31.08-31A2.25,2.25,0,0,1,585,647.43Z"/><path class="cls-6" d="M555.48,1151.8c2.19-4.36,5.81-7.61,8.91-11.22q22.89-26.68,47.75-51.54a118.65,118.65,0,0,0,29.51-48.24,93.27,93.27,0,0,0,3.75-14.7c3.25-21.66,1.55-42.74-9.58-62.3a81.36,81.36,0,0,0-33.57-32.5c-23.74-12.48-47.06-25.7-69.23-40.82a232.19,232.19,0,0,1-28.68-22.4c-1-.94-2.39-1.61-2.6-3.2,5.86,1.67,11.13,4.7,16.59,7.27,25.63,12.07,51,24.7,75.9,38.2s49.21,27.55,72.51,43.5c7.91,5.42,15.66,11.07,23,17.2,1.74,1.45,3.52,2.79,5.94,3a7.6,7.6,0,0,0,7.25-3.46q4.86-6.93,9.72-13.86L734,926.64c2.67,2.2,5.29,4.23,7.77,6.4A328.42,328.42,0,0,1,786,980.71c5.82,7.64,11.4,15.44,16.66,23.48a29.51,29.51,0,0,0,7.05,7.82c2.24,1.64,2.23,1.79.31,3.8-8.49,8.88-17.46,17.25-26.65,25.4a342.64,342.64,0,0,1-29.13,23.15c-15.56,11-31.82,20.93-49.26,28.78a337.46,337.46,0,0,0-47.08,25.77A385.59,385.59,0,0,0,602,1164c-2.12,2-3.94,2.93-7,2.12a249.22,249.22,0,0,1-39-13.69C555.77,1152.34,555.65,1152,555.48,1151.8Z"/><path class="cls-4" d="M270.07,1109.54c11.26-18.76,27.55-30.31,49.23-33.75,14.82-2.35,29.44-.84,44,2.82a185.56,185.56,0,0,1,28,9.43,13.83,13.83,0,0,0,2.32,1c2.12.49,2.18,1.74,1.55,3.47a85.54,85.54,0,0,0-4.25,16.75c-.34,2.22-1,4.42-.1,6.84,1.61-.41,2.44-2,3.5-3.13,9.34-10.24,17.22-21.56,24.83-33.11,5.36-8.12,11.18-15.92,16.81-23.86a12.37,12.37,0,0,1,1.31-1.31c4.11,8.2,8.19,16.19,12.94,23.84a230.9,230.9,0,0,0,53.24,59.7c12.65,10,26.39,18.25,40.69,25.61a7.19,7.19,0,0,1-.81,1.47c-9.43,10.7-20.57,19.37-32.68,26.74a140.66,140.66,0,0,1-38.58,16c-25.59,6.53-51.11,6.49-76.53-.82-11-3.16-21.4-7.94-31.58-13.18a258.48,258.48,0,0,1-62.88-45.6,246,246,0,0,1-29.29-34C270.66,1113,269.49,1111.58,270.07,1109.54Z"/><path class="cls-5" d="M585,647.43a2.25,2.25,0,0,0,.62,2.32,186.71,186.71,0,0,0,31.08,31c22.11,17.39,46.87,29.78,73.11,39.44,10.58,3.9,21.37,7.13,32.3,10,9.56,2.49,19.17,4.62,28.84,6.63,6.21,1.28,12.38,3,18.67,3.63,8.57.9,17,2.49,25.58,3.43,9.66,1.07,19.36,1.64,29,2.56a57,57,0,0,1,31.95,13.35c12.15,10.27,19.5,23.28,21.38,39.17a53.34,53.34,0,0,1-.66,18.94c-3.5,14.4-8,28.46-14.56,41.82a173.91,173.91,0,0,1-15.84,26.51c-8.4,11.43-19.59,18.93-33.12,23.06a11.47,11.47,0,0,1-5.41.63c-5.57-5.59-11.06-11.26-16.73-16.75-6.17-6-12.69-11.6-19.42-17-1.36-1.08-1.26-1.8-.37-3,4.69-6.52,9.18-13.19,14-19.6a13,13,0,0,0,2.55-9.42c-.81-10-1.73-19.93-2.44-29.91a10.26,10.26,0,0,0-3.79-7.66c-12-10-24.36-19.61-37.17-28.61q-20.57-14.44-42.1-27.36a549.79,549.79,0,0,0-76.65-38.31A377.89,377.89,0,0,0,575,695.46c-5.19-1.27-10.36-2.62-15.52-4-4.43-1.19-7.59.46-10.18,4-7.28,10-14,20.42-20.77,30.83a18.34,18.34,0,0,0-1.32,2.16c-.61,1.32-1.44,1.52-2.7.85-8.21-4.39-16.84-7.82-25.69-11.35,1.09-3.19,3-5.78,4.66-8.46a444.5,444.5,0,0,1,45.18-61.62q8-9,16.65-17.43c2-1.89,2-1.87,3.81.24,4.44,5.32,9.53,10,14.24,15.07,0,.49.18.76.69.77Z"/><path class="cls-7" d="M270.07,1109.54c-.58,2,.59,3.49,1.66,5a246,246,0,0,0,29.29,34,258.48,258.48,0,0,0,62.88,45.6c10.18,5.24,20.56,10,31.58,13.18,25.42,7.31,50.94,7.35,76.53.82a140.66,140.66,0,0,0,38.58-16c12.11-7.37,23.25-16,32.68-26.74a7.19,7.19,0,0,0,.81-1.47,270.25,270.25,0,0,0,42.25,15.75c-4,4.54-7.72,8.57-11.3,12.69-16.9,19.4-32.3,39.89-45.06,62.28a153.72,153.72,0,0,0-11.65,24.39c-3.45,9.68-10.69,16.12-19.41,20.93a77.94,77.94,0,0,1-42.38,9.58,29.76,29.76,0,0,1-19.41-8.13c-16.7-15.4-34.57-29.45-52.26-43.68q-27.21-21.87-54.66-43.41c-12.65-9.94-25.55-19.54-38.21-29.45-8.2-6.43-17.28-11.74-24.76-19.11a40,40,0,0,1-8.39-11.06c-2.38-5-3.36-9.78-1.67-15.43A155.23,155.23,0,0,1,269.41,1110C269.53,1109.8,269.84,1109.69,270.07,1109.54Z"/><path class="cls-4" d="M80.19,853.87c12.76-10,26.66-17.85,42.66-21.45,18.72-4.21,36-.71,52,9.8,8.93,5.86,16.38,13.27,23.07,21.51a23.35,23.35,0,0,1,1.38,2.12,83.59,83.59,0,0,0-11,16.5,10.52,10.52,0,0,0,4.55-1A170,170,0,0,0,226,865.66c8.23-4.89,16.82-9.18,25.28-13.68,2.28-1.21,2.71-.94,2.66,1.5-.58,32.21,8.8,61.62,25.07,89.07,2.51,4.24,5.44,8.23,8.17,12.34a8.45,8.45,0,0,1-3.42,2.4c-3.64,1.87-7.27,3.76-10.84,5.76-7,3.93-14.19,7.63-21.9,10.09a104.16,104.16,0,0,1-50.56,3.62c-12.83-2.28-24.92-6.4-35.86-13.32a265.52,265.52,0,0,1-55-46.14c-10.5-11.6-19.31-24.31-24.88-39C81.73,870.41,79.77,862.36,80.19,853.87Z"/><path class="cls-8" d="M1016.76,475.24a5,5,0,0,0,2.12-3.52c1.38-7.21,3.68-14.2,4.7-21.5s2.55-14.48,3.56-21.76a282.36,282.36,0,0,0,2.41-30.32,251.2,251.2,0,0,0-.63-31.28c-.33-3.36-1.15-6.68-.87-10.09,1.55.64,1.52,2.25,2,3.46a223.77,223.77,0,0,1,17.79,69.4c1,11.66.63,23.34,0,35a308.64,308.64,0,0,1-5.17,43.63c-5.63,28.21-14.6,55.24-29.48,80.07a172.55,172.55,0,0,1-54.59,57,181.4,181.4,0,0,1-42,19.89c-27.36,9.06-55.54,12.28-84.22,12.1-13.67-.09-27.28-1.07-40.89-2.49a483.82,483.82,0,0,1-51.82-8.42,358.68,358.68,0,0,1-64.11-19.85c-22.09-9.32-42.84-20.9-61.3-36.32-23.09-19.28-40.51-42.71-51.26-70.93a3.64,3.64,0,0,1-.55-2.41c1.27,0,2,.93,2.73,1.76,18.6,19.89,40.48,35.28,64.92,47.12,2.19,1.06,4.1,3,6.83,2.66a5.08,5.08,0,0,1,1.11.5,176.05,176.05,0,0,0,24.56,15.71c27.08,14.78,56.15,24.11,86.14,30.63a415.7,415.7,0,0,0,45.13,7.26c13.33,1.39,26.66,2.33,40,2.39,27.71.13,54.89-3.21,81.22-12.2a165.46,165.46,0,0,0,44.68-22.9,142.93,142.93,0,0,0,35.81-37.42c11.43-17.57,19.63-36.3,21.42-57.61C1018.23,501.56,1018.48,488.42,1016.76,475.24Z"/><path class="cls-7" d="M80.19,853.87c-.42,8.49,1.54,16.54,4.51,24.39,5.57,14.73,14.38,27.44,24.88,39a265.52,265.52,0,0,0,55,46.14c10.94,6.92,23,11,35.86,13.32A104.16,104.16,0,0,0,251,973.14c7.71-2.46,14.86-6.16,21.9-10.09,3.57-2,7.2-3.89,10.84-5.76a8.45,8.45,0,0,0,3.42-2.4,239.42,239.42,0,0,0,31.07,35c-5.34,2.69-10.36,5.14-15.3,7.74-14,7.38-27.27,15.9-38.79,27a92.4,92.4,0,0,1-35.32,21.09c-11,3.67-22.29,5-33.77,2.35-6.91-1.61-13.16-4.69-17.21-10.71-10.16-15.08-22.7-28.06-35.45-40.88C126.6,980.5,110.34,965,95.05,948.59,86.59,939.5,78.26,930.32,71,920.22s-11.51-21.49-10.43-34.06c.88-10.31,4.61-19.73,12.69-26.83A41.29,41.29,0,0,1,80.19,853.87Z"/><path class="cls-4" d="M398.45,543.7a84.28,84.28,0,0,0,32.7-23.92,111.36,111.36,0,0,0,16.22-26.54c.45-1,.66-2.18,1.91-3,4.25,4.38,8.52,8.83,12.85,13.22a584.9,584.9,0,0,0,58.58,52.33,425.12,425.12,0,0,0,41.34,28.48c.85.51,1.64,1.09,2.48,1.61a2.43,2.43,0,0,1,1.2,2.83c-1.35,7.65-2.63,15.32-3.9,23a3.51,3.51,0,0,1-1.56,2.39c-.44-.06-.77,0-.86.54a.77.77,0,0,1-.6.33c-1.47-.49-2.78.24-4.09.66a121,121,0,0,0-21.67,9.5c-19.4,10.7-39.74,14.48-61.53,8.53a76.34,76.34,0,0,1-43.27-29.93c-10.73-15-18.76-31.47-25.73-48.47C401,551.47,399.07,547.8,398.45,543.7Z"/><path class="cls-2" d="M573.07,853.2c-6.34-2.39-12.26-5.63-18.28-8.45-.38-1.33.42-2.07.84-2.86q14.79-28,29.62-56a18.28,18.28,0,0,0,2.21-5c1-4.88-.46-7.89-5-9.82-3.89-1.65-7.81-3.2-11.7-4.83-2.58-1.08-2.64-1.15-1.29-3.48,8.24-14.24,16.59-28.42,24.72-42.73,1.31-2.29,2.49-2.27,4.63-1.52a477.88,477.88,0,0,1,44.52,18.17A588,588,0,0,1,732,788.13c.67.48,1.62.59,2,1.46a24.78,24.78,0,0,1-2,6c-7.71,19-19.6,34.66-37.08,45.77-2,1.26-3.75,3.07-6.42,2.73-6.37-3.54-12.72-7.12-19.12-10.6-3.89-2.12-5.79-1.67-8,2.09-4.3,7.39-8.44,14.87-12.65,22.31a9.22,9.22,0,0,0-4.18-.13c-15.06,1.76-30.1,1-45.1-.59-6.59-.68-13.09-2.17-19.64-3.23C577.55,853.57,575.36,852.84,573.07,853.2Zm73-29c.49-2.72-.07-4-2.81-5.54q-10-5.8-20.16-11.5c-4-2.27-6.37-1.62-8.68,2.42q-5.74,10.1-11.39,20.25c-1.74,3.12-1.35,5.36,1.69,7.14,7,4.13,14.12,8.17,21.29,12,3.62,2,5.72,1.2,7.74-2.31,3.8-6.58,7.51-13.21,11.27-19.82A6.47,6.47,0,0,0,646.08,824.21Zm54.27,6.88c3.37.59,4.1.39,5.7-2.36q6-10.4,11.83-20.9c1.94-3.52,1.5-5.38-1.86-7.37q-10.34-6.12-20.84-11.92c-3.5-1.92-5.76-1.24-7.79,2.22q-5.94,10.18-11.61,20.54c-2,3.65-1.36,5.67,2.14,7.7,6.31,3.66,12.66,7.25,19,10.87A8,8,0,0,0,700.35,831.09Zm-28.43-51.16c.69-3.21.3-4.35-2.88-6.21-6.55-3.83-13.19-7.5-19.79-11.25-4.12-2.33-6.18-1.83-8.62,2.39q-5.7,9.85-11.19,19.81c-2.16,3.92-1.49,6.12,2.38,8.32q9.7,5.53,19.46,11c4.15,2.32,6.36,1.76,8.71-2.29,3.66-6.33,7.22-12.7,10.87-19A9,9,0,0,0,671.92,779.93Z"/><path class="cls-4" d="M1077.57,777.14c-.46,1.75-2,1.79-3.35,2.06a292.82,292.82,0,0,1-53,5.63,184.35,184.35,0,0,1-34.56-2.28,24.38,24.38,0,0,1-18.85-32.1c1.59-4.52,2.78-9.16,3.92-13.82a135.19,135.19,0,0,0,3.35-16.14c1.4-11.79,2.06-23.6,0-35.39-.24-1.31.09-2.9-1.31-3.85,0-.84.06-1.69.08-2.53,0-1.3.75-1.72,1.94-1.54l2.93.48c7.79,1.32,15.58,2.7,23.39,3.94,24.9,4,49.9,6.66,75.17,6.21,1.24,0,2.49.14,4.2.24C1064.84,717.26,1064.36,746.93,1077.57,777.14Z"/><path class="cls-2" d="M982.79,838.71c3.15-.94,6.39-.34,9.58-.53,6.31-.36,12.62-.6,19.34-.91-.89,3.73-2.59,6.79-4,9.91a834.89,834.89,0,0,1-52,97.59,680.29,680.29,0,0,1-76,100.37,519.31,519.31,0,0,1-50.43,48.19c-3.89,3.22-7.53,6.82-12.11,9.16-11.65,6-23,5.38-33.43-2.45-8.32-6.25-16.05-13.28-24.24-20.13,2.11-2.55,4.95-3.89,7.31-5.77,5.29-4.2,10.8-8.11,16.22-12.14a27.72,27.72,0,0,0,3.64,2.11c16.58,6.48,32.56,5.5,47.81-4,5.57-3.48,9.93-8.28,14.27-13.13,13-14.51,25.55-29.38,37.46-44.79,8.38-10.83,16.56-21.79,24.37-33,8.45-12.18,16.66-24.51,24.39-37.14a665.35,665.35,0,0,0,32.56-59.33C973,861.49,978.19,850.24,982.79,838.71Z"/><path class="cls-6" d="M982.79,838.71c-4.6,11.53-9.81,22.78-15.17,34A665.35,665.35,0,0,1,935.06,932c-7.73,12.63-15.94,25-24.39,37.14-7.81,11.25-16,22.21-24.37,33-11.91,15.41-24.47,30.28-37.46,44.79-4.34,4.85-8.7,9.65-14.27,13.13-15.25,9.51-31.23,10.49-47.81,4a27.72,27.72,0,0,1-3.64-2.11c3.5-4.08,8-7.07,12-10.63,10.62-9.51,20.92-19.34,30.59-29.82a9.11,9.11,0,0,1,6.41-3.25c15.69-1.4,27.86-15.71,26.94-31.43a10,10,0,0,1,2.39-7.24,674.78,674.78,0,0,0,47.05-69.75c13.14-22.23,25.27-45,36.13-68.44,1.24-2.68,2.68-3.62,5.72-3.45,9.84.54,19.7.71,29.56.38A19.64,19.64,0,0,1,982.79,838.71Z"/><path class="cls-7" d="M302.38,949.2a329,329,0,0,1,63.71-17,405,405,0,0,1,45.38-4.94c12.62-.67,26.24-9.89,28.21-25.72a114.36,114.36,0,0,1,5.77-24.66c.52-1.46,1-2.94,1.66-4.34,2.61-5.51,8.73-6,12-.8,1.89,3,3.35,6.2,5,9.35A300.29,300.29,0,0,0,490.36,923a27.51,27.51,0,0,0,10.95,9.08A21.15,21.15,0,0,0,515,933.41a117.34,117.34,0,0,1,41.18-1.85c3.06.4,6.19.25,9.24.93.82.19,1.69.28,2.13,1.16-2.11.94-4.4.65-6.6,1-13.33,2-25.44,7.27-37.25,13.42a162.14,162.14,0,0,0-24.39,16c-1.67,1.29-2.39.86-3.88-.09-9.6-6.12-15.59-15.39-21.59-24.62s-10.67-19.54-15.45-29.6c-.52-1.09-.65-2.51-2.26-3.11a89.14,89.14,0,0,0,3.47,25.08,132.41,132.41,0,0,0,8.94,23.63,267.84,267.84,0,0,0-29.69,1.26,355.73,355.73,0,0,0-57.27,10.84A416,416,0,0,0,337.34,982c-1.87.73-3.43,1.34-5.32-.39a234.47,234.47,0,0,1-29.09-31.25A5.83,5.83,0,0,1,302.38,949.2Z"/><path class="cls-8" d="M688.44,844.07c2.67.34,4.44-1.47,6.42-2.73,17.48-11.11,29.37-26.75,37.08-45.77a24.78,24.78,0,0,0,2-6c11.48,7.7,22.38,16.16,33.43,25C741,850.22,715.65,886.34,690.3,922.65c-5.68-4-11.08-7.83-16.49-11.63a611.5,611.5,0,0,0-53.31-32.8c-15-8.37-30.34-16.18-45.71-23.89-.61-.31-1.37-.43-1.73-1.13,2.3-.36,4.49.37,6.71.72,6.55,1.06,13.05,2.55,19.64,3.23,15,1.54,30,2.35,45.1.59a9.22,9.22,0,0,1,4.18.13c-.24,3,1.18,5,3.86,6.38,1.63.81,3.16,1.84,4.75,2.74q6.81,3.85,13.62,7.68c5.11,2.86,7.16,2.32,10-2.61.7-1.23,1.34-2.48,2-3.71,2.91-5.15,5.9-10.26,8.72-15.46,2.09-3.84,1.49-5.61-2.28-8A8.74,8.74,0,0,1,688.44,844.07Z"/><path class="cls-7" d="M398.45,543.7c.62,4.1,2.53,7.77,4.07,11.53,7,17,15,33.49,25.73,48.47a76.34,76.34,0,0,0,43.27,29.93c21.79,6,42.13,2.17,61.53-8.53a121,121,0,0,1,21.67-9.5c1.31-.42,2.62-1.15,4.09-.66-1.88,2.86-4.67,4.83-7,7.2-21.07,21-39.18,44.33-55.18,69.35-1.28,2-2.64,4-4.18,6.28a294.41,294.41,0,0,1-62.17-53.92c-24.54-28.12-43.34-59.61-55.7-95.27C383,548.16,390.75,546,398.45,543.7Z"/><path class="cls-5" d="M380,475.24a44.8,44.8,0,0,1,9.72,2.33c.27-1.74-.85-2.1-1.53-2.67-9.67-8.2-19.42-16.32-29.06-24.57-5.36-4.58-10.54-9.38-14.44-15.35a28.38,28.38,0,0,1-1.74-2.89c-3-6.08-2.15-9.1,4.39-13.19,3.28-2,7.17-2.3,11-2.42,7.18-.24,14,1.67,20.63,3.9,14.34,4.81,27.73,11.67,40.78,19.24a7.75,7.75,0,0,1,3.78,4.23,303.21,303.21,0,0,0,13.1,30.26,4.82,4.82,0,0,1,.34,4c-1.56,4.33-2.69,8.86-5.44,12.69-1.54-.36-2.22.89-3.19,1.66-5.88,4.64-11.76,9.32-18.52,12.65-13,6.38-26.37,10-40.84,5.27-6-1.94-11.6-4.46-16.34-8.66-7.1-6.28-8.16-15.63,2.37-21.91,5.17-3.07,10.81-3.86,16.62-4.37C374.4,475.21,377.2,476.06,380,475.24Z"/><path class="cls-2" d="M1094.1,775c-6.53-10-9.1-21.14-10.13-32.77-1.21-13.56.76-26.61,6.78-38.93a64.68,64.68,0,0,1,10.38-14.87,8.67,8.67,0,0,1,5.45-2.79,183.07,183.07,0,0,0,59.09-19.69c2.22-1.2,4.42-2.44,6.67-3.68,1.05,4.08,1,4.27-2.19,6.09a69.38,69.38,0,0,0-10.39,7.27c-7,6-10.71,13.67-11.45,22.82-.07,1-.21,2-.32,2.94-4.73,5.35-6.69,12-8.23,18.69a43.84,43.84,0,0,1-3,9.63c-2.55,5.28-4.13,10.83-2.12,16.75a6,6,0,0,1-.24,4.15,34.92,34.92,0,0,1-14,17.46C1112.39,773.23,1103.24,774.13,1094.1,775Z"/><path class="cls-2" d="M580.63,713.14,562,745.1c-3.61,6.21-7.26,12.4-10.8,18.65-3.22,5.68-1.81,10.36,4.09,12.64,4.07,1.58,8,3.44,12.12,5,2.06.77,2,1.79,1.12,3.42q-13.47,25.38-26.9,50.79c-1.37,2.59-1.43,2.55-4.19,1.32-12.34-5.54-24.73-11-37.25-16.13-2.87-1.17-2.88-1.21-1.68-4.23a457.14,457.14,0,0,1,24.8-51.25c9-16.28,18.83-32,29.14-47.52,2-2.93,4-5.79,6-8.7.85-1.23,1.57-1.69,3.39-1.31,5.53,1.15,10.87,3,16.37,4.17A12.26,12.26,0,0,1,580.63,713.14Z"/><path class="cls-8" d="M577.91,608.57l1.68-9.91c1.19-.31,1.63.49,2.17,1.12,16.59,19.25,36.47,34.4,58.59,46.69C663,659.05,687,668.16,712,675.14a487.18,487.18,0,0,0,60,12.6c33,4.87,66.12,6.66,99.39,2.9a241.26,241.26,0,0,0,67.74-17.44,200.54,200.54,0,0,0,19.67-9.85c.57-.32,1-1,2.12-.61l-1.59,9.35c-.64.29-1.3.53-1.91.87a197.81,197.81,0,0,1-33.16,14.94c-26.1,9-53,13.39-80.55,14.49a373.38,373.38,0,0,1-41-.73c-12.95-.89-25.83-2.23-38.63-4.27-7.93-1.26-15.84-2.6-23.68-4.5-8.21-2-16.46-3.79-24.64-5.95q-16-4.22-31.41-10c-27.26-10.16-52.95-23.31-76.07-41.13A174.8,174.8,0,0,1,581,610.5C580.16,609.5,579.37,608.54,577.91,608.57Z"/><path class="cls-3" d="M577.91,608.57c1.46,0,2.25.93,3.09,1.93a174.8,174.8,0,0,0,27.23,25.35c23.12,17.82,48.81,31,76.07,41.13q15.44,5.76,31.41,10c8.18,2.16,16.43,4,24.64,5.95,7.84,1.9,15.75,3.24,23.68,4.5,12.8,2,25.68,3.38,38.63,4.27a373.38,373.38,0,0,0,41,.73c27.51-1.1,54.45-5.51,80.55-14.49A197.81,197.81,0,0,0,957.34,673c.61-.34,1.27-.58,1.91-.87.23,5.46-2.15,8.87-7.1,11.58a204.14,204.14,0,0,1-41.77,17.07c-25.22,7.26-51,10.25-77.16,10.64-12.52.19-25-.38-37.51-1.43a445.77,445.77,0,0,1-45.66-6.11c-38.37-7.26-75.38-18.62-109.82-37.43C619.84,655.27,601,642,584.94,625.1a109.17,109.17,0,0,1-7.65-9,.78.78,0,0,0-.41-1Q577.41,611.86,577.91,608.57Z"/><path class="cls-2" d="M527.56,354.64c3.18-13.82,17-25,31.66-25.51,2.35-.09,4.78-.54,7,.72-.12,1.82-1.23,3.21-2,4.67-7.28,14.07-12.2,29-16.66,44.13-2.23,7.56-3.88,15.26-5.75,22.91a228.86,228.86,0,0,0-4.41,24.11,248.73,248.73,0,0,0-2.65,33.18,8.43,8.43,0,0,1-.43,3.75c-5.25-2.68-9.22-6.8-12.87-11.3-3.28-4.05-5.57-8.7-8.34-13.06.11-1.26.13-2.54.34-3.78q6.43-38.2,12.9-76.39c.15-.83.41-1.64.62-2.45A.72.72,0,0,0,527.56,354.64Z"/><path class="cls-2" d="M1090.41,449.09c-.12,1.11-.19,2.24-.37,3.35q-6.51,38.61-13,77.21a14.57,14.57,0,0,1-1.15,4.49c-2.65,1.09-4.25,3.49-6.41,5.19-6.33,5-13.24,8.77-21.33,10l.53-2.39a.89.89,0,0,0,.63-1c2.28-8.4,4.76-16.76,6.76-25.23,1.59-6.71,2.76-13.55,3.78-20.38,1.08-7.23,1.93-14.51,2.56-21.79,1.82-20.89,2.52-41.78-.67-62.63-.13-.81-.47-1.62,0-2.43,14.56,1.13,29.59,17.44,28.5,34.47A.72.72,0,0,0,1090.41,449.09Z"/><path class="cls-8" d="M380,475.24c-2.76.82-5.56,0-8.35.22-5.81.51-11.45,1.3-16.62,4.37-10.53,6.28-9.47,15.63-2.37,21.91,4.74,4.2,10.38,6.72,16.34,8.66,14.47,4.73,27.86,1.11,40.84-5.27,6.76-3.33,12.64-8,18.52-12.65,1-.77,1.65-2,3.19-1.66a5.42,5.42,0,0,1-.27,1.64c-7.91,15.9-19.2,28.46-35.74,35.71a69.25,69.25,0,0,1-25.93,5.37,6.89,6.89,0,0,1-4.63-1.59c-14-10.76-23.68-24.78-30.55-40.88-1.1-2.58-1.88-5.31-3-7.9a2.93,2.93,0,0,1,.8-3.73,21.87,21.87,0,0,0,4.83-7.38c.52-1.15,1-2,2.64-2.23a33.16,33.16,0,0,0,13.48-4.72,4,4,0,0,1,4.67-.07A101.46,101.46,0,0,0,379,474.42C379.39,474.53,379.65,475,380,475.24Z"/><path class="cls-2" d="M745.12,894.84c1.65-4.56,5-7.33,9.43-8.94a5.91,5.91,0,0,1,6.27,1.06,331.41,331.41,0,0,1,35.41,33.15,409.19,409.19,0,0,1,36.37,46c2.94,4.28,5.7,8.7,8.48,13.1a12.35,12.35,0,0,1,2.35,6.22c-9.68,3.36-20-1.1-26-10-6.73-10.1-13.76-20-21.35-29.49a341.42,341.42,0,0,0-30.75-33.75C759,906,752.52,899.85,745.12,894.84Z"/><path class="cls-8" d="M745.12,894.84c7.4,5,13.83,11.15,20.25,17.3a341.42,341.42,0,0,1,30.75,33.75c7.59,9.51,14.62,19.39,21.35,29.49,6,9,16.28,13.41,26,10,2.15,6.77-3.69,14.72-9.09,16.75-7,2.61-14.28.6-18.51-6s-8.87-13.1-13.57-19.46c-16.85-22.76-35.75-43.64-57.92-61.39-2.47-2-3.45-4.09-2.94-7.31C742.11,903.47,742.49,898.86,745.12,894.84Z"/><path class="cls-8" d="M496.52,835.76c7.17,3.08,13.88,5.92,20.56,8.84,31.17,13.62,61.76,28.43,91.63,44.7,24.54,13.37,48.36,27.9,70.85,44.57,3.32,2.47,5.41,5.12,5.46,9.28,0,1.51.77,3,.32,5-3.7-2.56-7.2-5-10.72-7.41-23.86-16.37-48.89-30.79-74.33-44.53-32.28-17.42-65.22-33.49-98.65-48.55-3.26-1.47-5-3.24-4.82-6.81C496.88,839.33,496.65,837.83,496.52,835.76Z"/><path class="cls-8" d="M1094.1,775c9.14-.84,18.29-1.74,26.27-6.93a34.92,34.92,0,0,0,14-17.46,6,6,0,0,0,.24-4.15c-2-5.92-.43-11.47,2.12-16.75a43.84,43.84,0,0,0,3-9.63c1.54-6.72,3.5-13.34,8.23-18.69,1,4.35,1.42,8.89,3.66,12.89.7,1.24,0,2.19-.5,3.14-3.91,8-4.78,16.11-1.81,24.55a5.63,5.63,0,0,1,0,3.67,32.66,32.66,0,0,0,1.06,22.75,4.18,4.18,0,0,1-.12,3.62c-2.92,6.7-4.49,13.65-3.25,21,.36,2.08-.5,2.79-2.42,2.91-7.46.46-14.77.52-22.2-1.33-6.59-1.64-12.64-3.81-17.94-8A38.77,38.77,0,0,1,1094.1,775Z"/><path class="cls-8" d="M1204.09,368.29c4.58-.38,7.35,2.11,7.37,6.88,0,4.08-.16,8.16-.32,12.23-.81,20.8-1.68,41.59-2.45,62.39-.88,23.61-1.68,47.22-2.53,70.83s-1.71,47.51-2.55,71.26q-1,28.88-2,57.76c-.11,2.94-.06,5.9-.14,8.85,0,1.54-.43,2.85-2.47,2.5-1.54-.26-3.08.5-4.63,0a24.07,24.07,0,0,0,.31-2.52c.44-13.93.79-27.86,1.28-41.78.51-14.07,1.21-28.13,1.71-42.2s.8-27.86,1.3-41.78c.43-12.1,1.09-24.19,1.52-36.3.41-11.53.58-23.07,1-34.6.43-12.1,1.17-24.19,1.51-36.3.48-17,1.1-34,1.76-51.06C1204.81,372.45,1205.4,370.23,1204.09,368.29Z"/><path class="cls-3" d="M1204.09,368.29c1.31,1.94.72,4.16.64,6.18-.66,17-1.28,34-1.76,51.06-.34,12.11-1.08,24.2-1.51,36.3-.42,11.53-.59,23.07-1,34.6-.43,12.11-1.09,24.2-1.52,36.3-.5,13.92-.8,27.85-1.3,41.78s-1.2,28.13-1.71,42.2c-.49,13.92-.84,27.85-1.28,41.78a24.07,24.07,0,0,1-.31,2.52,22.65,22.65,0,0,1-6.07.78c.23-6.45.45-12.74.66-19q.73-21.88,1.48-43.77c.42-11.92.94-23.85,1.37-35.77.49-13.75.91-27.5,1.39-41.25.34-9.82.76-19.64,1.11-29.47.48-13.89.91-27.78,1.4-41.66.42-11.79.91-23.58,1.34-35.37.44-12.06.83-24.13,1.27-36.2.06-1.68.3-3.36.43-5C1199,370.84,1200.61,368.74,1204.09,368.29Z"/><path class="cls-8" d="M513.15,438.24c2.77,4.36,5.06,9,8.34,13.06,3.65,4.5,7.62,8.62,12.87,11.3.7,3.48.26,7,.39,10.5a233.32,233.32,0,0,0,5.66,44.75c.16.68.21,1.38.31,2-.6.72-1.33.44-1.91.22-19.63-7.07-32.76-26.49-31.3-46.87C508.36,461.42,510.81,449.83,513.15,438.24Z"/><path class="cls-8" d="M1048.11,549.37c8.09-1.27,15-5,21.33-10,2.16-1.7,3.76-4.1,6.41-5.19.42,1.43-.1,2.8-.32,4.17-1.44,8.64-2.83,17.28-4.38,25.9-3.8,21.09-22.73,37.82-46,38.06a13.79,13.79,0,0,1-2-.33c.91-1.64,1.63-3.09,2.48-4.46a222.29,222.29,0,0,0,21.06-44.6C1047.11,551.69,1047.64,550.54,1048.11,549.37Z"/><path class="cls-2" d="M379.38,392.52a134.65,134.65,0,0,1,.55-25.62A95.72,95.72,0,0,1,386,342.54c1.32-3.25,3.07-6.36,6.43-8.1s5.3-1,6.44,2.56a17.89,17.89,0,0,1,.58,3.74,375.87,375.87,0,0,0,8.84,54.08c.36,1.49.63,3,.94,4.49a106.06,106.06,0,0,0-17.39-4.76C387.7,393.85,383.54,393.2,379.38,392.52Z"/><path class="cls-2" d="M1221.88,681.88c9.63,5.82,12.88,13.54,10.36,24.16a5,5,0,0,1-3,3.74,65.55,65.55,0,0,1-34.71,6.5c-1.23-.28-2.44-.66-3.68-.83-2.16-.28-2.74-1.54-2.6-3.52.48-6.84,2.71-12.81,8-17.53a54.11,54.11,0,0,1,7.66-5.88C1209.43,685.1,1215.28,682.45,1221.88,681.88Z"/><path class="cls-8" d="M1221.88,681.88c-6.6.57-12.45,3.22-18,6.64a54.11,54.11,0,0,0-7.66,5.88c-5.25,4.72-7.48,10.69-8,17.53-.14,2,.44,3.24,2.6,3.52,1.24.17,2.45.55,3.68.83-2.55.94-5-.21-7.4-.61a94.46,94.46,0,0,1-18.28-5.08,6.38,6.38,0,0,1-3.92-4.06c-2.73-7.3-1.77-13.22,4.28-18.73,10.58-9.63,23.23-12.79,37.2-11.19A34,34,0,0,1,1221.88,681.88Z"/><path class="cls-2" d="M363.88,390.85c-.08.51-.15,1-.23,1.54-7.25,0-14.21,1.72-21.17,3.5-2-5.5-2-11.3-2.48-17-.72-9.27-.92-18.55.84-27.76a33.56,33.56,0,0,1,3.22-9.1,8.41,8.41,0,0,1,3.06-3.42c2.89-1.81,5.4-1.21,7.07,1.8,2.42,4.35,3.71,9.13,5,13.89a154.2,154.2,0,0,1,4.16,19.83c.72,5.17.27,10.38.23,15.57A.91.91,0,0,0,363.88,390.85Z"/><path class="cls-3" d="M1190.16,731.83c3.64-.68,7.28.18,10.94,0,10.5-.41,20.7-2.16,30.42-6.32.77-.33,1.58-.57,2.37-.85,3.09,6.49,1.13,16.54-4.1,21a5.26,5.26,0,0,1-1.4.91c-9.78,3.92-19.81,6.5-30.47,5.45-2.2-.42-4.38-1-6.59-1.23a3.54,3.54,0,0,1-3.47-3.47,22.05,22.05,0,0,1,1-11.13A13.51,13.51,0,0,0,1190.16,731.83Z"/><path class="cls-8" d="M1018.47,668.4a2.29,2.29,0,0,1-2,.27q-17.91-3.1-35.84-6.17c-3.93-.68-3.68-.68-3.4-4.48.41-5.52,2.89-9.24,7.19-12.91s8.17-4.81,13.17-2.21a22.61,22.61,0,0,0,3.59,1.21,66.93,66.93,0,0,1,14.26,21.16C1016.09,666.8,1016.74,668.05,1018.47,668.4Z"/><path class="cls-2" d="M474.83,739.85l.42-1.5c.51-.07.67-.39.62-.87,4.65-6.26,10.12-7.85,17.32-5.16a203.94,203.94,0,0,1,20.95,8.88c1.24.63,2.47,1.28,4.06,2.1-3,5.22-6,10.27-8.93,15.32-4.21-1.92-8.48-3.73-12.63-5.8C489.05,749,480.58,746.73,474.83,739.85Z"/><path class="cls-3" d="M1187.66,766.58c7,.82,14,1.43,21,.7a93.28,93.28,0,0,0,16.55-3.22,13.31,13.31,0,0,1,4-1c1.55,7.56-1.8,14.06-8.65,16.79a46.27,46.27,0,0,1-25.72,2.3,18.21,18.21,0,0,1-3.52-1.36C1189.33,776.27,1187.61,771.65,1187.66,766.58Z"/><path class="cls-8" d="M1188.45,822.81c2.19.31,5-.2,6.38,1.3s.35,4.3.26,6.54q-1,26.28-1.91,52.56c-.14,4.13-2.44,6.71-6.27,7-3.42.24-6.27-2.3-6.46-6.35a41.46,41.46,0,0,1,.42-10.07,12.5,12.5,0,0,0,5.9-9.26c.86-5.46.7-10.94.92-16.42C1188,839.67,1188.55,831.25,1188.45,822.81Z"/><path class="cls-8" d="M474.83,739.85c5.75,6.88,14.22,9.19,21.81,13,4.15,2.07,8.42,3.88,12.63,5.8-1.82,3.49-3.66,7-5.44,10.48-.69,1.36-1.6,1.29-2.78.73-6.74-3.2-13.58-6.22-20.23-9.61C473.63,756.55,470.86,746.7,474.83,739.85Z"/><path class="cls-8" d="M1190.16,731.83a13.51,13.51,0,0,1-1.28,4.4,22.05,22.05,0,0,0-1,11.13,3.54,3.54,0,0,0,3.47,3.47c2.21.26,4.39.81,6.59,1.23-2.85.9-5.59-.16-8.24-.78A58.34,58.34,0,0,1,1167,740.6c-3.84-3-5.35-9.47-3.28-13.73.64-1.33,1.58-1.34,2.8-.93,2.13.73,4.28,1.37,6.43,2a102,102,0,0,0,14,2.94A7.35,7.35,0,0,1,1190.16,731.83Z"/><path class="cls-8" d="M379.38,392.52c4.16.68,8.32,1.33,12.47,2a106.06,106.06,0,0,1,17.39,4.76q2.37,8.46,4.75,16.9c-1.23.7-2-.08-2.79-.52a136.93,136.93,0,0,0-28.09-12.39c-2.14-.67-3.43-1.6-3.39-4.07C379.75,397,379.14,394.78,379.38,392.52Z"/><path class="cls-3" d="M1018.47,668.4c-1.73-.35-2.38-1.6-3-3.13a66.93,66.93,0,0,0-14.26-21.16c17.61,5.9,35.5,17.72,43,27.22A252.63,252.63,0,0,1,1018.47,668.4Z"/><path class="cls-8" d="M328.41,404.42c.78.74.56,1.85,1,2.73,1.31,2.65.65,4.8-.92,7.34-5.65,9.17-3.57,18.06,1.76,26.62,2.85,4.57,6.72,8.29,10.71,12.42-3.88,1.9-7.22,1.52-10.35-.81a19.64,19.64,0,0,1-5.21-6.08c-4.62-8.05-7.1-16.81-8.43-25.94.56.05,1.21.15,1.49-.44C321.13,414.58,325.15,409.74,328.41,404.42Z"/><path class="cls-8" d="M701.3,945.62c-3.14-6.45-.65-11.44,3.21-16.64,7.79-10.49,15-21.39,22.87-32.62a7.22,7.22,0,0,1,0,3.65c-.33,3.21-1.5,6.32-1.14,9.62a4.51,4.51,0,0,1-1.19,3.09l-23.25,32.75C701.7,945.56,701.51,945.55,701.3,945.62Z"/><path class="cls-3" d="M1187.08,795.89c3.53,0,6.76,1.53,10.32,1.82a71.6,71.6,0,0,0,21-1.25,2.1,2.1,0,0,1,1.84.06c-.61,5.32-3.62,8.81-8.62,10.74-4,1.57-8.27,1.64-12.5,1.39a50.71,50.71,0,0,1-12.09-2,9.1,9.1,0,0,0-.17-4.15A15.24,15.24,0,0,1,1187.08,795.89Z"/><path class="cls-8" d="M1187.08,795.89a15.24,15.24,0,0,0-.24,6.65,9.1,9.1,0,0,1,.17,4.15,39.62,39.62,0,0,1-19-7.31c-5.59-4.08-7.17-8.94-5.24-16.5A77.19,77.19,0,0,0,1187.08,795.89Z"/><path class="cls-3" d="M1188.45,822.81c.1,8.44-.42,16.86-.76,25.28-.22,5.48-.06,11-.92,16.42a12.5,12.5,0,0,1-5.9,9.26c-.27-8,.5-15.93.64-23.9.14-8.4.52-16.8.82-25.19a22.06,22.06,0,0,1,.43-2.66C1184.69,821.77,1186.56,822.39,1188.45,822.81Z"/><path class="cls-8" d="M743.6,873.5,771,835.23c2.05,4.35,1.84,9.54-.53,12.92-4.53,6.47-9.15,12.87-13.61,19.38-1.2,1.75-2.56,3-4.67,3.2C749.4,871,747.06,872.71,743.6,873.5Z"/><path class="cls-3" d="M1227.36,655.38l-2.56,8.67c-.33,1.11-.83,1.42-2.16,1.08-6-1.54-6.3-1.84-6-8,.29-6.7.48-13.41.81-20.11.11-2.4.46-2.56,2.79-2,3.84.9,7,5,7.59,10.14a21.47,21.47,0,0,1,.23,3.75C1227.91,650.87,1227.63,652.82,1227.36,655.38Z"/><path class="cls-8" d="M1187.66,766.58c-.05,5.07,1.67,9.69,3.67,14.23-4.14-.51-7.72-2.53-11.19-4.56a69.12,69.12,0,0,1-13-10c-2.46-2.37-3.6-5.23-3.81-9.06,4.17,1.94,8,3.84,11.91,5.52A98.63,98.63,0,0,0,1187.66,766.58Z"/><path class="cls-3" d="M303,462.25c-6.17-10.63-6.65-27.08-.72-35.43a166.26,166.26,0,0,0,6,20.56c-.82,2.68-1.75,5.36-2.72,8C304.78,457.64,305.1,460.42,303,462.25Z"/><path class="cls-8" d="M303,462.25c2.06-1.83,1.74-4.61,2.6-6.91,1-2.6,1.9-5.28,2.72-8,2.68,4.76,4.92,9.82,8.89,13.74a54.64,54.64,0,0,0,4.42,3.91c1.14.9,1.2,1.66.33,2.8a4.4,4.4,0,0,1-3.9,2.11C312,469.55,306.51,467.84,303,462.25Z"/><path class="cls-3" d="M328.41,404.42c-3.26,5.32-7.28,10.16-10,15.84-.28.59-.93.49-1.49.44-2.25-6.65-.75-12.69,3.07-18.3,1.58-2.32,3.29-4.55,6.43-5.23C327.69,399.48,327.84,402,328.41,404.42Z"/><path class="cls-8" d="M342.48,395.89c7-1.78,13.92-3.5,21.17-3.5.1.41.23.81.29,1.23.71,5.48.7,5.63-4.56,5.51a47,47,0,0,0-15.41,2.4A11.47,11.47,0,0,1,342.48,395.89Z"/><path class="cls-7" d="M570,933.87a1.43,1.43,0,0,1,2.21.19c.37.49.19,1.05-.54,1.21C571.71,934.13,570.62,934.3,570,933.87Z"/><path class="cls-6" d="M584.09,646.56c-.51,0-.72-.28-.69-.77C584,645.76,584.16,646,584.09,646.56Z"/><path class="cls-8" d="M562.06,536c.5,0,.62.26.39.7C562,536.71,561.77,536.5,562.06,536Z"/><path class="cls-7" d="M559.41,614.61c.09-.49.42-.6.86-.54A.64.64,0,0,1,559.41,614.61Z"/><path class="cls-8" d="M475.87,737.48c.05.48-.11.8-.62.87C475.15,737.84,475.45,737.62,475.87,737.48Z"/><path class="cls-8" d="M1090.41,449.09a.72.72,0,0,1-.21-1.11A.85.85,0,0,1,1090.41,449.09Z"/><path class="cls-8" d="M1049.27,546a.89.89,0,0,1-.63,1C1048.49,546.42,1048.75,546.12,1049.27,546Z"/><path class="cls-8" d="M576.88,615.13a.78.78,0,0,1,.41,1C576.84,615.91,576.61,615.63,576.88,615.13Z"/><path class="cls-8" d="M363.88,390.85a.91.91,0,0,1-.27-1.17A.75.75,0,0,1,363.88,390.85Z"/><path class="cls-8" d="M527.56,354.64a.72.72,0,0,1-.55,1A.84.84,0,0,1,527.56,354.64Z"/><path class="cls-9" d="M1016.76,475.24c1.72,13.18,1.47,26.32.36,39.58-1.79,21.31-10,40-21.42,57.61a142.93,142.93,0,0,1-35.81,37.42,165.46,165.46,0,0,1-44.68,22.9c-26.33,9-53.51,12.33-81.22,12.2-13.39-.06-26.72-1-40-2.39a415.7,415.7,0,0,1-45.13-7.26c-30-6.52-59.06-15.85-86.14-30.63A176.05,176.05,0,0,1,638.11,589a5.08,5.08,0,0,0-1.11-.5,190.76,190.76,0,0,1-30.17-28.31,149,149,0,0,1-27.22-47.89,140.92,140.92,0,0,1-7.74-51.1c.36-9.55,2.61-18.86,5.1-28.1A157.94,157.94,0,0,1,587.8,404.3a134.27,134.27,0,0,1,35.69-45.06c18.52-15.19,39.7-25.13,62.66-31.51,26.55-7.37,53.67-9.79,81.12-9.21a303.08,303.08,0,0,1,49.56,4.81c10.28,1.93,20.69,3.14,30.85,5.63a373.84,373.84,0,0,1,41.56,12.63,273.13,273.13,0,0,1,54.1,26.68c16.66,10.82,31.63,23.55,44.1,39.1A137.48,137.48,0,0,1,1016.76,475.24Zm-29.13-39c.65-1-.29-1.57-.65-2.22a133.46,133.46,0,0,0-27.85-34.43c-25.28-22.66-55.15-37-87-47.71-9.09-3.05-18.35-5.56-27.62-8-7-1.81-14.07-3-21.12-4.41-5.48-1.09-11.1-1.65-16.64-2.46A322.42,322.42,0,0,0,769.65,334a295.77,295.77,0,0,0-49.4,2.48c-20.54,2.85-40.44,8-59.2,17-23.39,11.23-42.21,27.54-55.42,50.05a139,139,0,0,0-14.8,36.33c-1.15,4.5-2.52,9-3.05,13.6a99.15,99.15,0,0,0-.07,24c.15,1.16-.12,2.46,1.15,3.45a144.61,144.61,0,0,1,15-47.52,125.8,125.8,0,0,1,40.08-46.31c3.74-2.62,7.72-3.32,11.94-1.24,8,4,16.75,5.35,25.48,5.7a145.21,145.21,0,0,0,67.43-13.68c9.94-4.6,19.06-10.42,25.73-19.49a11.13,11.13,0,0,1,9.22-4.43,142.65,142.65,0,0,1,21.49,1.45c23.21,3.21,46.35,6.82,68.85,13.78,21.92,6.78,43.11,15.19,63,26.66,18.21,10.51,34.82,23.06,48.6,39.11C986.2,435.55,986.68,436.26,987.63,436.27Z"/><path class="cls-1" d="M646.08,824.21a6.47,6.47,0,0,1-1.05,2.67c-3.76,6.61-7.47,13.24-11.27,19.82-2,3.51-4.12,4.26-7.74,2.31-7.17-3.86-14.26-7.9-21.29-12-3-1.78-3.43-4-1.69-7.14q5.65-10.14,11.39-20.25c2.31-4,4.65-4.69,8.68-2.42q10.11,5.7,20.16,11.5C646,820.25,646.57,821.49,646.08,824.21Z"/><path class="cls-1" d="M700.35,831.09a8,8,0,0,1-3.43-1.22c-6.34-3.62-12.69-7.21-19-10.87-3.5-2-4.13-4-2.14-7.7q5.65-10.35,11.61-20.54c2-3.46,4.29-4.14,7.79-2.22q10.52,5.79,20.84,11.92c3.36,2,3.8,3.85,1.86,7.37q-5.79,10.51-11.83,20.9C704.45,831.48,703.72,831.68,700.35,831.09Z"/><path class="cls-1" d="M671.92,779.93a9,9,0,0,1-1.06,2.73c-3.65,6.33-7.21,12.7-10.87,19-2.35,4-4.56,4.61-8.71,2.29q-9.74-5.47-19.46-11c-3.87-2.2-4.54-4.4-2.38-8.32q5.5-10,11.19-19.81c2.44-4.22,4.5-4.72,8.62-2.39,6.6,3.75,13.24,7.42,19.79,11.25C672.22,775.58,672.61,776.72,671.92,779.93Z"/><path class="cls-1" d="M688.44,844.07a8.74,8.74,0,0,0,.94.79c3.77,2.42,4.37,4.19,2.28,8-2.82,5.2-5.81,10.31-8.72,15.46-.7,1.23-1.34,2.48-2,3.71-2.82,4.93-4.87,5.47-10,2.61q-6.82-3.82-13.62-7.68c-1.59-.9-3.12-1.93-4.75-2.74-2.68-1.33-4.1-3.33-3.86-6.38,4.21-7.44,8.35-14.92,12.65-22.31,2.19-3.76,4.09-4.21,8-2.09C675.72,837,682.07,840.53,688.44,844.07Z"/><path class="cls-10" d="M987.63,436.27c-1,0-1.43-.72-2-1.32-13.78-16.05-30.39-28.6-48.6-39.11-19.9-11.47-41.09-19.88-63-26.66-22.5-7-45.64-10.57-68.85-13.78A142.65,142.65,0,0,0,783.73,354a11.13,11.13,0,0,0-9.22,4.43c-6.67,9.07-15.79,14.89-25.73,19.49a145.21,145.21,0,0,1-67.43,13.68c-8.73-.35-17.45-1.74-25.48-5.7-4.22-2.08-8.2-1.38-11.94,1.24a125.8,125.8,0,0,0-40.08,46.31,144.61,144.61,0,0,0-15,47.52c-1.27-1-1-2.29-1.15-3.45a99.15,99.15,0,0,1,.07-24c.53-4.59,1.9-9.1,3.05-13.6a139,139,0,0,1,14.8-36.33c13.21-22.51,32-38.82,55.42-50.05,18.76-9,38.66-14.13,59.2-17a295.77,295.77,0,0,1,49.4-2.48,322.42,322.42,0,0,1,37.08,3.09c5.54.81,11.16,1.37,16.64,2.46,7,1.4,14.16,2.6,21.12,4.41,9.27,2.4,18.53,4.91,27.62,8,31.87,10.7,61.74,25,87,47.71A133.46,133.46,0,0,1,987,434.05C987.34,434.7,988.28,435.27,987.63,436.27Z"/><polygon class="cls-11" points="1220.41 557.57 1226.15 393.69 1523 404.68 1465.96 482.41 1516.41 570.99 1220.41 557.57"/><path class="cls-12" d="M1339.17,498.52a18.32,18.32,0,0,0-4.45-3.22q-16.44-9.26-32.87-18.54a12.82,12.82,0,0,1-6.22-7.36,10.32,10.32,0,0,1-.12-6.43,8,8,0,0,1,6-5.66c3.59-.93,7.18-1.83,10.76-2.75q42.63-10.89,85.24-21.79c4.56-1.17,8.27.24,11.5,3.42a1.22,1.22,0,0,1,.33.54,5.37,5.37,0,0,1-1.11,1.94,56.91,56.91,0,0,1-4.52,4.92c-6.9,6.85-14.18,13.28-21.5,19.67-3.58,3.12-7.19,6.2-10.8,9.29q-7.47,6.4-15.09,12.65-3.51,2.88-7,5.74c-2.63,2.11-5.26,4.21-8,6.21A10.39,10.39,0,0,1,1339.17,498.52Z"/><path class="cls-13" d="M1339.17,498.52a10.39,10.39,0,0,0,2.14-1.37c2.71-2,5.34-4.1,8-6.21q3.53-2.85,7-5.74,7.61-6.26,15.09-12.65c3.61-3.09,7.22-6.17,10.8-9.29,7.32-6.39,14.6-12.82,21.5-19.67a56.91,56.91,0,0,0,4.52-4.92,5.37,5.37,0,0,0,1.11-1.94c.26,0,.35.24.48.4a12.12,12.12,0,0,1,2.69,6.93,10.36,10.36,0,0,1-.73,4.19l-10.25,27.62-9.3,25-11.13,30c-1.18,3.17-2.35,6.35-3.55,9.52a8.29,8.29,0,0,1-8.68,5.34,12,12,0,0,1-10.31-7.22c-2.47-5.09-4.82-10.25-7.22-15.39q-4.8-10.26-9.59-20.54A17,17,0,0,0,1339.17,498.52Z"/></g></g></svg>