<svg xmlns="http://www.w3.org/2000/svg" viewBox="0 0 3695 634.67"><defs><style>.cls-1{fill:#fff;}.cls-2{fill:#333;}.cls-3{fill:#29abe2;}.cls-4{fill:#0071bc;}</style></defs><g id="Layer_2" data-name="Layer 2"><g id="Layer_1-2" data-name="Layer 1"><path class="cls-1" d="M317.34,0h0C492.6,0,634.67,142.08,634.67,317.34h0c0,175.26-142.07,317.33-317.33,317.33h0C142.08,634.67,0,492.6,0,317.34H0C0,142.08,142.08,0,317.34,0ZM478,130.38a4.47,4.47,0,0,0-1.48-1.8c-13.41-9.88-27.63-13-43.61-6.39q-149.24,62.09-298.55,124c-12.57,5.22-25.15,10.37-37.69,15.65-10.57,4.45-17,12.31-18.86,23.71a38.07,38.07,0,0,0,3.78,23.33c5.62,11.42,14.7,18.93,26.48,23.5q64.67,25,129.29,50.17c6.34,2.45,12.49,5.16,17.88,9.38a63,63,0,0,1,11.51,13.58q22.77,34.89,45.67,69.66c11.42,17.41,22.67,34.95,34.33,52.19,9.8,14.48,23.51,21.93,41.26,20.84,13-.8,25.44-8.91,28.79-24,2.71-12.15,5.3-24.32,7.92-36.49q12.36-57.46,24.72-114.95,10.33-48,20.68-95.93Q481.52,223.9,492.94,171a38.24,38.24,0,0,0,.44-15.62c-1.85-9.42-6.59-17.19-13.42-23.78C479.41,131.05,478.94,130.3,478,130.38Z"/><path class="cls-2" d="M255.24,391.88c-5.39-4.22-11.54-6.93-17.88-9.38q-64.67-25-129.29-50.17c-11.78-4.57-20.86-12.08-26.48-23.5a38.07,38.07,0,0,1-3.78-23.33c1.85-11.4,8.29-19.26,18.86-23.71,12.54-5.28,25.12-10.43,37.69-15.65q149.28-61.95,298.55-123.95c16-6.65,30.2-3.49,43.61,6.39a4.47,4.47,0,0,1,1.48,1.8c-.31,2.82-1.65,5.24-3,7.62a202.55,202.55,0,0,1-13.84,20.28c-21.5,28.52-44.62,55.72-67.87,82.8-11.37,13.23-22.9,26.32-34.4,39.45Q335,307.76,310.6,334.45,299.37,346.8,288,359c-8.43,9.05-16.9,18.07-25.72,26.76C260.07,388,258,390.29,255.24,391.88Z"/><path class="cls-3" d="M255.24,391.88c2.73-1.59,4.83-3.93,7-6.1,8.82-8.69,17.29-17.71,25.72-26.76q11.38-12.21,22.6-24.57,24.38-26.74,48.26-53.92c11.5-13.13,23-26.22,34.4-39.45,23.25-27.08,46.37-54.28,67.87-82.8A202.55,202.55,0,0,0,475,138c1.38-2.38,2.72-4.8,3-7.62.94-.08,1.41.67,2,1.2,6.83,6.59,11.57,14.36,13.42,23.78a38.24,38.24,0,0,1-.44,15.62q-11.42,52.91-22.82,105.82-10.33,48-20.68,95.93-12.37,57.47-24.72,115c-2.62,12.17-5.21,24.34-7.92,36.49-3.35,15.07-15.78,23.18-28.79,24-17.75,1.09-31.46-6.36-41.26-20.84-11.66-17.24-22.91-34.78-34.33-52.19q-22.85-34.81-45.67-69.66A63,63,0,0,0,255.24,391.88Z"/><path class="cls-1" d="M950.49,381.11l99.31,6q-7,65.09-48.1,99.82t-101,34.75q-72.09,0-116.42-47.71T740,342.22q0-83.24,42-134.31t117.2-51.08q70.26,0,108,38.89t42.66,103.2l-101.38,5.44q0-35.52-13.62-51.33t-32-15.82q-51.33,0-51.34,103.19,0,57.83,13.36,78.57t37.46,20.74Q945.3,439.71,950.49,381.11Z"/><path class="cls-1" d="M1214.7,521.65q-65.6,0-104.23-40.84T1071.84,385q0-59.12,40.32-98.53T1217,247.06q65.07,0,104.62,38.89t39.54,97.5q0,59.12-40.06,98.65T1214.7,521.65Zm1.56-62.75q24.12,0,29.43-25a251.12,251.12,0,0,0,5.31-52.25q0-37.08-7.52-53.41t-27-16.34q-17.89,0-26.19,16.86t-8.3,55.48q0,45.38,8.56,60T1216.26,458.9Z"/><path class="cls-1" d="M1658.86,516.2h-97v-35q-21.53,40.44-71.05,40.45-45.63,0-74-35.66t-28.4-103.58q0-63.53,28.53-100.86t75.45-37.34q39.15,0,64.56,29.82V162.27h101.9ZM1557,346.63q0-35.52-29.3-35.52-20.49,0-26.84,22.55t-6.35,55.23q0,64,32.67,64,12.45,0,21.13-10.11T1557,412Z"/><path class="cls-1" d="M1887.55,421.56,1984,428q-8.55,38.9-43.69,66.25t-95,27.36q-66.64,0-106.31-38.51t-39.67-95.55q0-59.11,39.15-99.82T1843,247.06q63.27,0,102.29,38.38t39,104.49q0,5.44-.26,15H1807.43q.51,24.88,8.82,36.94T1847.88,454Q1881.58,454,1887.55,421.56Zm-7-68.45q-.25-26.7-10.72-35.91t-26-9.21q-36.69,0-36.69,45.12Z"/><path class="cls-1" d="M2123.76,516.2h-99.05V252.51h86.09V307q14.77-59.37,68.71-59.38a149.47,149.47,0,0,1,15,1v92a85.5,85.5,0,0,0-19.45-2.59q-51.34,0-51.34,57.3Z"/><path class="cls-4" d="M2545.32,513.48h-88.41L2360,357.1Q2341.31,327,2322.34,284q8.55,34.23,8.55,58.08V513.48h-88.15V159.55h102.68l82.46,129.64q24.63,38.64,37.33,67.94a514.24,514.24,0,0,1-8.3-92.83V159.55h88.41Z"/><path class="cls-4" d="M2871.25,513.48h-98.53a175,175,0,0,1-3.63-36.82q-28,42.27-84.79,42.26-46.66,0-69.88-23.85t-23.2-54.71q0-41.75,38-67.54t134.7-31v-6q0-17.37-7.91-23.08t-23.2-5.7q-35.79,0-39.93,28.78l-94.38-8.82q20.22-82.71,137.68-82.71,31.89,0,58.6,6.35T2837,270.53q15.55,13.49,20.87,28.52t5.32,57.82V462.14Q2863.21,492.22,2871.25,513.48ZM2763.9,390.06q-66.12,7-66.12,42.26,0,23.87,26.19,23.86,16.59,0,28.26-9.86t11.67-43.56Z"/><path class="cls-4" d="M3173.32,249.78v263.7h-95.68v-43.3q-21,48.75-81.94,48.74-37.59,0-58.21-20.87t-20.61-59.76V249.78h103.46v166q0,15.56,4.27,21.91t16.73,6.35q13.22,0,21.52-9.46t8.3-26.58V249.78Z"/><path class="cls-4" d="M3390.6,249.78v67.16H3338v97.23q0,20,7.52,23.73a34.47,34.47,0,0,0,15.56,3.76q12.45,0,29.56-4.41v73.64a314.44,314.44,0,0,1-60.16,6q-47.7,0-70.13-20.48T3237.88,431l.26-30.86V316.94h-39.41V249.78h39.41l1.55-85.82L3338,162.4v87.38Z"/><path class="cls-4" d="M3695,513.48h-98.53a175,175,0,0,1-3.63-36.82q-28,42.27-84.79,42.26-46.66,0-69.87-23.85T3415,440.36q0-41.75,38-67.54t134.7-31v-6q0-17.37-7.91-23.08t-23.21-5.7q-35.77,0-39.93,28.78l-94.38-8.82q20.22-82.71,137.68-82.71,31.89,0,58.6,6.35t42.26,19.84q15.57,13.49,20.88,28.52t5.31,57.82V462.14Q3687,492.22,3695,513.48ZM3587.66,390.06q-66.12,7-66.12,42.26,0,23.87,26.19,23.86,16.59,0,28.26-9.86t11.67-43.56Z"/></g></g></svg>