<svg xmlns="http://www.w3.org/2000/svg" xmlns:xlink="http://www.w3.org/1999/xlink" viewBox="0 0 1088.89 1153.5"><defs><style>.cls-1{isolation:isolate;}.cls-2{fill:#cceafc;}.cls-3{fill:url(#Áåçûìÿííûé_ãðàäèåíò_29);}.cls-4{fill:url(#Áåçûìÿííûé_ãðàäèåíò_28);}.cls-5{fill:#e5e2ff;}.cls-6{fill:url(#Áåçûìÿííûé_ãðàäèåíò_28-2);}.cls-7,.cls-8{opacity:0.62;}.cls-20,.cls-24,.cls-7,.cls-8,.cls-81,.cls-82,.cls-83,.cls-84,.cls-85{mix-blend-mode:multiply;}.cls-7{fill:url(#Áåçûìÿííûé_ãðàäèåíò_27);}.cls-8{fill:url(#Áåçûìÿííûé_ãðàäèåíò_94);}.cls-24,.cls-9{opacity:0.5;}.cls-9{mix-blend-mode:screen;fill:url(#Áåçûìÿííûé_ãðàäèåíò_95);}.cls-10{fill:#fff;}.cls-11{fill:url(#Áåçûìÿííûé_ãðàäèåíò_65);}.cls-12{fill:url(#Áåçûìÿííûé_ãðàäèåíò_14);}.cls-13{fill:url(#Áåçûìÿííûé_ãðàäèåíò_302);}.cls-14{fill:url(#Áåçûìÿííûé_ãðàäèåíò_302-2);}.cls-15{fill:url(#Áåçûìÿííûé_ãðàäèåíò_302-3);}.cls-16{fill:url(#Áåçûìÿííûé_ãðàäèåíò_322);}.cls-17,.cls-19,.cls-34{opacity:0.73;}.cls-17{fill:url(#Áåçûìÿííûé_ãðàäèåíò_97);}.cls-18{fill:#953da2;}.cls-19{fill:url(#Áåçûìÿííûé_ãðàäèåíò_97-2);}.cls-20{fill:#d1d4fb;}.cls-21,.cls-22,.cls-23,.cls-24,.cls-25,.cls-28,.cls-29{fill-rule:evenodd;}.cls-21{fill:url(#Áåçûìÿííûé_ãðàäèåíò_206);}.cls-22{fill:url(#Áåçûìÿííûé_ãðàäèåíò_206-2);}.cls-23{fill:url(#Áåçûìÿííûé_ãðàäèåíò_107);}.cls-24{fill:#601734;}.cls-25{fill:#b3d9ff;}.cls-25,.cls-86{mix-blend-mode:soft-light;}.cls-26{fill:#ff1d9c;}.cls-27{fill:#6877ff;}.cls-28{fill:url(#Áåçûìÿííûé_ãðàäèåíò_107-2);}.cls-29{fill:url(#Áåçûìÿííûé_ãðàäèåíò_206-3);}.cls-30{fill:#744ca2;}.cls-31{fill:#333;}.cls-32{fill:#29abe2;}.cls-33{fill:none;stroke:#4d4d4d;stroke-linecap:round;stroke-width:2px;stroke-dasharray:0 8 4 12 0 0;}.cls-35{fill:url(#Áåçûìÿííûé_ãðàäèåíò_97-3);}.cls-36{fill:url(#Áåçûìÿííûé_ãðàäèåíò_97-4);}.cls-37{fill:url(#Áåçûìÿííûé_ãðàäèåíò_97-5);}.cls-38{fill:url(#Áåçûìÿííûé_ãðàäèåíò_97-6);}.cls-39{fill:url(#Áåçûìÿííûé_ãðàäèåíò_97-7);}.cls-40{fill:url(#Áåçûìÿííûé_ãðàäèåíò_97-8);}.cls-41{fill:url(#Áåçûìÿííûé_ãðàäèåíò_97-9);}.cls-42{fill:url(#Áåçûìÿííûé_ãðàäèåíò_97-10);}.cls-43{fill:url(#Áåçûìÿííûé_ãðàäèåíò_97-11);}.cls-44{fill:url(#Áåçûìÿííûé_ãðàäèåíò_97-12);}.cls-45{fill:url(#Áåçûìÿííûé_ãðàäèåíò_97-13);}.cls-46{fill:url(#Áåçûìÿííûé_ãðàäèåíò_97-14);}.cls-47{fill:url(#Áåçûìÿííûé_ãðàäèåíò_97-15);}.cls-48{fill:url(#Áåçûìÿííûé_ãðàäèåíò_97-16);}.cls-49{fill:url(#Áåçûìÿííûé_ãðàäèåíò_97-17);}.cls-50{fill:url(#Áåçûìÿííûé_ãðàäèåíò_97-18);}.cls-51{fill:url(#Áåçûìÿííûé_ãðàäèåíò_97-19);}.cls-52{fill:url(#Áåçûìÿííûé_ãðàäèåíò_97-20);}.cls-53{fill:url(#Áåçûìÿííûé_ãðàäèåíò_97-21);}.cls-54{fill:url(#Áåçûìÿííûé_ãðàäèåíò_97-22);}.cls-55{fill:url(#Áåçûìÿííûé_ãðàäèåíò_97-23);}.cls-56{fill:url(#Áåçûìÿííûé_ãðàäèåíò_97-24);}.cls-57{fill:url(#Áåçûìÿííûé_ãðàäèåíò_97-25);}.cls-58{fill:#ff6df9;}.cls-59{fill:url(#Áåçûìÿííûé_ãðàäèåíò_97-26);}.cls-60{fill:url(#Áåçûìÿííûé_ãðàäèåíò_97-27);}.cls-61{fill:url(#Áåçûìÿííûé_ãðàäèåíò_97-28);}.cls-62{fill:url(#Áåçûìÿííûé_ãðàäèåíò_97-29);}.cls-63{fill:url(#Áåçûìÿííûé_ãðàäèåíò_97-30);}.cls-64{fill:url(#Áåçûìÿííûé_ãðàäèåíò_97-31);}.cls-65{fill:url(#Áåçûìÿííûé_ãðàäèåíò_97-32);}.cls-66{fill:url(#Áåçûìÿííûé_ãðàäèåíò_97-33);}.cls-67{fill:url(#Áåçûìÿííûé_ãðàäèåíò_97-34);}.cls-68{fill:url(#Áåçûìÿííûé_ãðàäèåíò_97-35);}.cls-69{fill:#fccdc9;}.cls-70{fill:#355769;}.cls-71{fill:#d7b49f;}.cls-72{fill:#f6c7a9;}.cls-73{fill:#0071bc;}.cls-74{fill:#2997e2;}.cls-75{fill:#263a44;}.cls-76{fill:#404245;}.cls-77{fill:#75c5c0;}.cls-78{opacity:0.81;fill:url(#Áåçûìÿííûé_ãðàäèåíò_115);}.cls-79{fill:#473da2;}.cls-80{fill:#36d1f7;}.cls-80,.cls-81{opacity:0.6;}.cls-81{fill:url(#Áåçûìÿííûé_ãðàäèåíò_89);}.cls-82,.cls-83,.cls-84,.cls-85{opacity:0.3;}.cls-82{fill:url(#Áåçûìÿííûé_ãðàäèåíò_85);}.cls-83{fill:url(#Áåçûìÿííûé_ãðàäèåíò_85-2);}.cls-84{fill:url(#Áåçûìÿííûé_ãðàäèåíò_85-3);}.cls-85{fill:url(#Áåçûìÿííûé_ãðàäèåíò_85-4);}.cls-87{fill:#e0ffff;}</style><linearGradient id="Áåçûìÿííûé_ãðàäèåíò_29" x1="2391.83" y1="1216.6" x2="2391.83" y2="1097.97" gradientTransform="translate(81.61 3453.63) rotate(-110.09)" gradientUnits="userSpaceOnUse"><stop offset="0" stop-color="#dbccff"/><stop offset="1" stop-color="#d1bbff"/></linearGradient><linearGradient id="Áåçûìÿííûé_ãðàäèåíò_28" x1="2391.82" y1="1221.22" x2="2391.82" y2="1102.6" gradientTransform="translate(81.61 3453.63) rotate(-110.09)" gradientUnits="userSpaceOnUse"><stop offset="0" stop-color="#b5a6e7"/><stop offset="1" stop-color="#7760bf"/></linearGradient><linearGradient id="Áåçûìÿííûé_ãðàäèåíò_28-2" x1="2391.82" y1="1191.73" x2="2391.82" y2="1141.73" xlink:href="#Áåçûìÿííûé_ãðàäèåíò_28"/><linearGradient id="Áåçûìÿííûé_ãðàäèåíò_27" x1="2384.73" y1="1142.73" x2="2398.92" y2="1142.73" gradientTransform="translate(81.61 3453.63) rotate(-110.09)" gradientUnits="userSpaceOnUse"><stop offset="0" stop-color="#8b8be0"/><stop offset="1" stop-color="#a177b7"/></linearGradient><linearGradient id="Áåçûìÿííûé_ãðàäèåíò_94" x1="2391.82" y1="1146.03" x2="2391.82" y2="1137.44" gradientTransform="translate(81.61 3453.63) rotate(-110.09)" gradientUnits="userSpaceOnUse"><stop offset="0" stop-color="#fff"/><stop offset="1" stop-color="#a177b7"/></linearGradient><linearGradient id="Áåçûìÿííûé_ãðàäèåíò_95" x1="2399.33" y1="1196.84" x2="2399.33" y2="1141.72" gradientTransform="translate(81.61 3453.63) rotate(-110.09)" gradientUnits="userSpaceOnUse"><stop offset="0"/><stop offset="1" stop-color="#fff"/></linearGradient><linearGradient id="Áåçûìÿííûé_ãðàäèåíò_65" x1="936.55" y1="579.59" x2="936.55" y2="511.5" gradientUnits="userSpaceOnUse"><stop offset="0" stop-color="#d93de3"/><stop offset="1" stop-color="#ff6dba"/></linearGradient><linearGradient id="Áåçûìÿííûé_ãðàäèåíò_14" x1="978.17" y1="579.59" x2="978.17" y2="511.5" gradientUnits="userSpaceOnUse"><stop offset="0" stop-color="#a242ea"/><stop offset="1" stop-color="#fe117e"/></linearGradient><linearGradient id="Áåçûìÿííûé_ãðàäèåíò_302" x1="985.88" y1="424.33" x2="985.88" y2="391.9" gradientUnits="userSpaceOnUse"><stop offset="0" stop-color="#459fff"/><stop offset="1" stop-color="#a96dff"/></linearGradient><linearGradient id="Áåçûìÿííûé_ãðàäèåíò_302-2" x1="732.61" y1="874.72" x2="732.61" y2="863.5" xlink:href="#Áåçûìÿííûé_ãðàäèåíò_302"/><linearGradient id="Áåçûìÿííûé_ãðàäèåíò_302-3" x1="13.55" y1="602.72" x2="13.55" y2="575.62" xlink:href="#Áåçûìÿííûé_ãðàäèåíò_302"/><linearGradient id="Áåçûìÿííûé_ãðàäèåíò_322" x1="937.48" y1="399.33" x2="937.48" y2="368.09" gradientUnits="userSpaceOnUse"><stop offset="0" stop-color="#b31a8f"/><stop offset="1" stop-color="#fe117e"/></linearGradient><linearGradient id="Áåçûìÿííûé_ãðàäèåíò_97" x1="286.68" y1="337.56" x2="286.68" y2="260.91" gradientUnits="userSpaceOnUse"><stop offset="0" stop-color="#d906e3"/><stop offset="1" stop-color="#ff6df9"/></linearGradient><linearGradient id="Áåçûìÿííûé_ãðàäèåíò_97-2" x1="754.7" y1="399.22" x2="754.7" y2="285.98" xlink:href="#Áåçûìÿííûé_ãðàäèåíò_97"/><linearGradient id="Áåçûìÿííûé_ãðàäèåíò_206" x1="-688.22" y1="455.23" x2="-700.07" y2="353.54" gradientTransform="matrix(0.97, 0.26, -0.26, 0.97, 1582.93, 324.35)" gradientUnits="userSpaceOnUse"><stop offset="0" stop-color="#1852a0"/><stop offset="1" stop-color="#067ed3"/></linearGradient><linearGradient id="Áåçûìÿííûé_ãðàäèåíò_206-2" x1="-699.7" y1="455.61" x2="-699.7" y2="351.42" xlink:href="#Áåçûìÿííûé_ãðàäèåíò_206"/><linearGradient id="Áåçûìÿííûé_ãðàäèåíò_107" x1="-1168.53" y1="2596.35" x2="-1176.2" y2="2530.58" gradientTransform="matrix(0.94, 0.33, -0.52, 1.49, 3229.6, -2891.31)" gradientUnits="userSpaceOnUse"><stop offset="0" stop-color="#188dc1"/><stop offset="1" stop-color="#06bfe7"/></linearGradient><linearGradient id="Áåçûìÿííûé_ãðàäèåíò_107-2" x1="-1314.55" y1="450.06" x2="-1282.06" y2="329.43" gradientTransform="matrix(-1, 0, 0, 1, -1139.16, 0)" xlink:href="#Áåçûìÿííûé_ãðàäèåíò_107"/><linearGradient id="Áåçûìÿííûé_ãðàäèåíò_206-3" x1="-1370.38" y1="436.15" x2="-1346.16" y2="346.19" gradientTransform="matrix(-1, 0, 0, 1, -1139.16, 0)" xlink:href="#Áåçûìÿííûé_ãðàäèåíò_206"/><linearGradient id="Áåçûìÿííûé_ãðàäèåíò_97-3" x1="-2923.67" y1="934.07" x2="-2890.47" y2="934.07" gradientTransform="translate(3163.48 942.07) rotate(34.69)" xlink:href="#Áåçûìÿííûé_ãðàäèåíò_97"/><linearGradient id="Áåçûìÿííûé_ãðàäèåíò_97-4" x1="-2959.6" y1="1056.43" x2="-2910.83" y2="1056.43" gradientTransform="translate(3163.48 942.07) rotate(34.69)" xlink:href="#Áåçûìÿííûé_ãðàäèåíò_97"/><linearGradient id="Áåçûìÿííûé_ãðàäèåíò_97-5" x1="-2934.64" y1="956.46" x2="-2877.89" y2="956.46" gradientTransform="translate(3163.48 942.07) rotate(34.69)" xlink:href="#Áåçûìÿííûé_ãðàäèåíò_97"/><linearGradient id="Áåçûìÿííûé_ãðàäèåíò_97-6" x1="-2902.75" y1="1056.76" x2="-2853.92" y2="1056.76" gradientTransform="translate(3163.48 942.07) rotate(34.69)" xlink:href="#Áåçûìÿííûé_ãðàäèåíò_97"/><linearGradient id="Áåçûìÿííûé_ãðàäèåíò_97-7" x1="-2930.26" y1="946.26" x2="-2882.23" y2="946.26" gradientTransform="translate(3163.48 942.07) rotate(34.69)" xlink:href="#Áåçûìÿííûé_ãðàäèåíò_97"/><linearGradient id="Áåçûìÿííûé_ãðàäèåíò_97-8" x1="-2881.1" y1="1021.62" x2="-2858.33" y2="1021.62" gradientTransform="translate(3163.48 942.07) rotate(34.69)" xlink:href="#Áåçûìÿííûé_ãðàäèåíò_97"/><linearGradient id="Áåçûìÿííûé_ãðàäèåíò_97-9" x1="-2955.09" y1="1021.4" x2="-2932.23" y2="1021.4" gradientTransform="translate(3163.48 942.07) rotate(34.69)" xlink:href="#Áåçûìÿííûé_ãðàäèåíò_97"/><linearGradient id="Áåçûìÿííûé_ãðàäèåíò_97-10" x1="-2918.9" y1="1066.09" x2="-2894.69" y2="1066.09" gradientTransform="translate(3163.48 942.07) rotate(34.69)" xlink:href="#Áåçûìÿííûé_ãðàäèåíò_97"/><linearGradient id="Áåçûìÿííûé_ãðàäèåíò_97-11" x1="-2911.07" y1="1091.42" x2="-2902.84" y2="1091.42" gradientTransform="translate(3163.48 942.07) rotate(34.69)" xlink:href="#Áåçûìÿííûé_ãðàäèåíò_97"/><linearGradient id="Áåçûìÿííûé_ãðàäèåíò_97-12" x1="-2886.58" y1="971.13" x2="-2871.55" y2="971.13" gradientTransform="translate(3163.48 942.07) rotate(34.69)" xlink:href="#Áåçûìÿííûé_ãðàäèåíò_97"/><linearGradient id="Áåçûìÿííûé_ãðàäèåíò_97-13" x1="-2941.25" y1="970.61" x2="-2926.05" y2="970.61" gradientTransform="translate(3163.48 942.07) rotate(34.69)" xlink:href="#Áåçûìÿííûé_ãðàäèåíò_97"/><linearGradient id="Áåçûìÿííûé_ãðàäèåíò_97-14" x1="-2943.12" y1="1001.44" x2="-2934.58" y2="1001.44" gradientTransform="translate(3163.48 942.07) rotate(34.69)" xlink:href="#Áåçûìÿííûé_ãðàäèåíò_97"/><linearGradient id="Áåçûìÿííûé_ãðàäèåíò_97-15" x1="-2878.52" y1="1001.65" x2="-2869.86" y2="1001.65" gradientTransform="translate(3163.48 942.07) rotate(34.69)" xlink:href="#Áåçûìÿííûé_ãðàäèåíò_97"/><linearGradient id="Áåçûìÿííûé_ãðàäèåíò_97-16" x1="-2927.31" y1="1088.09" x2="-2919.12" y2="1088.09" gradientTransform="translate(3163.48 942.07) rotate(34.69)" xlink:href="#Áåçûìÿííûé_ãðàäèåíò_97"/><linearGradient id="Áåçûìÿííûé_ãðàäèåíò_97-17" x1="-2894.77" y1="1088.25" x2="-2886.55" y2="1088.25" gradientTransform="translate(3163.48 942.07) rotate(34.69)" xlink:href="#Áåçûìÿííûé_ãðàäèåíò_97"/><linearGradient id="Áåçûìÿííûé_ãðàäèåíò_97-18" x1="-2911.14" y1="1110.18" x2="-2902.91" y2="1110.18" gradientTransform="translate(3163.48 942.07) rotate(34.69)" xlink:href="#Áåçûìÿííûé_ãðàäèåíò_97"/><linearGradient id="Áåçûìÿííûé_ãðàäèåíò_97-19" x1="-2871.58" y1="1067.12" x2="-2855.44" y2="1067.12" gradientTransform="translate(3163.48 942.07) rotate(34.69)" xlink:href="#Áåçûìÿííûé_ãðàäèåíò_97"/><linearGradient id="Áåçûìÿííûé_ãðàäèåíò_97-20" x1="-2958.04" y1="1066.81" x2="-2942.15" y2="1066.81" gradientTransform="translate(3163.48 942.07) rotate(34.69)" xlink:href="#Áåçûìÿííûé_ãðàäèåíò_97"/><linearGradient id="Áåçûìÿííûé_ãðàäèåíò_97-21" x1="-2866.98" y1="1036.52" x2="-2854.84" y2="1036.52" gradientTransform="translate(3163.48 942.07) rotate(34.69)" xlink:href="#Áåçûìÿííûé_ãðàäèåíò_97"/><linearGradient id="Áåçûìÿííûé_ãðàäèåíò_97-22" x1="-2958.67" y1="1036.2" x2="-2946.33" y2="1036.2" gradientTransform="translate(3163.48 942.07) rotate(34.69)" xlink:href="#Áåçûìÿííûé_ãðàäèåíò_97"/><linearGradient id="Áåçûìÿííûé_ãðàäèåíò_97-23" x1="-2959.63" y1="1046.9" x2="-2950.52" y2="1046.9" gradientTransform="translate(3163.48 942.07) rotate(34.69)" xlink:href="#Áåçûìÿííûé_ãðàäèåíò_97"/><linearGradient id="Áåçûìÿííûé_ãðàäèåíò_97-24" x1="-2862.89" y1="1047.22" x2="-2853.87" y2="1047.22" gradientTransform="translate(3163.48 942.07) rotate(34.69)" xlink:href="#Áåçûìÿííûé_ãðàäèåíò_97"/><linearGradient id="Áåçûìÿííûé_ãðàäèåíò_97-25" x1="-2942.75" y1="986.01" x2="-2933.15" y2="986.01" gradientTransform="translate(3163.48 942.07) rotate(34.69)" xlink:href="#Áåçûìÿííûé_ãðàäèåíò_97"/><linearGradient id="Áåçûìÿííûé_ãðàäèåíò_97-26" x1="-2942.14" y1="1045.64" x2="-2910.78" y2="1045.64" gradientTransform="translate(3163.48 942.07) rotate(34.69)" xlink:href="#Áåçûìÿííûé_ãðàäèåíò_97"/><linearGradient id="Áåçûìÿííûé_ãðàäèåíò_97-27" x1="-2902.66" y1="1045.83" x2="-2871.1" y2="1045.83" gradientTransform="translate(3163.48 942.07) rotate(34.69)" xlink:href="#Áåçûìÿííûé_ãðàäèåíò_97"/><linearGradient id="Áåçûìÿííûé_ãðàäèåíò_97-28" x1="-2883.5" y1="1037.15" x2="-2873.03" y2="1037.15" gradientTransform="translate(3163.48 942.07) rotate(34.69)" xlink:href="#Áåçûìÿííûé_ãðàäèåíò_97"/><linearGradient id="Áåçûìÿííûé_ãðàäèåíò_97-29" x1="-2940.27" y1="1036.63" x2="-2929.92" y2="1036.63" gradientTransform="translate(3163.48 942.07) rotate(34.69)" xlink:href="#Áåçûìÿííûé_ãðàäèåíò_97"/><linearGradient id="Áåçûìÿííûé_ãðàäèåíò_97-30" x1="-2918.9" y1="1023.75" x2="-2894.44" y2="1023.75" gradientTransform="translate(3163.48 942.07) rotate(34.69)" xlink:href="#Áåçûìÿííûé_ãðàäèåíò_97"/><linearGradient id="Áåçûìÿííûé_ãðàäèåíò_97-31" x1="-2902.6" y1="1035.43" x2="-2894.44" y2="1035.43" gradientTransform="translate(3163.48 942.07) rotate(34.69)" xlink:href="#Áåçûìÿííûé_ãðàäèåíò_97"/><linearGradient id="Áåçûìÿííûé_ãðàäèåíò_97-32" x1="-2918.9" y1="1036.32" x2="-2910.74" y2="1036.32" gradientTransform="translate(3163.48 942.07) rotate(34.69)" xlink:href="#Áåçûìÿííûé_ãðàäèåíò_97"/><linearGradient id="Áåçûìÿííûé_ãðàäèåíò_97-33" x1="-2922.18" y1="973.78" x2="-2890.2" y2="973.78" gradientTransform="translate(3163.48 942.07) rotate(34.69)" xlink:href="#Áåçûìÿííûé_ãðàäèåíò_97"/><linearGradient id="Áåçûìÿííûé_ãðàäèåíò_97-34" x1="-2922.68" y1="985.36" x2="-2890.17" y2="985.36" gradientTransform="translate(3163.48 942.07) rotate(34.69)" xlink:href="#Áåçûìÿííûé_ãðàäèåíò_97"/><linearGradient id="Áåçûìÿííûé_ãðàäèåíò_97-35" x1="-2919.44" y1="995.11" x2="-2893.48" y2="995.11" gradientTransform="translate(3163.48 942.07) rotate(34.69)" xlink:href="#Áåçûìÿííûé_ãðàäèåíò_97"/><linearGradient id="Áåçûìÿííûé_ãðàäèåíò_115" x1="170.5" y1="772.91" x2="198.49" y2="550.08" gradientUnits="userSpaceOnUse"><stop offset="0" stop-color="#067eff"/><stop offset="1" stop-color="#3e37a0"/></linearGradient><linearGradient id="Áåçûìÿííûé_ãðàäèåíò_89" x1="673.31" y1="652.14" x2="929.91" y2="652.14" gradientUnits="userSpaceOnUse"><stop offset="0" stop-color="#9d68c2"/><stop offset="1" stop-color="#aec2ff"/></linearGradient><linearGradient id="Áåçûìÿííûé_ãðàäèåíò_85" x1="725.51" y1="749.06" x2="725.51" y2="671.67" gradientUnits="userSpaceOnUse"><stop offset="0" stop-color="#ccedff"/><stop offset="1" stop-color="#9d68c2"/></linearGradient><linearGradient id="Áåçûìÿííûé_ãðàäèåíò_85-2" x1="857.48" y1="711.33" x2="857.48" y2="677.24" xlink:href="#Áåçûìÿííûé_ãðàäèåíò_85"/><linearGradient id="Áåçûìÿííûé_ãðàäèåíò_85-3" x1="897.7" y1="711.33" x2="897.7" y2="677.24" xlink:href="#Áåçûìÿííûé_ãðàäèåíò_85"/><linearGradient id="Áåçûìÿííûé_ãðàäèåíò_85-4" x1="816.58" y1="711.33" x2="816.58" y2="677.24" xlink:href="#Áåçûìÿííûé_ãðàäèåíò_85"/></defs><g class="cls-1"><g id="Layer_2" data-name="Layer 2"><g id="Layer_1-2" data-name="Layer 1"><circle class="cls-2" cx="555.9" cy="455.14" r="404.95" transform="translate(-159.01 526.39) rotate(-45)"/><path class="cls-3" d="M303.89,802.67c-11.44,5.38-16.9,16.18-16.9,16.18l1.49,4.06,16.7-7.4a17.12,17.12,0,0,1,9,6.2h0a17.2,17.2,0,0,1-2.9,10.56l-17.54,5.12,1.48,4.06s11.14,4.73,23.36,1.46c0,0,4-1.33,4.34-1.59,1.94-1.39,4.37-5.24,4.57-13.07l53.64-22.46a14.12,14.12,0,1,0-5.53-15.13l-55.45,17.45c-5.09-5.73-9.37-7.22-11.92-7A45.19,45.19,0,0,0,303.89,802.67Zm90.42-14.46,2.71,7.41L392,801.68l-7.77-1.36-2.71-7.42,5.06-6Z"/><path class="cls-4" d="M308.24,801.08c-11.44,5.38-16.9,16.18-16.9,16.18l1.49,4.06,16.7-7.4a17.12,17.12,0,0,1,9,6.2h0a17.12,17.12,0,0,1-2.9,10.56l-17.54,5.12,1.49,4.06s11.14,4.73,23.35,1.46c0,0,8.68-5.37,8.91-14.66l53.65-22.46A14.11,14.11,0,1,0,380,789.08l-55.44,17.45C318.34,799.58,308.24,801.08,308.24,801.08Zm90.41-14.46,2.71,7.41-5.06,6.06-7.77-1.36-2.72-7.42,5.07-6Z"/><rect class="cls-5" x="294.35" y="836.47" width="4.63" height="4.32" transform="translate(-270.04 152.95) rotate(-20.09)"/><rect class="cls-5" x="287.6" y="817.93" width="4.63" height="4.32" transform="translate(-264.09 149.51) rotate(-20.09)"/><rect class="cls-5" x="395.52" y="787.17" width="4.63" height="7.89" transform="translate(-247.56 184.81) rotate(-20.09)"/><path class="cls-6" d="M336.15,821.24l43.64-18.11a10.69,10.69,0,0,0-3.34-9.13l-45.17,13.91C330.29,815.82,336.15,821.24,336.15,821.24Zm40.49-25.53a12.14,12.14,0,0,1,1.6,3,10.64,10.64,0,0,1,.64,3.08L336.1,820a22.39,22.39,0,0,1-3-5.52,18.27,18.27,0,0,1-1.12-5.52Z"/><path class="cls-5" d="M376.64,795.71l-.19-1.71s4.21,2.87,3.34,9.13l-.91-1.37A11.94,11.94,0,0,0,376.64,795.71Z"/><path class="cls-7" d="M336.15,821.24l0-1.27a20.31,20.31,0,0,1-4.1-11l-.72-1s-.73,2.73.91,7.22S336.15,821.24,336.15,821.24Z"/><path class="cls-8" d="M331.84,826.67a48.16,48.16,0,0,0-7.33-20.14l7.09-2.23s-3.45,2.93-1.19,10.21c2.64,8.51,9.29,8.64,9.29,8.64Z"/><path class="cls-9" d="M331.6,804.3a8.54,8.54,0,0,0-1.86,4.17l52.61-16.63-2.4-2.76Z"/><path class="cls-10" d="M331.6,804.3s6.59,2.79,10.36-3.26Z"/><polygon class="cls-11" points="896.95 513.59 896.95 578.92 975.1 579.59 976.15 511.5 896.95 513.59"/><polygon class="cls-12" points="976.15 511.5 981.25 520.08 978.7 579.53 975.1 579.59 976.15 511.5"/><polygon class="cls-10" points="910.91 535.64 918.12 525.17 957.14 557.92 951.16 565.9 910.91 535.64"/><polygon class="cls-10" points="958.15 535.64 950.93 525.17 911.91 557.92 917.89 565.9 958.15 535.64"/><path class="cls-13" d="M1002.09,408.11a16.21,16.21,0,1,1-16.21-16.21A16.22,16.22,0,0,1,1002.09,408.11Z"/><path class="cls-14" d="M738.22,869.11a5.61,5.61,0,1,1-5.61-5.61A5.61,5.61,0,0,1,738.22,869.11Z"/><path class="cls-15" d="M27.09,589.17a13.55,13.55,0,1,1-13.54-13.55A13.55,13.55,0,0,1,27.09,589.17Z"/><circle class="cls-16" cx="937.48" cy="383.71" r="15.62"/><path class="cls-17" d="M326.85,337.56H246.69a12,12,0,0,1-12-11.56L233,273.28a12,12,0,0,1,12-12.37h83.55a12,12,0,0,1,12,12.33L338.81,326A12,12,0,0,1,326.85,337.56Z"/><path class="cls-18" d="M326.85,338H246.69a12.33,12.33,0,0,1-12.37-12l-1.78-52.72a12.37,12.37,0,0,1,12.37-12.79h83.55a12.38,12.38,0,0,1,12.37,12.75L339.22,326A12.32,12.32,0,0,1,326.85,338Zm-81.94-76.65a11.55,11.55,0,0,0-11.55,11.94L235.14,326a11.51,11.51,0,0,0,11.55,11.17h80.16A11.51,11.51,0,0,0,338.4,326L340,273.23a11.56,11.56,0,0,0-11.55-11.91Z"/><polygon class="cls-10" points="268.06 279.85 248.29 302.76 268.42 319.85 268.42 311.03 256.78 300.95 267.59 288.72 268.06 279.85"/><polygon class="cls-10" points="302.8 280.88 322.56 303.79 302.44 320.87 302.44 312.06 314.08 301.98 301.12 288.26 302.8 280.88"/><polygon class="cls-10" points="272.36 319.85 289.59 281.91 297.68 281.91 278.17 319.85 272.36 319.85"/><path class="cls-19" d="M814,399.22H695.61A17.66,17.66,0,0,1,678,382.15l-2.63-77.9A17.67,17.67,0,0,1,693,286H816.42a17.67,17.67,0,0,1,17.66,18.22l-2.38,77.89A17.66,17.66,0,0,1,814,399.22Z"/><path class="cls-18" d="M814,399.71H695.61a18.09,18.09,0,0,1-18.15-17.55l-2.63-77.89A18.17,18.17,0,0,1,693,285.5H816.42a18.16,18.16,0,0,1,18.15,18.71l-2.38,77.89A18.08,18.08,0,0,1,814,399.71ZM693,286.47a17.18,17.18,0,0,0-17.18,17.77l2.63,77.89a17.12,17.12,0,0,0,17.18,16.61H814a17.11,17.11,0,0,0,17.18-16.67l2.38-77.89a17.18,17.18,0,0,0-17.18-17.71Z"/><rect class="cls-20" x="699.05" y="298.52" width="108.46" height="64.42"/><polygon class="cls-10" points="743.67 314.51 743.67 346.95 771.39 329.25 743.67 314.51"/><rect class="cls-20" x="699.05" y="374.81" width="108.46" height="5.89"/><rect class="cls-10" x="699.05" y="374.81" width="28.08" height="5.89"/><path class="cls-21" d="M814.54,514.09,807.59,534C811.43,523,817,515.85,814.54,514.09ZM807.59,534l-7,19.88C802.38,553.33,803.74,545,807.59,534Zm6.95-19.89L807.59,534C811.43,523,817,515.85,814.54,514.09ZM807.59,534l-7,19.88C802.38,553.33,803.74,545,807.59,534Zm20.07,17.22,6.75,3.83,7.29-19.89-7.81-1.31c.14-.74.28-1.48.37-2.21a49.73,49.73,0,0,0,.66-9.91l8.17-5.13-3.72-17.52-7.83,7.49a22.67,22.67,0,0,0-4-5.84,15.35,15.35,0,0,0-1.36-1.32L831,488.34l-12.74-4.15h0l-3.06,11.14a21.17,21.17,0,0,0-8.62,2l-1.4-10.53-14,10.61,3.24,9.33a53.23,53.23,0,0,0-6.84,10l-6.76-3.81-7.29,19.89,7.81,1.31a53.87,53.87,0,0,0-1,12.12l-8.17,5.12,3.72,17.53,7.83-7.49a22.09,22.09,0,0,0,5.36,7.14l-4.79,11.07,12.54,4.89,1.94-7.06,1.32-4.82a21.23,21.23,0,0,0,8.64-2L810,581.13l14-10.62-3.24-9.33a50.91,50.91,0,0,0,5.52-7.63C826.8,552.78,827.22,552,827.66,551.2ZM807.59,534c-3.85,11,0,22.31-7,19.88s-9.53-13.34-5.68-24.3,12.62-17.9,19.59-15.47S811.43,523,807.59,534Zm6.95-19.89L807.59,534C811.43,523,817,515.85,814.54,514.09ZM807.59,534l-7,19.88C802.38,553.33,803.74,545,807.59,534Z"/><path class="cls-22" d="M834.41,555l7.29-19.89-7.44-3.52-1.2-.56.78-11,8.25-4-2.72-17-18-5.85,3.31,7.89L831,488.34l-12.74-4.15L813,482.48l-12.56-4.89-2.34,8.56L787.17,481l-14,10.62,4.25,11.48-13.11,36.35L757.81,563l12.45,1.36-4,9.36,12.56,4.89,18,5.86-2.89-5.78L792,575.27l6.64,2.17L810,581.13l14-10.62-8.67-10.21,11-6.75ZM795,529.56c3.85-11,12.62-17.9,19.59-15.47L807.59,534l-7,19.88C793.65,551.4,791.1,540.52,795,529.56Z"/><path class="cls-23" d="M816.44,549.17l7.28-19.9L815.91,528a54.86,54.86,0,0,0,1-12.1l8.17-5.13-3.72-17.52-7.84,7.48a21.69,21.69,0,0,0-5.35-7.15L813,482.48l-12.55-4.89-3.25,11.88a21.29,21.29,0,0,0-8.63,2L787.18,481l-14,10.61,3.23,9.33a53.94,53.94,0,0,0-6.84,10l-6.76-3.82L755.5,527l7.81,1.3a55,55,0,0,0-1,12.11l-8.17,5.13L757.82,563l7.83-7.48a21.85,21.85,0,0,0,5.36,7.15l-4.79,11.06,12.55,4.89L782,566.76a21.29,21.29,0,0,0,8.63-2L792,575.27l14-10.61-3.23-9.33a54.28,54.28,0,0,0,6.84-10ZM782.65,548c-7-2.44-9.52-13.32-5.67-24.3s12.62-17.9,19.59-15.45,9.52,13.32,5.67,24.3S789.62,550.44,782.65,548Z"/><polygon class="cls-24" points="843.09 516.58 825.12 510.73 816.95 515.86 834.92 521.71 843.09 516.58"/><polygon class="cls-25" points="824.05 570.51 806.07 564.66 802.84 555.33 820.81 561.18 824.05 570.51"/><polygon class="cls-24" points="808.21 493.54 818.06 496.39 821.4 493.21 827.94 495.34 830.97 488.34 813 482.48 808.21 493.54"/><path class="cls-24" d="M782,566.76l9.42,3.92-.79-5.93S785.59,567.42,782,566.76Z"/><path class="cls-24" d="M783.48,512.87l15.85,8.38a24.28,24.28,0,0,1,4.07-4.31S799.27,499.46,783.48,512.87Z"/><polygon class="cls-26" points="1061.92 505.29 1088.89 559.33 1070.87 567.52 1045.65 517.89 1061.92 505.29"/><polygon class="cls-27" points="22.5 211.03 47.47 238.42 57.27 227.11 33.7 201.17 22.5 211.03"/><polygon class="cls-28" points="215.85 439.17 220 342.69 93.66 342.69 98.86 438.9 215.85 439.17"/><polygon class="cls-29" points="220 342.69 223.78 348.38 220 439.17 215.85 439.17 220 342.69"/><path class="cls-10" d="M171.33,362.1s13.85-.53,16.29.59-.63,23.7-.63,23.7l5.52,5.07-5.16,5s.27,22.88-3,24.78-14.4,0-14.4,0v-5.7s9.1.57,10.59-.65,1.36-21.21,1.36-21.21l2.45-2.67-2.45-2.9s.45-14.25.18-18.16c-.18-2.6-10.77-2.74-10.77-2.74Z"/><path class="cls-10" d="M139.6,362.1s-13.85-.53-16.29.59.63,23.7.63,23.7l-5.52,5.07,5.16,5s-.27,22.88,3,24.78,14.39,0,14.39,0v-5.7s-9.1.57-10.59-.65S129,393.68,129,393.68L126.57,391l2.44-2.9s-.45-14.25-.18-18.16c.18-2.6,10.77-2.74,10.77-2.74Z"/><path class="cls-30" d="M695.7,165.85l-25.14-65.78,65.18,13.61Zm-22.43-63.47,22.93,60,36.54-47.59Z"/><rect class="cls-30" x="796.53" y="846.09" width="37.34" height="1.7" transform="translate(-349.83 1003.71) rotate(-53.76)"/><polygon class="cls-30" points="668.58 820.74 644.87 791.23 646.2 790.16 669.91 819.68 668.58 820.74"/><polygon class="cls-30" points="179.87 868.04 132.53 833.7 133.53 832.32 180.87 866.66 179.87 868.04"/><rect class="cls-30" x="126.46" y="847.33" width="58.48" height="1.71" transform="translate(-613.37 458.06) rotate(-52.7)"/><rect class="cls-30" x="25.71" y="461.34" width="1.71" height="34.61" transform="translate(-409.51 279.52) rotate(-62.28)"/><rect class="cls-30" x="356.26" y="207.57" width="1.71" height="35.53" transform="translate(-62.98 182.64) rotate(-26.45)"/><rect class="cls-30" x="183.34" y="496.25" width="53.06" height="1.7" transform="translate(-270.06 250.47) rotate(-39.91)"/><path class="cls-31" d="M965.66,194.55a12.58,12.58,0,0,0,1-3.62q1.85-12.72,3.72-25.44a8.7,8.7,0,0,1,3.15-5.76,7,7,0,0,1,4.06-1.64,5.47,5.47,0,0,1,5.06,2.42q2.21,3.08,4.39,6.17,17.37,24.4,34.75,48.82a7.75,7.75,0,0,1,.64,8.14.8.8,0,0,1-.26.34,3.5,3.5,0,0,1-1.5-.23,37.63,37.63,0,0,1-4.24-1.66c-6-2.7-11.91-5.76-17.77-8.84-2.86-1.51-5.7-3.05-8.55-4.58-3.94-2.12-7.85-4.3-11.74-6.49q-2.7-1.53-5.37-3.07c-2-1.15-4-2.31-5.9-3.54A7.07,7.07,0,0,1,965.66,194.55Z"/><path class="cls-32" d="M965.66,194.55a7.07,7.07,0,0,0,1.4,1C969,196.8,971,198,973,199.11q2.67,1.54,5.37,3.07c3.89,2.19,7.8,4.37,11.74,6.49,2.85,1.53,5.69,3.07,8.55,4.58,5.86,3.08,11.73,6.14,17.77,8.84a37.63,37.63,0,0,0,4.24,1.66,3.5,3.5,0,0,0,1.5.23c0,.17-.06.29-.14.41a8.19,8.19,0,0,1-3.74,3.41,7.09,7.09,0,0,1-2.84.56l-20.06.26-18.19.23-21.8.28c-2.31,0-4.61.07-6.92.08a5.64,5.64,0,0,1-5.52-4.21,8.11,8.11,0,0,1,2.06-8.31c2.63-2.83,5.33-5.58,8-8.37q5.34-5.56,10.69-11.13A11.55,11.55,0,0,0,965.66,194.55Z"/><path class="cls-33" d="M508.37,12.65c196.15-31,274.57,4.87,308.19,48,21.5,27.57,56.51,98.94,133.56,123.36a173.16,173.16,0,0,0,20.61,5.16"/><g class="cls-34"><path class="cls-35" d="M223.44,52.49l7-2.34,11.76-2.08c.74.39,1.48,0,2.22,0,2.5,0,3.69.86,4.57,3.2.22.6.07,1.37.71,1.81l2.17,12.29c-.32,1.47.2,3-.06,4.42-.61.2-1-.15-1.48-.46q-2.72-1.91-5.44-3.8c-.44-.31-.83-.73-1.45-.62-.41-2.39-.86-4.78-1.2-7.18-.15-1.09-.62-1.27-1.62-1.11-3.3.52-6.54,1.25-9.79,2-.11-.57-.61-.76-1-1-1.69-1.2-3.4-2.39-5.11-3.58A2.82,2.82,0,0,1,223.44,52.49Z"/><path class="cls-36" d="M160.06,152.41c.7-1,1.37-2.12,2.1-3.13.42-.58.33-.9-.24-1.29-3.23-2.23-6.4-4.55-9.68-6.7a11.88,11.88,0,0,0-11.39-1c-.29.12-.6.2-.9.3a3.63,3.63,0,0,1-1.4-.8l-10.43-7.28c-.43-.3-.81-.76-1.43-.67a26.82,26.82,0,0,1,4.64-9.43,4.41,4.41,0,0,0,1.71,1.82l4.57,3.18a27,27,0,0,0-3.29,7.08,21.41,21.41,0,0,1,12.14-3.28c0,.79.69,1,1.18,1.36l24.13,17c-1.7,2.58-3.42,5.15-5.33,7.57-1.73-1.18-3.46-2.34-5.18-3.54C160.8,153.28,160.2,153.07,160.06,152.41Z"/><path class="cls-37" d="M251.72,84.44a55.25,55.25,0,0,1-1.29,9.49l-6.21-4.3a1.48,1.48,0,0,0-1.11-.39,6.49,6.49,0,0,1,.13-1.47c.48-1.45-.12-2.24-1.32-3.07C233.47,78.87,225,73,216.71,67c-2.06-1.49-3.72-2.07-5.8-.45a.42.42,0,0,1-.13,0c-1.19-1.58-3-2.3-4.5-3.52-.75-.62-1.76-.91-2.24-1.85a56.26,56.26,0,0,1,8.33-4.33c.09.57.58.78,1,1.05l37,25.93C250.79,84.16,251.16,84.54,251.72,84.44Z"/><path class="cls-38" d="M217.9,183a26.8,26.8,0,0,1-6.91,7.33c-2.82-2-5.65-4-8.46-6a43.21,43.21,0,0,1-4.66-3.42c.27-5.54-2.1-9.61-6.76-12.54-2.6-1.63-5.07-3.48-7.56-5.28-.65-.47-1-.5-1.49.23-.65,1-1.43,2-2.15,3-1.17-.09-1.9-1-2.74-1.59-1.32-1-2.9-1.62-3.88-3l5.28-7.36a5,5,0,0,0,.58.55L203,171.54a2.65,2.65,0,0,0,1.61.59,20.24,20.24,0,0,1,.86,12.27c2.44-1.56,4-3.62,5.63-5.57,2,.92,3.58,2.41,5.41,3.57C216.91,182.68,217.29,183.12,217.9,183Z"/><path class="cls-39" d="M251.72,84.44c-.56.1-.93-.28-1.33-.56L213.34,58c-.39-.27-.88-.48-1-1.05a61.12,61.12,0,0,1,11.07-4.41,2.82,2.82,0,0,0,1.3,1.5c1.71,1.19,3.42,2.38,5.11,3.58.4.28.9.47,1,1-2.69.93-5.48,1.58-7.67,2.51L244,75.69c.12-3.41-.32-7.09-.55-10.77.62-.11,1,.31,1.45.62q2.73,1.89,5.44,3.8c.45.31.87.66,1.48.46a48.48,48.48,0,0,1,.28,9.17C252,80.8,251.86,82.62,251.72,84.44Z"/><path class="cls-40" d="M227.35,140.22a17,17,0,0,1-2,2.39,1.92,1.92,0,0,0-.44,2.49,33.2,33.2,0,0,1,1.66,17.62,1.7,1.7,0,0,1-1.64-.36c-1.53-1.11-3.1-2.18-4.65-3.27-.41-.27-.78-.65-1.34-.54a27.45,27.45,0,0,0-.77-7.64c-1.48,1.46-2.83,2.81-4.18,4.16-.09-.15-.15-.36-.28-.44-2.18-1.3-4.18-2.85-6.24-4.32,4.61-4.73,9-9.68,13.29-14.66,1.07,0,1.73.87,2.49,1.43C224.65,138.1,226.3,138.78,227.35,140.22Z"/><path class="cls-41" d="M147.14,107.5a32.45,32.45,0,0,1,15.16-4.58,33.42,33.42,0,0,1,3.34-.26c.51,0,.64-.42.85-.76.61-1,1.21-2,1.81-3a78.45,78.45,0,0,1,6.55,4.59c-3.2,5.7-6.29,11.45-9.13,17.34-.57.06-.9-.37-1.31-.63-1.85-1.2-3.54-2.64-5.48-3.7l2.47-5.34a28.4,28.4,0,0,0-7.44,1.88c-1.51-1.85-3.71-2.79-5.52-4.25C148,108.42,147.3,108.21,147.14,107.5Z"/><path class="cls-42" d="M173.29,161.69c1,1.4,2.56,2.05,3.88,3,.84.62,1.57,1.5,2.74,1.59a11.41,11.41,0,0,1-11.15,4.64,11.55,11.55,0,0,1-9.75-7.57,11.31,11.31,0,0,1,1.05-11c.14.66.74.87,1.2,1.19,1.72,1.2,3.45,2.36,5.18,3.54a6.38,6.38,0,0,0,.08,3.16C167.66,163.05,170.51,163.64,173.29,161.69Z"/><path class="cls-43" d="M142.46,191.61q5.16-7.4,10.32-14.78a4.09,4.09,0,1,1,6.69,4.66q-4.78,6.88-9.62,13.75a11.32,11.32,0,0,1-1,1.08c-1.86-1-3.46-2.35-5.2-3.52C143.18,192.49,142.59,192.26,142.46,191.61Z"/><path class="cls-44" d="M243.11,89.24a1.48,1.48,0,0,1,1.11.39l6.21,4.3A82,82,0,0,1,244.62,113c-.18.4-.34.81-.51,1.21a1.76,1.76,0,0,1-1.34-.52l-4.29-3c-.4-.27-.76-.64-1.32-.54.74-2,1.5-4,2.21-6A98.64,98.64,0,0,0,243.11,89.24Z"/><path class="cls-45" d="M204,61.23c.48.94,1.49,1.23,2.24,1.85,1.46,1.22,3.31,1.94,4.5,3.52a96.92,96.92,0,0,0-17.26,12.45c-2.29-1.44-4.69-2.74-6.52-4.8A85.22,85.22,0,0,1,204,61.23Z"/><path class="cls-46" d="M174.85,103.5a78.45,78.45,0,0,0-6.55-4.59,114.75,114.75,0,0,1,11.32-16.64c2.3,1.38,4.46,3,6.62,4.56-2.08,2.7-4.18,5.4-6,8.27S176.64,100.7,174.85,103.5Z"/><path class="cls-47" d="M227.35,140.22c-1-1.44-2.7-2.12-4.07-3.14-.76-.56-1.42-1.38-2.49-1.43a167.74,167.74,0,0,0,11.75-16.41c2.08.78,3.62,2.4,5.47,3.53.44.28,1,.51,1.09,1.12A113.78,113.78,0,0,1,227.35,140.22Z"/><path class="cls-48" d="M139,180.18a3.83,3.83,0,0,1-3.92-1.55,3.57,3.57,0,0,1-.37-4.19,90.18,90.18,0,0,1,5.34-7.65,3.87,3.87,0,0,1,5.38-.51,4,4,0,0,1,1,5.33c-1.57,2.42-3.26,4.76-5,7.11A3.57,3.57,0,0,1,139,180.18Z"/><path class="cls-49" d="M165.62,198.88a3.86,3.86,0,0,1-4-1.74,3.76,3.76,0,0,1-.12-4.34q2.37-3.63,5-7.1a4,4,0,0,1,5.46-.86,3.93,3.93,0,0,1,1.22,5.38c-1.6,2.51-3.36,4.91-5.12,7.32A3.47,3.47,0,0,1,165.62,198.88Z"/><path class="cls-50" d="M142.46,191.61c.13.65.72.88,1.19,1.19,1.74,1.17,3.34,2.52,5.2,3.52a15.76,15.76,0,0,1-2.23,3.52c-1.29,1.91-2.59,3.8-4,5.65A4.07,4.07,0,1,1,136,200.8C138.13,197.71,140.31,194.67,142.46,191.61Z"/><path class="cls-51" d="M197.87,180.94a43.21,43.21,0,0,0,4.66,3.42c2.81,2,5.64,4,8.46,6-3.68,2.89-7.74,4.23-12.36,2.76-3.72-1.18-4.65-3.84-2.59-7.14A16.26,16.26,0,0,0,197.87,180.94Z"/><path class="cls-52" d="M126.69,131.87c.62-.09,1,.37,1.43.67l10.43,7.28a3.63,3.63,0,0,0,1.4.8,20.08,20.08,0,0,0-4.48,4.06,4,4,0,0,1-6.17.27c-3.23-3.24-3.83-7.21-3.05-11.53A15,15,0,0,1,126.69,131.87Z"/><path class="cls-53" d="M219,158.55c.56-.11.93.27,1.34.54,1.55,1.09,3.12,2.16,4.65,3.27a1.7,1.7,0,0,0,1.64.36,35.47,35.47,0,0,1-3.22,10.79c-.71.21-1.18-.25-1.72-.58-1.78-1.11-3.3-2.64-5.29-3.43A41.34,41.34,0,0,0,219,158.55Z"/><path class="cls-54" d="M147.14,107.5c.16.71.82.92,1.3,1.3,1.81,1.46,4,2.4,5.52,4.25a40,40,0,0,0-9.39,6.2c-.18-.58-.74-.75-1.16-1.08a57.78,57.78,0,0,1-5.3-3.9A35.78,35.78,0,0,1,147.14,107.5Z"/><path class="cls-55" d="M138.11,114.27a57.78,57.78,0,0,0,5.3,3.9c.42.33,1,.5,1.16,1.08a55.51,55.51,0,0,0-7,8.19L133,124.26a4.41,4.41,0,0,1-1.71-1.82A40.87,40.87,0,0,1,138.11,114.27Z"/><path class="cls-56" d="M216.37,169.5c2,.79,3.51,2.32,5.29,3.43.54.33,1,.79,1.72.58A39.34,39.34,0,0,1,217.9,183c-.61.1-1-.34-1.44-.62-1.83-1.16-3.42-2.65-5.41-3.57A56.29,56.29,0,0,0,216.37,169.5Z"/><path class="cls-57" d="M186.24,86.83c-2.16-1.59-4.32-3.18-6.62-4.56a63.68,63.68,0,0,1,7.38-8c1.83,2.06,4.23,3.36,6.52,4.8C191,81.58,188.57,84.15,186.24,86.83Z"/><path class="cls-58" d="M239.1,123.89c-.12-.61-.65-.84-1.09-1.12-1.85-1.13-3.39-2.75-5.47-3.53l4.62-9.1c.56-.1.92.27,1.32.54l4.29,3a1.76,1.76,0,0,0,1.34.52A63,63,0,0,1,239.1,123.89Z"/><path class="cls-59" d="M146.46,131.24a18.61,18.61,0,0,1,5,.81c.71.24,1,.06,1.27-.65a36.07,36.07,0,0,1,1.82-4.9,54.69,54.69,0,0,0,6.74,4.77c-.46,1.41-.88,2.84-1.38,4.23a1.12,1.12,0,0,0,.49,1.57c2.07,1.37,4.09,2.8,6.1,4.26.62.44.93.41,1.37-.24,1.16-1.71,2.4-3.37,3.6-5.06,1.35,1.8,3.48,2.6,5.15,4a2.16,2.16,0,0,0,1.52.44q-3.06,4.67-6.39,9.13l-24.13-17C147.15,132.25,146.46,132,146.46,131.24Z"/><path class="cls-60" d="M205.76,162.88c-1,.92-2,1.89-3.15,2.72-.9.67-1.22,1.21-.36,2.2a17.32,17.32,0,0,1,2.31,4.33,2.65,2.65,0,0,1-1.61-.59l-23.8-16.66a5,5,0,0,1-.58-.55q3.06-4.67,6.38-9.13a1.72,1.72,0,0,0,.9,1.27c1.12.75,2.19,1.57,3.33,2.3.69.45,1.24,1.22,2.2,1.18-1.17,1.71-2.31,3.44-3.52,5.12-.46.63-.39.94.25,1.36,2,1.39,4.09,2.8,6.09,4.27a1.11,1.11,0,0,0,1.64-.07c1.14-.94,2.33-1.83,3.5-2.75l5.34,3.87C205.11,162.06,205.64,162.28,205.76,162.88Z"/><path class="cls-61" d="M205.76,162.88c-.12-.6-.65-.82-1.08-1.13l-5.34-3.87,8.16-7.57c2.06,1.47,4.06,3,6.24,4.32.13.08.19.29.28.44A82.39,82.39,0,0,1,205.76,162.88Z"/><path class="cls-62" d="M165.72,120.84,162,129.69c-.22.52-.43,1.05-.65,1.58a54.69,54.69,0,0,1-6.74-4.77,85.05,85.05,0,0,1,4.36-10c1.94,1.06,3.63,2.5,5.48,3.7C164.82,120.47,165.15,120.9,165.72,120.84Z"/><path class="cls-63" d="M175.87,129.78c1.89-2.73,3.37-5.85,6.3-7.68,4.63-2.88,10.94-2.92,15.25,1.24a12.2,12.2,0,0,1,2.08,15c-.79,1.31-1.76,2.51-2.65,3.76-.09-.56-.56-.78-1-1l-4.26-3c-.4-.28-.85-.52-1-1.06.55-.83,1.11-1.64,1.64-2.48a4.07,4.07,0,1,0-6.69-4.65c-1,1.3-1.9,2.63-2.85,3.95-2.07-.66-3.54-2.28-5.35-3.36C176.93,130.2,176.54,129.68,175.87,129.78Z"/><path class="cls-64" d="M190.67,137c.11.54.56.78,1,1.06l4.26,3c.4.27.87.49,1,1q-2.58,4-5.47,7.82c-1,0-1.51-.73-2.2-1.18-1.14-.73-2.21-1.55-3.33-2.3a1.72,1.72,0,0,1-.9-1.27Q187.68,141,190.67,137Z"/><path class="cls-65" d="M175.87,129.78c.67-.1,1.06.42,1.55.71,1.81,1.08,3.28,2.7,5.35,3.36q-2.18,3.39-4.61,6.59a2.16,2.16,0,0,1-1.52-.44c-1.67-1.37-3.8-2.17-5.15-4Q173.53,132.81,175.87,129.78Z"/><path class="cls-66" d="M203.81,83.46c4.85-5,13.62-5.65,19.89-1.53A16.42,16.42,0,0,1,229,103.27c-.15.27-.35.51-.53.77a24.3,24.3,0,0,0-6.55-4.69,8.52,8.52,0,0,0,.08-7.44,8.19,8.19,0,0,0-11.68-3.34c-1.62-1.57-3.63-2.61-5.4-4C204.47,84.28,203.93,84.07,203.81,83.46Z"/><path class="cls-67" d="M203.81,83.46c.12.61.66.82,1.08,1.14,1.77,1.36,3.78,2.4,5.4,4-3.89,3.13-4.88,7-2.72,11a7.69,7.69,0,0,0,7.73,4.17,8.25,8.25,0,0,0,6.59-4.36,24.3,24.3,0,0,1,6.55,4.69,15,15,0,0,1-8.71,6.85c-.09-.62-.6-.87-1-1.18L199.92,96.58c-.44-.31-.86-.7-1.47-.57A15.47,15.47,0,0,1,203.81,83.46Z"/><path class="cls-68" d="M198.45,96c.61-.13,1,.26,1.47.57l18.77,13.13c.44.31.95.56,1,1.18C209.69,114.53,198.64,106.8,198.45,96Z"/></g><path class="cls-69" d="M495.93,376.61h0c-37.88-10.55-44.83-18.55-44.75-52,.06-23.88.32-47.75.48-71.62-.55-22.21-8.48-39.5,9.22-23.38.05,0,.13,0,.11-.06-1.41-3.91,19.4,8.79,17.91,5.32a.08.08,0,0,1,.08-.11c23,1.63,44.42-2.73,65.5-8.64,7.1-2,9.24-.1,13,5.54,9.21,13.73,14.33,27.72,11.67,43.48-1.7,10,4.25,12.1,13.88,11a.09.09,0,0,1,.1.06c2.68,9-5.26,21.46,12.67,23.42.09,0,.11.11,0,.14-12.38,5.12-14,15.58-16.08,26.18-3.23,16.05-20.18,21.72-31.88,31.36l0,0C531.3,373.53,514.37,378.22,495.93,376.61ZM512.09,246a.08.08,0,0,0,0,.13c11.25,2.49,22-1.49,31.66,3.27a7.66,7.66,0,0,0,6.35-.8c2.66-2.24-.14-4.48-1.49-6.48C541.35,231.3,523.94,232.79,512.09,246Zm-19,13.8c-17.39,27.8-15.7,46.61,4.4,49,.08,0,.13-.08.06-.13-21.55-14.9,1.11-31.7-4.29-48.84A.1.1,0,0,0,493.08,259.77ZM538,271.2h0c.21-5.58.37-11.93-8.29-11.9-7.94,0-8.74,6.69-8.89,11.67s1.13,11.58,8.65,11.87C538.08,283.16,538.25,276.83,538,271.2Zm-73.05,1.5v0c.26,5.64-1.32,13.24,7.58,12.71,8.34-.5,6.49-8.12,6.38-13.36-.1-4.49,2.48-10.62-7.51-10.12C461.21,262.47,466.44,269.09,464.94,272.7Zm9.4,59.13c17.56,8.73,39.42,6.31,56.27-7.37.07,0,0-.15-.09-.12-19.86,7.24-37.22,6.61-56.14,7.35C474.3,331.7,474.27,331.8,474.34,331.83Z"/><path class="cls-70" d="M572.59,285.24c-3-1.51-4.37-4.61-3.44-10.1,2.66-15.76-2.46-29.75-11.67-43.48-3.78-5.64-5.92-7.53-13-5.54-20.45,5.74-42,11.89-64.19,10.77-.82,0-34.76-5.58-48.18-15.74-7.71-5.84-6.59-26.81-5.25-40.43.47-4.65,3-3.94,6.77-3.3,13.27,2.23,24.54-2.44,36-7.58,18.81-8.43,37.72-16.57,60-16.34,13.62.14,24.31,4.47,34.14,12,16.07,12.26,21.22,31,36.36,44.45,9.71,8.65,4.78,24.67,1.73,37.43-1.31,5.5-3.06,10.92-4.65,16.37a3,3,0,0,1-.95,1.46l-10,8.72.19-.13c-2.88,1.41-2.45,9.46-2.29,11.55C579.36,288,578.09,287.06,572.59,285.24Z"/><path class="cls-71" d="M495.92,376.61c18.45,1.61,35.38-3.08,51.94-9.34,4.48,8.94,4.28,18.39,4,27.84-.5,15.92-7.89,23.16-23.91,23.37-23.42.31-31.49-5.81-31.66-24C496.22,388.56,496,382.58,495.92,376.61Z"/><path class="cls-69" d="M582.11,285.89c.2-1.06.39-2.13.59-3.2,2.88-2.5,2.69-5.7,2.47-8.92l-.17.14c13.53-1.68,19.75,2.12,18.09,14a134.89,134.89,0,0,0-1,16.48c-1.93,1.75-4.24,3.45-6.17,5.2C578.09,308.74,584.69,294.78,582.11,285.89Z"/><path class="cls-69" d="M602.09,304.41c0-5-.51-9.52.13-14.39,1.58-12.1-3.11-17.81-16-16.11,3.21-3.11,6.55-6.29,9.75-9.4l.6.3C611.48,272.44,612.69,282.08,602.09,304.41Z"/><path class="cls-70" d="M512,246.07c11.85-13.27,29.33-14.8,36.65-4,1.35,2,4.15,4.24,1.49,6.48a7.66,7.66,0,0,1-6.35.8C534.05,244.6,523.3,248.62,512,246.07Z"/><path class="cls-70" d="M490.09,251.5c-9.68-9.3-24-10.37-30-2.79-1.1,1.4-3.39,3-1.22,4.55a7.21,7.21,0,0,0,5.19.56C472.08,250.47,480.86,253.29,490.09,251.5Z"/><path class="cls-71" d="M493.19,259.6c5.64,17.27-17.45,34.19,4.6,49.19C477.35,306.57,475.6,287.64,493.19,259.6Z"/><path class="cls-70" d="M538,271.18c.26,5.64.09,12-8.53,11.65-7.52-.29-8.8-6.77-8.65-11.87s1-11.63,8.89-11.67C538.36,259.26,538.2,265.61,538,271.18Z"/><path class="cls-70" d="M464.94,272.71c1.51-3.61-3.74-10.24,6.45-10.76,10-.5,7.41,5.63,7.51,10.12.11,5.24,2,12.86-6.38,13.36C463.61,286,465.2,278.36,464.94,272.71Z"/><path class="cls-71" d="M474.08,331.7c19.17-.77,36.73-.07,56.88-7.52C514,338.17,491.8,340.64,474.08,331.7Z"/><path class="cls-72" d="M586.38,273.78c.23,3.26.43,6.52-2.64,9.06C583.24,279.52,581.85,276,586.38,273.78Z"/><path class="cls-32" d="M461.59,631.42a2.49,2.49,0,0,1-1.95-1.59c-15-46.18-27.61-100.1-33.81-118.15l0-.13c-1.13-3.91-7.48-4.06-8.86-.2-14.57,40.44-31.67,79.41-47.5,118.75a2.69,2.69,0,0,1-3.24,1.4c-14.1-4-27.25-9.89-40.47-15.63a2.11,2.11,0,0,1-1.24-2.85c16.37-35.33,19.39-77.76,31.6-122.15,7.56-27.44,22-54.63,37-82.47,4.19-7.76,9.89-10.44,17.4-11.92,20.43-4,40.9-8.26,62.09-7.8a2.67,2.67,0,0,1,2.16,1.11c5.76,8.41,11.66,16.76,17.18,25.28,3.3,5.09,5.88,6,9.39.2s7.3-11.41,11-17.07a2.82,2.82,0,0,1,4-.58c4.24,3.47,4.22,9.09,6.54,13.82,1.06,2.17,4.75,1.71,5-.64.42-4.14,1.09-8.09,3.26-11.62a2.81,2.81,0,0,1,4.55-.12c2.89,4.25,5.74,8.53,8.89,12.63,8.44,10.95,9.13,11,15.62-.4,3.44-6,6.33-12.26,9.4-18.43a2.71,2.71,0,0,1,2.92-1.31c17.52,3.19,35,6.85,52.62,9.17,7.83,1,8.44,5.1,11.78,9.92,23.15,33.38,22.9,71.56,35.65,107a1.42,1.42,0,0,1,0,.16c10.28,40.79,25.81,67,39,100a2.19,2.19,0,0,1-1.57,2.85l-49,15.56a2.65,2.65,0,0,1-3.44-1.69c-4.93-21.44-15.94-41.25-22.49-62.26-1-3.32-2.36-6.57-3.93-10.33-.94-2.25-4.94-1.86-5,.53-1,26.42-2.87,45.32-7.48,62.35a2.57,2.57,0,0,1-1.71,1.88l-9.47,3-.29.07c-38.15,7.9-77,7.79-115.83,7.35a3.07,3.07,0,0,1-.52-.06Z"/><path class="cls-73" d="M491.06,637.06c39,.45,77.95.58,116.24-7.37-1.43.93-2.71,2.19-4.32,2.73-9.7,3.27-9,10.42-5.7,16,4.1,6.89,11.31,2.89,17.09.5,2.45-1,4.45-2.87,6.65-4.34,9.07,44.94,11.39,92.42,14.39,139.58,2.47,25.54,3.13,51.22,6.15,76.69,3.5,29.47,5.6,59,10.36,88.43,4.36,26.93,6.24,54.15,9.26,81.25,1.85,16.57,3.58,33.15,5.75,49.69,1.1,8.43-1.25,15.21-9.75,19.89-3.18-1.83-5.15.56-7.51,1.66l-25.35.08c-14,1.43-21-1.78-20.64-16.19.37-16.11-3.45-32.3-5.44-48.45-3.6-29.05-7.25-58.1-10.77-87.16-2.25-18.59-3.5-37.3-6.62-55.77-5.75-34.12-12.57-68.11-18.9-102.16-3.66-19.61-7.68-39.19-10.66-58.89-1.47-9.69-9-7.4-15.66-7.61-7.74-.24-7.66,4.44-7.72,9.16-.45,38.72-3.72,77.36-5.23,116-1.71,43.6-4.23,87.18-5.48,130.76-1,35.09-5.34,70.14-3.24,105.27.55,9.26-2.2,15.67-12,19.47-16,.69-32,1.87-47.54-2.83-4-4.23-3.14-9.28-3-14.12.88-29.73,2-59.56,2-89.19,0-110.66-9.29-214.38,3.67-331.93.67-6.1.1-12.26.16-18.39,3.5.73,7.05,1.28,10.47,2.21C490.15,658.13,491.09,657.55,491.06,637.06Zm68,16c.13.71-2.19,6.06,6.33,6.14,16.1.16,22.26-3.23,22.2-12.72,0-4.92.43-11.57-8-9.12C571.76,639.65,556.5,634.32,559.06,653.06Zm-47.68-13.63c-7.74.12-15.16-2-15.07,8.28.09,9.71,6,11.21,14.91,11.65,7.94.39,11.87-1.2,11.82-9.18C523,642,520.72,637.58,511.38,639.43Zm29.14,4.51c-4.55.39-10.28-.91-10,5.63s6.11,5,10.41,5c4.46.06,10.16,1,9.89-5.5S544.66,644.5,540.52,643.94Z"/><path class="cls-72" d="M709.52,644.3c17.92,3.26,30.76,14.27,45.56,22.31,3.36,1.82,4.56,3.52,2.72,6.82s-4,5.52-8.46,5.05c-3.46-.36-6.59-3.34-11-.86C740.44,684.93,746.85,690,751,696c2.51,3.69,5.85,7.34,2.14,10.87s-7.49-1.07-11.3-1.88c-.85-.91-1.68-1.82-2.51-2.74-2.11,1.75-.71,2.77,1,3.73-.52,3.82,6.34,8.33.92,11-7.13,3.49-9.49-4.91-15.36-6.81-5.53,1.47.72,10.34-6.09,9.7-8.44-.79-9-9.33-14.54-14.59-2.85,2.16-2.18,8.29-8.15,7.14-3.63-.7-5.15-3.75-5.81-6.37-4.31-17.2-15.91-33-13.09-51.58C688.92,651.71,698,645.12,709.52,644.3Zm26.12,27.8-2,.83c.3.26.66.76.87.72a10.76,10.76,0,0,0,2-.73Z"/><path class="cls-31" d="M618.92,1138.28c-.26-3.31-.51-6.61-.77-9.92.16-5.16.68-10.33.37-15.46-.33-5.45,2.77-7,8.25-6.68,7.53-1.9,18.28,8.53,22.9-4.49,2.36-1.1,4.33-3.49,7.51-1.66,4.9-2,9-1,12.47,2.52,11.35,11.62,27,16.54,43.07,20.79,10.8,2.85,20.18,7.63,27.79,14.92-.08.81-.15,1.63-.22,2.45-16.71,6.69-34.08,8.72-51.77,4C665.73,1138.69,642.5,1137.38,618.92,1138.28Z"/><path class="cls-31" d="M380.75,1140.75l.06-4.79c22.76-13.84,52.19-16.35,73.58-32.52,15.55,4.7,31.56,3.52,47.54,2.83l1,22.09q-.39,3.73-.77,7.47-14.46,1.92-28.93,3.85C442.44,1143.81,411.72,1150.76,380.75,1140.75Z"/><path class="cls-72" d="M352.29,656.79c5.58,13.56,4.61,27.94,7.14,41.88.53,2.88-1.26,6.5-2.61,5.91-13.52-6-14.75,16.1-26.18,9.29-18.22-10.86-31.11-24.75-21-46.12,3.53-7.44,5.69-15.37,8.48-23.07A175.06,175.06,0,0,1,352.29,656.79Z"/><path class="cls-74" d="M352.29,656.79a175.06,175.06,0,0,0-34.15-12.11c-6.43-6.94-3.6-22.39,5.44-29.74,14.7,6.36,29.24,13,45,17.23C372.14,643.1,364,655.38,352.29,656.79Z"/><path class="cls-74" d="M709.52,644.3c-11.55.82-20.6,7.41-31.3,10.18-16.43,6.29-19.43,2.31-21.13-19.64,18.1-5.74,36.9-11.6,55-17.34C723.46,632.89,723.76,635.49,709.52,644.3Z"/><path class="cls-74" d="M490.88,379.1c6.61,6.68,18.64,7.86,22.88,16.95-4.16,6.4-8.49,12.71-12.42,19.22-3.51,5.8-6.09,4.89-9.39-.2C486.2,406.19,480,397.49,474,388.72,475.67,380.27,477.77,372.45,490.88,379.1Z"/><path class="cls-74" d="M533.61,396l14.31-9.59c2.05-.88,4.18-1.65,6.14-2.65,12.48-6.38,13.48-5.94,16.38,7.38-3.39,6.71-6.49,13.55-10.24,20.11-6.49,11.36-7.18,11.35-15.62.4C540.68,406.61,537.25,401.26,533.61,396Z"/><path class="cls-31" d="M491.06,637.06c0,20.49-.91,21.07-23.38,15-3.42-.93-7-1.48-10.47-2.21-3.85-6.78-7.32-13.51,2.86-18.68Z"/><path class="cls-31" d="M621,644.54c-2.2,1.47-4.2,3.32-6.65,4.34-5.78,2.39-13,6.39-17.09-.5-3.3-5.54-4-12.69,5.7-16,1.61-.54,2.89-1.8,4.32-2.73l11.15-3.48C624,631.83,620.89,638.35,621,644.54Z"/><path class="cls-31" d="M559.06,653.06c-2.56-18.74,12.7-13.41,20.55-15.7,8.41-2.45,7.95,4.2,8,9.12.06,9.49-6.1,12.88-22.2,12.72C556.87,659.12,559.19,653.77,559.06,653.06Z"/><path class="cls-31" d="M511.38,639.43c9.34-1.85,11.6,2.53,11.66,10.75.05,8-3.88,9.57-11.82,9.18-8.89-.44-14.82-1.94-14.91-11.65C496.22,637.47,503.64,639.55,511.38,639.43Z"/><path class="cls-31" d="M540.52,643.94c4.14.56,10-1.35,10.3,5.17s-5.43,5.56-9.89,5.5c-4.3-.07-10.13,1.45-10.41-5S536,644.33,540.52,643.94Z"/><path class="cls-75" d="M626.77,1106.22q-1.23-2.21-2.44-4.41l25.34-.08C645.05,1114.75,634.3,1104.32,626.77,1106.22Z"/><path class="cls-76" d="M380.75,1140.75c31,10,61.69,3.06,92.44-1.07q14.46-2,28.93-3.85c2.24,9.21-1.15,12.18-12.82,12.86-21,1.22-42.18-.69-63.19,3.94-12.35,2.73-25.65-1.68-38.42-3.74C381.94,1148,379.32,1145.87,380.75,1140.75Z"/><path class="cls-76" d="M618.92,1138.28c23.58-.9,46.81.41,69.6,6.48,17.69,4.71,35.06,2.68,51.77-4,1.55,10.79-8.91,8.54-15.11,9.75-14.65,2.85-29.82,3.84-44.28,0-17.27-4.59-34.63-.4-51.92-1.91C619.93,1147.8,617.18,1145.49,618.92,1138.28Z"/><path class="cls-77" d="M740.34,706c-1.73-1-3.13-2-1-3.73.83.92,1.66,1.83,2.51,2.74C741.33,705.33,740.83,705.66,740.34,706Z"/><path class="cls-77" d="M735.64,672.1l.81.82a10.76,10.76,0,0,1-2,.73c-.21,0-.57-.46-.87-.72Z"/><path class="cls-69" d="M605.09,271.45s-4.72-8.67-19.83-8.67c-11.5,0-16.62,18.32-13.23,22.55s5.31,3.25,10.39,6.07l2.84-8.68,2.83-.86-2.83-7.81,11.33-3.47Z"/><path class="cls-10" d="M492.75,518.62l3.5.15a5,5,0,0,1-5.08,5,5.25,5.25,0,0,1-4.15-1.61,7,7,0,0,1-1.73-4.72,7.13,7.13,0,0,1,1.32-4.8,4.92,4.92,0,0,1,4.06-1.86,5.16,5.16,0,0,1,3.85,1.29,5.68,5.68,0,0,1,1.62,3.6l-3.56.26a2.78,2.78,0,0,0-.54-1.81,1.47,1.47,0,0,0-1.14-.54c-1.21,0-1.77,1.24-1.68,3.7a5.76,5.76,0,0,0,.56,2.81,1.51,1.51,0,0,0,1.35.72C492.13,520.73,492.68,520,492.75,518.62Z"/><path class="cls-10" d="M502.22,523.47a4.76,4.76,0,0,1-3.72-1.39,5,5,0,0,1-1.47-3.4,4.62,4.62,0,0,1,1.29-3.52,5,5,0,0,1,3.65-1.43,5.18,5.18,0,0,1,3.73,1.32,4.77,4.77,0,0,1,1.51,3.43,4.63,4.63,0,0,1-1.29,3.52A5,5,0,0,1,502.22,523.47Zm0-2.24a1,1,0,0,0,1-.91,8.68,8.68,0,0,0,.13-1.86,4.94,4.94,0,0,0-.33-1.88,1,1,0,0,0-1-.57,1,1,0,0,0-.9.61,4.76,4.76,0,0,0-.23,2,5,5,0,0,0,.38,2.13A1,1,0,0,0,502.2,521.23Z"/><path class="cls-10" d="M517.85,523l-3.42,0c0-.4,0-.82,0-1.23a2.54,2.54,0,0,1-2.45,1.46,3.2,3.2,0,0,1-2.65-1.23,6,6,0,0,1-1.13-3.65,5.7,5.7,0,0,1,.88-3.57,3.09,3.09,0,0,1,2.61-1.33,2.9,2.9,0,0,1,2.31,1c-.05-1.31-.09-2.62-.14-3.92l3.59-.05Q517.62,516.82,517.85,523Zm-3.8-5.93c0-.83-.39-1.25-1.07-1.24a.89.89,0,0,0-.92.8,7.52,7.52,0,0,0-.16,2c.06,1.51.47,2.25,1.23,2.25a.92.92,0,0,0,.73-.37,1.58,1.58,0,0,0,.27-1.09C514.1,518.64,514.08,517.87,514.05,517.11Z"/><path class="cls-10" d="M525.78,519.63l3.4.19a3.86,3.86,0,0,1-1.46,2.35,5.16,5.16,0,0,1-3.31,1,5.24,5.24,0,0,1-3.78-1.31,4.6,4.6,0,0,1-1.52-3.35,4.71,4.71,0,0,1,4.88-5,5,5,0,0,1,3.65,1.31,5.08,5.08,0,0,1,1.5,3.69c0,.12,0,.3,0,.53l-6.21.07a2.46,2.46,0,0,0,.35,1.29,1.29,1.29,0,0,0,1.13.42A1.25,1.25,0,0,0,525.78,519.63Zm-.33-2.41A1.73,1.73,0,0,0,525,516a1.38,1.38,0,0,0-.92-.31c-.86,0-1.27.55-1.24,1.61Z"/><path class="cls-10" d="M534.21,522.86l-3.49,0c-.11-3.08-.21-6.18-.33-9.32l3-.06c0,.65.05,1.3.07,2a2.33,2.33,0,0,1,2.35-2.17c.12,0,.3,0,.53,0,0,1.11.07,2.2.11,3.3a2.52,2.52,0,0,0-.69-.08c-1.2,0-1.78.71-1.73,2.07Z"/><path class="cls-73" d="M549,522.51l-3.11.07q-1.81-2.72-3.61-5.49a21.31,21.31,0,0,1-1.41-2.59,9.55,9.55,0,0,1,.37,2.08q.11,3.07.21,6.08l-3.1.05c-.15-4.13-.29-8.37-.44-12.64l3.62-.1,3.06,4.62A18.17,18.17,0,0,1,546,517a19.3,19.3,0,0,1-.4-3.35c0-1.27-.09-2.54-.13-3.81l3.11-.1C548.75,514.07,548.89,518.37,549,522.51Z"/><path class="cls-73" d="M560.51,522.17l-3.47.12a5.84,5.84,0,0,1-.17-1.3,3.82,3.82,0,0,1-5.42.81,2.71,2.71,0,0,1-.89-1.92,2.82,2.82,0,0,1,1.26-2.46,9.68,9.68,0,0,1,4.7-1.27,1.55,1.55,0,0,1,0-.22,1.05,1.05,0,0,0-.31-.83,1.45,1.45,0,0,0-.82-.18c-.84,0-1.3.39-1.37,1.1l-3.33-.22c.4-2,2-3.08,4.74-3.17a9.06,9.06,0,0,1,2.07.16,3.4,3.4,0,0,1,1.51.67,2.55,2.55,0,0,1,.77,1,7.73,7.73,0,0,1,.26,2.09c0,1.27.09,2.53.13,3.79A5,5,0,0,0,560.51,522.17Zm-3.93-4.28c-1.55.22-2.31.75-2.28,1.6,0,.56.34.84,1,.82a1.5,1.5,0,0,0,1-.38,2.13,2.13,0,0,0,.35-1.58C556.59,518.2,556.58,518.05,556.58,517.89Z"/><path class="cls-73" d="M570.81,512.22c.11,3.2.22,6.37.33,9.46-1.13.07-2.25.12-3.37.17,0-.51,0-1,0-1.53a2.9,2.9,0,0,1-2.83,1.86,2.71,2.71,0,0,1-2.07-.65,2.89,2.89,0,0,1-.8-2.1q-.12-3.37-.23-6.83l3.64-.15c.07,2,.13,4,.2,6a1.53,1.53,0,0,0,.18.78.66.66,0,0,0,.6.2,1,1,0,0,0,.74-.38,1.41,1.41,0,0,0,.26-1c-.06-1.89-.13-3.8-.19-5.73Z"/><path class="cls-73" d="M578.46,511.84c0,.8,0,1.61.08,2.41l-1.85.1.12,3.48c0,.47.12.75.29.83a1.31,1.31,0,0,0,.55.1,5,5,0,0,0,1-.23l.09,2.6a10.56,10.56,0,0,1-2.11.35,3.53,3.53,0,0,1-2.49-.57,2.91,2.91,0,0,1-.87-2.27l0-1.11c0-1-.07-2-.11-3l-1.38.07-.09-2.43,1.39-.07c0-1,0-2.08-.05-3.12l3.46-.21c0,1.06.07,2.1.1,3.16Z"/><path class="cls-73" d="M589.49,520.41l-3.46.28a6.27,6.27,0,0,1-.18-1.28,3.47,3.47,0,0,1-2.93,1.71,3.19,3.19,0,0,1-2.49-.66,2.61,2.61,0,0,1-.88-1.87,2.89,2.89,0,0,1,1.25-2.49,10.39,10.39,0,0,1,4.71-1.43,1.41,1.41,0,0,1,0-.21c0-.41-.12-.67-.31-.79a1.4,1.4,0,0,0-.82-.15c-.84.07-1.3.43-1.37,1.12l-3.33-.1c.4-2,2-3.07,4.74-3.25a9.27,9.27,0,0,1,2.07.08A3.37,3.37,0,0,1,588,512a2.38,2.38,0,0,1,.77.95,7.15,7.15,0,0,1,.26,2c0,1.23.08,2.47.13,3.7A5,5,0,0,0,589.49,520.41Zm-3.93-4c-1.54.28-2.3.83-2.27,1.66,0,.56.34.83,1,.77a1.54,1.54,0,0,0,1-.42,2.07,2.07,0,0,0,.36-1.57C585.58,516.67,585.57,516.53,585.56,516.38Z"/><path class="cls-10" d="M460.22,500.3h0c9.64-.76,18.17,5.28,19,15.16h0c.89,9.84-6.22,18.9-15.87,19.77h0a17.69,17.69,0,0,1-19.06-15.87h0C443.46,509.7,450.57,500.91,460.22,500.3Zm9.49,5.82a.24.24,0,0,0-.09-.08,2.4,2.4,0,0,0-2.43-.11c-5.27,2.68-10.54,5.55-15.81,8.53l-2,1.13a1.69,1.69,0,0,0-.91,1.44,2,2,0,0,0,.32,1.25,2.47,2.47,0,0,0,1.58,1.1c2.45.63,4.91,1.27,7.36,1.94a3.78,3.78,0,0,1,1,.42,3.87,3.87,0,0,1,.7.7c.95,1.23,1.91,2.45,2.86,3.69.71.93,1.42,1.87,2.15,2.8a2.39,2.39,0,0,0,2.38,1,1.72,1.72,0,0,0,1.46-1.53c.09-.71.17-1.42.25-2.14.27-2.24.52-4.48.79-6.69.22-1.86.43-3.68.65-5.49.24-2,.48-3.95.73-5.87a2,2,0,0,0-.06-.83,2.23,2.23,0,0,0-.85-1.17A.2.2,0,0,0,469.71,506.12Z"/><path class="cls-31" d="M458.77,521.74a3.78,3.78,0,0,0-1-.42c-2.45-.66-4.91-1.32-7.36-1.94a2.47,2.47,0,0,1-1.58-1.1,2,2,0,0,1-.32-1.25,1.7,1.7,0,0,1,.91-1.44c.67-.39,1.34-.76,2-1.13,5.27-3,10.54-5.85,15.81-8.53a2.43,2.43,0,0,1,2.43.11.24.24,0,0,1,.09.08.9.9,0,0,1-.13.42,10.86,10.86,0,0,1-.66,1.14c-1,1.62-2.17,3.22-3.32,4.83-.56.79-1.12,1.59-1.69,2.38-.79,1.1-1.58,2.19-2.39,3.29l-1.12,1.52c-.41.56-.84,1.11-1.28,1.66A2.11,2.11,0,0,1,458.77,521.74Z"/><path class="cls-32" d="M458.77,521.74a1.82,1.82,0,0,0,.35-.38c.44-.55.87-1.09,1.28-1.66l1.12-1.52c.81-1.1,1.61-2.19,2.39-3.29.57-.79,1.13-1.58,1.69-2.38,1.15-1.62,2.28-3.21,3.32-4.83a12,12,0,0,0,.66-1.14.9.9,0,0,0,.13-.42.2.2,0,0,1,.12.06,2.21,2.21,0,0,1,.85,1.17,2.11,2.11,0,0,1,.06.83c-.25,1.92-.49,3.87-.73,5.87q-.31,2.72-.65,5.49c-.26,2.21-.53,4.45-.79,6.69-.08.72-.16,1.43-.25,2.14a1.73,1.73,0,0,1-1.46,1.53,2.37,2.37,0,0,1-2.38-1c-.73-.93-1.44-1.87-2.15-2.8-.95-1.24-1.91-2.46-2.86-3.69A3.87,3.87,0,0,0,458.77,521.74Z"/><path class="cls-78" d="M287.94,762H84.72a16.63,16.63,0,0,1-16.64-16.26l-3.8-166.69a16.65,16.65,0,0,1,16.64-17H292.51a16.65,16.65,0,0,1,16.64,17.1l-4.57,166.69A16.65,16.65,0,0,1,287.94,762Z"/><path class="cls-79" d="M287.94,762.53H84.72a17.27,17.27,0,0,1-17.17-16.78L63.76,579.06A17.15,17.15,0,0,1,80.92,561.5H292.51a17.18,17.18,0,0,1,17.17,17.64L305.1,745.83A17.07,17.07,0,0,1,287.94,762.53Zm-207-200A16.12,16.12,0,0,0,64.81,579L68.6,745.72a16.21,16.21,0,0,0,16.12,15.75H287.94a16,16,0,0,0,16.11-15.67l4.58-166.69a16.12,16.12,0,0,0-16.12-16.56Z"/><rect class="cls-10" x="119.06" y="596.12" width="106.88" height="4.57"/><rect class="cls-10" x="119.06" y="607.25" width="53.44" height="4.57"/><rect class="cls-10" x="119.06" y="616.54" width="53.44" height="4.57"/><rect class="cls-10" x="178.5" y="616.54" width="42.52" height="4.57"/><rect class="cls-10" x="119.06" y="625.83" width="86.15" height="4.57"/><rect class="cls-10" x="119.06" y="635.13" width="30.66" height="4.57"/><rect class="cls-10" x="156.03" y="663" width="53.03" height="4.57"/><rect class="cls-10" x="119.06" y="644.42" width="96.11" height="4.57"/><rect class="cls-10" x="119.06" y="653.71" width="73.94" height="4.57"/><rect class="cls-10" x="119.06" y="663" width="34.78" height="4.57"/><rect class="cls-10" x="119.06" y="672.3" width="53.44" height="4.57"/><rect class="cls-10" x="119.06" y="681.59" width="15.33" height="4.57"/><rect class="cls-10" x="140.7" y="681.59" width="55.62" height="4.57"/><rect class="cls-10" x="156.03" y="690.61" width="53.03" height="4.57"/><rect class="cls-10" x="119.06" y="690.61" width="34.78" height="4.57"/><rect class="cls-10" x="119.06" y="699.9" width="53.44" height="4.57"/><rect class="cls-10" x="119.06" y="709.19" width="15.33" height="4.57"/><rect class="cls-10" x="140.7" y="709.19" width="55.62" height="4.57"/><path class="cls-80" d="M673.11,654.56l4.67,133a9.81,9.81,0,0,0,9.8,9.46H916.75a9.81,9.81,0,0,0,9.8-9.57l3.2-134.59a9.79,9.79,0,0,0-9.86-10l-237,1.56A9.8,9.8,0,0,0,673.11,654.56Z"/><path class="cls-30" d="M916.75,797.42H687.58a10.12,10.12,0,0,1-10.16-9.81l-4.67-133a10.16,10.16,0,0,1,10.09-10.53l237-1.55a10.21,10.21,0,0,1,7.31,3,10.09,10.09,0,0,1,2.92,7.37l-3.21,134.58A10.11,10.11,0,0,1,916.75,797.42ZM920,643.22h-.07l-237,1.56a9.43,9.43,0,0,0-9.37,9.77l4.66,133a9.41,9.41,0,0,0,9.44,9.11H916.75a9.5,9.5,0,0,0,9.44-9.21l3.2-134.59a9.44,9.44,0,0,0-9.43-9.67Z"/><path class="cls-81" d="M673.45,661.34h256l.41-7A10.74,10.74,0,0,0,919.08,643l-237,1.87a8.89,8.89,0,0,0-8.82,9.06Z"/><polygon class="cls-82" points="686.33 672.07 686.33 749.06 764.7 749.06 764.7 671.67 686.33 672.07"/><rect class="cls-83" x="840.43" y="677.24" width="34.09" height="34.09"/><rect class="cls-84" x="880.65" y="677.24" width="34.09" height="34.09"/><rect class="cls-85" x="799.54" y="677.24" width="34.09" height="34.09"/><rect class="cls-20" x="827.57" y="731.2" width="87.18" height="8.17"/><rect class="cls-20" x="805.76" y="743.63" width="108.98" height="2.53"/><rect class="cls-20" x="806.79" y="715.67" width="20.85" height="2.53"/><rect class="cls-20" x="847.05" y="715.67" width="20.85" height="2.53"/><rect class="cls-20" x="887.27" y="715.67" width="20.85" height="2.53"/><rect class="cls-20" x="799.54" y="747.74" width="35.06" height="2.53"/><rect class="cls-20" x="805.76" y="751.8" width="108.98" height="2.53"/><rect class="cls-20" x="799.54" y="755.86" width="115.2" height="2.53"/><rect class="cls-20" x="799.54" y="759.92" width="115.2" height="2.53"/><rect class="cls-20" x="805.76" y="776.33" width="108.98" height="2.53"/><rect class="cls-20" x="799.54" y="780.38" width="115.2" height="2.53"/><rect class="cls-20" x="799.54" y="784.44" width="115.2" height="2.53"/><rect class="cls-20" x="799.54" y="763.97" width="110.57" height="2.53"/><rect class="cls-20" x="805.76" y="768.03" width="108.98" height="2.53"/><rect class="cls-20" x="799.54" y="772.09" width="93.34" height="2.53"/><g class="cls-86"><path class="cls-87" d="M708.28,733.62a22.3,22.3,0,1,1,22.3-22.29A22.32,22.32,0,0,1,708.28,733.62Zm0-43.14a20.85,20.85,0,1,0,20.85,20.85A20.87,20.87,0,0,0,708.28,690.48Z"/></g><circle class="cls-10" cx="708.28" cy="711.33" r="12.12"/><g class="cls-86"><path class="cls-87" d="M764.7,694A22.3,22.3,0,1,1,787,671.67,22.32,22.32,0,0,1,764.7,694Zm0-43.14a20.85,20.85,0,1,0,20.84,20.85A20.87,20.87,0,0,0,764.7,650.82Z"/></g><circle class="cls-10" cx="764.7" cy="671.67" r="11.4" transform="translate(-17.67 1322.66) rotate(-81.06)"/><g class="cls-86"><polygon class="cls-10" points="682.42 650.89 684.05 648.42 692.86 656.14 691.51 658.02 682.42 650.89"/><polygon class="cls-10" points="693.09 650.89 691.46 648.42 682.65 656.14 684 658.02 693.09 650.89"/></g><rect class="cls-10" x="844.39" y="650.1" width="78.9" height="3.96"/></g></g></g></svg>