<svg xmlns="http://www.w3.org/2000/svg" viewBox="0 0 357.2 408.71"><defs><style>.cls-1{fill:#ceffff;}</style></defs><g id="Layer_2" data-name="Layer 2"><g id="Layer_1-2" data-name="Layer 1"><path class="cls-1" d="M180.13,408.71h-3.19c-.93-1.15-2.38-1.1-3.6-1.45q-67.51-18.9-135-37.72c-6.15-1.72-6-1.71-6.58-8.16-1.12-13.64-2.35-27.28-3.56-40.93q-3.39-38.32-6.82-76.67Q18,205.64,14.62,167.49,10.8,124.19,6.93,80.88,3.57,42.95.2,5C-.25,0-.37,0,4.55,0h348a21.34,21.34,0,0,0,2.4,0c2-.22,2.44.72,2.27,2.58Q354.23,34.78,351.4,67,348,105.51,344.54,144q-3.36,38-6.71,75.89Q334.41,258.47,331,297c-2,22.25-4,44.5-5.82,66.76-.26,3.08-1.33,4.43-4.44,5.29q-55.69,15.33-111.28,31C199.64,402.85,189.67,405.07,180.13,408.71ZM178.57,75.18H68.86c-1.89,0-3.67-.35-3.42,2.74.94,11.66,1.82,23.34,2.36,35,.19,4.15,1.7,5.09,5.7,5.07,55.18-.31,110.37-.43,165.56-.69,3.07,0,4,.53,3.68,3.91-1.14,12.3-2.08,24.64-2.66,37-.19,4-1.35,5.06-5.32,5.1-52.53.51-105,1.25-157.58,1.76-3.65,0-4.46,1-4,4.49,1.4,11.48,2.65,23,3.64,34.5.29,3.37,1.56,4,4.65,4,32.45-.22,64.9-.29,97.35-.38,17.82-.05,35.64,0,53.46-.14,2.77,0,3.54.5,3.19,3.49-2.13,18.35-4.07,36.72-6,55.1-.29,2.82-1.16,4.38-4.22,5.16C210.58,275,196,279,181.37,283a10.07,10.07,0,0,1-5.47.12c-14.86-4.05-29.72-8.12-44.62-12-2.31-.61-3.24-1.61-3.43-4-.85-10.46-1.92-20.91-2.75-31.38-.18-2.34-.88-3.24-3.32-3.22q-19.55.13-39.09,0c-2.37,0-3.33.55-3.09,3.13q3.11,33.15,6,66.33c.23,2.67,1.48,3.44,3.82,4.08q43,11.77,86,23.8a10.94,10.94,0,0,0,6.21,0c28.14-7.83,56.27-15.7,84.49-23.22,4.15-1.11,5.35-3,5.69-6.94,3.12-36,6.41-72,9.61-108,3.32-37.34,6.51-74.7,10-112,.38-4.08-.85-4.5-4.3-4.49Q232.83,75.27,178.57,75.18Z"/></g></g></svg>