<svg xmlns="http://www.w3.org/2000/svg" viewBox="0 0 3372.43 1682.67"><defs><style>.cls-1{fill:#333;}.cls-2{fill:#29abe2;}.cls-3{fill:none;stroke:#4d4d4d;stroke-linecap:round;stroke-width:40px;stroke-dasharray:0 8 80 100 0 0;}</style></defs><g id="Layer_2" data-name="Layer 2"><g id="Layer_1-2" data-name="Layer 1"><path class="cls-1" d="M3052,192.83c-.91-6.34-3.3-12.16-6-17.92q-27.42-58.83-54.71-117.7c-5-10.73-6.25-21.68-2.64-33A35.78,35.78,0,0,1,3001.2,6c8.64-6.49,18.08-7.62,28.1-3.77,11.89,4.57,23.72,9.25,35.58,13.88q140.92,55,281.86,110c15.09,5.88,22.64,17.24,25.27,32.59a4.14,4.14,0,0,1-.16,2.18,18.28,18.28,0,0,1-7,3.18,191.51,191.51,0,0,1-22.49,4.71c-33,5.3-66.24,8.66-99.49,11.85-16.26,1.56-32.53,2.92-48.8,4.32-22.49,2-45,3.59-67.53,5.09-10.39.69-20.79,1.35-31.18,1.92-11.57.64-23.13,1.24-34.72,1.38C3057.76,193.32,3054.82,193.52,3052,192.83Z"/><path class="cls-2" d="M3052,192.83c2.87.69,5.81.49,8.7.45,11.59-.14,23.15-.74,34.72-1.38,10.39-.57,20.79-1.23,31.18-1.92,22.52-1.5,45-3.14,67.53-5.09,16.27-1.4,32.54-2.76,48.8-4.32,33.25-3.19,66.49-6.55,99.49-11.85a191.51,191.51,0,0,0,22.49-4.71,18.28,18.28,0,0,0,7-3.18c.69.56.51,1.37.54,2.08.34,8.88-1.5,17.2-6.36,24.75a35.75,35.75,0,0,1-10.43,10.25l-84,56.62q-38.09,25.65-76.16,51.32l-91.24,61.54c-9.66,6.51-19.29,13.05-29,19.49-12,8-25.68,5.41-35-2.49-12.69-10.77-17.11-24.7-14.33-40.82,3.31-19.2,7.1-38.33,10.68-57.48q7.15-38.32,14.36-76.62A59.64,59.64,0,0,0,3052,192.83Z"/><path class="cls-3" d="M20,1556.05C595.3,638.13,1384.85,179,1944,369.05c364.85,124,756.44,566.92,645,899-103.64,308.84-638.32,509.77-887,322-159.89-120.73-175.64-382.58-138-553,96-434.56,646-759.09,1382-841"/></g></g></svg>