<svg xmlns="http://www.w3.org/2000/svg" viewBox="0 0 3363.09 1682.16"><defs><style>.cls-1{fill:#fff;}.cls-2{fill:#29abe2;}.cls-3{fill:none;stroke:#4d4d4d;stroke-linecap:round;stroke-width:40px;stroke-dasharray:0 8 80 100 0 0;}</style></defs><g id="Layer_2" data-name="Layer 2"><g id="Layer_1-2" data-name="Layer 1"><path class="cls-1" d="M3047.58,187.87c-1.62-6.19-4.66-11.7-8-17.12q-34-55.31-67.81-110.67c-6.19-10.08-8.69-20.82-6.4-32.51A35.59,35.59,0,0,1,2975.8,8.06c7.83-7.44,17.09-9.64,27.48-7,12.33,3.18,24.63,6.47,36.94,9.72q146.28,38.52,292.58,77c15.67,4.11,24.46,14.53,28.84,29.49a4.21,4.21,0,0,1,.09,2.17,18.42,18.42,0,0,1-6.58,4,192.18,192.18,0,0,1-21.81,7.25c-32.18,9-64.81,16.18-97.48,23.15-16,3.41-32,6.62-48,9.88-22.13,4.5-44.31,8.71-66.51,12.78q-15.37,2.81-30.76,5.47c-11.41,2-22.84,3.88-34.33,5.34C3053.41,187.69,3050.51,188.23,3047.58,187.87Z"/><path class="cls-2" d="M3047.58,187.87c2.93.36,5.83-.18,8.7-.55,11.49-1.46,22.92-3.38,34.33-5.34q15.39-2.64,30.76-5.47c22.2-4.07,44.38-8.28,66.51-12.78,16-3.26,32-6.47,48-9.88,32.67-7,65.3-14.11,97.48-23.15a192.18,192.18,0,0,0,21.81-7.25,18.42,18.42,0,0,0,6.58-4c.74.48.66,1.31.77,2,1.35,8.78.48,17.26-3.49,25.32a35.91,35.91,0,0,1-9.18,11.38q-38.51,32.91-77,65.85-34.9,29.85-69.79,59.7l-83.6,71.57c-8.85,7.57-17.67,15.17-26.58,22.68-11.05,9.32-24.89,8.31-35,1.53-13.84-9.25-19.83-22.58-18.91-38.91,1.09-19.46,2.66-38.89,4-58.33q2.73-38.88,5.5-77.76A58.81,58.81,0,0,0,3047.58,187.87Z"/><path class="cls-3" d="M20,1555.54c575.3-917.92,1364.85-1377.09,1924-1187,364.85,124,756.44,566.92,645,899-103.64,308.84-638.32,509.77-887,322-159.89-120.73-175.64-382.58-138-553,96-434.56,646-759.09,1382-841"/></g></g></svg>