<svg xmlns="http://www.w3.org/2000/svg" xmlns:xlink="http://www.w3.org/1999/xlink" viewBox="0 0 1540.51 1541.43"><defs><style>.cls-1,.cls-21,.cls-35,.cls-5,.cls-6{fill:none;}.cls-2,.cls-20{fill:#92e3a9;}.cls-17,.cls-3,.cls-33{fill:#fff;}.cls-3{opacity:0.7;}.cls-20,.cls-23,.cls-3{isolation:isolate;}.cls-4{fill:url(#Áåçûìÿííûé_ãðàäèåíò_97);}.cls-10,.cls-16,.cls-18,.cls-33,.cls-5,.cls-6{stroke:#263238;}.cls-10,.cls-16,.cls-18,.cls-21,.cls-33,.cls-35,.cls-5,.cls-6{stroke-linecap:round;stroke-linejoin:round;}.cls-7{fill:url(#Áåçûìÿííûé_ãðàäèåíò_97-2);}.cls-8{fill:url(#Áåçûìÿííûé_ãðàäèåíò_97-3);}.cls-18,.cls-9{fill:#263238;}.cls-10{fill:#999;}.cls-11{fill:url(#Áåçûìÿííûé_ãðàäèåíò_97-4);}.cls-12{fill:url(#Áåçûìÿííûé_ãðàäèåíò_97-5);}.cls-13{fill:url(#Áåçûìÿííûé_ãðàäèåíò_97-6);}.cls-14{fill:url(#Áåçûìÿííûé_ãðàäèåíò_97-7);}.cls-15{fill:url(#Áåçûìÿííûé_ãðàäèåíò_97-8);}.cls-16{fill:#bfbfbf;}.cls-19{clip-path:url(#clip-path);}.cls-20{opacity:0.4;}.cls-21{stroke:#fff;}.cls-22{fill:url(#Áåçûìÿííûé_ãðàäèåíò_97-9);}.cls-23{opacity:0.2;}.cls-24{fill:url(#linear-gradient);}.cls-25{fill:url(#linear-gradient-2);}.cls-26{fill:url(#linear-gradient-3);}.cls-27{fill:url(#linear-gradient-4);}.cls-28{fill:url(#linear-gradient-5);}.cls-29{fill:url(#linear-gradient-6);}.cls-30{fill:#757575;}.cls-31{fill:url(#linear-gradient-7);}.cls-32{fill:url(#Áåçûìÿííûé_ãðàäèåíò_97-10);}.cls-34{fill:#ff737a;}.cls-35{stroke:#757575;}.cls-36{fill:url(#Áåçûìÿííûé_ãðàäèåíò_97-11);}.cls-37{fill:url(#linear-gradient-8);}.cls-38{fill:url(#linear-gradient-9);}.cls-39{fill:url(#Áåçûìÿííûé_ãðàäèåíò_97-12);}</style><linearGradient id="Áåçûìÿííûé_ãðàäèåíò_97" x1="359.9" y1="448.08" x2="1305.3" y2="448.08" gradientUnits="userSpaceOnUse"><stop offset="0" stop-color="#d906e3"/><stop offset="1" stop-color="#ff6df9"/></linearGradient><linearGradient id="Áåçûìÿííûé_ãðàäèåíò_97-2" x1="89.38" y1="564.86" x2="116.96" y2="564.86" xlink:href="#Áåçûìÿííûé_ãðàäèåíò_97"/><linearGradient id="Áåçûìÿííûé_ãðàäèåíò_97-3" x1="924.15" y1="68.27" x2="951.73" y2="68.27" xlink:href="#Áåçûìÿííûé_ãðàäèåíò_97"/><linearGradient id="Áåçûìÿííûé_ãðàäèåíò_97-4" x1="1252.97" y1="422.72" x2="1298.92" y2="422.72" xlink:href="#Áåçûìÿííûé_ãðàäèåíò_97"/><linearGradient id="Áåçûìÿííûé_ãðàäèåíò_97-5" x1="1157.21" y1="444.41" x2="1221.03" y2="444.41" xlink:href="#Áåçûìÿííûé_ãðàäèåíò_97"/><linearGradient id="Áåçûìÿííûé_ãðàäèåíò_97-6" x1="1157.37" y1="550.53" x2="1213.87" y2="550.53" xlink:href="#Áåçûìÿííûé_ãðàäèåíò_97"/><linearGradient id="Áåçûìÿííûé_ãðàäèåíò_97-7" x1="1232.7" y1="613.54" x2="1278.8" y2="613.54" xlink:href="#Áåçûìÿííûé_ãðàäèåíò_97"/><linearGradient id="Áåçûìÿííûé_ãðàäèåíò_97-8" x1="1318.39" y1="617.1" x2="1358.4" y2="617.1" xlink:href="#Áåçûìÿííûé_ãðàäèåíò_97"/><clipPath id="clip-path"><path class="cls-1" d="M911.51,235c127,52.78,128.64,175.66,85,237-39.6,55.84-93.17,51.63-97.85,78.34S744.6,538.08,737.65,519s24.05-16.53-33.33-93.14S755.55,170.16,911.51,235Z"/></clipPath><linearGradient id="Áåçûìÿííûé_ãðàäèåíò_97-9" x1="408.93" y1="1364.24" x2="1167.75" y2="1364.24" xlink:href="#Áåçûìÿííûé_ãðàäèåíò_97"/><linearGradient id="linear-gradient" x1="656.83" y1="1152.27" x2="934.84" y2="1152.27" gradientUnits="userSpaceOnUse"><stop offset="0.02" stop-color="#ffc2a9"/><stop offset="1" stop-color="#ffbdbd"/></linearGradient><linearGradient id="linear-gradient-2" x1="687.43" y1="1221.79" x2="795.84" y2="1221.79" xlink:href="#linear-gradient"/><linearGradient id="linear-gradient-3" x1="811.03" y1="1223.83" x2="912.63" y2="1223.83" xlink:href="#linear-gradient"/><linearGradient id="linear-gradient-4" x1="686.44" y1="963.57" x2="717.89" y2="963.57" xlink:href="#linear-gradient"/><linearGradient id="linear-gradient-5" x1="905.46" y1="996.49" x2="953.94" y2="996.49" xlink:href="#linear-gradient"/><linearGradient id="linear-gradient-6" x1="712.61" y1="959.34" x2="937.28" y2="959.34" xlink:href="#linear-gradient"/><linearGradient id="linear-gradient-7" x1="794.27" y1="990.22" x2="809.91" y2="990.22" xlink:href="#linear-gradient"/><linearGradient id="Áåçûìÿííûé_ãðàäèåíò_97-10" x1="933.98" y1="949.32" x2="1005.88" y2="949.32" xlink:href="#Áåçûìÿííûé_ãðàäèåíò_97"/><linearGradient id="Áåçûìÿííûé_ãðàäèåíò_97-11" x1="390.86" y1="1254.78" x2="551.98" y2="1254.78" xlink:href="#Áåçûìÿííûé_ãðàäèåíò_97"/><linearGradient id="linear-gradient-8" x1="442.46" y1="986.45" x2="594.35" y2="986.45" xlink:href="#linear-gradient"/><linearGradient id="linear-gradient-9" x1="796.3" y1="1378.79" x2="819.45" y2="1378.79" gradientUnits="userSpaceOnUse"><stop offset="0" stop-color="#0071bc"/><stop offset="1" stop-color="#29abe2"/></linearGradient><linearGradient id="Áåçûìÿííûé_ãðàäèåíò_97-12" x1="1426.29" y1="399.89" x2="1486.13" y2="399.89" xlink:href="#Áåçûìÿííûé_ãðàäèåíò_97"/></defs><g id="Layer_2" data-name="Layer 2"><g id="Layer_1-2" data-name="Layer 1"><path class="cls-2" d="M1434.39,178.44C1230.39-47.19,848.18-12.37,670.54,35,548.35,67.66,477.89,175.38,392.46,188.49,135,228.09-34.29,359.39,5.89,583.33S259,877.69,363.37,1202.05s362.33,377.67,636.06,267.82,323.13-195.1,387.94-500.44S1668.19,436.87,1434.39,178.44Z"/><path class="cls-3" d="M1434.39,178.44C1230.39-47.19,848.18-12.37,670.54,35,548.35,67.66,477.89,175.38,392.46,188.49,135,228.09-34.29,359.39,5.89,583.33S259,877.69,363.37,1202.05s362.33,377.67,636.06,267.82,323.13-195.1,387.94-500.44S1668.19,436.87,1434.39,178.44Z"/><path class="cls-4" d="M525.42,452.21c46.33-7.2,45.36-105.92-36.4-134.69s-39.61-92.81.93-78.67S531.18,347.55,592.24,356s73.91-113.69,40.36-153,34.92-23.08,43.2-34.89C689,149,645.09,57.4,693,65.5c23.73,4-1.15,62.93,16.6,150.53s39,131.19,79.2,84.61-4.06-83.13,25.39-105.28,53.21-2,50.4,25.85-4,55.2,15.48,45.22,51.63-56.56,67.58-93.17,34.09-34.28,35.57-7-71.1,86.7-73,127.35,26.43,114.27,90.73,65.31,79.21-66.79,101.46-40.62,5.72,69,42.12,68.41,81.76-97.46,104.66-90,66.14,28.52-12.56,72-105.38,41.62-101.89,89.07,187.83,53.1,169.21,84.57-224.87,27.69-246.4,105.2,90,65.67,70.49,109.06-64.8-18.58-105.74-55.2-41.8-9.21-77.8,2.34-43.89-9-67-14.79-9,41.58-43.78,36.54S823,713.34,799.4,704.3s-43.89,80.76-94.51,66.75-81.4-54.9-113.08-26-8.54,90.19-53.72,85.94S508.93,784.59,528,779.69s70.75-74.16,61.82-100.81-95,44.32-113.37,7.85S442.21,619,398.14,630s-50.8-50.41-16.3-49.47,114.52,7,120.79-21.93S488.44,497.36,434,470.1s-1-82.37,37.27-51.91S488.76,457.75,525.42,452.21Z"/><polygon class="cls-5" points="147.74 901.2 116.96 835.61 230.44 835.61 147.74 901.2"/><polygon class="cls-5" points="637.89 447.02 652.11 485.26 588.42 479.97 637.89 447.02"/><polyline class="cls-5" points="654.38 54.48 688.47 70.97 654.38 87.64 688.47 108.74 654.38 131.57 692.61 149.24 662.48 177.33"/><polygon class="cls-5" points="1330.3 1065.41 1318.82 1135.44 1392.12 1135.44 1397.84 1113.87 1349.02 1113.44 1358.35 1062.43 1330.3 1065.41"/><circle class="cls-6" cx="1175.67" cy="1267.78" r="30.89"/><circle class="cls-5" cx="442.75" cy="251.85" r="30.89"/><line class="cls-5" x1="1390.1" y1="775.73" x2="1458.15" y2="814.65"/><line class="cls-5" x1="1437.23" y1="774.01" x2="1411.02" y2="825.6"/><line class="cls-5" x1="1062.69" y1="540.06" x2="988.99" y2="566.81"/><line class="cls-5" x1="1033.53" y1="577.1" x2="1011.1" y2="523.75"/><path class="cls-5" d="M364.09,813.9c-.51,1.36,53.57-23.37,53.57-23.37l26.42,60.52-53.6,23.37Z"/><path class="cls-5" d="M1106,732.82c-.58,0,14.4,18,14.4,18L1100.24,767l-14.4-18Z"/><path class="cls-7" d="M117,564.86a13.76,13.76,0,1,1,0-.07Z"/><path class="cls-8" d="M951.73,68.24A13.79,13.79,0,1,1,937.9,54.48h0A13.79,13.79,0,0,1,951.73,68.24Z"/><polyline class="cls-5" points="1125.44 899.01 1140.1 923.49 1110.14 925.83 1118.1 948.73 1084.9 951.25 1101.03 995.21"/><polyline class="cls-5" points="348.71 1098.5 374.56 1114.05 339.96 1142.28 361.64 1155.96 333.77 1186.85"/><polyline class="cls-5" points="1095.74 310.57 1074.43 289.19 1114.86 270.21 1097.18 251.67 1131.71 228.49"/><g id="freepik--Music--inject-2"><path class="cls-5" d="M262.85,322.49S417,549.31,634.33,587.29"/><path class="cls-5" d="M223.75,370.63s220.8,230.88,396.53,243.92"/><path class="cls-5" d="M206,443.39s225,191.21,396.25,202"/><path class="cls-5" d="M206,522.67s186,142.82,382.68,145.2"/><path class="cls-9" d="M396.42,425.28A39.34,39.34,0,0,1,386,404.15a40.37,40.37,0,0,1-.36-12.07h0l-49.21,89a42.69,42.69,0,0,0-13.87-20.27c-13.89-11.7-31.39-13.83-39.06-4.68s-2.63,26,11.27,37.69,31.39,13.79,39.1,4.68a14.85,14.85,0,0,0,2.63-4.79l38.74-70.09a53.14,53.14,0,0,0,15,16.13A26.56,26.56,0,0,1,401,466C401.42,464.77,412.26,441.88,396.42,425.28Z"/><path class="cls-9" d="M422.74,581.35a33.35,33.35,0,0,1-8.79-18,33.81,33.81,0,0,1-.32-10.19h0l-41.55,75.36a36,36,0,0,0-11.7-17.14c-11.74-9.9-26.54-11.67-33-4s-2.23,22,9.54,31.86,26.54,11.67,33,4a12.26,12.26,0,0,0,2.23-4L404.91,580a44.66,44.66,0,0,0,12.68,13.61,22.42,22.42,0,0,1,9,22.21C427,614.76,436.13,595.39,422.74,581.35Z"/><path class="cls-9" d="M575.6,567a35.46,35.46,0,0,1-9.07-28.08h0l-41.62,75.28A36,36,0,0,0,513.17,597c-11.73-9.9-26.53-11.67-33-4s-2.23,22,9.54,31.86,26.54,11.7,33,4a12.45,12.45,0,0,0,2.23-4l32.8-59.26a44,44,0,0,0,12.63,13.61,22.46,22.46,0,0,1,9,22.21C579.85,600.36,589,581,575.6,567Z"/></g><path class="cls-10" d="M1126.78,444.58c-42.6,101.74,12.6,209.86,132.09,225.74s179.76-68.12,128.5-94.66-45-65.56-56.82-150.16S1169.3,343,1126.78,444.58ZM1319,531.24c-51.52,40.1-39.6-28.81-21.1-35S1338.33,516.26,1319,531.24Z"/><path class="cls-11" d="M1283.61,401.05c-12.53-2.59-20.74,13.25-30.64,18a253.86,253.86,0,0,0,16.23,25.63,8.69,8.69,0,0,1,7.2-3,41.84,41.84,0,0,1,5.84,1.44A13.72,13.72,0,0,0,1297,422.65c-.79-1.3-1.8-2.74-1.37-4.18s2.34-2.23,2.78-3.6a4.12,4.12,0,0,0-.76-3A21.59,21.59,0,0,0,1283.61,401.05Z"/><path class="cls-12" d="M1207.78,418.22c-6.91-1.4-14.65-1.08-20.2-5.43a9.79,9.79,0,0,0-4-2.56,7.42,7.42,0,0,0-5.25,1.94,58,58,0,0,0-17.75,16.49c-4.18,7-4.9,16.67.5,22.76,3,3.35,7.78,5.83,8.1,10.29s-8.86,16,2.27,16.89a17.61,17.61,0,0,0,9.94-3.38c5.4-3.1,12.92-1.37,17.39-5.12,3.81-3.27.18-10,6.33-12.2,4-1.41,12.53,3,13.61-3.6.72-4.75-6-6.45-7.63-10.16a7.47,7.47,0,0,1,2.16-7.95,22.32,22.32,0,0,1,7.63-4.14C1222.33,425,1214.55,419.59,1207.78,418.22Z"/><path class="cls-13" d="M1204.47,520.83c-1.55-1.22-9.72,1.69-13.25-2.12-13.9-15-49.29,36.9-26.25,45.18a14.28,14.28,0,0,1,4.47,1.91c4.79,4-1.19,13.21,3.28,17.57s10.54-1.19,16.2-.94a39.82,39.82,0,0,0,6.44.83,11.74,11.74,0,0,0,7-5c5.76-6.88,12.42-15.63,11.38-25.2-.76-7.2-5.87-14.87-8.14-21.6C1203.75,525.87,1209.08,525.55,1204.47,520.83Z"/><path class="cls-14" d="M1270.57,599.1a59.49,59.49,0,0,1-6.62-9.36c-2.34-3-6.84-5.18-9.94-2.92-1.44,1-2.34,2.92-4.07,3.39a8.13,8.13,0,0,1-4.1-.65,10.41,10.41,0,0,0-12,14.87c4.4,8.5,8.29,33,16.17,31.43,6.08-1.26,11.27,6.59,16.85,5.15,9.25-2.34,15.73-31,9.32-37.7C1274.6,601.62,1272.34,600.65,1270.57,599.1Z"/><path class="cls-15" d="M1347,604.93A64.27,64.27,0,0,0,1335.7,601a21.2,21.2,0,0,0-10.8-.79,7.2,7.2,0,0,0-5.51,8.35c.51,1.58,1.73,2.88,2.27,4.43,2.09,5.94-8.93,16.52.83,19.94,8.28,2.89,23.65,1.34,30.24-5C1364,616.85,1356.55,609.4,1347,604.93Z"/><polygon class="cls-16" points="1392.98 471.83 1405.22 455.99 1421.71 466.47 1409.62 484.07 1392.98 471.83"/><path class="cls-9" d="M1391.76,467.29c-67.51,99.77-107.65,170.8-126,204.79a3.24,3.24,0,0,0,5.36,3.6c21.6-25.56,65.71-81.11,141.71-191.25C1416.89,478.85,1395.61,461.79,1391.76,467.29Z"/><path class="cls-17" d="M1487,386.72s-18.19,7.92-27.62,45S1418,468.73,1418,468.73a36.16,36.16,0,0,1-14.22-13.32c-11.74-44.79,37.23-65.06,48.67-67.61a30.28,30.28,0,0,0,17.32-13.43l-1.11,7.2a14.39,14.39,0,0,1,14.4-1.66l-4.43,4.93A9.29,9.29,0,0,1,1487,386.72Z"/><path class="cls-5" d="M1403.82,455.41A36.09,36.09,0,0,0,1418,468.73s31.9,0,41.33-37,27.62-45,27.62-45a9.25,9.25,0,0,0-8.32-1.87l4.43-4.93a14.38,14.38,0,0,0-14.4,1.65l1.11-7.2a30.29,30.29,0,0,1-17.31,13.43C1441.05,390.36,1392.08,410.63,1403.82,455.41Z"/><g id="freepik--light-bulb--inject-2"><path class="cls-18" d="M742.59,511.36s-22.22,5.15-4.25,29.38c0,0-20.31,3.35-6.12,28.12,0,0-12.28,10.4,3,28.8,0,0-7.2,18,28.55,42.52,0,0-.26,15.3,24.51,21.17,21.61,5.11,27.47-3.92,27.47-3.92s28.45-3.6,44.07-27c0,0,25.2-7.67,17.82-23,0,0,20.31-15.84,9.51-26.1,0,0,23.33-23.51,11.56-31.32C878,536.38,742.59,511.36,742.59,511.36Z"/><path class="cls-17" d="M911.51,235c127,52.78,128.64,175.66,85,237-39.6,55.84-93.17,51.63-97.85,78.34S744.6,538.08,737.65,519s24.05-16.53-33.33-93.14S755.55,170.16,911.51,235Z"/><g class="cls-19"><path class="cls-20" d="M898.73,550.14c-4.68,26.71-154.13-12.24-161.08-31.32s24.05-16.57-33.33-93.14,51.23-255.63,207.19-190.82a215.77,215.77,0,0,1,43.21,23.69c-63.8-14-150.5-16.49-198.31,71.43-52,95.73,28.8,182.79,69.63,189.56,0,0-33.7-24.56-44.93-65.85,0,0,57.6,85.32,147.61,71.07C912.63,532.42,900.82,538.18,898.73,550.14Z"/></g><path class="cls-5" d="M911.51,235c127,52.78,128.64,175.66,85,237-39.6,55.84-93.17,51.63-97.85,78.34S744.6,538.08,737.65,519s24.05-16.53-33.33-93.14S755.55,170.16,911.51,235Z"/><path class="cls-21" d="M877.31,584.2s-59.8,20.12-134.87-9.9"/><path class="cls-21" d="M842.32,566.2a88.47,88.47,0,0,0,10.62-1.41"/><path class="cls-21" d="M747.05,546.54A258.64,258.64,0,0,0,822.66,566"/><path class="cls-21" d="M788,611.56c24.91,3.92,51.34,4.68,75.61-2.81"/><path class="cls-21" d="M745.25,601.12a231.77,231.77,0,0,0,30.06,8.28"/><path class="cls-21" d="M826.15,633.92a223.32,223.32,0,0,1-64.81-17.46"/><path class="cls-21" d="M847.32,634.6c-3.24.18-6.52,0-9.79,0"/><path class="cls-21" d="M769.19,644.11a74.08,74.08,0,0,0,41.12,13.61"/><path class="cls-5" d="M890.74,544.85s-63.87-41.05-138.58-37.09"/><path class="cls-5" d="M846,533.22S882.64,453.4,933.76,448c0,0-31-24.88-43-28.63S871,442,879.43,439.14s20.45-39.32,6.09-48.86-42.09,37.92-33.92,41.8S870,386,850,380.38s-34.85,37.41-25.46,38.27,12.64-18-8.75-25c-23.15-7.74-52.16,3.6-52.16,3.6s44.82,53.72,30,122.12"/></g><path class="cls-22" d="M980.82,1500.48c18.4-22.79,29.38-88.21,29.38-88.21a184.75,184.75,0,0,1,40.54,41.4,321.37,321.37,0,0,0,60.16-15,245,245,0,0,0,56.85-28.19c-39.14-57.61-105.38-155.75-146.18-186.61C1005.81,1212,957,1200.32,957,1200.32c-11.05-10-35.18,0-35.18,0-130.51,33.19-249.86-9.8-249.86-9.8s-16.92-7.81-30.78,0a185,185,0,0,0-40.61,0c-29.88,4.11-62.54,38.24-76,53.76L409.85,1377.09s-3.86,52.28,4.24,59.19c64.81,55.55,160.36-70.67,160.36-70.67.61.25,2.09,109.92,53.25,167.27,0,0,36.26,16.56,177.24,3.6C944.85,1523.63,980.82,1500.48,980.82,1500.48Z"/><path class="cls-23" d="M491.79,1337.85c-21.6,1.91-32.94-3.28-37.26-12.49h0c31.25-36,67.72-78.42,70-81l3.6-4.1C544.32,1276.46,557.78,1332.09,491.79,1337.85Z"/><path class="cls-23" d="M587.81,1452.23a440.3,440.3,0,0,1-13.36-86.77s15.7-20.55,20.06-42.16C594.51,1323.45,614.88,1404.71,587.81,1452.23Z"/><path class="cls-23" d="M1038.82,1438.66a171.74,171.74,0,0,0-28.62-26.39s1.55-51.59,16-67.22C1037.74,1332.49,1050.09,1397.87,1038.82,1438.66Z"/><path class="cls-5" d="M980.82,1500.48c18.4-22.79,29.38-88.21,29.38-88.21a184.75,184.75,0,0,1,40.54,41.4"/><path class="cls-5" d="M1167.75,1410.47c-39.14-57.61-105.38-155.75-146.18-186.61C1005.81,1212,957,1200.32,957,1200.32c-11.05-10-35.18,0-35.18,0-130.51,33.19-249.86-9.8-249.86-9.8s-16.92-7.81-30.78,0a185,185,0,0,0-40.61,0c-29.88,4.11-62.54,38.24-76,53.76L409.85,1377.09s-3.86,52.28,4.24,59.19c64.81,55.55,160.36-70.67,160.36-70.67.61.25,2.09,109.92,53.25,167.27"/><path class="cls-9" d="M926.53,1168.63l-1.73.73A6.12,6.12,0,0,0,926.53,1168.63Z"/><path class="cls-9" d="M965.37,1071.5c13.68,2,17-8,17-8s-17,8-32.11-22.86c-8.57-17.61-4.32-49.94.9-74.49,10.55-17.39,25.85-41.44,27.86-70,3.61-49-19.4-73.77-45.94-66.49,0,0-1.94-41.37-39.27-56.21s-43.21-2.66-79.21-11.66-71.22-1.15-84.1,22.14-17.29,65.6-39.28,82-60.49,55.81-48.32,99.91,5.26,59.19-10.8,80-6.27,61.89,24.37,74.78c0,0-13-7-3.81-18.57,0,0,7.2,27.65,31.21,22.61s54.51-6.74,70.06,10.29,72.41,21.6,85.22,8.64,22.76-.93,46,10.8,49,1.44,49,1.44-2.16,10.05-7.71,13c4.72-2,17.79-8.21,21.61-17.57s6-18.4,1.4-40.25c16.09-6.3,8.68-17,8.68-17,15.19,8.53,22.39-16.67,22.39-16.67C966.38,1077.22,965.37,1071.5,965.37,1071.5Z"/><path class="cls-24" d="M934.84,1213.82s-101.63,45.22-134.29,47-143.72-57.24-143.72-57.24l84.68-23.11c11.52-22,11.81-47.82,9-78.1-.86-9.39-2-18.25-3.2-26.21-2.88-19.19-6.09-32.58-6.09-32.58l119.68,5a210.57,210.57,0,0,0-6.16,23.19,286.22,286.22,0,0,0-5.65,49.36c-1.37,41.4,5,64.8,5,64.8Z"/><path class="cls-25" d="M687.43,1210.18s64.09,11.24,80,9.4,28.41,13.82,28.41,13.82"/><path class="cls-26" d="M912.63,1214.25s-65.31,7.2-81.12,7.56S811,1233.4,811,1233.4"/><path class="cls-9" d="M854.77,1062.79a286.22,286.22,0,0,0-5.65,49.36A103.92,103.92,0,0,1,815.6,1132c-20.12,6.66-46.8-18-65.06-38.53-.86-9.39-2-18.25-3.2-26.21Z"/><path class="cls-27" d="M713.46,933.89s-9.86-15.15-18.65-12.09-8.78,44-8.1,54.83,22.18,34.53,31.18,28"/><path class="cls-28" d="M930.13,965.83s13.79-11.67,21.35-6.19-4.32,44.78-8.07,54.83-31.21,26.68-37.95,17.82"/><path class="cls-29" d="M796.27,1123.06c-36.26-5.37-72.26-66.86-76.62-84.18-4.82-19.26-15.44-114.27,5.26-166.33,23.29-58.51,72-83.21,119.49-76.22s87,44.68,92.46,107.43c4.82,55.8-32.76,143.72-43,160.79C884.76,1079.89,834.54,1128.67,796.27,1123.06Z"/><path class="cls-9" d="M878.46,970.62c-1,6.73-4.79,11.73-8.49,11.16s-5.87-6.41-4.9-13.14,4.79-11.7,8.5-11.16S879.47,963.89,878.46,970.62Z"/><path class="cls-9" d="M760.08,953.19c-1,6.7,1.23,12.6,4.94,13.14s7.49-4.46,8.46-11.19-1.19-12.6-4.9-13.14S761.09,946.46,760.08,953.19Z"/><path class="cls-30" d="M841.16,1044.1s-18.79,36.87-42.77,30.82-23.8-39.6-23.8-40.58l3.39,1.3a143.24,143.24,0,0,0,29.3,7.56,160.57,160.57,0,0,0,29.24,1.15C839.43,1044.24,841.16,1044.1,841.16,1044.1Z"/><path class="cls-31" d="M809.88,967.38c.93,23.15-18.94,27.07-15.12,35.1a22,22,0,0,0,12.74,10.59"/><path class="cls-5" d="M774.59,1034.24s-.21,34.59,23.8,40.64S841.16,1044,841.16,1044"/><path class="cls-5" d="M738.66,922.63s21.6-27.29,55.12-18.65"/><path class="cls-5" d="M904.6,947.11s-12.85-32.4-47.38-33.74"/><polygon class="cls-32" points="1005.88 925.33 999.18 932.74 994 938.47 933.98 973.32 936.43 956.5 985.57 927.95 996.19 926.59 1005.88 925.33"/><path class="cls-33" d="M991.33,939.94c-8.89-1.69-5.9-12-5.9-12l20.3-2.59Z"/><path class="cls-9" d="M1005.73,925.33,999,932.71a4.47,4.47,0,0,1-3.23-5.43,4,4,0,0,1,.24-.69Z"/><path class="cls-9" d="M880,846.41s-22.79,29.88-72.25,38.52c-62,10.8-96.17,64.37-95.3,86.73a190.54,190.54,0,0,1-10.62-98.61c12.31-82.23,89-105.74,144.8-100s82.81,61.64,82.81,61.64,41.87,32.62,36,73.73C959.58,947.76,950,948.87,945,957.76c-7,12.32,2.2,17.47-22.29,37.74,0,0,9.69-54.94-2.34-95.92S880,846.41,880,846.41Z"/><path class="cls-9" d="M895.31,832.62s-21.85,83.45-146.06,96.49c0,0,83.67-15.13,122.41-91.56Z"/><path class="cls-34" d="M801.06,1056.81s17.06-6.09,23.65,0c0,0-11.23,18-25.67,13.61s-17.5-21.6-17.5-21.6S789.35,1045,801.06,1056.81Z"/><path class="cls-17" d="M838.89,1044.39,834,1049.9a100.8,100.8,0,0,1-56-9l-1.69-6a157.42,157.42,0,0,0,31,8.24A190.81,190.81,0,0,0,838.89,1044.39Z"/><path class="cls-5" d="M769.23,1032.08s39,18.18,76.76,11.3"/><path class="cls-35" d="M892,811.88s-26.46,34.67-90.94,40-83.17,32-83.17,32"/><path class="cls-35" d="M746.8,814.62c-6,1.15-14.4,3.27-17.07,9.36"/><path class="cls-35" d="M900,785c-38.89,29-89.11,32.4-140.13,28.3"/><path class="cls-35" d="M653.62,1050.72a40.36,40.36,0,0,0-11.3,29"/><path class="cls-35" d="M700.1,888.67c-18,10.27-32.58,29.13-33.55,50.41-1.62,36,24.12,68.41-2.59,99.76"/><path class="cls-35" d="M692.51,1005.76s19.94,21.09,7,42.55-19.66,43.21,6.91,59"/><path class="cls-35" d="M838.14,895.05a127.42,127.42,0,0,1-13.18,7.2"/><path class="cls-35" d="M884.73,841.91a114.24,114.24,0,0,1-35.32,45.18"/><path class="cls-35" d="M900,844.9s27,14.65,37.33,39-4.25,58.51,2.52,70.31"/><path class="cls-35" d="M941.9,1081.94a39.48,39.48,0,0,0,12.06,5"/><path class="cls-35" d="M920.55,1048.31a56.65,56.65,0,0,0,10.8,24.12"/><path class="cls-35" d="M909.89,1067.65s-2.52,27.43,15,45.58,12.39,29.45,12.39,29.45"/><path class="cls-35" d="M880.91,1099s10.44,27.8-6.12,37"/><path class="cls-35" d="M920.55,837.26s39.39,8,45.15,25.2,0,37.09,0,37.09"/><path class="cls-36" d="M414.09,1436.28c-33.41-18.54-26.93-85.22-4.82-168.49,10.8-40.9,48.32-144,47.56-147.62a98.5,98.5,0,0,0-8.28-19.94s10.8-11,15.34-13c19.47-8.31,57.93-18.79,75.6-11.48,5.51,2.27,13.5,15.12,12.39,20.37s-16.89,22.54-15.38,39.1-12.85,71.22-12.45,93c0,4.46.25,10.08.5,16.2,0,3.89,0,72-26.21,106.79"/><path class="cls-37" d="M522.72,922c.72,6.62,15,54,19.44,102.14a96.83,96.83,0,0,0,25.2-13.68c9-7.85,27.72-1.59,27,3.6s-18,4.32-32.59,23.9-17.57,41.3-36.94,51.74-49.46,14.15-61.2.21-24.77-87.84-20.2-95.55A57.29,57.29,0,0,1,457.8,980s4.93-14.4,12.42-15.52S495.43,963,495.43,963a20.65,20.65,0,0,1,14.4-4S504,903.59,499,885,516.85,866.47,522.72,922Z"/><path class="cls-5" d="M510.08,956c15.3,6.91,22.07,36,22.07,38.09a268,268,0,0,1-11,30.38c-3.81,8.29-12.06,0-12.06,0s-2.52,10.81-8.32,6.09c-7.38-6.09-7.38-25.78-7.38-25.78s-.9,16.38-5.18,24.37-12.93,2.67-11.67-21c0,0-17.64-4.33-18.25-8.65"/><path class="cls-5" d="M493.37,1004.82c-4.32-11.09-20.91-21.28-20.91-21.28"/><path class="cls-5" d="M509.07,1024.51s8.68-25.2,6.34-30.38-17.1-19.48-17.1-19.48"/><path class="cls-5" d="M542.16,1021.27s-16.28,3.6-23.51,24.34"/><path class="cls-5" d="M456.83,1120s26.28,21.6,54.54,3.6"/><path class="cls-5" d="M478.94,1184.15a67.54,67.54,0,0,1-16.13,6.81"/><path class="cls-5" d="M542.16,1113.23a211.4,211.4,0,0,1-50.41,62.1"/><path class="cls-5" d="M641.13,1190.52s51.3,48.18,81.33,61.21"/><path class="cls-5" d="M590,1242.66a83.78,83.78,0,0,1,4.54,19.84"/><path class="cls-5" d="M572.15,1201.83c4.61,8.68,8.78,17.64,12.56,26.75"/><path class="cls-5" d="M781.54,1267.79s84,1.15,137.86-35.65"/><path class="cls-5" d="M957,1200.32a108.49,108.49,0,0,0-19.66,17.14"/><path class="cls-5" d="M999.11,1261.85a134.31,134.31,0,0,1-29.2,22.89"/><path class="cls-5" d="M1017.4,1239.45a135.18,135.18,0,0,1-8.86,11.88"/><path class="cls-5" d="M574.45,1365.46s20.49-26.53,20.06-58.36"/><path class="cls-5" d="M1010.2,1412.27s-4.39-53.39,33-92.42"/><path class="cls-5" d="M1050.74,1349.26c1.8,1.8-32,31.25-40,44.43"/><path class="cls-5" d="M681.71,1481.29s122.87,48.82,186.53,47.81"/><rect class="cls-38" x="796.3" y="1363.38" width="23.15" height="30.82" rx="4.28"/><path class="cls-9" d="M815.17,1396.5h-14.4a6.6,6.6,0,0,1-6.56-6.59v-22.25a6.6,6.6,0,0,1,6.56-6.59h14.4a6.55,6.55,0,0,1,6.55,6.55v22.29a6.56,6.56,0,0,1-6.52,6.59Zm-14.4-30.86a2,2,0,0,0-2,2v22.25a2,2,0,0,0,2,2h14.4a1.94,1.94,0,0,0,2-1.91v-22.32a2,2,0,0,0-1.94-2H800.77Z"/><path class="cls-5" d="M854.16,1177.1S919.4,1190.52,807.9,1360c0,0-129.9-164.54-66.39-188.44"/><path class="cls-9" d="M810.2,1358.26c0,2.49-1.12,4.5-2.48,4.5s-2.49-2-2.49-4.5,1.12-4.5,2.49-4.5S810.2,1355.78,810.2,1358.26Z"/><path class="cls-39" d="M1427.41,399.72a.4.4,0,0,0-.11.2c-.34,1.31-3.42,13.64,3.21,11.74,7-2,14-4,12,4s8,2,9-1,3,5,3,7,7,3,9-3,12.57-26.16,22.4-31.68a.4.4,0,0,0,0-.7,11.11,11.11,0,0,0-6.23-1.8.42.42,0,0,1-.31-.71l3.59-3.58a.41.41,0,0,0-.2-.69c-2.19-.46-8.84-1.53-13.27,1.36a.4.4,0,0,1-.62-.4l.44-3.43a.41.41,0,0,0-.72-.32c-1.53,1.76-4.63,5.22-6.11,6-2,1-6.69,4.16-9.84,5.08s-6.84,2.23-7,2.3h0C1445.29,390.2,1430.39,396.85,1427.41,399.72Z"/></g></g></svg>