<svg xmlns="http://www.w3.org/2000/svg" xmlns:xlink="http://www.w3.org/1999/xlink" viewBox="0 0 1530.99 1399"><defs><style>.cls-1,.cls-3{isolation:isolate;}.cls-2{fill:#407bff;}.cls-13,.cls-3,.cls-44{fill:#fff;}.cls-3{opacity:0.7;}.cls-4,.cls-46,.cls-65,.cls-7,.cls-8{fill:none;}.cls-4,.cls-44,.cls-7,.cls-9{stroke:#263238;}.cls-4,.cls-44,.cls-46,.cls-65,.cls-7,.cls-8,.cls-9{stroke-linecap:round;stroke-linejoin:round;}.cls-5{fill:url(#Áåçûìÿííûé_ãðàäèåíò_97);}.cls-6{fill:url(#Áåçûìÿííûé_ãðàäèåíò_97-2);}.cls-7,.cls-8{stroke-width:2px;}.cls-8{stroke:#407bff;}.cls-11,.cls-9{fill:#263238;}.cls-10{fill:url(#linear-gradient);}.cls-12{fill:url(#linear-gradient-2);}.cls-14{fill:#bfbfbf;}.cls-15{fill:url(#linear-gradient-3);}.cls-16{fill:url(#Áåçûìÿííûé_ãðàäèåíò_97-3);}.cls-17{fill:url(#Áåçûìÿííûé_ãðàäèåíò_97-4);}.cls-18{fill:url(#Áåçûìÿííûé_ãðàäèåíò_97-5);}.cls-19{fill:url(#Áåçûìÿííûé_ãðàäèåíò_97-6);}.cls-20{fill:url(#Áåçûìÿííûé_ãðàäèåíò_97-7);}.cls-21{fill:url(#Áåçûìÿííûé_ãðàäèåíò_97-8);}.cls-22{fill:url(#Áåçûìÿííûé_ãðàäèåíò_97-9);}.cls-23{fill:url(#Áåçûìÿííûé_ãðàäèåíò_97-10);}.cls-24{fill:url(#Áåçûìÿííûé_ãðàäèåíò_97-11);}.cls-25{fill:url(#Áåçûìÿííûé_ãðàäèåíò_97-12);}.cls-26{fill:url(#Áåçûìÿííûé_ãðàäèåíò_97-13);}.cls-27{fill:url(#Áåçûìÿííûé_ãðàäèåíò_97-14);}.cls-28{fill:url(#Áåçûìÿííûé_ãðàäèåíò_97-15);}.cls-29{fill:url(#Áåçûìÿííûé_ãðàäèåíò_97-16);}.cls-30{fill:url(#Áåçûìÿííûé_ãðàäèåíò_97-17);}.cls-31{fill:url(#Áåçûìÿííûé_ãðàäèåíò_97-18);}.cls-32{fill:url(#Áåçûìÿííûé_ãðàäèåíò_97-19);}.cls-33{fill:url(#Áåçûìÿííûé_ãðàäèåíò_97-20);}.cls-34{fill:url(#Áåçûìÿííûé_ãðàäèåíò_97-21);}.cls-35{fill:url(#Áåçûìÿííûé_ãðàäèåíò_97-22);}.cls-36{fill:url(#Áåçûìÿííûé_ãðàäèåíò_97-23);}.cls-37{fill:url(#Áåçûìÿííûé_ãðàäèåíò_97-24);}.cls-38{fill:url(#Áåçûìÿííûé_ãðàäèåíò_97-25);}.cls-39{fill:url(#linear-gradient-4);}.cls-40{fill:url(#linear-gradient-5);}.cls-41{fill:url(#linear-gradient-6);}.cls-42{fill:url(#linear-gradient-7);}.cls-43{fill:url(#linear-gradient-8);}.cls-45{fill:url(#linear-gradient-9);}.cls-46{stroke:#707070;}.cls-47{fill:url(#linear-gradient-10);}.cls-48{fill:url(#linear-gradient-11);}.cls-49,.cls-50,.cls-51,.cls-52,.cls-53,.cls-59,.cls-60{fill-rule:evenodd;}.cls-49{fill:url(#Áåçûìÿííûé_ãðàäèåíò_206);}.cls-50{fill:url(#Áåçûìÿííûé_ãðàäèåíò_206-2);}.cls-51{fill:url(#Áåçûìÿííûé_ãðàäèåíò_107);}.cls-52{fill:#601734;opacity:0.5;mix-blend-mode:multiply;}.cls-53{fill:#b3d9ff;mix-blend-mode:soft-light;}.cls-54{fill:#ff1d9c;}.cls-55{fill:#744ca2;}.cls-56{fill:url(#Áåçûìÿííûé_ãðàäèåíò_302);}.cls-57{fill:url(#Áåçûìÿííûé_ãðàäèåíò_302-2);}.cls-58{fill:url(#Áåçûìÿííûé_ãðàäèåíò_302-3);}.cls-59{fill:url(#Áåçûìÿííûé_ãðàäèåíò_107-2);}.cls-60{fill:url(#Áåçûìÿííûé_ãðàäèåíò_206-3);}.cls-61{opacity:0.73;fill:url(#Áåçûìÿííûé_ãðàäèåíò_97-26);}.cls-62{fill:#953da2;}.cls-63{fill:#333;}.cls-64{fill:#29abe2;}.cls-65{stroke:#333;stroke-width:8px;stroke-dasharray:0 8 8 20 0 0;}</style><linearGradient id="Áåçûìÿííûé_ãðàäèåíò_97" x1="155.24" y1="1314.72" x2="292.51" y2="1314.72" gradientUnits="userSpaceOnUse"><stop offset="0" stop-color="#d906e3"/><stop offset="1" stop-color="#ff6df9"/></linearGradient><linearGradient id="Áåçûìÿííûé_ãðàäèåíò_97-2" x1="199.29" y1="1394.69" x2="249.23" y2="1394.69" xlink:href="#Áåçûìÿííûé_ãðàäèåíò_97"/><linearGradient id="linear-gradient" x1="1108.31" y1="893.13" x2="1254.26" y2="893.13" gradientUnits="userSpaceOnUse"><stop offset="0" stop-color="#0071bc"/><stop offset="1" stop-color="#29abe2"/></linearGradient><linearGradient id="linear-gradient-2" x1="955.63" y1="840.65" x2="1406.94" y2="840.65" xlink:href="#linear-gradient"/><linearGradient id="linear-gradient-3" x1="1010.8" y1="932.21" x2="1349.73" y2="932.21" xlink:href="#linear-gradient"/><linearGradient id="Áåçûìÿííûé_ãðàäèåíò_97-3" x1="686.38" y1="1187.18" x2="713.98" y2="1187.18" xlink:href="#Áåçûìÿííûé_ãðàäèåíò_97"/><linearGradient id="Áåçûìÿííûé_ãðàäèåíò_97-4" x1="700.99" y1="1187.18" x2="713.98" y2="1187.18" xlink:href="#Áåçûìÿííûé_ãðàäèåíò_97"/><linearGradient id="Áåçûìÿííûé_ãðàäèåíò_97-5" x1="882.89" y1="1187.18" x2="910.49" y2="1187.18" xlink:href="#Áåçûìÿííûé_ãðàäèåíò_97"/><linearGradient id="Áåçûìÿííûé_ãðàäèåíò_97-6" x1="897.5" y1="1187.18" x2="910.49" y2="1187.18" xlink:href="#Áåçûìÿííûé_ãðàäèåíò_97"/><linearGradient id="Áåçûìÿííûé_ãðàäèåíò_97-7" x1="812.54" y1="1187.18" x2="840.1" y2="1187.18" xlink:href="#Áåçûìÿííûé_ãðàäèåíò_97"/><linearGradient id="Áåçûìÿííûé_ãðàäèåíò_97-8" x1="827.15" y1="1187.18" x2="840.1" y2="1187.18" xlink:href="#Áåçûìÿííûé_ãðàäèåíò_97"/><linearGradient id="Áåçûìÿííûé_ãðàäèåíò_97-9" x1="945.32" y1="1187.18" x2="972.88" y2="1187.18" xlink:href="#Áåçûìÿííûé_ãðàäèåíò_97"/><linearGradient id="Áåçûìÿííûé_ãðàäèåíò_97-10" x1="959.9" y1="1187.18" x2="972.88" y2="1187.18" xlink:href="#Áåçûìÿííûé_ãðàäèåíò_97"/><linearGradient id="Áåçûìÿííûé_ãðàäèåíò_97-11" x1="759.95" y1="1114.58" x2="976.35" y2="1114.58" xlink:href="#Áåçûìÿííûé_ãðàäèåíò_97"/><linearGradient id="Áåçûìÿííûé_ãðàäèåíò_97-12" x1="700.19" y1="1114.58" x2="916.6" y2="1114.58" xlink:href="#Áåçûìÿííûé_ãðàäèåíò_97"/><linearGradient id="Áåçûìÿííûé_ãðàäèåíò_97-13" x1="1332.99" y1="1187.18" x2="1360.59" y2="1187.18" xlink:href="#Áåçûìÿííûé_ãðàäèåíò_97"/><linearGradient id="Áåçûìÿííûé_ãðàäèåíò_97-14" x1="1347.6" y1="1187.18" x2="1360.59" y2="1187.18" xlink:href="#Áåçûìÿííûé_ãðàäèåíò_97"/><linearGradient id="Áåçûìÿííûé_ãðàäèåíò_97-15" x1="1459.15" y1="1187.18" x2="1486.72" y2="1187.18" xlink:href="#Áåçûìÿííûé_ãðàäèåíò_97"/><linearGradient id="Áåçûìÿííûé_ãðàäèåíò_97-16" x1="1473.76" y1="1187.18" x2="1486.72" y2="1187.18" xlink:href="#Áåçûìÿííûé_ãðàäèåíò_97"/><linearGradient id="Áåçûìÿííûé_ãðàäèåíò_97-17" x1="668.2" y1="974.63" x2="1495.44" y2="974.63" xlink:href="#Áåçûìÿííûé_ãðàäèåíò_97"/><linearGradient id="Áåçûìÿííûé_ãðàäèåíò_97-18" x1="668.2" y1="967.35" x2="1495.44" y2="967.35" xlink:href="#Áåçûìÿííûé_ãðàäèåíò_97"/><linearGradient id="Áåçûìÿííûé_ãðàäèåíò_97-19" x1="1373.32" y1="974.63" x2="1495.44" y2="974.63" xlink:href="#Áåçûìÿííûé_ãðàäèåíò_97"/><linearGradient id="Áåçûìÿííûé_ãðàäèåíò_97-20" x1="645.76" y1="951.29" x2="1522.18" y2="951.29" xlink:href="#Áåçûìÿííûé_ãðàäèåíò_97"/><linearGradient id="Áåçûìÿííûé_ãðàäèåíò_97-21" x1="1400.06" y1="951.29" x2="1522.18" y2="951.29" xlink:href="#Áåçûìÿííûé_ãðàäèåíò_97"/><linearGradient id="Áåçûìÿííûé_ãðàäèåíò_97-22" x1="713.95" y1="1054" x2="903.36" y2="1054" xlink:href="#Áåçûìÿííûé_ãðàäèåíò_97"/><linearGradient id="Áåçûìÿííûé_ãðàäèåíò_97-23" x1="787.96" y1="1051.62" x2="829.34" y2="1051.62" xlink:href="#Áåçûìÿííûé_ãðàäèåíò_97"/><linearGradient id="Áåçûìÿííûé_ãðàäèåíò_97-24" x1="713.95" y1="1170.2" x2="903.36" y2="1170.2" xlink:href="#Áåçûìÿííûé_ãðàäèåíò_97"/><linearGradient id="Áåçûìÿííûé_ãðàäèåíò_97-25" x1="787.96" y1="1167.81" x2="829.34" y2="1167.81" xlink:href="#Áåçûìÿííûé_ãðàäèåíò_97"/><linearGradient id="linear-gradient-4" x1="865.2" y1="1333.02" x2="790.68" y2="1384.86" gradientUnits="userSpaceOnUse"><stop offset="0.01" stop-color="#005f9e"/><stop offset="0.41" stop-color="#03619c"/><stop offset="0.75" stop-color="#0d6698"/><stop offset="1" stop-color="#1b6e91"/></linearGradient><linearGradient id="linear-gradient-5" x1="814" y1="1079.22" x2="896.99" y2="1079.22" xlink:href="#linear-gradient"/><linearGradient id="linear-gradient-6" x1="834.91" y1="1343.63" x2="714.91" y2="1363.79" gradientUnits="userSpaceOnUse"><stop offset="0.01" stop-color="#0071bc"/><stop offset="0.2" stop-color="#0d84c8"/><stop offset="0.48" stop-color="#1d9ad7"/><stop offset="0.75" stop-color="#26a7df"/><stop offset="1" stop-color="#29abe2"/></linearGradient><linearGradient id="linear-gradient-7" x1="719.3" y1="1081.35" x2="866.75" y2="1081.35" xlink:href="#linear-gradient"/><linearGradient id="linear-gradient-8" x1="617.46" y1="307.88" x2="676.6" y2="307.88" gradientUnits="userSpaceOnUse"><stop offset="0.02" stop-color="#ffc2a9"/><stop offset="1" stop-color="#ffbdbd"/></linearGradient><linearGradient id="linear-gradient-9" x1="533.83" y1="671.23" x2="642.96" y2="671.23" xlink:href="#linear-gradient-8"/><linearGradient id="linear-gradient-10" x1="692.99" y1="364.66" x2="846.38" y2="364.66" xlink:href="#linear-gradient-8"/><linearGradient id="linear-gradient-11" x1="740.71" y1="449.43" x2="911.52" y2="449.43" xlink:href="#linear-gradient"/><linearGradient id="Áåçûìÿííûé_ãðàäèåíò_206" x1="-294.16" y1="-1175.99" x2="-306" y2="-1277.68" gradientTransform="matrix(0.97, 0.26, -0.26, 0.97, 1036.31, 1651.51)" gradientUnits="userSpaceOnUse"><stop offset="0" stop-color="#1852a0"/><stop offset="1" stop-color="#067ed3"/></linearGradient><linearGradient id="Áåçûìÿííûé_ãðàäèåíò_206-2" x1="-305.64" y1="-1175.61" x2="-305.64" y2="-1279.8" xlink:href="#Áåçûìÿííûé_ãðàäèåíò_206"/><linearGradient id="Áåçûìÿííûé_ãðàäèåíò_107" x1="-807.07" y1="782.18" x2="-814.74" y2="716.41" gradientTransform="matrix(0.94, 0.33, -0.52, 1.49, 2202.73, -462.08)" gradientUnits="userSpaceOnUse"><stop offset="0" stop-color="#188dc1"/><stop offset="1" stop-color="#06bfe7"/></linearGradient><linearGradient id="Áåçûìÿííûé_ãðàäèåíò_302" x1="363.22" y1="1210.43" x2="363.22" y2="1188" gradientUnits="userSpaceOnUse"><stop offset="0" stop-color="#459fff"/><stop offset="1" stop-color="#a96dff"/></linearGradient><linearGradient id="Áåçûìÿííûé_ãðàäèåíò_302-2" x1="11.22" y1="993.43" x2="11.22" y2="971" xlink:href="#Áåçûìÿííûé_ãðàäèåíò_302"/><linearGradient id="Áåçûìÿííûé_ãðàäèåíò_302-3" x1="1380.22" y1="435.43" x2="1380.22" y2="413" xlink:href="#Áåçûìÿííûé_ãðàäèåíò_302"/><linearGradient id="Áåçûìÿííûé_ãðàäèåíò_107-2" x1="-13075.55" y1="295.57" x2="-13043.06" y2="174.93" gradientTransform="matrix(-1, 0, 0, 1, -11719.16, 0)" xlink:href="#Áåçûìÿííûé_ãðàäèåíò_107"/><linearGradient id="Áåçûìÿííûé_ãðàäèåíò_206-3" x1="-13131.38" y1="281.65" x2="-13107.16" y2="191.69" gradientTransform="matrix(-1, 0, 0, 1, -11719.16, 0)" xlink:href="#Áåçûìÿííûé_ãðàäèåíò_206"/><linearGradient id="Áåçûìÿííûé_ãðàäèåíò_97-26" x1="438.68" y1="921.06" x2="438.68" y2="844.41" xlink:href="#Áåçûìÿííûé_ãðàäèåíò_97"/></defs><g class="cls-1"><g id="Layer_2" data-name="Layer 2"><g id="Layer_1-2" data-name="Layer 1"><path class="cls-2" d="M1037.06,28.16S790.67-59.45,548.82,80,184.87,496.4,80.07,718.19,35.5,1165.61,220.14,1268.47s310.16-48.77,569.16-56.16,328.75,29.64,543.82-116.67,253.74-491.86,84.23-747.52S1037.06,28.16,1037.06,28.16Z"/><path class="cls-3" d="M1037.06,27.16S790.67-60.45,548.82,79,184.87,495.4,80.07,717.19,35.5,1164.61,220.14,1267.47s310.16-48.77,569.16-56.16,328.75,29.64,543.82-116.67,253.74-491.86,84.23-747.52S1037.06,27.16,1037.06,27.16Z"/><path class="cls-2" d="M104.1,819.93s5.92,11.24.67,21.77-11.87,21.11-7.92,26.39,15.91,11.88,14.51,23.08-17.16,33.65-7.26,46.19,26.39,11.88,27.06,25.73-15.91,25-11.24,37.59,31.84,15.19,31.84,23.75-10.57,17.83-2,27.06,50.05,33.33,55.84,23.43,17.89-37.28,10-76.15c-1.34-6.52-10.63-8-11.94-17.22s2.64-25.72-4-35-27.72-12.54-29-19.8,7.9-25.05-1.34-36.26-31-16.42-31-23.74,6.62-16.49-2.61-26.4S104.1,819.93,104.1,819.93Z"/><path class="cls-4" d="M135.68,897.67c13.75,41.38,37.82,97.63,47.59,124.79,11.88,33,22.29,56.85,27.48,89.83s8.18,253.88,8.18,253.88"/><path class="cls-4" d="M107.51,823.91s11.2,9.23,21.11,49.47c.63,2.58,1.36,5.31,2.16,8.21"/><path class="cls-2" d="M310.29,895.09a20.85,20.85,0,0,0-.51,17.44c4.2,8.44,9.55,16.88,6.37,21.11s-12.73,9.55-11.62,18.46,13.72,26.94,5.79,37-21.1,9.55-21.64,20.6,12.73,20.05,9,30.08-25.46,12.16-25.46,19.1,8.46,14.26,1.59,21.65-40,26.58-44.73,18.62-14.29-29.83-8-60.93c1.05-5.22,8.5-6.36,9.55-13.78s-2.1-20.6,3.18-28,22.29-10,23.21-15.92-6.37-20.06,1-29,24.83-13.21,24.83-19.1-5.28-13.21,2.1-21.14S310.29,895.09,310.29,895.09Z"/><path class="cls-4" d="M285,957.29c-11,33.21-30.25,78.16-38.21,99.87-9.55,26.42-17.76,45.52-22,71.91s-6.53,203.16-6.53,203.16"/><path class="cls-4" d="M307.65,898.27s-9,7.39-16.87,39.6c-.51,2.07-1.12,4.27-1.75,6.56"/><path class="cls-2" d="M128.77,1044.58a17.41,17.41,0,0,1,.45,14.55c-3.53,7.07-8,14.1-5.32,17.64s10.6,8,9.71,15.44-11.46,22.5-4.84,30.87,17.64,7.93,18.09,17.19-10.7,16.78-7.52,25.15,21.17,10.16,21.17,15.92-7,11.91-1.3,18.08,33.46,22.29,37.43,15.66,12-24.92,6.69-50.93c-.86-4.36-7.07-5.35-8-11.52s1.75-17.19-2.64-23.37-18.53-8.37-19.42-13.24,5.28-16.75-.89-24.26-20.73-11-20.73-15.92,4.43-11-1.75-17.67S128.77,1044.58,128.77,1044.58Z"/><path class="cls-4" d="M149.88,1096.57c9.2,27.72,25.28,65.26,31.83,83.4,8,22.06,14.87,38.2,18.37,60.07S205.56,1344,205.56,1344"/><path class="cls-4" d="M131,1047.22s7.51,6.18,14.1,33.08c.45,1.75.93,3.56,1.47,5.47"/><path class="cls-2" d="M355.81,1033.6a17.37,17.37,0,0,0-3.75,14.07c1.81,7.67,4.52,15.53,1.11,18.37s-12.09,5.31-12.95,12.73,6,24.51-2.36,31.17-19.1,3.66-21.55,12.73,6.37,18.72,1.56,26.17-22.92,5-24.26,10.63,4.17,13.18-2.83,17.89-37.57,14.07-40,6.65-5.92-27,5.13-51.09c1.88-4,8.15-3.56,10.41-9.39s2.23-17.13,7.92-22.13,20-3.94,21.94-8.46-1.34-17.51,6.36-23.4,22.7-6,23.82-10.73-1.79-11.71,5.76-16.74S355.81,1033.6,355.81,1033.6Z"/><path class="cls-4" d="M323.5,1079.34c-15.28,24.9-39.53,57.78-50,74-12.73,19.65-28.11,32.22-31.64,54.28s-5.45,103.91-5.45,103.91"/><path class="cls-4" d="M353.2,1035.67s-8.72,4.3-21.29,29c-.83,1.59-1.72,3.18-2.71,5"/><path class="cls-5" d="M199.29,1391h49.05c25.82-13.31,44.16-47,44.16-86.49a110.05,110.05,0,0,0-20.63-66.12H175.76a110,110,0,0,0-20.5,66.12C155.26,1344,173.47,1377.72,199.29,1391Z"/><rect class="cls-6" x="199.29" y="1391.03" width="49.95" height="7.32"/><g id="freepik--Board--inject-2"><rect class="cls-4" x="148.07" y="156.83" width="781.97" height="591.86"/><rect class="cls-4" x="166.31" y="172.52" width="745.46" height="560.5"/><path class="cls-7" d="M393.54,254.78s-121.8-8.82-132,10.28-3,368.32,2.93,372.72,170.22,7.32,186.35,1.46S445,278.24,445,268s-38.2-14.68-38.2-14.68"/><path class="cls-7" d="M274.06,543.83c.26,46,1.25,79.78,3.57,80.7,7.32,2.93,162.86,16.14,167.26,1.47s-11.75-346.29-11.75-346.29"/><path class="cls-7" d="M427.28,278.24s-148.19-5.85-149.62,1.47c-1,4.68-3.66,142.17-3.63,242.13"/><line class="cls-7" x1="282.02" y1="304.66" x2="425.82" y2="304.66"/><path class="cls-8" d="M412.61,298c-8.79,9.3,0,0,5.89-13.27s-5.89,2.64-19.11,13.27-5.85,2.68-1.46-11.94-4.39,0-16.14,9.3-5.86,5.32-1.46-10.63,0,0-17.61,10.63-8.82,10.6,0-5.32-5.86,0-22,5.32,0,0,5.86-14.61-10.28,4-22,11.94,0,0,2.92-9.3-7.35,2.67-19.1,14.61,0,0,1.47-10.63-13.21,17.28-13.21,17.28,4.39-26.58,1.46-19.92a57.17,57.17,0,0,1-7.35,11.93"/><rect class="cls-8" x="289.34" y="329.59" width="71.91" height="74.84"/><polyline class="cls-8" points="304.02 329.59 292.31 342.8 317.23 334.02 292.31 357.48 333.37 331.06 292.31 375.08 348.05 334.02 289.35 388.29 359.79 339.87 289.35 404.43 359.79 357.48 309.91 401.5 361.26 373.62 328.98 400.04 359.79 389.76 353.9 400.04"/><rect class="cls-8" x="368.26" y="558.51" width="54.98" height="57.24"/><polyline class="cls-8" points="379.47 558.51 370.49 568.6 389.56 561.88 370.49 579.84 401.91 559.62 370.49 593.3 413.12 561.88 368.26 603.39 422.09 566.37 368.26 615.75 422.09 579.84 383.95 613.49 423.24 592.16 398.54 612.37 422.09 604.51 417.6 612.37"/><line class="cls-7" x1="287.88" y1="432.32" x2="428.75" y2="432.32"/><line class="cls-7" x1="286.42" y1="445.53" x2="425.82" y2="446.99"/><line class="cls-7" x1="375.93" y1="334.02" x2="421.42" y2="334.02"/><line class="cls-7" x1="375.93" y1="351.62" x2="421.42" y2="351.62"/><line class="cls-7" x1="375.93" y1="369.22" x2="421.42" y2="369.22"/><line class="cls-7" x1="375.93" y1="386.83" x2="421.42" y2="386.83"/><rect class="cls-8" x="289.34" y="454.32" width="136.47" height="66.02"/><polyline class="cls-8" points="287.88 467.53 306.95 455.78 284.95 489.52 321.63 455.78 289.35 504.23 346.58 454.32 296.7 513.02 358.33 455.78 311.37 513.02 378.86 454.32 324.58 518.88 392.07 455.78 340.73 515.95 409.68 454.32 356.87 518.88 425.82 454.32 375.93 517.41 422.89 476.35 392.07 514.48 422.89 493.95 416.84 503.75 411.14 513.02"/><line class="cls-7" x1="295.23" y1="537.98" x2="421.42" y2="537.98"/><line class="cls-7" x1="292.31" y1="554.12" x2="333.37" y2="554.12"/><line class="cls-7" x1="450.77" y1="287.06" x2="551.5" y2="274.68"/><line class="cls-7" x1="434.64" y1="358.94" x2="540.26" y2="358.94"/><line class="cls-7" x1="267.35" y1="492.49" x2="221.86" y2="508.63"/><path class="cls-7" d="M396.47,626s-8.79,45.49,51.34,57.3"/><polyline class="cls-7" points="439.03 671.49 453.7 684.7 433.14 690.56"/><polyline class="cls-7" points="527.05 345.73 550.54 360.41 530.01 369.22"/><polyline class="cls-7" points="532.43 270.28 557.36 273.21 539.75 289.35"/><polyline class="cls-7" points="227.71 493.95 202.79 514.48 233.6 515.95"/><rect class="cls-2" x="557.86" y="345.73" width="55.77" height="58.7"/><line class="cls-7" x1="571.08" y1="358.94" x2="603.35" y2="360.41"/><line class="cls-7" x1="571.08" y1="370.69" x2="603.35" y2="372.15"/><line class="cls-7" x1="571.08" y1="382.44" x2="603.35" y2="383.9"/><rect class="cls-2" x="472.8" y="427.89" width="55.77" height="58.7" transform="translate(-50.13 61.83) rotate(-6.73)"/><line class="cls-7" x1="484.2" y1="442.95" x2="516.42" y2="440.63"/><line class="cls-7" x1="485.57" y1="454.6" x2="517.79" y2="452.28"/><line class="cls-7" x1="486.94" y1="466.25" x2="519.19" y2="463.93"/><rect class="cls-2" x="183.78" y="527.67" width="55.77" height="58.7" transform="translate(-63.82 28.64) rotate(-6.73)"/><line class="cls-7" x1="195.12" y1="542.72" x2="227.36" y2="540.4"/><line class="cls-7" x1="196.49" y1="554.4" x2="228.73" y2="552.08"/><line class="cls-7" x1="197.89" y1="566.05" x2="230.1" y2="563.73"/><rect class="cls-2" x="463.92" y="645.09" width="58.7" height="55.77" transform="translate(-228.09 1092.32) rotate(-83.93)"/><line class="cls-7" x1="480.44" y1="655.35" x2="512.37" y2="660.22"/><line class="cls-7" x1="479.2" y1="667.03" x2="511.13" y2="671.9"/><line class="cls-7" x1="477.96" y1="678.71" x2="509.89" y2="683.58"/><rect class="cls-9" x="148.07" y="748.68" width="781.94" height="19.99"/></g><path class="cls-9" d="M1243.79,892V854.66H1131.51V892a53.2,53.2,0,0,1-11.94,33.55l-4.9,6.08h146l-4.9-6.08A53.25,53.25,0,0,1,1243.79,892Z"/><path class="cls-10" d="M1237.42,892V854.66H1125.15V892a53.31,53.31,0,0,1-11.94,33.55l-4.9,6.08h146l-4.9-6.08A53.25,53.25,0,0,1,1237.42,892Z"/><rect class="cls-11" x="1125.59" y="865.2" width="112.72" height="11.43"/><rect class="cls-9" x="955.63" y="535.05" width="451.28" height="331.36" rx="27"/><rect class="cls-9" x="967.76" y="535.05" width="451.28" height="331.36" rx="27"/><path class="cls-12" d="M955.63,814.9h451.31v24.51a27,27,0,0,1-27,27H982.66a27,27,0,0,1-27-27h0V814.9Z"/><rect class="cls-13" x="978.33" y="555.68" width="405.88" height="234.11"/><rect class="cls-11" x="1030.06" y="580.06" width="99.19" height="184.25" rx="9.68"/><rect class="cls-2" x="1038.4" y="595.5" width="82.55" height="153.31"/><rect class="cls-11" x="1155.04" y="598.08" width="74.71" height="7.74"/><rect class="cls-2" x="1156.34" y="614.85" width="34.79" height="36.07"/><rect class="cls-2" x="1205.97" y="725.64" width="18.62" height="19.32"/><rect class="cls-2" x="1157.2" y="676.68" width="70.86" height="36.07"/><line class="cls-4" x1="1197.57" y1="617.43" x2="1225.9" y2="617.43"/><line class="cls-4" x1="1197.57" y1="626.44" x2="1225.9" y2="626.44"/><line class="cls-4" x1="1197.57" y1="635.45" x2="1225.9" y2="635.45"/><line class="cls-4" x1="1197.57" y1="644.46" x2="1225.9" y2="644.46"/><line class="cls-4" x1="1158.48" y1="665.09" x2="1226.76" y2="665.09"/><line class="cls-4" x1="1158.48" y1="721.79" x2="1226.76" y2="721.79"/><rect class="cls-4" x="1148.61" y="590.37" width="87.61" height="162.35"/><rect class="cls-14" x="1260.69" y="590.37" width="82.45" height="60.55"/><rect class="cls-11" x="1260.69" y="590.37" width="82.45" height="12.89"/><rect class="cls-4" x="1267.09" y="612.63" width="21.55" height="20.85"/><rect class="cls-4" x="1310.2" y="612.63" width="21.55" height="20.85"/><path class="cls-13" d="M1335.22,597.7a3.19,3.19,0,1,1-3.19-3.19A3.19,3.19,0,0,1,1335.22,597.7Z"/><circle class="cls-13" cx="1317.14" cy="597.7" r="3.12"/><rect class="cls-14" x="1273.43" y="683.74" width="63.13" height="46.38"/><rect class="cls-11" x="1273.43" y="683.74" width="63.13" height="9.87"/><path class="cls-13" d="M1330.51,689.35a2.42,2.42,0,1,1-2.45-2.39h0A2.42,2.42,0,0,1,1330.51,689.35Z"/><path class="cls-13" d="M1319.05,689.35a2.39,2.39,0,1,1-2.39-2.39A2.39,2.39,0,0,1,1319.05,689.35Z"/><rect class="cls-14" x="991.7" y="567.96" width="26.52" height="207.97"/><rect class="cls-11" x="991.7" y="567.96" width="26.52" height="9.55"/><rect class="cls-4" x="998.06" y="583.88" width="12.73" height="14.87"/><rect class="cls-4" x="998.06" y="608.27" width="12.73" height="14.87"/><rect class="cls-4" x="998.06" y="632.68" width="12.73" height="14.87"/><rect class="cls-4" x="998.06" y="657.1" width="12.73" height="14.87"/><rect class="cls-4" x="998.06" y="681.48" width="12.73" height="14.87"/><rect class="cls-4" x="998.06" y="705.9" width="12.73" height="14.87"/><rect class="cls-4" x="998.06" y="730.32" width="12.73" height="14.87"/><rect class="cls-4" x="998.06" y="754.7" width="12.73" height="14.87"/><rect class="cls-14" x="1035.21" y="565.83" width="337.44" height="8.5"/><rect class="cls-14" x="1035.21" y="771.7" width="337.44" height="8.5"/><rect class="cls-9" x="1108.31" y="931.6" width="145.99" height="6.65"/><rect class="cls-15" x="1010.8" y="926.16" width="338.94" height="12.1"/><g id="freepik--Desk--inject-2"><polygon class="cls-16" points="707.07 1398.35 693.29 1398.35 686.38 976.01 713.98 976.01 707.07 1398.35"/><polygon class="cls-17" points="707.07 1398.35 700.99 1398.35 701.82 976.01 713.98 976.01 707.07 1398.35"/><polygon class="cls-18" points="903.58 1398.35 889.8 1398.35 882.89 976.01 910.49 976.01 903.58 1398.35"/><polygon class="cls-19" points="903.58 1398.35 897.5 1398.35 898.33 976.01 910.49 976.01 903.58 1398.35"/><polygon class="cls-20" points="833.23 1398.35 819.41 1398.35 812.54 976.01 840.1 976.01 833.23 1398.35"/><polygon class="cls-21" points="833.23 1398.35 827.15 1398.35 827.94 976.01 840.1 976.01 833.23 1398.35"/><polygon class="cls-22" points="966.01 1398.35 952.19 1398.35 945.32 976.01 972.88 976.01 966.01 1398.35"/><polygon class="cls-23" points="966.01 1398.35 959.89 1398.35 960.72 976.01 972.88 976.01 966.01 1398.35"/><rect class="cls-24" x="759.95" y="982.47" width="216.41" height="264.22"/><rect class="cls-25" x="700.19" y="982.47" width="216.41" height="264.22"/><polygon class="cls-26" points="1353.68 1398.35 1339.9 1398.35 1332.99 976.01 1360.59 976.01 1353.68 1398.35"/><polygon class="cls-27" points="1353.68 1398.35 1347.6 1398.35 1348.43 976.01 1360.59 976.01 1353.68 1398.35"/><polygon class="cls-28" points="1479.84 1398.35 1466.02 1398.35 1459.15 976.01 1486.71 976.01 1479.84 1398.35"/><polygon class="cls-29" points="1479.84 1398.35 1473.76 1398.35 1474.56 976.01 1486.71 976.01 1479.84 1398.35"/><rect class="cls-30" x="668.2" y="960.09" width="827.24" height="29.06"/><rect class="cls-31" x="668.2" y="960.09" width="827.24" height="14.52"/><rect class="cls-32" x="1373.32" y="960.09" width="122.11" height="29.06"/><rect class="cls-33" x="645.76" y="936.76" width="876.42" height="29.06"/><rect class="cls-34" x="1400.06" y="936.76" width="122.12" height="29.06"/><rect class="cls-35" x="713.95" y="1007.84" width="189.41" height="92.32"/><rect class="cls-36" x="787.96" y="1044.45" width="41.38" height="14.33"/><rect class="cls-37" x="713.95" y="1124.04" width="189.41" height="92.32"/><rect class="cls-38" x="787.96" y="1160.65" width="41.38" height="14.33"/></g><g id="freepik--Chair--inject-2"><rect class="cls-11" x="1194.93" y="1037.71" width="56.6" height="113.84"/><rect class="cls-11" x="1209.09" y="1111.11" width="28.3" height="157.64"/><path class="cls-11" d="M1234.75,1256.63s23.78,27,84.9,36.38c32.28,5,65.9,11.15,95.06,26.58,18.75,9.94,56.09,31.68,56.09,56.51a22.29,22.29,0,1,1-38.46-15.15,105.29,105.29,0,0,0-65.93-44.73c-46.47-10.12-80.41-6-145.79-49.47Z"/><path class="cls-11" d="M1214.53,1256.63s-23.78,27-84.9,36.38c-32.28,5-65.89,11.15-95.05,26.58-18.78,9.94-56.09,31.68-56.09,56.51a22.28,22.28,0,1,0,38.42-15.15,105.38,105.38,0,0,1,65.93-44.73c46.51-10.12,80.44-6,145.83-49.47Z"/><rect class="cls-11" x="1211.48" y="1356.59" width="25.56" height="41.77" rx="2.1"/><rect class="cls-11" x="1218.2" y="1260.42" width="12.13" height="137.94"/><path class="cls-11" d="M1360.3,709a774.56,774.56,0,0,0-12.73,114.16c-.92,29.54-1.4,54.85-1.85,77.16-1.33,69.37-2.1,107.82-13,118.17-1.4,1-10.44,6.53-29.35,8.12-5.28.44-22.09.67-44.95.79-72.48-.22-148.66-.82-149.87-.82h-4.43c-.19,0-.35.35-.51.5-43.55-.25-54.75-.5-55.55-.5h-4.42c-9.14,7.92-3.69,18.11,4.26,18.17,6,0,109.7.93,180.66.93h82.77c37.15,0,67.93-.26,76.4-1,26.26-2.16,38-11,39.28-12.06,17.51-15.54,18.18-49.63,19.81-132,.41-22.28.92-47.56,1.81-77a756.76,756.76,0,0,1,13.05-114.6Z"/></g><path class="cls-39" d="M797.51,1303.39l7.16,37.41s-6.36,13.53-31,24.67-36.6,15.91-36.6,19.1-1.6,10.34,4.77,12.73,141.66,0,141.66,0,7.16-3.18,7.16-18.3-6.36-43-6.36-49.35-4.49-21.71-4.49-23.87-54.41.79-54.41.79S809.45,1291.45,797.51,1303.39Z"/><line class="cls-4" x1="884.26" y1="1329.65" x2="828.55" y2="1330.45"/><line class="cls-4" x1="737.03" y1="1390.93" x2="889.03" y2="1390.93"/><path class="cls-40" d="M897,854.79s-44.12,148.53-49.53,169,25.85,200.21,25.85,203.42,4.29,12.93,4.29,23.69-4.29,14-2.13,17.22,9.55,10.76,8.6,17.22a18.89,18.89,0,0,1-6.37,12.93,20.82,20.82,0,0,1-8.6,5.38H843.26s-6.37-48.46-23.69-176.52,10.79-201.29,16.17-225A204.57,204.57,0,0,1,851.88,858Z"/><path class="cls-41" d="M760.9,1303.39l7.16,37.41s-6.36,13.53-31,24.67-36.61,15.91-36.61,19.1-1.59,10.34,4.77,12.73,141.66,0,141.66,0,7.17-3.18,7.17-18.3-6.37-43-6.37-49.35-4.49-21.71-4.49-23.87-54.4.79-54.4.79S772.84,1291.45,760.9,1303.39Z"/><line class="cls-4" x1="841.65" y1="1330.5" x2="785.94" y2="1331.3"/><line class="cls-4" x1="847.59" y1="1379.5" x2="841.53" y2="1330.37"/><line class="cls-4" x1="850.59" y1="1398.5" x2="849.53" y2="1391.37"/><line class="cls-4" x1="700.42" y1="1390.93" x2="852.42" y2="1390.93"/><path class="cls-42" d="M719.39,854.79s-1.08,93.65,4.3,133.48,25.85,132.39,29.06,183,8.63,74.3,8.63,74.3-7.64,6.37-7.64,12.73,4.3,6.37,3.18,16.17-5.38,12.9-2.13,17.23,5.38,12.89,16.14,15,61.34,1.09,72.1-1.08,16.14-12.92,16.14-21.52-3.18-15.06-3.18-24.76,5.38-18.28,5.38-24.74-2.17-9.71-2.17-16.17-14-109.77-14-131.28-1.08-94.74,2.13-113.05,19.39-105.46,19.39-105.46Z"/><path class="cls-9" d="M787.61,886.37a147.4,147.4,0,0,0,39.6,7.73,237.6,237.6,0,0,1,30.94,2.9l5.8-27.06Z"/><path class="cls-4" d="M775.8,891s5.28,147.9,15.92,197.22,24.64,130.29,21.13,140.86S804,1264.3,804,1264.3s19.38-3.5,19.38,7-28.17,17.64-21.13,22.93,14,11.07,14,11.07"/><path class="cls-9" d="M838.35,1269s-58.44,9.55-41.86,12.73,48.2-.79,49.79-4.74S843.1,1268.21,838.35,1269Z"/><polygon class="cls-2" points="580.37 246.44 578.75 312.53 641.08 311.99 641.62 245.9 580.37 246.44"/><path class="cls-43" d="M651.3,368.4S637.86,355,631.94,342.61s-14.48-19.86-14.48-28.46,3.75-28.65,2.13-36.54,0-24.71,5.38-24.71a8.25,8.25,0,0,1,8,10.19c-1.08,5.38,3.19,24.19,3.19,24.19s4.3-36,4.84-38.2,8.05-2.16,11.3-.54,7,1.05,7,8.06-1.62,15-1.62,16.64,15,10.22,15.59,16.65-1.08,22-4.83,28.65a66.81,66.81,0,0,0-6.37,12.74c-.54,2.13,14.51,24.7,14.51,24.7Z"/><path class="cls-9" d="M676.35,345.7l-36.61,28S702.17,502.83,704.33,507s47.34,32.31,47.34,32.31l67.81-84s-85-26.89-87.17-30.11S676.35,345.7,676.35,345.7Z"/><path class="cls-44" d="M719.52,820.31l-3.19,50.14s41.39,17.51,86,16.71,104.25-18.3,104.25-18.3l8.76-49.34s-107.44,8.75-140.07,5.57S719.52,820.31,719.52,820.31Z"/><path class="cls-9" d="M687.68,804.39l-2.38,14.33s33.71,18.4,108.23,25.47a350,350,0,0,0,136.09-14.33l.8-24.67a525.45,525.45,0,0,1-121,14.33A629.53,629.53,0,0,1,687.68,804.39Z"/><path class="cls-9" d="M748.17,508.34s-26.27,46.16-35,82-26.26,201.35-28.65,210.9,53.32,28.65,89.93,29.45S893,833,907.34,827.47s27.85-13.53,27.85-22.28.8-41.38.8-67.65S928,572.8,920.87,541s-11.94-54.12-14.33-58.1-19.89-23.08-55.71-20.69a192.26,192.26,0,0,0-79.58,23.87A82.48,82.48,0,0,0,748.17,508.34Z"/><path class="cls-44" d="M508.14,559.78s-12.92,5.38-14,18.31,22.64,25.81,36.61,45.2S563,663,563,663l28,38.74,33.36-28-86.11-99.9s4.29-9.55-1.09-12.92A37.67,37.67,0,0,0,508.14,559.78Z"/><path class="cls-44" d="M510.3,589.93l97-32.31s6.37,26.93,35.5,54.91a477.93,477.93,0,0,0,56,46.29l-87.19,49.5Z"/><path class="cls-44" d="M510.3,589.93a30.18,30.18,0,0,0,7.52-17.22,12,12,0,0,0-9.55-12.93l95.79-28s18.3,6.37,3.18,25.82Z"/><path class="cls-45" d="M638.66,692.28s-21.52-3.19-22.6-9.56-5.38-20.43-9.55-25.81-24.77-16.14-31.23-23.69-10.76-18.3-15.06-17.22-10.76,5.38-8.63,9.55,11.85,22.64,11.85,22.64l2.16,7.51s-19.39-3.19-22.6-4.3a6,6,0,0,0-7.35,4.1,6,6,0,0,0-.2,2.27c0,5.38-4.29,5.38,1.09,8.59s11.84,7.55,11.84,7.55,7.54,17.22,9.55,20.43,19.38,10.8,22.6,12.93,20.47,7.54,29.06,9.55,28,9.71,28,9.71L643,701.76Z"/><path class="cls-9" d="M866.84,543.74s-2.16,91.49-2.16,95.79,3.18,92.57-6.37,100.08-57,17.22-125.93,15.09-99-17.22-99-17.22l5.38-45.21L770,682.72s-14-100.08-11.84-134.53,30.14-52.74,30.14-52.74"/><path class="cls-46" d="M721.9,758.71s130.33,4.55,137.21-11.46S866,573.47,866,573.47"/><path class="cls-46" d="M779.21,514s-27.48,29.74-22.89,68.61,13.75,100,13.75,100l-50.33,3"/><path class="cls-47" d="M723.59,265.45S705.54,296.67,709,300.81s.7,11.81.7,11.81-18.05,13.88-16.65,18.72S709,349.39,709,349.39s2.77,37.47,6.37,40.94,27.06,7.61,31.83,8.31a27,27,0,0,1,7.64,2.1l13.85,74.91,77.71-70-12.48-33.3s-6.94-44.57-6.37-65.19-35.4-45.81-56.89-52.05S723.59,265.45,723.59,265.45Z"/><path class="cls-9" d="M738.14,223.11s-18-18.72-39.54-4.14-15.25,38.2,4.17,46.48,42.31,2.06,34.7,10.41-9.55,26.35,2.07,29.82,9.71,16.65,9.71,22.29,9.55,4.87,11.81,0,7.61-18,20.79-12.48,12.51,36.07,7.64,43.71-9.71,6.94-9.71,6.94,7.64,2.77,2.77,11.77l-4.84,9s11.08,13.17,38.84,8.3,34-17.35,29.83-27.72-13.88-11.81-3.47-27.06,36.1-33.33,34-68c-1.36-22.89-55.48-44.57-55.48-44.57s12.48-20.82-15.92-34-61,2.11-59,15.92S738.14,223.11,738.14,223.11Z"/><path class="cls-4" d="M708.82,298.33s-8.82-2.36-9.55,1.81,0,25,0,25a15.16,15.16,0,0,0,10.41,2.1c4.87-1.4,2.07-18.75,2.07-18.75"/><polyline class="cls-9" points="763.83 321.63 699.94 311.06 700 307.05 763.83 321.63"/><path class="cls-48" d="M855.42,384.09s-35.4,25.66-59.69,52S742.31,491.63,741,500.63s1.37,22.89,15.25,8.31,39.54-34,59-35.36,49.25,8.34,64.5,10.41,25,6.36,30.53-2.07-9-27.06-9-36.8,2.07-26.36-4.87-38.2S867.19,380.62,855.42,384.09Z"/><path class="cls-9" d="M900.75,418.44a98.23,98.23,0,0,1-8,19.42c-4.05,6-60.93,17.41-60.93,17.41s46.86-2.67,55.55-2.67,18.75,8,18.75,8l-4.68-12.73S903.36,424.49,900.75,418.44Z"/><g id="freepik--Floor--inject-2"><line class="cls-4" x1="75.68" y1="1398.35" x2="1530.49" y2="1398.35"/></g><path class="cls-49" d="M1072.54,368.59l-7,19.89C1069.43,377.49,1075,370.36,1072.54,368.59Zm-7,19.89-7,19.88C1060.38,407.84,1061.74,399.46,1065.59,388.48Zm7-19.89-7,19.89C1069.43,377.49,1075,370.36,1072.54,368.59Zm-7,19.89-7,19.88C1060.38,407.84,1061.74,399.46,1065.59,388.48Zm20.07,17.22,6.75,3.83,7.29-19.89-7.81-1.31c.14-.74.28-1.48.37-2.21a49.73,49.73,0,0,0,.66-9.91l8.17-5.13-3.72-17.52-7.83,7.49a22.67,22.67,0,0,0-4-5.84,16.9,16.9,0,0,0-1.36-1.32l4.79-11.05-12.74-4.15h0l-3.06,11.14a21.17,21.17,0,0,0-8.62,2l-1.4-10.53-14,10.61,3.24,9.34a52.82,52.82,0,0,0-6.84,10l-6.76-3.81-7.29,19.89,7.81,1.31a53.87,53.87,0,0,0-1,12.12l-8.17,5.13,3.72,17.52,7.83-7.49A22.09,22.09,0,0,0,1047,423l-4.79,11.07,12.54,4.89,1.94-7.06,1.32-4.82a21.37,21.37,0,0,0,8.64-2l1.39,10.52,14-10.61-3.24-9.34a50.91,50.91,0,0,0,5.52-7.63C1084.8,407.28,1085.22,406.5,1085.66,405.7Zm-20.07-17.22c-3.85,11,0,22.31-7,19.88s-9.53-13.34-5.68-24.3,12.62-17.9,19.59-15.47S1069.43,377.49,1065.59,388.48Zm7-19.89-7,19.89C1069.43,377.49,1075,370.36,1072.54,368.59Zm-7,19.89-7,19.88C1060.38,407.84,1061.74,399.46,1065.59,388.48Z"/><path class="cls-50" d="M1092.41,409.53l7.29-19.89-7.44-3.52-1.2-.56.78-10.95,8.25-4-2.72-17-18-5.85,3.31,7.89,6.26-12.76-12.74-4.15L1071,337l-12.56-4.9-2.34,8.57-10.93-5.19-14,10.61,4.25,11.48-13.11,36.36-6.48,23.61,12.45,1.36-4,9.36,12.56,4.9,18,5.85-2.89-5.77-1.81-3.46,6.64,2.17,11.35,3.69,14-10.61-8.67-10.22,10.95-6.75ZM1053,384.06c3.85-11,12.62-17.9,19.59-15.47l-7,19.89-7,19.88C1051.65,405.9,1049.1,395,1053,384.06Z"/><path class="cls-51" d="M1074.44,403.67l7.28-19.9-7.81-1.3a55,55,0,0,0,1-12.11l8.17-5.13-3.72-17.52-7.84,7.48a21.69,21.69,0,0,0-5.35-7.15L1071,337l-12.55-4.89L1055.2,344a21.29,21.29,0,0,0-8.63,2l-1.39-10.52-14,10.61,3.23,9.33a54.28,54.28,0,0,0-6.84,10l-6.76-3.81-7.28,19.89,7.81,1.31a54.86,54.86,0,0,0-1,12.1L1012.1,400l3.72,17.52,7.83-7.48a21.85,21.85,0,0,0,5.36,7.15l-4.79,11.06,12.55,4.89,3.25-11.88a21.29,21.29,0,0,0,8.63-2l1.39,10.52,14-10.61-3.23-9.33a53.94,53.94,0,0,0,6.84-10Zm-33.79-1.17c-7-2.45-9.52-13.33-5.67-24.31s12.62-17.9,19.59-15.45,9.52,13.32,5.67,24.3S1047.62,404.94,1040.65,402.5Z"/><polygon class="cls-52" points="1101.09 371.08 1083.12 365.23 1074.95 370.36 1092.92 376.21 1101.09 371.08"/><polygon class="cls-53" points="1082.05 425.02 1064.07 419.16 1060.84 409.83 1078.81 415.68 1082.05 425.02"/><polygon class="cls-52" points="1066.21 348.04 1076.06 350.89 1079.4 347.71 1085.94 349.84 1088.97 342.84 1071 336.98 1066.21 348.04"/><path class="cls-52" d="M1040,421.26l9.42,3.92-.79-5.93S1043.59,421.92,1040,421.26Z"/><path class="cls-52" d="M1041.48,367.37l15.85,8.38a24.28,24.28,0,0,1,4.07-4.31S1057.27,354,1041.48,367.37Z"/><polygon class="cls-54" points="1104.67 214.06 1051.4 242.51 1042.71 224.72 1091.63 198.15 1104.67 214.06"/><polygon class="cls-55" points="22.07 607.59 18.46 605.68 76.48 548.49 80.09 550.41 22.07 607.59"/><polygon class="cls-55" points="485.02 99.75 485.79 95.74 557.53 134.33 556.77 138.34 485.02 99.75"/><path class="cls-56" d="M374.43,1199.22A11.22,11.22,0,1,1,363.22,1188,11.21,11.21,0,0,1,374.43,1199.22Z"/><path class="cls-57" d="M22.43,982.22A11.22,11.22,0,1,1,11.22,971,11.21,11.21,0,0,1,22.43,982.22Z"/><path class="cls-58" d="M1391.43,424.22A11.22,11.22,0,1,1,1380.22,413,11.21,11.21,0,0,1,1391.43,424.22Z"/><polygon class="cls-59" points="1396.85 284.67 1401 188.19 1274.66 188.19 1279.86 284.4 1396.85 284.67"/><polygon class="cls-60" points="1401 188.19 1404.78 193.88 1401 284.67 1396.85 284.67 1401 188.19"/><path class="cls-13" d="M1352.33,207.6s13.85-.53,16.29.59-.63,23.7-.63,23.7l5.52,5.07-5.16,5s.27,22.88-3,24.78-14.4,0-14.4,0V261s9.1.57,10.59-.65,1.36-21.21,1.36-21.21l2.45-2.67-2.45-2.9s.45-14.25.18-18.16c-.18-2.6-10.77-2.74-10.77-2.74Z"/><path class="cls-13" d="M1320.6,207.6s-13.85-.53-16.29.59.63,23.7.63,23.7l-5.52,5.07,5.16,5s-.27,22.88,3,24.78,14.39,0,14.39,0V261s-9.1.57-10.59-.65-1.36-21.21-1.36-21.21l-2.44-2.67,2.44-2.9s-.45-14.25-.18-18.16c.18-2.6,10.77-2.74,10.77-2.74Z"/><path class="cls-61" d="M478.85,921.06H398.69a12,12,0,0,1-12-11.56L385,856.78a12,12,0,0,1,12-12.37h83.55a12,12,0,0,1,12,12.33l-1.61,52.72A12,12,0,0,1,478.85,921.06Z"/><path class="cls-62" d="M478.85,921.47H398.69a12.33,12.33,0,0,1-12.37-12l-1.78-52.72A12.37,12.37,0,0,1,396.91,844h83.55a12.38,12.38,0,0,1,12.37,12.75l-1.61,52.73A12.32,12.32,0,0,1,478.85,921.47Zm-81.94-76.65a11.55,11.55,0,0,0-11.55,11.94l1.78,52.73a11.5,11.5,0,0,0,11.55,11.16h80.16a11.51,11.51,0,0,0,11.55-11.2L492,856.73a11.56,11.56,0,0,0-11.55-11.91Z"/><polygon class="cls-13" points="420.06 863.35 400.3 886.26 420.42 903.35 420.42 894.53 408.78 884.45 419.59 872.22 420.06 863.35"/><polygon class="cls-13" points="454.8 864.38 474.56 887.29 454.44 904.38 454.44 895.56 466.08 885.48 453.12 871.77 454.8 864.38"/><polygon class="cls-13" points="424.36 903.35 441.59 865.41 449.68 865.41 430.17 903.35 424.36 903.35"/><path class="cls-63" d="M961.66,85.05a12.58,12.58,0,0,0,1-3.62q1.85-12.72,3.72-25.44a8.66,8.66,0,0,1,3.15-5.75,7,7,0,0,1,4.06-1.65A5.47,5.47,0,0,1,978.61,51q2.21,3.08,4.39,6.17,17.37,24.41,34.75,48.82a7.75,7.75,0,0,1,.64,8.14.83.83,0,0,1-.26.35,3.51,3.51,0,0,1-1.5-.24,37.63,37.63,0,0,1-4.24-1.66c-6-2.7-11.91-5.76-17.77-8.84-2.86-1.5-5.7-3-8.55-4.58q-5.91-3.18-11.74-6.49-2.7-1.53-5.37-3.07c-2-1.15-4-2.31-5.9-3.54A6.7,6.7,0,0,1,961.66,85.05Z"/><path class="cls-64" d="M961.66,85.05a6.7,6.7,0,0,0,1.4,1C965,87.3,967,88.46,969,89.61q2.67,1.55,5.37,3.07,5.83,3.3,11.74,6.49c2.85,1.53,5.69,3.08,8.55,4.58,5.86,3.08,11.73,6.14,17.77,8.84a37.63,37.63,0,0,0,4.24,1.66,3.51,3.51,0,0,0,1.5.24c0,.16-.06.28-.14.4a8.14,8.14,0,0,1-3.74,3.41,7.28,7.28,0,0,1-2.84.57l-20.06.25-18.19.23-21.8.29-6.92.08a5.66,5.66,0,0,1-5.52-4.21,8.12,8.12,0,0,1,2.06-8.32c2.63-2.82,5.33-5.58,8-8.37q5.34-5.56,10.69-11.13A11.55,11.55,0,0,0,961.66,85.05Z"/><path class="cls-65" d="M409.09,67c148.58-68.49,225.26-56.78,268-32,22.65,13.13,41.12,33,81,41,42.28,8.44,67.19-4.83,129,0a384.37,384.37,0,0,1,62,10"/></g></g></g></svg>