<svg xmlns="http://www.w3.org/2000/svg" xmlns:xlink="http://www.w3.org/1999/xlink" viewBox="0 0 1620.95 1589.34"><defs><style>.cls-1{fill:none;}.cls-2{fill:#f5f5f5;}.cls-3{fill:#e6e6e6;}.cls-4{fill:#37474f;}.cls-5{fill:#455a64;}.cls-23,.cls-33,.cls-6{fill:#407bff;}.cls-18,.cls-19,.cls-23,.cls-7{opacity:0.6;}.cls-10,.cls-15,.cls-17,.cls-18,.cls-20,.cls-23,.cls-27,.cls-32,.cls-33,.cls-34,.cls-35,.cls-37,.cls-7,.cls-8,.cls-9{isolation:isolate;}.cls-15,.cls-16,.cls-8{opacity:0.5;}.cls-30,.cls-9{opacity:0.4;}.cls-10{opacity:0.15;}.cls-11,.cls-17{fill:#263238;}.cls-12{fill:#e0e0e0;}.cls-13{fill:#ebebeb;}.cls-14,.cls-15,.cls-18,.cls-20,.cls-32{fill:#fff;}.cls-17,.cls-22{opacity:0.9;}.cls-20,.cls-21{opacity:0.8;}.cls-24{opacity:0.7;}.cls-25,.cls-34{opacity:0.3;}.cls-26{opacity:0.25;}.cls-27,.cls-33{opacity:0.1;}.cls-28{fill:#ffa8a7;}.cls-29{fill:#fafafa;}.cls-31{fill:#f28f8f;}.cls-32{opacity:0.75;}.cls-35{opacity:0.2;}.cls-36{fill:#f0f0f0;}.cls-38{clip-path:url(#clip-path);}</style><clipPath id="clip-path"><polygon class="cls-1" points="150.26 604.73 154.39 533.25 237.4 513.52 233.27 585 150.26 604.73"/></clipPath></defs><g id="Layer_2" data-name="Layer 2"><g id="Layer_1-2" data-name="Layer 1"><path id="freepik--floor--inject-7" class="cls-2" d="M810.47,1589.34C362.86,1589.34,0,1398,0,1161.9S362.86,734.47,810.47,734.47,1621,925.84,1621,1161.9s-362.86,427.44-810.48,427.44"/><g id="freepik--Shadows--inject-7"><path id="freepik--Shadow--inject-7" class="cls-3" d="M1540,1095.77l-451.81,248.57a13.93,13.93,0,0,1-12.15,0L424.63,986.28a3.43,3.43,0,0,1-2.63-4.17,3.57,3.57,0,0,1,2.63-2.51L876.44,731a13.9,13.9,0,0,1,12.14,0L1540,1089.09a3.43,3.43,0,0,1,2.62,4.17A3.52,3.52,0,0,1,1540,1095.77Z"/><ellipse id="freepik--shadow--inject-7-2" data-name="freepik--shadow--inject-7" class="cls-3" cx="490.12" cy="1334.15" rx="271.38" ry="149.25"/><ellipse id="freepik--shadow--inject-7-3" data-name="freepik--shadow--inject-7" class="cls-3" cx="820.56" cy="1161.11" rx="213.62" ry="117.47"/><ellipse id="freepik--shadow--inject-7-4" data-name="freepik--shadow--inject-7" class="cls-3" cx="1295.65" cy="1318.59" rx="134.1" ry="73.75"/></g><g id="freepik--Desk--inject-7"><g id="freepik--desk--inject-7-2" data-name="freepik--desk--inject-7"><g id="freepik--Table--inject-7"><path class="cls-4" d="M1098,900.25V1282.4a8.43,8.43,0,0,1-4,6.68l-8.6,4.72a9.26,9.26,0,0,1-8.09,0l-8.61-4.72a8.44,8.44,0,0,1-4-6.68V900.25c0-2.45,1.8-3.45,4-2.21l8.61,4.72a9.26,9.26,0,0,0,8.09,0L1094,898C1096.24,896.8,1098,897.8,1098,900.25Z"/><path class="cls-5" d="M1077.3,1293.63l-8.61-4.72a8.44,8.44,0,0,1-4-6.68v-382c0-2.45,1.8-3.45,4-2.21l8.61,4.72a8.48,8.48,0,0,1,4,6.58v382.15C1081.34,1293.87,1079.54,1294.94,1077.3,1293.63Z"/><path class="cls-4" d="M1465,698.36v381.95a8.38,8.38,0,0,1-4,6.68l-8.6,4.82a9.56,9.56,0,0,1-8.1,0l-8.6-4.75a8.49,8.49,0,0,1-4-6.68v-382c0-2.45,1.84-3.45,4-2.24l8.6,4.75a9.28,9.28,0,0,0,8.1,0l8.6-4.75C1463.14,694.91,1465,695.88,1465,698.36Z"/><path class="cls-5" d="M1444.2,1091.81l-8.6-4.75a8.49,8.49,0,0,1-4-6.68v-382c0-2.45,1.84-3.45,4-2.24l8.6,4.75a8.45,8.45,0,0,1,4,6.68v382C1448.25,1091.81,1446.44,1092.94,1444.2,1091.81Z"/><path class="cls-4" d="M603.91,628.64V1010.8a8.49,8.49,0,0,1-4,6.68l-8.6,4.71a9.28,9.28,0,0,1-8.1,0l-8.6-4.71a8.49,8.49,0,0,1-4-6.68V628.64c0-2.44,1.81-3.44,4-2.2l8.71,4.71a9.28,9.28,0,0,0,8.1,0l8.6-4.71C602.1,625.2,603.91,626.2,603.91,628.64Z"/><path class="cls-5" d="M583.27,1022l-8.6-4.72a8.43,8.43,0,0,1-4-6.68V628.47c0-2.45,1.81-3.45,4-2.21l8.6,4.89a8.49,8.49,0,0,1,4.05,6.68v381.95C587.21,1022.26,585.4,1023.26,583.27,1022Z"/><path class="cls-6" d="M1544.72,725.52v-2.79a15.32,15.32,0,0,0-7.23-12.15L890.5,355a17,17,0,0,0-14.75,0l-398,219a15.31,15.31,0,0,0-7.23,12.15v3a15.28,15.28,0,0,0,7.23,12.15l647,355.51a17.31,17.31,0,0,0,14.75,0l398-219.14A15.31,15.31,0,0,0,1544.72,725.52Z"/><path class="cls-7" d="M1544.72,725.52v-2.79a15.32,15.32,0,0,0-7.23-12.15L890.5,355a17,17,0,0,0-14.75,0l-398,219a15.31,15.31,0,0,0-7.23,12.15v3a15.28,15.28,0,0,0,7.23,12.15l647,355.51a17.31,17.31,0,0,0,14.75,0l398-219.14A15.31,15.31,0,0,0,1544.72,725.52Z"/><path class="cls-6" d="M1132,939.36v19a16.1,16.1,0,0,0,7.23-1.68l398.24-219a15.36,15.36,0,0,0,7.23-12.15v-2.83a15.33,15.33,0,0,0-6-11.22c2.64,2.17,2.21,5.16-1.37,7.19l-398,219A15.48,15.48,0,0,1,1132,939.36Z"/><path class="cls-8" d="M1132,939.36v19a16.1,16.1,0,0,0,7.23-1.68l398.24-219a15.36,15.36,0,0,0,7.23-12.15v-2.83a15.33,15.33,0,0,0-6-11.22c2.64,2.17,2.21,5.16-1.37,7.19l-398,219A15.48,15.48,0,0,1,1132,939.36Z"/><path class="cls-6" d="M1537.49,718.67l-398.1,219a17,17,0,0,1-14.74,0l-647-355.41a4.22,4.22,0,0,1-2.82-5.41,4.4,4.4,0,0,1,2.82-2.68L875.64,355a17,17,0,0,1,14.75,0l647.1,355.54a4.22,4.22,0,0,1,2.82,5.41A4.4,4.4,0,0,1,1537.49,718.67Z"/><path class="cls-9" d="M1537.49,718.67l-398.1,219a17,17,0,0,1-14.74,0l-647-355.41a4.22,4.22,0,0,1-2.82-5.41,4.4,4.4,0,0,1,2.82-2.68L875.64,355a17,17,0,0,1,14.75,0l647.1,355.54a4.22,4.22,0,0,1,2.82,5.41A4.4,4.4,0,0,1,1537.49,718.67Z"/></g><g id="freepik--Keyboard--inject-7"><path id="freepik--shadow--inject-7-5" data-name="freepik--shadow--inject-7" class="cls-10" d="M1083.12,713.92l-94.31,52a12.28,12.28,0,0,1-10.59,0l-278.6-153a3.05,3.05,0,0,1-2-3.88,3.13,3.13,0,0,1,2-1.94l94.3-52a12.26,12.26,0,0,1,10.55,0l278.65,153a3.07,3.07,0,0,1,1.78,4A3.46,3.46,0,0,1,1083.12,713.92Z"/><g id="freepik--keyboard--inject-7-2" data-name="freepik--keyboard--inject-7"><path class="cls-11" d="M705.33,597.86a3.46,3.46,0,0,1,2.2-2.89l88.6-48.72a12.06,12.06,0,0,1,10.55,0L1077,695.16a3.45,3.45,0,0,1,2.17,2.92v8.85a3.44,3.44,0,0,1-2.17,2.89l-88.55,48.72a12.15,12.15,0,0,1-10.59,0L707.53,609.81a3.46,3.46,0,0,1-2.2-2.89Z"/><path class="cls-4" d="M988.49,749.48,1077,701a3,3,0,0,0,2-3.87,3.13,3.13,0,0,0-2-1.94L806.68,546.25a12.06,12.06,0,0,0-10.55,0L707.53,595a3,3,0,0,0-2,3.87,3.17,3.17,0,0,0,2,1.95L977.9,749.45A12.28,12.28,0,0,0,988.49,749.48Z"/><path class="cls-11" d="M983.54,750.65v9.06a11,11,0,0,0,5-1.17L1077,709.86a3.48,3.48,0,0,0,2.2-2.93v-8.88A3.46,3.46,0,0,1,1077,701l-88.52,48.51A11.16,11.16,0,0,1,983.54,750.65Z"/><path class="cls-6" d="M721.74,598.51h0l8.75-4.82,11.89,6.55-8.82,5-11.89-6.54ZM735.47,591h0l8.79-4.82,9.36,5.13L744.8,596l-9.33-5.13Zm2.9,16.7h0l8.78-4.82,9.32,5.13-8.81,5-9.33-5.13Zm10.84-24.1h0l8.78-4.82,15.08,8.33-8.82,5-15.08-8.3Zm.32,15.29h0l8.75-4.86,7.45,4.1-8.79,4.82-7.41-4.16Zm2.9,16.66h0l8.74-4.82,9.36,5.13-8.85,5-9.33-5.13Zm9.25-10h0l8.75-4.82,7.23,4.1-8.82,5-7.23-4.1ZM762.91,576h0l8.78-4.82,11.89,6.54-8.74,4.75-11.9-6.54Zm3.61,47.27h0l8.75-4.82,67.52,37.11-8.82,5-67.52-37.11Zm2.53-28.82h0l8.75-4.82,7.23,4.1-8.82,5-7.41-4.07Zm4.81,17.77h0l8.75-4.82,7.41,4.09-8.82,5-7.41-4.1Zm2.78-43.73h0l8.75-4.82,7.45,4.1-8.82,5-7.34-4.24Zm2.9,16.7h0l8.74-4.82,7.45,4.06L787,589.15l-7.44-4.06Zm1.62,16h0l8.75-4.82,7.41,4.09-8.82,5-7.41-4.06ZM786,618.93h0l8.75-4.82,7.22,4.1-8.81,5-7.23-4.1Zm2.82-43.76h0l8.75-4.82,7.44,4.1-8.82,5-7.23-4.07Zm2.89,16.7h0l8.75-4.82,7.44,4.06-8.82,5L791.64,592Zm1.63,16h0l8.74-4.82,7.23,4.1-8.82,5L793.23,608Zm0-48.51h0l8.74-4.82,9.36,5.13-8.85,5-9.33-5.13Zm4.8,66.28h0l8.75-4.82,7.41,4.1-8.82,5-7.41-4.1Zm2.82-43.76h0l8.75-4.82,7.45,4.1-8.75,4.58L801,581.64Zm2.89,16.7h0l8.75-4.82,7.45,4.06-8.82,5-7.45-4.33Zm1.63,16h0l8.75-4.82,7.41,4.1-8.82,5-7.41-4.06Zm4.81,17.77h0l8.75-4.82,7.22,4.1-8.82,5-7.22-4.1ZM812.64,570h0l8.79-4.82,7.41,4.07-8.82,5-7.41-4.06Zm.44,18.56h0l8.74-4.82,7.45,4.1-8.78,4.78-7.23-4.06Zm2.89,16.7h0l8.75-4.82,7.44,4.06-8.82,5-7.41-4.06Zm1.63,16h0l8.74-4.82,7.23,4.1-8.82,5-7.23-4.06ZM822.4,639h0l8.82-5.06,7.23,4.09-8.82,5-7.41-4.1Zm2.39-62.32h0l8.75-4.82L841,575.9l-8.82,5-7.23-4.07Zm.43,18.56h0l8.75-4.82,7.44,4.1-8.74,4.68-7.23-4.06Zm2.89,16.7h0l8.75-4.82,7.45,4.06-8.82,5-7.41-4.06Zm1.63,16h0l8.78-4.82,7.41,4.1-8.82,5-7.41-4.07Zm4.81,17.77h0l8.74-4.86,7.41,4.1-8.82,5-7.4-4.09Zm2.38-62.32h0l8.79-4.82,7.41,4.06-8.82,5-7.41-4.07Zm.44,18.56h0l8.78-4.82,7.41,4.1-8.86,5-7.22-4.06ZM838.7,663h0l8.79-4.82,9.32,5.13-8.82,5-9.32-5.13Zm1.56-44.44h0l8.75-4.82,7.44,4.06-8.82,5-7.41-4.06Zm1.62,16h0l8.79-4.82,7.3,3.82-8.82,5-7.41-4.06Zm4.81,17.77h0l8.75-4.82,7.44,4.09-8.85,5-7.41-4.1ZM849.08,590h0l8.78-4.82,7.34,4-8.82,5L849,590.08Zm.43,18.56h0l8.78-4.82,7.41,4.09-8.82,5-7.4-4.06Zm2.89,16.7h0l8.79-4.82,7.22,4.06-8.81,5-7.23-4.06Zm.36,45.48h0l8.79-4.82,9.32,5.13-8.82,5-9.32-5.13ZM854,641.24h0l8.75-4.82,7.23,4.1-8.43,4.68-7.23-4.06ZM858.84,659h0l8.74-4.82,7.45,4.09-8.86,5-7.41-4.09Zm2.82-43.76h0l8.78-4.82,7.23,4.09-8.82,5-7.27-4.34Zm2.89,16.69h0l8.78-4.82,7.41,4.07-8.82,5-7.41-4.06Zm1.62,16h0l8.75-4.82,7.41,4.1-8.82,4.95-7.34-4.47Zm.37-48.2h0l8.78-4.82,7.41,4.1-8.82,5-7.37-4.51Zm.28,78.88h0l8.79-4.82,9.32,5.13L876,683.52l-9.32-5.13ZM871,665.79h0l8.75-4.86,7.44,4.1-8.85,5-7.23-4.09ZM873.8,622h0l8.75-4.82,7.44,4.1-8.82,5-7.41-4.06Zm2.89,16.7h0l8.79-4.82,7.4,4.06-8.81,5-7.41-4.06Zm1.63,16h0l8.75-4.82,7.44,4.1-8.85,5-7.34-4.38Zm.36-48.2h0l8.78-4.82,7.41,4.1-8.82,5-7.23-4.1Zm2.24,80h0l8.78-4.86,11.9,6.54-8.82,5-11.9-6.54Zm2.21-13.78h0l8.74-4.85,23.42,12.88-8.81,5-23.21-13.46ZM886,628.92h0l8.78-4.82,7.41,4.09-8.82,5-7.41-4.06Zm2.89,16.69h0l8.78-4.82,7.34,3.45-8.82,5-7.41-4.06Zm1.62,16h0l8.75-4.82,7.45,4.09-8.93,4.38-7.23-4.07Zm.36-48.2h0l8.79-4.82,7.41,4.09-8.82,5-7.41-4.1Zm7.23,22.31h0l8.79-4.82,7.41,4.09-8.82,5L898,635.87Zm2,61.49h0l8.75-4.82,7.44,4.06-8.85,5-7.23-4.06Zm.91-44.76h0l8.78-4.82,7.23,4.06-8.39,4.27-7.23-4.06Zm1.62,16h0l8.75-4.82,6.79,3.72a4.51,4.51,0,0,0,2.14.45,4.94,4.94,0,0,0,2.24-.45L934,661l8.67,4.78-22.52,12.54-17.67-9.71Zm.36-48.2h0l8.79-4.82,7.41,4.1-8.75,4.1-7.41-4.1Zm7.23,22.31h0l8.75-4.82,7.45,4.1-8.82,5-7.23-4.06Zm2,61.49h0l8.75-4.82,7.44,4.07-8.85,5-7.23-4.06Zm.9-44.75h0l8.79-4.82,7.41,4.06-8.82,5L913,659.42Zm7.23-29.44h0L929,625l7.45,4.06-8.86,5L920.21,630Zm2,19.42h0l8.75-4.82,7.44,4.09-8.82,5-7.41-4.06Zm2,61.49h0L933,705.9l7.41,4.06-8.85,5-7.23-4.06Zm1.59-14.22h0l8.75-4.82,7.44,4.1-8.85,5L926,695.88Zm6.58-60h0l8.74-4.82,7.41,4.06-8.82,5-7.4-4.06Zm2,19.42h0l8.78-4.82,13.16,7.23-8.82,5-13.16-7.23Zm4.55,62.9h0l8.75-4.82,19.59,10.74-8.86,5L938.9,719Zm2.17-44.1h0l8.78-4.82,7.41,4.09-8.82,5-7.41-4.06Zm3.43-31.54h0l8.75-4.82,7.41,4.06L952,646.54l-7.23-4.06Zm8.13,68.1h0l8.79-4.82,7.41,4.1-8.82,5-7.41-4.1Zm.58-29.89h0l8.79-4.82,7.23,4.1-8.82,5-7.23-4.06Zm1.59-14.21h0l8.79-4.82,7.23,4.06-8.82,5-7.23-4.06ZM956.72,650h0l8.74-4.82,7.23,4.06-8.82,5-7.23-4.07Zm6.54,82.32h0l8.75-4.82,7.44,4.06-8.85,5-7.23-4.06Zm1.59-14.22h0l8.78-4.82,7.23,4.1-8.82,5-7.23-4.1Zm.58-29.88h0l8.78-4.82,7.41,4.09-8.82,5-7.41-4.06Zm1,15.63h0l8.78-4.82,7.23,4.09-8.82,5L966.4,704ZM967,674h0l8.78-4.82,7.41,4.06-8.82,5L967,674.12Zm4.52-15.84h0l8.74-4.82,7.45,4.06-8.64,4.1-7.41-4.06ZM975.4,739h0l22.49-12.4,7.41,4.1-22.52,12.53-7.45-4.06ZM977,724.73h0l8.79-4.82,7.41,4.1-8.71,4-7.23-4.1Zm1.59-14.25h0l8.79-4.82,7.41,4.09-8.82,5-7.27-5.06Zm.58-29.85h0l8.79-4.82,7.41,4.06-8.82,5-7.41-4.06Zm1,15.63h0l8.78-4.82,7.41,4.06-8.82,5-7.41-4.06Zm3.61-31.47h0L992.5,660,1000,664l-8.82,5L983.72,665Zm7,52.37h0l8.78-4.82,7.41,4.09-8.82,5-7.33-4.88Zm1.56-14.22h0l8.78-4.82,7.41,4.06-8.71,4-7.41-4.07ZM994,688.72h0l8.74-4.82,7.45,4.06-8.86,5-7.23-4.06Zm1.95-17.22h0l8.74-4.82,7.45,4.07-8.82,5-7.41-4.06Zm7.05,52.37h0l22.51-12.36,7.41,4.06-22.55,12.57-7.41-4.1Zm1.55-14.22h0l8.78-4.82,7.41,4.06-8.82,5-7.41-4.06Zm1.59-14.22h0l8.75-4.82,7.44,4.06-8.89,4-7.23-4.07Zm8.06-17.8h0l3.62-2.1,7.44,4.1-3.83,2.24-7.23-4.07Zm4.09,24.48h0l8.74-4.82,7.45,4.06-8.86,5-7.23-4.06Zm8.06-17.8h0l3.61-2.1,7.45,4.1-3.84,2.24-7.22-4.07Zm4.08,24.48h0l8.75-4.82,7.44,4.06-8.85,5-7.23-4.06Zm8.06-17.8h0l3.61-2.1,7.45,4.1-3.83,2.23-7.23-4.06Zm12.11,6.68h0l3.61-2.1,7.45,4.1-3.83,2.23-7.23-4.06Z"/></g></g><g id="freepik--Device--inject-7"><polygon id="freepik--shadow--inject-7-6" data-name="freepik--shadow--inject-7" class="cls-10" points="1301.03 724.01 1383.98 678.39 969.19 450.26 886.24 495.88 1301.03 724.01"/><g id="freepik--Monitor--inject-7"><path class="cls-3" d="M1066.13,649.74l-59.21-32.63c-6.11-3.45-9.18-7.75-9.18-12.16V597.1L1053.48,567a12.39,12.39,0,0,0,5.89-9.75V487.69l103.44,56.94v69.55a12.33,12.33,0,0,1-5.89,9.74l-46.55,25.82A51.06,51.06,0,0,1,1066.13,649.74Z"/><path class="cls-12" d="M1138,626.51v7.81L1156.92,624a12.25,12.25,0,0,0,5.89-9.74V544.7l-19.69-10.84c-.4,4.78-.87,9.71-1.27,14.49l13.81,7.65v54.32a12.19,12.19,0,0,1-5.89,9.75Z"/><path class="cls-2" d="M1155.66,610.25a12.34,12.34,0,0,1-5.89,9.75l-39.4,21.89a51.06,51.06,0,0,1-44.24,0l-59.24-32.63c-12.22-6.68-12.22-17.6,0-24.31l39.43-21.9a12.28,12.28,0,0,0,5.89-9.71V499l103.45,56.95Z"/><path class="cls-13" d="M1034.32,569.66h0l12-6.61a12.28,12.28,0,0,0,5.89-9.71V499l103.45,56.95v54.32a12.34,12.34,0,0,1-5.89,9.75L1138,626.51Z"/><path class="cls-13" d="M997.74,597.1V605c0,4.41,3.07,8.78,9.15,12.16l59.24,32.6a46.2,46.2,0,0,0,21.11,5v-7.81a46.33,46.33,0,0,1-21.11-5l-59.24-32.63C1000.81,605.92,997.74,601.51,997.74,597.1Z"/><path class="cls-5" d="M1321.78,685.31a16.51,16.51,0,0,1-14.28-.24L907.42,465.21a15.31,15.31,0,0,1-7.23-12.16V119.34c-.3-7.28,5.65-13.41,13.29-13.7a14.32,14.32,0,0,1,7.92,2l400.05,220a15.29,15.29,0,0,1,7.23,12.15V673.4A14.84,14.84,0,0,1,1321.78,685.31Z"/><path class="cls-4" d="M1307.5,685,907.42,465.21a15.31,15.31,0,0,1-7.23-12.16V119.3c0-4.47,3.29-6.26,7.23-4l400.08,220a15.44,15.44,0,0,1,7.23,12.16V681C1314.88,685.55,1311.55,687.27,1307.5,685Z"/><path class="cls-12" d="M1308.59,686.45a14.11,14.11,0,0,0,18.56-5.61,12.64,12.64,0,0,0,1.53-6.58V636.73l-13.8,7.51v37.52C1314.88,686,1312.16,687.79,1308.59,686.45Z"/><path class="cls-14" d="M1314.88,644.24v37.52c0,4.48-3.33,6.3-7.23,4.07L907.42,465.9a15.31,15.31,0,0,1-7.23-12.16V416.22Z"/><path class="cls-6" d="M1301,615.8v-264a9.28,9.28,0,0,0-4.41-7.3l-378.33-208c-2.42-1.34-4.4-.27-4.4,2.41v264a9.16,9.16,0,0,0,4.4,7.3l378.33,208.05C1298.94,619.58,1301,618.48,1301,615.8Z"/><path class="cls-15" d="M1301,615.8v-264a9.28,9.28,0,0,0-4.41-7.3l-378.33-208c-2.42-1.34-4.4-.27-4.4,2.41v264a9.16,9.16,0,0,0,4.4,7.3l378.33,208.05C1298.94,619.58,1301,618.48,1301,615.8Z"/><path class="cls-5" d="M1107.37,544.63a14.47,14.47,0,0,1,6.9,11.4c0,4.2-3.11,5.92-6.9,3.82a14.46,14.46,0,0,1-6.94-11.43C1100.54,544.39,1103.75,542.53,1107.37,544.63Z"/><path class="cls-11" d="M1312.71,340.51a14.69,14.69,0,0,1,2.17,6.88V644.24l13.8-7.61V339.85a13.91,13.91,0,0,0-2.17-6.88Z"/></g></g><g id="freepik--Window--inject-7"><g id="freepik--window--inject-7-2" data-name="freepik--window--inject-7"><path class="cls-5" d="M965.5,50.45a3.21,3.21,0,0,1,0-.62h0a2.91,2.91,0,0,1,0-.59,2.5,2.5,0,0,1,.4-.86,1.08,1.08,0,0,1,.21-.34l.22-.25a3.27,3.27,0,0,1,.47-.44h0a3.42,3.42,0,0,1,.62-.35,5.38,5.38,0,0,1,4.73.59l466.92,256.63a14.85,14.85,0,0,1,7,11.67V637.76h0v1.48a4.56,4.56,0,0,1-2.53,4l-.33.21-.36.2h-.61a3.47,3.47,0,0,1-.91,0,4.78,4.78,0,0,1-2.31-.65h-.18l-6.22-3.61-460.16-253a14.77,14.77,0,0,1-7-11.63V51.17C965.46,51,965.5,50.72,965.5,50.45Z"/><path class="cls-6" d="M967.78,46.83a5.38,5.38,0,0,1,4.73.59l466.92,256.63a14.84,14.84,0,0,1,7,11.67v22.1l9-5V311a14.76,14.76,0,0,0-7-11.64L981.51,42.56a5.12,5.12,0,0,0-5.09-.41C975.15,42.91,969.3,46.07,967.78,46.83Z"/><path class="cls-6" d="M965.46,51.24c0-4.24,3.18-6,7-3.82l466.92,256.66a14.68,14.68,0,0,1,7,11.64v22.1l-481-264.51Z"/><g class="cls-16"><path class="cls-14" d="M972.51,47.42l466.92,256.66a14.08,14.08,0,0,1,5,5l9-4.92a13.83,13.83,0,0,0-4.92-4.93L981.55,42.56a5.2,5.2,0,0,0-5.13-.41c-1.27.76-7.23,3.92-8.61,4.68A5.19,5.19,0,0,1,972.51,47.42Z"/></g><path class="cls-10" d="M1455.52,332.66V310.83a13.3,13.3,0,0,0-2.14-6.89l-9,4.93a12.74,12.74,0,0,1,2.14,6.68v22.27Z"/><path class="cls-5" d="M1430.58,308.69a9.85,9.85,0,0,1,4,8.06c0,3.2-1.77,4.86-4,3.65a9.84,9.84,0,0,1-4-8.06C1426.6,309.14,1428.37,307.49,1430.58,308.69Z"/><path class="cls-5" d="M1416.23,300.81a9.77,9.77,0,0,1,4,8c0,3.24-1.77,4.86-4,3.65a9.75,9.75,0,0,1-4-8C1412.25,301.22,1414,299.61,1416.23,300.81Z"/><path class="cls-5" d="M1401.88,293.06a9.85,9.85,0,0,1,4,8.06c0,3.2-1.77,4.85-4,3.65a9.89,9.89,0,0,1-4-8.06C1397.9,293.31,1399.67,291.69,1401.88,293.06Z"/><path class="cls-17" d="M1444,643.17l.36-.21,7.45-4.1a7.07,7.07,0,0,0,3.61-5.19,7.85,7.85,0,0,0,0-1V332.62l-9,5.06V639.11a4.38,4.38,0,0,1-2.2,3.82h-.22Z"/></g><g id="freepik--Code--inject-7"><path class="cls-6" d="M1108.49,187.85l98.42,54a5.08,5.08,0,0,1,2.53,4c0,1.44-1.12,2-2.53,1.2l-98.42-54a5.1,5.1,0,0,1-2.5-3.95C1106,187.61,1107.12,187.09,1108.49,187.85Z"/><path class="cls-3" d="M1146.12,291.27l37.15,20.45a5.08,5.08,0,0,1,2.5,4c0,1.42-1.12,2-2.5,1.21l-37.15-20.38a5,5,0,0,1-2.53-4C1143.51,291.07,1144.71,290.52,1146.12,291.27Z"/><path class="cls-3" d="M1146.12,312l37.15,20.41a5.17,5.17,0,0,1,2.5,4c0,1.41-1.12,2-2.5,1.2l-37.15-20.42a5,5,0,0,1-2.53-4C1143.51,311.72,1144.71,311.21,1146.12,312Z"/><path class="cls-6" d="M1216.63,247.21l197.1,108.1a5.16,5.16,0,0,1,2.5,4c0,1.42-1.12,2-2.5,1.21L1216.63,252.4a5.17,5.17,0,0,1-2.49-4C1214.14,247,1215.26,246.45,1216.63,247.21Z"/><path class="cls-6" d="M1146.91,436.32l60,33.09a5,5,0,0,1,2.53,4c0,1.41-1.12,2-2.53,1.2l-60-33.08a5.07,5.07,0,0,1-2.49-4C1144.42,436.11,1145.54,435.56,1146.91,436.32Z"/><path class="cls-6" d="M1216.63,474.74,1413.73,583a5.11,5.11,0,0,1,2.5,4c0,1.44-1.12,2-2.5,1.2l-197.1-108.24a5.12,5.12,0,0,1-2.49-4C1214.14,474.5,1215.26,474,1216.63,474.74Z"/><path class="cls-6" d="M1108.49,208.58,1158,235.71a5.1,5.1,0,0,1,2.5,4c0,1.44-1.13,2-2.5,1.2l-49.48-27a5.08,5.08,0,0,1-2.5-4C1106,208.37,1107.12,207.82,1108.49,208.58Z"/><path class="cls-18" d="M1108.49,208.58,1158,235.71a5.1,5.1,0,0,1,2.5,4c0,1.44-1.13,2-2.5,1.2l-49.48-27a5.08,5.08,0,0,1-2.5-4C1106,208.37,1107.12,207.82,1108.49,208.58Z"/><path class="cls-6" d="M1108.49,229.23l23.2,12.74a5.1,5.1,0,0,1,2.5,4c0,1.41-1.12,2-2.5,1.21l-23.2-12.6a5.13,5.13,0,0,1-2.5-4C1106,229,1107.12,228.48,1108.49,229.23Z"/><path class="cls-18" d="M1108.49,229.23l23.2,12.74a5.1,5.1,0,0,1,2.5,4c0,1.41-1.12,2-2.5,1.21l-23.2-12.6a5.13,5.13,0,0,1-2.5-4C1106,229,1107.12,228.48,1108.49,229.23Z"/><path class="cls-6" d="M1108.49,270.58l23.2,12.74a5.16,5.16,0,0,1,2.5,4c0,1.42-1.12,2-2.5,1.21l-23.2-12.74a5.16,5.16,0,0,1-2.5-4C1106,270.38,1107.12,269.82,1108.49,270.58Z"/><path class="cls-18" d="M1108.49,270.58l23.2,12.74a5.16,5.16,0,0,1,2.5,4c0,1.42-1.12,2-2.5,1.21l-23.2-12.74a5.16,5.16,0,0,1-2.5-4C1106,270.38,1107.12,269.82,1108.49,270.58Z"/><path class="cls-6" d="M1108.49,291.27l23.2,12.74a5.1,5.1,0,0,1,2.5,4c0,1.45-1.12,2-2.5,1.21l-23.2-12.74a5.08,5.08,0,0,1-2.5-4C1106,291.07,1107.12,290.52,1108.49,291.27Z"/><path class="cls-18" d="M1108.49,291.27l23.2,12.74a5.1,5.1,0,0,1,2.5,4c0,1.45-1.12,2-2.5,1.21l-23.2-12.74a5.08,5.08,0,0,1-2.5-4C1106,291.07,1107.12,290.52,1108.49,291.27Z"/><path class="cls-6" d="M1167.8,241l29.71,16.42a5.06,5.06,0,0,1,2.53,4c0,1.45-1.12,2-2.53,1.21l-29.71-16.39a5.13,5.13,0,0,1-2.53-4C1165.2,240.84,1166.39,240.28,1167.8,241Z"/><path class="cls-18" d="M1167.8,241l29.71,16.42a5.06,5.06,0,0,1,2.53,4c0,1.45-1.12,2-2.53,1.21l-29.71-16.39a5.13,5.13,0,0,1-2.53-4C1165.2,240.84,1166.39,240.28,1167.8,241Z"/><path class="cls-14" d="M1213.78,390.6l200,109.66a5,5,0,0,1,2.5,3.95c0,1.42-1.12,2-2.5,1.21l-200-109.66a5,5,0,0,1-2.53-3.95C1211.25,390.36,1212.37,389.84,1213.78,390.6Z"/><path class="cls-14" d="M1384,463.14l29.75,16.39a5.13,5.13,0,0,1,2.5,4c0,1.44-1.12,2-2.5,1.2L1384,468.31a5.12,5.12,0,0,1-2.49-4C1381.49,462.9,1382.61,462.35,1384,463.14Z"/><path class="cls-14" d="M1174.31,348.15l200,109.65a5.19,5.19,0,0,1,2.5,4c0,1.41-1.12,2-2.5,1.2l-200-109.69a5.13,5.13,0,0,1-2.5-4C1171.81,347.91,1172.94,347.36,1174.31,348.15Z"/><path class="cls-6" d="M1146.12,249.93l49.55,27.12a5,5,0,0,1,2.53,4c0,1.42-1.12,2-2.53,1.21l-49.55-27a5,5,0,0,1-2.53-4C1143.51,249.68,1144.71,249.13,1146.12,249.93Z"/><path class="cls-18" d="M1146.12,249.93l49.55,27.12a5,5,0,0,1,2.53,4c0,1.42-1.12,2-2.53,1.21l-49.55-27a5,5,0,0,1-2.53-4C1143.51,249.68,1144.71,249.13,1146.12,249.93Z"/><path class="cls-6" d="M1205.39,282.39l206.86,114a5.14,5.14,0,0,1,2.49,4c0,1.42-1.12,2-2.49,1.21l-206.86-114a5.09,5.09,0,0,1-2.49-4C1202.9,282.15,1204,281.63,1205.39,282.39Z"/><path class="cls-18" d="M1205.39,282.39l206.86,114a5.14,5.14,0,0,1,2.49,4c0,1.42-1.12,2-2.49,1.21l-206.86-114a5.09,5.09,0,0,1-2.49-4C1202.9,282.15,1204,281.63,1205.39,282.39Z"/><path class="cls-3" d="M1146.12,374.45l267.47,147a5.09,5.09,0,0,1,2.49,4c0,1.44-1.12,2-2.49,1.24l-267.47-147a5.12,5.12,0,0,1-2.61-3.93C1143.51,374.21,1144.71,373.7,1146.12,374.45Z"/><path class="cls-6" d="M1108.49,353.76l23.2,12.74a5.1,5.1,0,0,1,2.5,4c0,1.45-1.12,2-2.5,1.2l-23.2-12.73a5.08,5.08,0,0,1-2.5-4C1106,353.56,1107.12,353,1108.49,353.76Z"/><path class="cls-18" d="M1108.49,353.76l23.2,12.74a5.1,5.1,0,0,1,2.5,4c0,1.45-1.12,2-2.5,1.2l-23.2-12.73a5.08,5.08,0,0,1-2.5-4C1106,353.56,1107.12,353,1108.49,353.76Z"/><path class="cls-3" d="M1146.12,395.11l267.47,147a5.09,5.09,0,0,1,2.49,4c0,1.45-1.12,2-2.49,1.2l-267.47-147a5,5,0,0,1-2.61-3.92C1143.51,394.9,1144.71,394.35,1146.12,395.11Z"/><path class="cls-6" d="M1108.49,374.45l23.2,12.74a5.08,5.08,0,0,1,2.5,4c0,1.41-1.12,2-2.5,1.21l-23.2-12.74a5.13,5.13,0,0,1-2.5-4C1106,374.21,1107.12,373.7,1108.49,374.45Z"/><path class="cls-18" d="M1108.49,374.45l23.2,12.74a5.08,5.08,0,0,1,2.5,4c0,1.41-1.12,2-2.5,1.21l-23.2-12.74a5.13,5.13,0,0,1-2.5-4C1106,374.21,1107.12,373.7,1108.49,374.45Z"/><path class="cls-3" d="M1146.12,415.8l267.47,147a5.09,5.09,0,0,1,2.49,4c0,1.41-1.12,2-2.49,1.21L1146.12,421a5.1,5.1,0,0,1-2.61-4C1143.51,415.56,1144.71,415,1146.12,415.8Z"/><path class="cls-6" d="M1108.49,395.11l23.2,12.74a5.1,5.1,0,0,1,2.5,4c0,1.44-1.12,2-2.5,1.24l-23.2-12.78a5,5,0,0,1-2.5-3.95C1106,394.9,1107.12,394.35,1108.49,395.11Z"/><path class="cls-18" d="M1108.49,395.11l23.2,12.74a5.1,5.1,0,0,1,2.5,4c0,1.44-1.12,2-2.5,1.24l-23.2-12.78a5,5,0,0,1-2.5-3.95C1106,394.9,1107.12,394.35,1108.49,395.11Z"/><g class="cls-19"><path class="cls-14" d="M1072.34,167.09,1086,174.6a5.16,5.16,0,0,1,2.46,4.09v4.79c0,1.48-1.09,2.1-2.46,1.34l-13.63-7.5a5.17,5.17,0,0,1-2.49-4.07v-4.78C1069.85,167,1071,166.37,1072.34,167.09Z"/><path class="cls-14" d="M1072.34,188l13.63,7.5a5.19,5.19,0,0,1,2.46,4.07v4.78c0,1.52-1.09,2.1-2.46,1.38l-13.63-7.51a5.19,5.19,0,0,1-2.49-4.09v-4.79C1069.85,187.85,1071,187.23,1072.34,188Z"/><path class="cls-14" d="M1072.34,208.85l13.63,7.51a5.16,5.16,0,0,1,2.46,4.09v4.79c0,1.48-1.09,2.1-2.46,1.34l-13.63-7.5a5.19,5.19,0,0,1-2.49-4.07v-4.78C1069.85,208.71,1071,208.13,1072.34,208.85Z"/><path class="cls-14" d="M1072.34,229.75l13.63,7.51a5.16,5.16,0,0,1,2.46,4.06v4.78c0,1.52-1.09,2.1-2.46,1.38l-13.63-7.5a5.21,5.21,0,0,1-2.49-4.1v-4.79C1069.85,229.61,1071,229,1072.34,229.75Z"/><path class="cls-14" d="M1072.34,250.61l13.63,7.51a5.16,5.16,0,0,1,2.46,4.1V267c0,1.51-1.09,2.13-2.46,1.37l-13.63-7.5a5.19,5.19,0,0,1-2.49-4.06V252C1069.85,250.48,1071,249.86,1072.34,250.61Z"/><path class="cls-14" d="M1072.34,271.51,1086,279a5.09,5.09,0,0,1,2.46,4.06v4.79c0,1.51-1.09,2.1-2.46,1.37l-13.63-7.5a5.19,5.19,0,0,1-2.49-4.1v-4.79C1069.85,271.37,1071,270.75,1072.34,271.51Z"/><path class="cls-14" d="M1072.34,292.38l13.63,7.5a5.18,5.18,0,0,1,2.46,4.1v4.75c0,1.51-1.09,2.13-2.46,1.38l-13.63-7.51a5.19,5.19,0,0,1-2.49-4.06v-4.79C1069.85,292.24,1071,291.62,1072.34,292.38Z"/><path class="cls-14" d="M1072.34,313.27l13.63,7.51a5.11,5.11,0,0,1,2.46,4.06v4.79c0,1.51-1.09,2.1-2.46,1.34l-13.63-7.47a5.19,5.19,0,0,1-2.49-4.1v-4.78C1069.85,313.14,1071,312.52,1072.34,313.27Z"/><path class="cls-14" d="M1072.34,334.14l13.63,7.5a5.19,5.19,0,0,1,2.46,4.1v4.75c0,1.52-1.09,2.14-2.46,1.38l-13.63-7.51a5.19,5.19,0,0,1-2.49-4.09v-4.76C1069.85,334,1071,333.38,1072.34,334.14Z"/><path class="cls-14" d="M1072.34,355l13.63,7.5a5.07,5.07,0,0,1,2.46,4.06v4.79c0,1.51-1.09,2.1-2.46,1.34l-13.63-7.37a5.18,5.18,0,0,1-2.49-4.09v-4.79A1.55,1.55,0,0,1,1072.34,355Z"/><path class="cls-14" d="M1072.34,375.9l13.63,7.5a5.19,5.19,0,0,1,2.46,4.1v4.75c0,1.52-1.09,2.14-2.46,1.38L1072.34,386a5.19,5.19,0,0,1-2.49-4.1v-4.75C1069.85,375.69,1071,375.14,1072.34,375.9Z"/><path class="cls-14" d="M1072.34,396.8l13.63,7.47a5.16,5.16,0,0,1,2.46,4.1v4.78c0,1.52-1.09,2.1-2.46,1.34L1072.34,407a5.19,5.19,0,0,1-2.49-4.09v-4.79C1069.85,396.66,1071,396,1072.34,396.8Z"/></g><path class="cls-4" d="M981.87,99.27l73.74,40.55a10.23,10.23,0,0,1,5,8.16V229.1c0,3-2.2,4.23-5,2.72l-73.74-40.56a10.26,10.26,0,0,1-5-8.16V102C976.92,99,979.13,97.79,981.87,99.27Z"/><path class="cls-6" d="M988.71,179.66l6.79,3.75a5.15,5.15,0,0,1,2.53,4c0,1.44-1.16,2-2.53,1.2l-6.79-3.75a5.06,5.06,0,0,1-2.5-4C986.21,179.45,987.33,178.9,988.71,179.66Z"/><path class="cls-18" d="M988.71,179.66l6.79,3.75a5.15,5.15,0,0,1,2.53,4c0,1.44-1.16,2-2.53,1.2l-6.79-3.75a5.06,5.06,0,0,1-2.5-4C986.21,179.45,987.33,178.9,988.71,179.66Z"/><path class="cls-6" d="M988.71,113.24,995.5,117a5.13,5.13,0,0,1,2.53,4c0,1.44-1.16,2-2.53,1.2l-6.79-3.72a5.16,5.16,0,0,1-2.5-4C986.21,113,987.33,112.49,988.71,113.24Z"/><path class="cls-18" d="M988.71,113.24,995.5,117a5.13,5.13,0,0,1,2.53,4c0,1.44-1.16,2-2.53,1.2l-6.79-3.72a5.16,5.16,0,0,1-2.5-4C986.21,113,987.33,112.49,988.71,113.24Z"/><path class="cls-6" d="M998.25,131.77l6.79,3.71a5.1,5.1,0,0,1,2.5,4c0,1.45-1.12,2-2.5,1.21l-6.79-3.72a5.1,5.1,0,0,1-2.5-4C995.75,131.53,996.87,131,998.25,131.77Z"/><path class="cls-18" d="M998.25,131.77l6.79,3.71a5.1,5.1,0,0,1,2.5,4c0,1.45-1.12,2-2.5,1.21l-6.79-3.72a5.1,5.1,0,0,1-2.5-4C995.75,131.53,996.87,131,998.25,131.77Z"/><path class="cls-6" d="M998.25,145l6.79,3.75a5.1,5.1,0,0,1,2.5,4c0,1.45-1.12,2-2.5,1.21l-6.79-3.72a5.1,5.1,0,0,1-2.5-4C995.75,144.78,996.87,144.23,998.25,145Z"/><path class="cls-18" d="M998.25,145l6.79,3.75a5.1,5.1,0,0,1,2.5,4c0,1.45-1.12,2-2.5,1.21l-6.79-3.72a5.1,5.1,0,0,1-2.5-4C995.75,144.78,996.87,144.23,998.25,145Z"/><path class="cls-6" d="M988.71,153.08l6.79,3.75a5.15,5.15,0,0,1,2.53,4c0,1.45-1.16,2-2.53,1.2l-6.79-3.71a5.15,5.15,0,0,1-2.5-4C986.21,152.87,987.33,152.32,988.71,153.08Z"/><path class="cls-18" d="M988.71,153.08l6.79,3.75a5.15,5.15,0,0,1,2.53,4c0,1.45-1.16,2-2.53,1.2l-6.79-3.71a5.15,5.15,0,0,1-2.5-4C986.21,152.87,987.33,152.32,988.71,153.08Z"/><path class="cls-6" d="M998.25,171.6l6.79,3.75a5.08,5.08,0,0,1,2.5,4c0,1.41-1.12,2-2.5,1.21l-6.79-3.76a5,5,0,0,1-2.5-4C995.75,171.39,996.87,170.84,998.25,171.6Z"/><path class="cls-18" d="M998.25,171.6l6.79,3.75a5.08,5.08,0,0,1,2.5,4c0,1.41-1.12,2-2.5,1.21l-6.79-3.76a5,5,0,0,1-2.5-4C995.75,171.39,996.87,170.84,998.25,171.6Z"/><path class="cls-6" d="M1007.32,123.47l41.42,22.82a5,5,0,0,1,2.53,4c0,1.42-1.12,2-2.53,1.21l-41.42-22.79a5.08,5.08,0,0,1-2.53-4C1004.79,123.26,1005.91,122.71,1007.32,123.47Z"/><path class="cls-20" d="M1007.32,123.47l41.42,22.82a5,5,0,0,1,2.53,4c0,1.42-1.12,2-2.53,1.21l-41.42-22.79a5.08,5.08,0,0,1-2.53-4C1004.79,123.26,1005.91,122.71,1007.32,123.47Z"/><path class="cls-6" d="M1007.32,189.78l41.42,22.82a5,5,0,0,1,2.53,4c0,1.42-1.12,2-2.53,1.21L1007.32,195a5.15,5.15,0,0,1-2.53-4C1004.79,189.78,1005.91,189.12,1007.32,189.78Z"/><path class="cls-20" d="M1007.32,189.78l41.42,22.82a5,5,0,0,1,2.53,4c0,1.42-1.12,2-2.53,1.21L1007.32,195a5.15,5.15,0,0,1-2.53-4C1004.79,189.78,1005.91,189.12,1007.32,189.78Z"/><path class="cls-6" d="M1017,142l31.88,17.56a5.07,5.07,0,0,1,2.53,4c0,1.42-1.12,2-2.53,1.21L1017,147.16a5.06,5.06,0,0,1-2.53-4C1014.33,141.75,1015.45,141.23,1017,142Z"/><path class="cls-20" d="M1017,142l31.88,17.56a5.07,5.07,0,0,1,2.53,4c0,1.42-1.12,2-2.53,1.21L1017,147.16a5.06,5.06,0,0,1-2.53-4C1014.33,141.75,1015.45,141.23,1017,142Z"/><path class="cls-6" d="M1017,155.35l31.88,17.59a5.08,5.08,0,0,1,2.53,4c0,1.45-1.12,2-2.53,1.21L1017,160.45a5.06,5.06,0,0,1-2.53-4C1014.33,155,1015.45,154.49,1017,155.35Z"/><path class="cls-20" d="M1017,155.35l31.88,17.59a5.08,5.08,0,0,1,2.53,4c0,1.45-1.12,2-2.53,1.21L1017,160.45a5.06,5.06,0,0,1-2.53-4C1014.33,155,1015.45,154.49,1017,155.35Z"/><path class="cls-6" d="M1007.32,163.34l41.42,22.79a5.08,5.08,0,0,1,2.53,4c0,1.44-1.12,2-2.53,1.2l-41.42-22.79a5.08,5.08,0,0,1-2.53-4C1004.79,163.1,1005.91,162.58,1007.32,163.34Z"/><path class="cls-20" d="M1007.32,163.34l41.42,22.79a5.08,5.08,0,0,1,2.53,4c0,1.44-1.12,2-2.53,1.2l-41.42-22.79a5.08,5.08,0,0,1-2.53-4C1004.79,163.1,1005.91,162.58,1007.32,163.34Z"/><path class="cls-6" d="M1017,181.83l31.88,17.59a5,5,0,0,1,2.53,4c0,1.41-1.12,2-2.53,1.2L1017,187a5,5,0,0,1-2.53-4C1014.33,181.62,1015.45,181.07,1017,181.83Z"/><path class="cls-20" d="M1017,181.83l31.88,17.59a5,5,0,0,1,2.53,4c0,1.41-1.12,2-2.53,1.2L1017,187a5,5,0,0,1-2.53-4C1014.33,181.62,1015.45,181.07,1017,181.83Z"/><path class="cls-4" d="M981.87,206.54l73.74,40.53a10.24,10.24,0,0,1,5,8.12V415.42c0,3-2.2,4.24-5,2.72l-73.74-40.55a10.27,10.27,0,0,1-5-8.16V209.26C976.92,206.24,979.13,205,981.87,206.54Z"/><path class="cls-6" d="M988.71,220.49l6.79,3.72a5.15,5.15,0,0,1,2.53,4c0,1.44-1.16,2-2.53,1.2l-6.8-3.72a5.1,5.1,0,0,1-2.49-4C986.21,220.28,987.33,219.73,988.71,220.49Z"/><path class="cls-18" d="M988.71,220.49l6.79,3.72a5.15,5.15,0,0,1,2.53,4c0,1.44-1.16,2-2.53,1.2l-6.8-3.72a5.1,5.1,0,0,1-2.49-4C986.21,220.28,987.33,219.73,988.71,220.49Z"/><path class="cls-6" d="M998.25,239l6.79,3.72a5.13,5.13,0,0,1,2.5,4c0,1.41-1.12,2-2.5,1.21l-6.79-3.75a5.1,5.1,0,0,1-2.5-4C995.75,238.77,996.87,238.25,998.25,239Z"/><path class="cls-18" d="M998.25,239l6.79,3.72a5.13,5.13,0,0,1,2.5,4c0,1.41-1.12,2-2.5,1.21l-6.79-3.75a5.1,5.1,0,0,1-2.5-4C995.75,238.77,996.87,238.25,998.25,239Z"/><path class="cls-6" d="M998.25,252.27,1005,256a5.1,5.1,0,0,1,2.5,4c0,1.45-1.12,2-2.5,1.21l-6.79-3.72a5.1,5.1,0,0,1-2.5-4C995.75,252,996.87,251.47,998.25,252.27Z"/><path class="cls-18" d="M998.25,252.27,1005,256a5.1,5.1,0,0,1,2.5,4c0,1.45-1.12,2-2.5,1.21l-6.79-3.72a5.1,5.1,0,0,1-2.5-4C995.75,252,996.87,251.47,998.25,252.27Z"/><path class="cls-6" d="M988.71,260.36l6.79,3.72A5.13,5.13,0,0,1,998,268c0,1.45-1.16,2-2.53,1.21l-6.79-3.72a5.1,5.1,0,0,1-2.5-4C986.21,260.12,987.33,259.56,988.71,260.36Z"/><path class="cls-18" d="M988.71,260.36l6.79,3.72A5.13,5.13,0,0,1,998,268c0,1.45-1.16,2-2.53,1.21l-6.79-3.72a5.1,5.1,0,0,1-2.5-4C986.21,260.12,987.33,259.56,988.71,260.36Z"/><path class="cls-6" d="M1007.32,230.75l41.42,22.79a5,5,0,0,1,2.53,4c0,1.41-1.12,2-2.53,1.2l-41.42-22.79a5.07,5.07,0,0,1-2.53-4C1004.79,230.51,1005.91,230,1007.32,230.75Z"/><path class="cls-20" d="M1007.32,230.75l41.42,22.79a5,5,0,0,1,2.53,4c0,1.41-1.12,2-2.53,1.2l-41.42-22.79a5.07,5.07,0,0,1-2.53-4C1004.79,230.51,1005.91,230,1007.32,230.75Z"/><path class="cls-6" d="M1017,249.24l31.88,17.59a5,5,0,0,1,2.53,4c0,1.41-1.12,2-2.53,1.2L1017,254.4a5.06,5.06,0,0,1-2.53-4C1014.33,249,1015.45,248.48,1017,249.24Z"/><path class="cls-20" d="M1017,249.24l31.88,17.59a5,5,0,0,1,2.53,4c0,1.41-1.12,2-2.53,1.2L1017,254.4a5.06,5.06,0,0,1-2.53-4C1014.33,249,1015.45,248.48,1017,249.24Z"/><path class="cls-6" d="M1017,262.53l31.88,17.55a5.08,5.08,0,0,1,2.53,4c0,1.45-1.12,2-2.53,1.24L1017,267.69a5.06,5.06,0,0,1-2.53-4C1014.33,262.28,1015.45,261.73,1017,262.53Z"/><path class="cls-20" d="M1017,262.53l31.88,17.55a5.08,5.08,0,0,1,2.53,4c0,1.45-1.12,2-2.53,1.24L1017,267.69a5.06,5.06,0,0,1-2.53-4C1014.33,262.28,1015.45,261.73,1017,262.53Z"/><path class="cls-6" d="M1007.32,270.58l41.42,22.79a5.08,5.08,0,0,1,2.53,4c0,1.45-1.12,2-2.53,1.21l-41.42-22.69a5.08,5.08,0,0,1-2.53-4C1004.79,270.34,1005.91,269.82,1007.32,270.58Z"/><path class="cls-20" d="M1007.32,270.58l41.42,22.79a5.08,5.08,0,0,1,2.53,4c0,1.45-1.12,2-2.53,1.21l-41.42-22.69a5.08,5.08,0,0,1-2.53-4C1004.79,270.34,1005.91,269.82,1007.32,270.58Z"/><path class="cls-6" d="M998.25,278.91l6.79,3.76a5.09,5.09,0,0,1,2.5,4c0,1.44-1.12,2-2.5,1.2l-6.79-3.72a5.1,5.1,0,0,1-2.5-4C995.75,278.71,996.87,278.16,998.25,278.91Z"/><path class="cls-18" d="M998.25,278.91l6.79,3.76a5.09,5.09,0,0,1,2.5,4c0,1.44-1.12,2-2.5,1.2l-6.79-3.72a5.1,5.1,0,0,1-2.5-4C995.75,278.71,996.87,278.16,998.25,278.91Z"/><path class="cls-6" d="M998.25,292.17l6.79,3.75a5.1,5.1,0,0,1,2.5,4c0,1.41-1.12,2-2.5,1.21l-6.79-3.76a5,5,0,0,1-2.5-4C995.75,292,996.87,291.41,998.25,292.17Z"/><path class="cls-18" d="M998.25,292.17l6.79,3.75a5.1,5.1,0,0,1,2.5,4c0,1.41-1.12,2-2.5,1.21l-6.79-3.76a5,5,0,0,1-2.5-4C995.75,292,996.87,291.41,998.25,292.17Z"/><path class="cls-6" d="M1017,289.14l31.88,17.59a5.08,5.08,0,0,1,2.53,4c0,1.45-1.12,2-2.53,1.21L1017,294.34a5.06,5.06,0,0,1-2.53-4C1014.33,288.93,1015.45,288.38,1017,289.14Z"/><path class="cls-20" d="M1017,289.14l31.88,17.59a5.08,5.08,0,0,1,2.53,4c0,1.45-1.12,2-2.53,1.21L1017,294.34a5.06,5.06,0,0,1-2.53-4C1014.33,288.93,1015.45,288.38,1017,289.14Z"/><path class="cls-6" d="M1017,302.43,1048.89,320a5.08,5.08,0,0,1,2.53,4c0,1.45-1.12,2-2.53,1.21L1017,307.59a5,5,0,0,1-2.53-4C1014.33,302.22,1015.45,301.67,1017,302.43Z"/><path class="cls-20" d="M1017,302.43,1048.89,320a5.08,5.08,0,0,1,2.53,4c0,1.45-1.12,2-2.53,1.21L1017,307.59a5,5,0,0,1-2.53-4C1014.33,302.22,1015.45,301.67,1017,302.43Z"/><path class="cls-6" d="M988.71,326.91l6.79,3.75a5.08,5.08,0,0,1,2.53,4c0,1.41-1.16,2-2.53,1.2l-6.79-3.75a5,5,0,0,1-2.5-4C986.21,326.7,987.33,326.15,988.71,326.91Z"/><path class="cls-18" d="M988.71,326.91l6.79,3.75a5.08,5.08,0,0,1,2.53,4c0,1.41-1.16,2-2.53,1.2l-6.79-3.75a5,5,0,0,1-2.5-4C986.21,326.7,987.33,326.15,988.71,326.91Z"/><path class="cls-6" d="M1007.32,337.13,1048.74,360a5,5,0,0,1,2.53,4c0,1.41-1.12,2-2.53,1.2l-41.42-22.79a5.08,5.08,0,0,1-2.53-4C1004.79,336.93,1005.91,336.38,1007.32,337.13Z"/><path class="cls-20" d="M1007.32,337.13,1048.74,360a5,5,0,0,1,2.53,4c0,1.41-1.12,2-2.53,1.2l-41.42-22.79a5.08,5.08,0,0,1-2.53-4C1004.79,336.93,1005.91,336.38,1007.32,337.13Z"/><path class="cls-6" d="M998.25,345.5l6.79,3.75a5.08,5.08,0,0,1,2.5,4c0,1.41-1.12,2-2.5,1.21l-6.79-3.76a5,5,0,0,1-2.5-4C995.75,345.29,996.87,344.71,998.25,345.5Z"/><path class="cls-18" d="M998.25,345.5l6.79,3.75a5.08,5.08,0,0,1,2.5,4c0,1.41-1.12,2-2.5,1.21l-6.79-3.76a5,5,0,0,1-2.5-4C995.75,345.29,996.87,344.71,998.25,345.5Z"/><path class="cls-6" d="M998.25,358.75l6.79,3.72a5.19,5.19,0,0,1,2.5,4c0,1.41-1.12,2-2.5,1.2l-6.79-3.75a5.1,5.1,0,0,1-2.5-4C995.75,358.48,996.87,358,998.25,358.75Z"/><path class="cls-18" d="M998.25,358.75l6.79,3.72a5.19,5.19,0,0,1,2.5,4c0,1.41-1.12,2-2.5,1.2l-6.79-3.75a5.1,5.1,0,0,1-2.5-4C995.75,358.48,996.87,358,998.25,358.75Z"/><path class="cls-6" d="M1017,355.72l31.88,17.6a5,5,0,0,1,2.53,4c0,1.41-1.12,2-2.53,1.2L1017,360.89a5,5,0,0,1-2.53-4C1014.33,355.52,1015.45,355,1017,355.72Z"/><path class="cls-20" d="M1017,355.72l31.88,17.6a5,5,0,0,1,2.53,4c0,1.41-1.12,2-2.53,1.2L1017,360.89a5,5,0,0,1-2.53-4C1014.33,355.52,1015.45,355,1017,355.72Z"/><path class="cls-6" d="M1017,369l31.88,17.6a5,5,0,0,1,2.53,4c0,1.41-1.12,2-2.53,1.2L1017,374.18a5.06,5.06,0,0,1-2.53-4C1014.33,368.81,1015.45,368.26,1017,369Z"/><path class="cls-20" d="M1017,369l31.88,17.6a5,5,0,0,1,2.53,4c0,1.41-1.12,2-2.53,1.2L1017,374.18a5.06,5.06,0,0,1-2.53-4C1014.33,368.81,1015.45,368.26,1017,369Z"/><path class="cls-6" d="M998.25,305.36l6.79,3.75a5,5,0,0,1,2.5,4c0,1.41-1.12,2-2.5,1.2l-6.79-3.75a5.08,5.08,0,0,1-2.5-4C995.75,305.15,996.87,304.6,998.25,305.36Z"/><path class="cls-18" d="M998.25,305.36l6.79,3.75a5,5,0,0,1,2.5,4c0,1.41-1.12,2-2.5,1.2l-6.79-3.75a5.08,5.08,0,0,1-2.5-4C995.75,305.15,996.87,304.6,998.25,305.36Z"/><path class="cls-6" d="M988.71,313.45l6.79,3.75a5.08,5.08,0,0,1,2.53,4c0,1.41-1.16,2-2.53,1.2l-6.79-3.75a5.06,5.06,0,0,1-2.5-4C986.21,313.24,987.33,312.69,988.71,313.45Z"/><path class="cls-18" d="M988.71,313.45l6.79,3.75a5.08,5.08,0,0,1,2.53,4c0,1.41-1.16,2-2.53,1.2l-6.79-3.75a5.06,5.06,0,0,1-2.5-4C986.21,313.24,987.33,312.69,988.71,313.45Z"/><path class="cls-6" d="M1017,315.61l31.88,17.6a5,5,0,0,1,2.53,4c0,1.41-1.12,2-2.53,1.2L1017,320.78a5,5,0,0,1-2.53-4C1014.33,315.41,1015.45,314.86,1017,315.61Z"/><path class="cls-20" d="M1017,315.61l31.88,17.6a5,5,0,0,1,2.53,4c0,1.41-1.12,2-2.53,1.2L1017,320.78a5,5,0,0,1-2.53-4C1014.33,315.41,1015.45,314.86,1017,315.61Z"/><path class="cls-6" d="M1007.32,323.67l41.42,22.83a5,5,0,0,1,2.53,4c0,1.41-1.12,2-2.53,1.2l-41.42-22.79a5.15,5.15,0,0,1-2.53-4C1004.79,323.46,1005.91,322.91,1007.32,323.67Z"/><path class="cls-20" d="M1007.32,323.67l41.42,22.83a5,5,0,0,1,2.53,4c0,1.41-1.12,2-2.53,1.2l-41.42-22.79a5.15,5.15,0,0,1-2.53-4C1004.79,323.46,1005.91,322.91,1007.32,323.67Z"/><path class="cls-6" d="M988.71,367l6.79,3.75a5.08,5.08,0,0,1,2.53,4c0,1.41-1.16,2-2.53,1.2l-6.79-3.68a5.06,5.06,0,0,1-2.5-4C986.21,366.81,987.33,366.26,988.71,367Z"/><path class="cls-18" d="M988.71,367l6.79,3.75a5.08,5.08,0,0,1,2.53,4c0,1.41-1.16,2-2.53,1.2l-6.79-3.68a5.06,5.06,0,0,1-2.5-4C986.21,366.81,987.33,366.26,988.71,367Z"/><path class="cls-6" d="M1007.32,377.28l41.42,22.79a5,5,0,0,1,2.53,4c0,1.41-1.12,2-2.53,1.2l-41.42-22.65a5.08,5.08,0,0,1-2.53-4C1004.79,377,1005.91,376.48,1007.32,377.28Z"/><path class="cls-20" d="M1007.32,377.28l41.42,22.79a5,5,0,0,1,2.53,4c0,1.41-1.12,2-2.53,1.2l-41.42-22.65a5.08,5.08,0,0,1-2.53-4C1004.79,377,1005.91,376.48,1007.32,377.28Z"/></g></g><g id="freepik--window--inject-7-3" data-name="freepik--window--inject-7"><g class="cls-21"><path class="cls-5" d="M1392.12,431.78v263a12,12,0,0,0,5.74,9.47l158.61,87.17a4,4,0,0,0,1.91.52h1.52l.33-.21.32-.27a4.28,4.28,0,0,0,1-1.45,6.24,6.24,0,0,0,.61-2.75V525.56a12,12,0,0,0-5.74-9.47L1397.86,429a4.39,4.39,0,0,0-3.86-.48l-.47.28h0l-.4.34a.74.74,0,0,0,0,.21.87.87,0,0,0-.18.31,1.76,1.76,0,0,0-.36.69,1.93,1.93,0,0,0,0,.48h0v.51C1392.15,431.33,1392.12,431.57,1392.12,431.78Z"/></g><path class="cls-6" d="M1394,428.16a4.39,4.39,0,0,1,3.86.48l158.61,87.07a12,12,0,0,1,5.74,9.47V543l9.15-5v-17.7a11.88,11.88,0,0,0-5.75-9.43l-158.6-87a4.19,4.19,0,0,0-4.16-.34C1401.8,423.89,1395.23,427.58,1394,428.16Z"/><path class="cls-6" d="M1392.15,431.74c0-3.44,2.57-4.82,5.71-3.1l158.61,87.07a12,12,0,0,1,5.74,9.47V543l-169.88-93.34Z"/><g class="cls-16"><path class="cls-14" d="M1397.86,428.64l158.61,87.07a11.61,11.61,0,0,1,4,4.07l9.1-5a11.35,11.35,0,0,0-4-4L1407,423.89a4.19,4.19,0,0,0-4.16-.34c-1,.62-7.62,4.13-8.82,4.75A4.22,4.22,0,0,1,1397.86,428.64Z"/></g><path class="cls-10" d="M1571.36,538V520.29a11.21,11.21,0,0,0-1.74-5.47l-9.14,5a10.51,10.51,0,0,1,1.73,5.44v17.83Z"/><path class="cls-5" d="M1553.87,523.05a8,8,0,0,1,3.25,6.54c0,2.62-1.45,4-3.25,3a8,8,0,0,1-3.26-6.51C1550.61,523.39,1552,522.08,1553.87,523.05Z"/><path class="cls-5" d="M1542.19,516.64a7.89,7.89,0,0,1,3.25,6.51c0,2.65-1.44,4-3.25,3a8.13,8.13,0,0,1-3.22-6.55C1539,516.85,1540.42,515.64,1542.19,516.64Z"/><path class="cls-5" d="M1530.55,510.21a8.07,8.07,0,0,1,3.33,6.64c0,2.62-1.45,4-3.22,3a7.94,7.94,0,0,1-3.25-6.54C1527.3,510.55,1528.74,509.24,1530.55,510.21Z"/><g class="cls-22"><path class="cls-4" d="M1560.12,791.38l.69-.38,1.77-1h0a6.11,6.11,0,0,1,.94-.52h0l1.51-.82,3.08-1.65.72-.38a3.35,3.35,0,0,0,1-.73,3.72,3.72,0,0,0,.75-1.13,6.22,6.22,0,0,0,.69-2.89V538l-9.14,5V786.8a7.54,7.54,0,0,1-.62,2.76,4,4,0,0,1-1,1.44.79.79,0,0,1-.32.28Z"/></g><path class="cls-6" d="M1405.31,479.84a.84.84,0,0,1,.29-.69l4.12-3.44h.18a.6.6,0,0,1,.33.38,1,1,0,0,1,0,.55v2.72a4.69,4.69,0,0,1,0,.75,3.13,3.13,0,0,1-.29.42l-2.21,1.89,2.21,4.3c0,.28.21.52.29.76a5.75,5.75,0,0,1,0,.83v3.13a.26.26,0,0,1-.33,0h0l-.18-.24L1405.6,483a2.22,2.22,0,0,1-.29-1Z"/><path class="cls-6" d="M1420.38,476.05a1.12,1.12,0,0,1,.33-.45h.61l1.52.87a.6.6,0,0,1,.33.37,1,1,0,0,1,0,.55,1,1,0,0,1,0,.25l-7.23,20.93a1,1,0,0,1-.29.45H1415l-1.48-.83a.67.67,0,0,1-.32-.38,1,1,0,0,1,0-.55V497Z"/><path class="cls-6" d="M1431.33,496.19a.88.88,0,0,1-.28.73l-4.13,3.44a.26.26,0,0,1-.21,0h0a.72.72,0,0,1-.33-.38,1,1,0,0,1,0-.55v-2.72a3.22,3.22,0,0,1,0-.76,1.2,1.2,0,0,1,.29-.45l2.17-1.89-2.17-4.27a7,7,0,0,1-.29-.76,5.61,5.61,0,0,1,0-.82V485a.42.42,0,0,1,0-.38h.33a.72.72,0,0,1,.21.25l4.13,8.12a2.21,2.21,0,0,1,.28,1Z"/><path class="cls-6" d="M1442.79,506.9a1,1,0,0,1,.4.45,1.61,1.61,0,0,1,0,.69v3a.57.57,0,0,1,0,.48.3.3,0,0,1-.4,0l-2-1.06a1.08,1.08,0,0,1-.4-.45,1.61,1.61,0,0,1,0-.69v-2.79a.77.77,0,0,1,0-.52.3.3,0,0,1,.4,0Z"/><path class="cls-6" d="M1449.3,510.48a1.09,1.09,0,0,1,.4.45,1.61,1.61,0,0,1,0,.69v3a.66.66,0,0,1,0,.48.33.33,0,0,1-.4,0l-2-1.06a1.23,1.23,0,0,1-.4-.45,1.68,1.68,0,0,1-.18-.69V510a.7.7,0,0,1,.18-.51.3.3,0,0,1,.4,0Z"/><path class="cls-6" d="M1455.8,514.06a.84.84,0,0,1,.4.45,1.61,1.61,0,0,1,0,.69v3a.66.66,0,0,1,0,.48.33.33,0,0,1-.4,0l-2-1.06a1.32,1.32,0,0,1-.4-.48,1.55,1.55,0,0,1-.18-.66v-3.06a.7.7,0,0,1,.18-.48.33.33,0,0,1,.4,0Z"/><path class="cls-6" d="M1407.05,503.66l95.27,52.4a4.09,4.09,0,0,1,2.06,3.24c0,1.17-.9,1.58-2.06,1l-95.27-52.4a4.15,4.15,0,0,1-2-3.2C1405,503.49,1405.92,503.08,1407.05,503.66Z"/><path class="cls-3" d="M1437.62,570.94l95.28,52.4a4.06,4.06,0,0,1,2.06,3.2c0,1.17-.9,1.62-2.06,1l-95.28-52.4a4.14,4.14,0,0,1-2-3.24C1435.6,570.73,1436.5,570.32,1437.62,570.94Z"/><path class="cls-3" d="M1437.62,604.54l45.65,25.1a4.15,4.15,0,0,1,2,3.23c0,1.17-.91,1.59-2,1l-45.61-25.1a4.06,4.06,0,0,1-2-3.2C1435.6,604.37,1436.5,603.92,1437.62,604.54Z"/><path class="cls-6" d="M1510.24,560.4l38,20.66a4.07,4.07,0,0,1,2.06,3.2c0,1.17-.94,1.62-2.06,1l-38-20.66a4.07,4.07,0,0,1-2-3.2C1508.21,560.23,1509.12,559.78,1510.24,560.4Z"/><path class="cls-6" d="M1407.05,688.61l95.27,52.4a4.08,4.08,0,0,1,2.06,3.21c0,1.17-.9,1.61-2.06,1l-95.27-52.4a4.15,4.15,0,0,1-2-3.23C1405,688.41,1405.92,688,1407.05,688.61Z"/><path class="cls-6" d="M1510.24,745.35l38,20.66a4.18,4.18,0,0,1,2.06,3.24c0,1.13-.94,1.58-2.06,1l-38-20.66a4.15,4.15,0,0,1-2-3.23C1508.21,745.18,1509.12,744.73,1510.24,745.35Z"/><path class="cls-6" d="M1510.24,695l38,20.66a4.1,4.1,0,0,1,2.06,3.2c0,1.17-.94,1.62-2.06,1l-38-20.66a4.15,4.15,0,0,1-2-3.23C1508.21,694.81,1509.12,694.36,1510.24,695Z"/><path class="cls-6" d="M1510.24,711.82l38,20.66a4.16,4.16,0,0,1,2.06,3.2c0,1.17-.94,1.62-2.06,1l-38-20.66a4.15,4.15,0,0,1-2-3.24C1508.21,711.61,1509.12,711.2,1510.24,711.82Z"/><path class="cls-6" d="M1477.85,677.15l21.33,11.74a4.06,4.06,0,0,1,2.06,3.2c0,1.17-.91,1.62-2.06,1l-21.33-11.74a4.14,4.14,0,0,1-2-3.24C1475.83,677,1476.73,676.53,1477.85,677.15Z"/><path class="cls-6" d="M1407.05,520.53l55.59,30.54a4.16,4.16,0,0,1,2,3.2c0,1.17-.9,1.62-2,1l-55.59-30.54a4.15,4.15,0,0,1-2-3.23C1405,520.29,1405.92,519.91,1407.05,520.53Z"/><path class="cls-18" d="M1407.05,520.53l55.59,30.54a4.16,4.16,0,0,1,2,3.2c0,1.17-.9,1.62-2,1l-55.59-30.54a4.15,4.15,0,0,1-2-3.23C1405,520.29,1405.92,519.91,1407.05,520.53Z"/><path class="cls-6" d="M1407.05,537.3l18.86,10.33a4.15,4.15,0,0,1,2,3.2c0,1.17-.91,1.62-2,1l-18.86-10.33a4.15,4.15,0,0,1-2-3.2C1405,537.13,1405.92,536.68,1407.05,537.3Z"/><path class="cls-18" d="M1407.05,537.3l18.86,10.33a4.15,4.15,0,0,1,2,3.2c0,1.17-.91,1.62-2,1l-18.86-10.33a4.15,4.15,0,0,1-2-3.2C1405,537.13,1405.92,536.68,1407.05,537.3Z"/><path class="cls-6" d="M1407.05,554.1l18.86,10.33a4.15,4.15,0,0,1,2,3.24c0,1.13-.91,1.58-2,1l-18.86-10.33a4,4,0,0,1-2-3.2C1405,553.93,1405.92,553.48,1407.05,554.1Z"/><path class="cls-18" d="M1407.05,554.1l18.86,10.33a4.15,4.15,0,0,1,2,3.24c0,1.13-.91,1.58-2,1l-18.86-10.33a4,4,0,0,1-2-3.2C1405,553.93,1405.92,553.48,1407.05,554.1Z"/><path class="cls-6" d="M1407.05,570.94l18.86,10.33a4.07,4.07,0,0,1,2,3.2c0,1.17-.91,1.62-2,1l-18.86-10.33a4.15,4.15,0,0,1-2-3.24C1405,570.73,1405.92,570.32,1407.05,570.94Z"/><path class="cls-18" d="M1407.05,570.94l18.86,10.33a4.15,4.15,0,0,1,2,3.23c0,1.17-.91,1.59-2,1l-18.86-10.33a4.15,4.15,0,0,1-2-3.24C1405,570.73,1405.92,570.32,1407.05,570.94Z"/><path class="cls-23" d="M1437.62,587.74l55.59,30.54a4.15,4.15,0,0,1,2,3.23c0,1.14-.91,1.59-2,1l-55.59-30.54a4.14,4.14,0,0,1-2-3.24C1435.6,587.57,1436.5,587.12,1437.62,587.74Z"/><path class="cls-23" d="M1501.09,622.61,1525.27,636a4,4,0,0,1,2,3.2c0,1.18-.9,1.62-2,1l-24.18-13.36a4.16,4.16,0,0,1-2-3.2C1499.07,622.44,1500,622,1501.09,622.61Z"/><path class="cls-18" d="M1437.62,587.74l55.59,30.54a4.15,4.15,0,0,1,2,3.23c0,1.14-.91,1.59-2,1l-55.59-30.54a4.14,4.14,0,0,1-2-3.24C1435.6,587.57,1436.5,587.12,1437.62,587.74Z"/><path class="cls-18" d="M1501.09,622.61,1525.27,636a4,4,0,0,1,2,3.2c0,1.18-.9,1.62-2,1l-24.18-13.36a4.16,4.16,0,0,1-2-3.2C1499.07,622.44,1500,622,1501.09,622.61Z"/><path class="cls-6" d="M1407.05,587.74l18.86,10.33a4.15,4.15,0,0,1,2,3.2c0,1.17-.91,1.62-2,1l-18.86-10.33a4.15,4.15,0,0,1-2-3.2C1405,587.57,1405.92,587.12,1407.05,587.74Z"/><path class="cls-18" d="M1407.05,587.74l18.86,10.33a4.15,4.15,0,0,1,2,3.2c0,1.17-.91,1.62-2,1l-18.86-10.33a4.15,4.15,0,0,1-2-3.2C1405,587.57,1405.92,587.12,1407.05,587.74Z"/><path class="cls-6" d="M1470.52,555.41l24.18,13.32a4.15,4.15,0,0,1,2,3.24c0,1.14-.9,1.58-2,1l-24.18-13.32a4.15,4.15,0,0,1-2-3.24C1468.49,555.24,1469.39,554.72,1470.52,555.41Z"/><path class="cls-18" d="M1470.52,555.41l24.18,13.32a4.15,4.15,0,0,1,2,3.24c0,1.14-.9,1.58-2,1l-24.18-13.32a4.15,4.15,0,0,1-2-3.24C1468.49,555.24,1469.39,554.72,1470.52,555.41Z"/><path class="cls-14" d="M1460.54,633.91l55.59,30.54a4.15,4.15,0,0,1,2.06,3.23c0,1.17-.94,1.59-2.06,1l-55.59-30.57a4.13,4.13,0,0,1-2-3.2C1458.52,633.91,1459.42,633.32,1460.54,633.91Z"/><path class="cls-14" d="M1492.64,668.34l55.7,30.67a4.21,4.21,0,0,1,2.06,3.24c0,1.13-.94,1.58-2.06,1l-55.56-30.54a4.09,4.09,0,0,1-2.06-3.23C1490.5,668.34,1491.48,667.85,1492.64,668.34Z"/><path class="cls-14" d="M1524.05,668.85l24.29,13.26a4.19,4.19,0,0,1,2.06,3.2c0,1.17-.94,1.62-2.06,1L1524.19,673a4.09,4.09,0,0,1-2.06-3.23C1522,668.65,1523,668.34,1524.05,668.85Z"/><path class="cls-3" d="M1524.05,735.44l24.14,13.32a4.18,4.18,0,0,1,2.06,3.24c0,1.13-.94,1.58-2.06,1l-24.14-13.32a4.09,4.09,0,0,1-2.06-3.24C1522,735.26,1523,734.82,1524.05,735.44Z"/><path class="cls-6" d="M1437.62,554.1l55.59,30.57a4.1,4.1,0,0,1,2,3.21c0,1.17-.91,1.61-2,1l-55.59-30.71a4,4,0,0,1-2-3.2C1435.6,553.93,1436.5,553.48,1437.62,554.1Z"/><path class="cls-18" d="M1437.62,554.1l55.59,30.57a4.1,4.1,0,0,1,2,3.21c0,1.17-.91,1.61-2,1l-55.59-30.71a4,4,0,0,1-2-3.2C1435.6,553.93,1436.5,553.48,1437.62,554.1Z"/><path class="cls-6" d="M1501.09,589.15l24.18,13.32a4.16,4.16,0,0,1,2,3.24c0,1.14-.9,1.58-2,1l-24.18-13.32a4.14,4.14,0,0,1-2-3.24C1499.07,588.81,1500,588.39,1501.09,589.15Z"/><path class="cls-18" d="M1501.09,589.15l24.18,13.32a4.16,4.16,0,0,1,2,3.24c0,1.14-.9,1.58-2,1l-24.18-13.32a4.14,4.14,0,0,1-2-3.24C1499.07,588.81,1500,588.39,1501.09,589.15Z"/></g><g id="freepik--Mouse--inject-7"><path class="cls-10" d="M1122.26,781.64l34,18.73a39.16,39.16,0,0,0,37.59-1.89l56.2-39.08c10-6.89,9.44-17.21-1.3-23.31l-17.06-9.43a48.47,48.47,0,0,0-39.5-1.14l-69.37,35.77C1111.78,766.63,1111.49,775.72,1122.26,781.64Z"/><path class="cls-4" d="M1251,742.39l-38.82,29-28.7,21.38a26.55,26.55,0,0,1-9.15,2.1,26,26,0,0,1-13.62-2.72l-30.47-16.77h-.18c-10.14-6.08-13.18-18.83-6.8-28.49.2-.3.4-.59.62-.88l.9-1.2A41,41,0,0,1,1149.33,730l15.44-2.92c25-4.86,45.5-7.2,47.89-5.65l38.2,21.07Z"/><path class="cls-6" d="M1229.28,758.61l2.21-1.65-34.3-18.84,30-8.85-3-1.68-30,8.85-20.46-11.23-3.86.69Z"/><path class="cls-11" d="M1186.89,791h0l27.32-18.8L1251,746.83V742.7a.33.33,0,0,0-.18-.31h-.21c-2.75-.89-18.73,3.69-38,11l-12.79,4.86c-15.54,5.83-25.73,20.14-25.67,36v.62a26.55,26.55,0,0,0,9.15-2.1Z"/></g></g></g><g id="freepik--Plant--inject-7"><g id="freepik--Pot--inject-7"><path class="cls-6" d="M1254.48,1310.46c-37.52-36.87-59.53-186.91-23-216.14h186.14c36.58,29.23,14.46,179.24-22.91,216.11l-1,1c-.4.42-.83.83-1.27,1.21-1.08,1-2.2,2-3.4,2.89l-.9.69c-.9.69-1.81,1.37-2.82,2.06a55.77,55.77,0,0,1-4.84,3c-30.87,17.21-80.89,17.21-111.76,0h0c-1.63-.9-3.25-1.93-4.88-3-.94-.62-1.77-1.27-2.64-1.93l-1.08-.83a39.92,39.92,0,0,1-3.29-2.78c-.51-.45-1-.93-1.48-1.42A8.83,8.83,0,0,1,1254.48,1310.46Z"/><g class="cls-16"><path class="cls-14" d="M1254.48,1310.46c-37.52-36.87-59.53-186.91-23-216.14h186.14c36.58,29.23,14.46,179.24-22.91,216.11l-1,1c-.4.42-.83.83-1.27,1.21-1.08,1-2.2,2-3.4,2.89l-.9.69c-.9.69-1.81,1.37-2.82,2.06a55.77,55.77,0,0,1-4.84,3c-30.87,17.21-80.89,17.21-111.76,0h0c-1.63-.9-3.25-1.93-4.88-3-.94-.62-1.77-1.27-2.64-1.93l-1.08-.83a39.92,39.92,0,0,1-3.29-2.78c-.51-.45-1-.93-1.48-1.42A8.83,8.83,0,0,1,1254.48,1310.46Z"/></g><path class="cls-6" d="M1401.51,1082.55c42.48,23.61,42.48,62,0,85.55s-111.36,23.62-153.83,0-42.47-62,0-85.55S1359,1058.93,1401.51,1082.55Z"/><g class="cls-24"><path class="cls-14" d="M1401.51,1082.55c42.48,23.61,42.48,62,0,85.55s-111.36,23.62-153.83,0-42.47-62,0-85.55S1359,1058.93,1401.51,1082.55Z"/></g><path class="cls-6" d="M1381.09,1093.91c31.2,17.21,31.2,45.48,0,62.83s-81.79,17.21-113,0-31.19-45.48,0-62.83S1349.9,1076.56,1381.09,1093.91Z"/><g class="cls-25"><path d="M1381.09,1093.91c31.2,17.21,31.2,45.48,0,62.83s-81.79,17.21-113,0-31.19-45.48,0-62.83S1349.9,1076.56,1381.09,1093.91Z"/></g><path class="cls-2" d="M1268.1,1123.72c31.2-17.21,81.8-17.21,113,0a51,51,0,0,1,18.65,16.49,51,51,0,0,1-18.65,16.53c-31.19,17.21-81.79,17.21-113,0a51.48,51.48,0,0,1-18.68-16.53A51.45,51.45,0,0,1,1268.1,1123.72Z"/><g id="freepik--Plants--inject-7"><path class="cls-6" d="M1309.35,1048a47.93,47.93,0,0,1-4.74-12.94c-2.1-10.81.72-23.17,9.9-29.85,3.62-2.62,8.43-4.58,10-8.71a13.69,13.69,0,0,0,0-7.13c-1.7-9.22-5-18.73-2.28-27.71a31.68,31.68,0,0,1,18.08-18.46,102,102,0,0,1,26.27-6.54,44.06,44.06,0,0,0,13.92-3.78c5.2-2.79,6.83-7.68,10-12a86.21,86.21,0,0,1,12.79-13c9.47-8,21.33-14.7,34.45-14.15,27.4,1.14,26.6,23.59,18.72,40.6s-10,22.55,7.23,40.28,17.13,39.59-3.29,51.64-33.69,13.77-25.59,37.39c7.23,21,11.68,39-8.71,61.45-13.19,14.53-31.23,24.9-53.78,24.1a94.26,94.26,0,0,1-26.43-5.78c-6.21-2.93-2-7.5-4.12-13.36l-13.51-37.59a270.25,270.25,0,0,0-10.85-29.68C1315,1057.65,1311.91,1052.94,1309.35,1048Z"/><g class="cls-26"><path d="M1309.35,1048a47.93,47.93,0,0,1-4.74-12.94c-2.1-10.81.72-23.17,9.9-29.85,3.62-2.62,8.43-4.58,10-8.71a13.69,13.69,0,0,0,0-7.13c-1.7-9.22-5-18.73-2.28-27.71a31.68,31.68,0,0,1,18.08-18.46,102,102,0,0,1,26.27-6.54,44.06,44.06,0,0,0,13.92-3.78c5.2-2.79,6.83-7.68,10-12a86.21,86.21,0,0,1,12.79-13c9.47-8,21.33-14.7,34.45-14.15,27.4,1.14,26.6,23.59,18.72,40.6s-10,22.55,7.23,40.28,17.13,39.59-3.29,51.64-33.69,13.77-25.59,37.39c7.23,21,11.68,39-8.71,61.45-13.19,14.53-31.23,24.9-53.78,24.1a94.26,94.26,0,0,1-26.43-5.78c-6.21-2.93-2-7.5-4.12-13.36l-13.51-37.59a270.25,270.25,0,0,0-10.85-29.68C1315,1057.65,1311.91,1052.94,1309.35,1048Z"/></g><path class="cls-14" d="M1346.57,1143.45a1.83,1.83,0,0,0,1.34-1.82c-1.15-128.84,73.41-205.75,74.17-206.58a1.93,1.93,0,0,0,0-2.75,2.09,2.09,0,0,0-2.85,0c-.76.76-76.41,78.74-75.26,209.19a2,2,0,0,0,2,1.93h.08Z"/><path class="cls-14" d="M1368.26,1023.54l.44-.18c24.25-14.56,67.51-25.4,68-25.51a1.94,1.94,0,0,0,1.44-2.37,2,2,0,0,0-2.4-1.39h0c-1.81.45-44.32,11.09-69.08,26a1.84,1.84,0,0,0-.68,2.6l0,.05A2,2,0,0,0,1368.26,1023.54Z"/><path class="cls-14" d="M1375.78,1005.74h0a1.94,1.94,0,0,0,1.12-2.55,148.65,148.65,0,0,0-22.37-35.84,2.05,2.05,0,0,0-2.8-.25l-.06,0a1.91,1.91,0,0,0-.22,2.72,146.12,146.12,0,0,1,21.69,34.81,2,2,0,0,0,2.57,1.09Z"/><path class="cls-6" d="M1327.56,1157.22a119.12,119.12,0,0,1-59.38,2.07c-34-6.89-54.91-37.32-54.91-37.32s36.87-14,58.34-15.43a199.86,199.86,0,0,0-64.52,1.31s-19.73-6.88-16-38.7c0,0,18.58-13,61.45-7.91,0,0-21.4-14.57-59-18.87-3,0,1-41.32,4.63-59.74s10.84-15.56,26-14,60.76,11.43,66.51,22,.18,37.67.18,37.67a60.12,60.12,0,0,0,12.51-35.4s17.09,6,26.24,13.77a58.54,58.54,0,0,1,16.34,19.49c-2.14,14.5-9.29,36.63-19.34,49,0,0,22.63-13.94,27.79-39.56a86.76,86.76,0,0,1,18.08,50.44C1372,1118.49,1356.77,1142.56,1327.56,1157.22Z"/><path class="cls-27" d="M1327.56,1157.22a119.12,119.12,0,0,1-59.38,2.07c-34-6.89-54.91-37.32-54.91-37.32s36.87-14,58.34-15.43a199.86,199.86,0,0,0-64.52,1.31s-19.73-6.88-16-38.7c0,0,18.58-13,61.45-7.91,0,0-21.4-14.57-59-18.87-3,0,1-41.32,4.63-59.74s10.84-15.56,26-14,60.76,11.43,66.51,22,.18,37.67.18,37.67a60.12,60.12,0,0,0,12.51-35.4s17.09,6,26.24,13.77a58.54,58.54,0,0,1,16.34,19.49c-2.14,14.5-9.29,36.63-19.34,49,0,0,22.63-13.94,27.79-39.56a86.76,86.76,0,0,1,18.08,50.44C1372,1118.49,1356.77,1142.56,1327.56,1157.22Z"/><path class="cls-14" d="M1332.08,1154.43a1.8,1.8,0,0,1-1.23-1.58c-5.17-61.49-77.38-157.51-109.3-176.79a1.87,1.87,0,0,1-.61-2.58,2,2,0,0,1,2.67-.59c32.53,19.59,105.87,117.06,111.07,179.65a1.84,1.84,0,0,1-1.72,2h0A1.68,1.68,0,0,1,1332.08,1154.43Z"/></g></g></g><g id="freepik--Character--inject-7"><g id="freepik--character--inject-7-2" data-name="freepik--character--inject-7"><path class="cls-28" d="M679,1115.91c0-.69-11.61-40.63-11.61-40.63s3.8,3.69,28-2.41a141.78,141.78,0,0,0,26.35-10.53l6.9,29.19c6.47,11.23,27.87,6.06,51.29,3.45,3.94-.45,8-1.07,12-1.73h.26c12.65-.65,25.3,6.58,12.22,16.87s-34.88,14.15-54.87,17.6C725.53,1132,683.32,1138.73,679,1115.91Z"/><path class="cls-11" d="M847.13,1112.46a22.39,22.39,0,0,1,1.73,12.26c-.43,4.44-12,19.52-32.53,28.78s-45.61,9.85-57.4,13.09-22.62,9.67-36.54,12.91-27.69,5-41.64-3.82c-2.57-3.76-5.38-12.47-4.59-13.33C678.69,1160.08,847.13,1112.46,847.13,1112.46Z"/><path class="cls-6" d="M732.37,1095.53c9,5.88,27.54,1.79,47.6-.38,18.94-2.07,40.23-8.4,53.1-4.13s23.6,18.66,6.21,37.14c-5,5.34-15.65,14.74-24.18,17.67-21.69,7.36-41,8-54.87,11.22-18.07,4.23-28,11.88-44.67,13.77-21.69,2.41-35.35-2.89-39.11-8.4s-7.23-49.89,2.06-49c0,0,3.9,14.36,39.29.42C733.23,1107.71,733,1098.69,732.37,1095.53Z"/><path class="cls-9" d="M732.37,1095.53c9,5.88,27.54,1.79,47.6-.38,18.94-2.07,40.23-8.4,53.1-4.13s23.6,18.66,6.21,37.14c-5,5.34-15.65,14.74-24.18,17.67-21.69,7.36-41,8-54.87,11.22-18.07,4.23-28,11.88-44.67,13.77-21.69,2.41-35.35-2.89-39.11-8.4s-7.23-49.89,2.06-49c0,0,3.9,14.36,39.29.42C733.23,1107.71,733,1098.69,732.37,1095.53Z"/><path class="cls-29" d="M792.37,1119.35s-2-18.73-16.56-23.69a7.94,7.94,0,0,0-8,1s13.48,1.86,18.07,23.86c0,0,.69,1.45,3.61.93C790.34,1121.24,792.51,1120.87,792.37,1119.35Z"/><path class="cls-29" d="M755.39,1098.07s0-.62,3.4-1.2a6.35,6.35,0,0,1,4,.41s10.84,4.48,12.87,24.1c0,0,0,2.34-3.36,3a3,3,0,0,1-3.8-1.7c0-.08,0-.15-.07-.23S766.2,1101.83,755.39,1098.07Z"/><path class="cls-29" d="M743.75,1098.49s.62-1.17,3.15-1.17c3.21,0,4,1.2,4,1.2s7.74,7.54,7.81,23.93c0,0,.32,2.75-3.61,3s-3.62-2.82-3.62-2.82S750.08,1101.79,743.75,1098.49Z"/><path class="cls-4" d="M664.05,844.61c17.71,50.71,64.7,225.34,64.7,225.34s-30.58,26.16-63.76,14.25l-79-217.45Z"/><path class="cls-28" d="M800.64,1172.37c-3.61-5.13-17.2-40.63-17.2-40.63s14.17,7.72,38.57,2.21c12.39-2.82,24-15.63,24-15.63l10.41,34.12c6.14,11.39,26.06,7.64,49.55,5.64,3.94-.34,8-.89,12.07-1.44h.25c12.66-.35,25.31,7.16,11.75,17.21s-35.2,13.36-55.3,16.32C850.74,1193.65,814.2,1191.65,800.64,1172.37Z"/><path class="cls-11" d="M982.89,1171.3a24.06,24.06,0,0,1,1.55,13.22c-.61,4.75-13.45,20.66-35.57,30.06s-49.26,9.43-62,12.6-24.54,9.85-39.58,13-29.86,4.58-44.57-5.13c-2.67-4.13-5.49-13.56-4.55-14.46C800.57,1218.19,982.89,1171.3,982.89,1171.3Z"/><path class="cls-6" d="M860.25,1149.89a38.61,38.61,0,0,0,4.44,2.62,14,14,0,0,0,4.92,1,71.05,71.05,0,0,0,11.85.27c9.91-.44,19.77-1.89,29.68-2.72,20.35-1.72,43.37-8,57.07-3.09s26.21,20.65,7,40a93.77,93.77,0,0,1-25.66,18.55c-22.73,9.06-46.34,7.37-61.45,10.54-19.51,4.1-30.36,12-48.36,13.6-23.31,2-37.84-4-41.71-10-2.17-3.44.22-20.66-2.67-34.26-2.53-11.63-1.88-19.55,2.53-19a21,21,0,0,0,3.39,4.14,16.42,16.42,0,0,0,5.17,3.89,42.88,42.88,0,0,0,8.75,2.79,54.2,54.2,0,0,0,16.23,2.13,8.17,8.17,0,0,0,4.41-1.34,8.67,8.67,0,0,0,2.56-5.24c.37-1.72.76-3.44,1.13-5.16a6.91,6.91,0,0,1,1-2.65,7.1,7.1,0,0,1,2.74-2.1,23.7,23.7,0,0,0,8.9-6.44,19.36,19.36,0,0,0,2.6-8,1.86,1.86,0,0,1,.58-1.3c.65-.49,1.62,0,2.35.37Z"/><path class="cls-9" d="M860.25,1149.89a38.61,38.61,0,0,0,4.44,2.62,14,14,0,0,0,4.92,1,71.05,71.05,0,0,0,11.85.27c9.91-.44,19.77-1.89,29.68-2.72,20.35-1.72,43.37-8,57.07-3.09s26.21,20.65,7,40a93.77,93.77,0,0,1-25.66,18.55c-22.73,9.06-46.34,7.37-61.45,10.54-19.51,4.1-30.36,12-48.36,13.6-23.31,2-37.84-4-41.71-10-2.17-3.44.22-20.66-2.67-34.26-2.53-11.63-1.88-19.55,2.53-19a21,21,0,0,0,3.39,4.14,16.42,16.42,0,0,0,5.17,3.89,42.88,42.88,0,0,0,8.75,2.79,54.2,54.2,0,0,0,16.23,2.13,8.17,8.17,0,0,0,4.41-1.34,8.67,8.67,0,0,0,2.56-5.24c.37-1.72.76-3.44,1.13-5.16a6.91,6.91,0,0,1,1-2.65,7.1,7.1,0,0,1,2.74-2.1,23.7,23.7,0,0,0,8.9-6.44,19.36,19.36,0,0,0,2.6-8,1.86,1.86,0,0,1,.58-1.3c.65-.49,1.62,0,2.35.37Z"/><path class="cls-29" d="M923.75,1177.29s-1.66-20.17-17.13-25.85a8.57,8.57,0,0,0-8.64.86s14.46,2.34,18.58,26.06c0,0,.72,1.58,3.9,1.1C921.51,1179.33,923.86,1179,923.75,1177.29Z"/><path class="cls-29" d="M884.64,1153.57s0-.69,3.62-1.24a6.73,6.73,0,0,1,4.26.55s11.53,5.06,13.16,26.17c0,0,0,2.51-3.61,3.13a3.25,3.25,0,0,1-4.06-2,1.66,1.66,0,0,1-.06-.21S896.17,1157.84,884.64,1153.57Z"/><path class="cls-29" d="M872.14,1153.78s.68-1.24,3.43-1.17c3.44,0,4.19,1.38,4.19,1.38s8.1,8.29,7.74,25.85c0,0,.29,3-4.08,3.2s-3.62-3.13-3.62-3.13S878.86,1157.39,872.14,1153.78Z"/><path class="cls-5" d="M788.72,904.48c13.95,40.87,49.59,157.2,65.85,216.9,0,0-29.24,25.07-66.87,22.86L697,920.25,733.16,899Z"/><path class="cls-5" d="M490.12,1463.64A5.77,5.77,0,0,0,496,1458h0V1098a5.9,5.9,0,0,0-11.79,0v360.09A5.76,5.76,0,0,0,490.12,1463.64Z"/><path class="cls-5" d="M256.23,1332.81a5.87,5.87,0,0,0,5.46-3.45L377.6,1049.87a5.44,5.44,0,0,0-2.6-7.48,6,6,0,0,0-7.86,2.47,6.14,6.14,0,0,0-.38.92L250.74,1325a5.53,5.53,0,0,0,3.29,7.27A6.15,6.15,0,0,0,256.23,1332.81Z"/><path class="cls-5" d="M270.15,1299.1a5.94,5.94,0,0,0,4.26-1.75l215.71-217.42,215.32,216.49a6.09,6.09,0,0,0,8.32-.29,5.41,5.41,0,0,0,.21-7.43L494.39,1067.91a6.09,6.09,0,0,0-4.27-1.75h0a6,6,0,0,0-4.26,1.75l-220,221.72a5.44,5.44,0,0,0,.23,7.94,6.06,6.06,0,0,0,4,1.53Z"/><path class="cls-5" d="M724,1332.81a6.2,6.2,0,0,0,2.17-.42,5.52,5.52,0,0,0,3.28-7.26L613.56,1045.67a5.91,5.91,0,0,0-7.11-4.14,5.61,5.61,0,0,0-4.35,6.77,5.71,5.71,0,0,0,.61,1.47l116,279.49A5.84,5.84,0,0,0,724,1332.81Z"/><path class="cls-6" d="M726.84,974.54C731.06,952,711.76,934.33,675.4,911a876,876,0,0,0-105.29-56.36c-30.43-13.28-61.44-12.05-100.44,6.89C415.45,888,252.8,982,252.8,982s243.32,130.83,290.13,125S706.74,1028.6,716,1003.08,726.84,974.54,726.84,974.54Z"/><g class="cls-30"><path d="M726.84,974.54C731.06,952,711.76,934.33,675.4,911a876,876,0,0,0-105.29-56.36c-30.43-13.28-61.44-12.05-100.44,6.89C415.45,888,252.8,982,252.8,982s243.32,130.83,290.13,125S706.74,1028.6,716,1003.08,726.84,974.54,726.84,974.54Z"/></g><path class="cls-6" d="M519.47,1079.52c34.92,30.12,71.43,4.2,129.18-31.51,65.39-40.38,78.19-73.47,78.19-73.47s0,24.79-4.88,36.39-15.44,24.79-62.57,55.74-81.29,46.45-113,52.2l-25-3.27"/><path class="cls-8" d="M648.65,1048c65.39-40.38,78.19-73.47,78.19-73.47s0,24.79-4.88,36.39-15.44,24.79-62.57,55.74-81.29,46.45-113,52.2l-25-3.27-1.92-36.08C554.35,1109.64,590.9,1083.72,648.65,1048Z"/><path class="cls-6" d="M265.19,1288.81l-18.07,39.32a5.09,5.09,0,0,0-.21,1,4.33,4.33,0,0,0,0,.72,4.89,4.89,0,0,0,2.27,2.62,11.35,11.35,0,0,0,9.69.45,4.22,4.22,0,0,0,2-1.83h0v-.52l16.62-36.87Z"/><path class="cls-6" d="M716,1290.46,731.46,1329a4.1,4.1,0,0,1,0,1v.69a4.6,4.6,0,0,1-2.31,2.41,10.55,10.55,0,0,1-9.33,0,4.09,4.09,0,0,1-1.84-1.79h0v-.55l-14.2-36.11Z"/><path class="cls-6" d="M483.33,1430.24v31.88a3.46,3.46,0,0,0,2,2.62,11,11,0,0,0,9.61,0,3.21,3.21,0,0,0,1.95-2.62v-31.88A15.1,15.1,0,0,0,483.33,1430.24Z"/><path class="cls-4" d="M350.28,839.51c13.84,15.39,140-19.17,173.49-23.51,53.86-6.89,97.6-12.08,116-6.61s26.06,14.36,31.66,35.22c6.62,24.58,10,37.15,10,37.15S592,914.47,521.35,922.35,350.28,839.51,350.28,839.51Z"/><path class="cls-5" d="M326.64,862.07c-14,50.74-26.53,109.75,5.82,142,21.69,21.76,131.24,78.29,201.87,56,69.54-21.93,213.61-123.94,228.07-134s27.58-17.21,26.21-21.62c-19.41-61.42-47.82-66.24-100.45-55.08-64.41,13.49-205.74,68.41-205.74,68.41Z"/><polygon class="cls-28" points="646.59 535.86 598.02 588.15 519.58 552.69 574.41 480.42 646.59 535.86"/><path class="cls-31" d="M706.85,436.49s19.88,27.34,17.74,30.13-16.19,5.54-16.19,5.54Z"/><path class="cls-11" d="M706.7,454.57c-13.13,0-23.78-10.14-23.78-22.66s10.65-22.65,23.78-22.65,23.79,10.14,23.79,22.65S719.83,454.55,706.7,454.57Zm0-41.14c-10.72,0-19.41,8.27-19.41,18.48S696,450.4,706.7,450.4s19.41-8.27,19.41-18.49h0c-.1-10.14-8.75-18.33-19.41-18.35Z"/><path class="cls-28" d="M651.65,360.82c39.08,6.89,50.61,23,55.78,81.77,5.27,61.38-.84,80.87-9.11,89.31-5.6,5.71-37.38,7.43-53.53,3.44-20.21-4.86-66-19.18-87.94-49.65-25.88-35.84-33.65-85-7.23-105.8C586.49,350.73,635.75,358,651.65,360.82Z"/><path class="cls-31" d="M646.59,535.85c16.81,3.45,42.4,1.42,50-2.72a60.59,60.59,0,0,1-28.3-1,95,95,0,0,1-25.91-10.88Z"/><path class="cls-11" d="M714.66,384.89h0C703.81,392.05,690.44,395,677.35,397c1,9.95-2.27,19.8-5.53,29.33-2.24,6.58-10.37,27.27-19.23,15.91-6.39-8.2-12.18-15.67-24.43-13.77C608,431.88,605.86,456.36,619,471s24.87,8.67,24.87,8.67,1.84,26.48-12.83,45.21c0,0-21.87,12.8-52.59,3.16-19.38-6.09-47.35-29.36-57.66-47.54-28.37-50-28.51-97.92,5.9-112.65,3.18-24.1,22.66-35.12,45-40.53,31-7.5,63.29,11.06,93.29-1.2,6.33-2.58,12.15-6.23,18.62-8.47a13.44,13.44,0,0,1,11.17,0,12.83,12.83,0,0,1,4.77,8.13,21.82,21.82,0,0,1-1.2,17.21,56.17,56.17,0,0,1,14.14-5,18.41,18.41,0,0,1,14.24,3.07A17.09,17.09,0,0,1,732.44,353C733.56,365.61,725.5,377.69,714.66,384.89Z"/><path class="cls-11" d="M526.12,376.11l-23.56-12.57a13.83,13.83,0,0,1,18.14-5.74,12.6,12.6,0,0,1,6,17.28C526.54,375.43,526.34,375.77,526.12,376.11Z"/><polygon class="cls-11" points="652.13 440.58 727.67 427.15 728.35 430.64 652.81 444.07 652.13 440.58"/><path class="cls-28" d="M810.47,566.43c-2-3.24-6.54-3.89-10.3-5.13-6.94-2.31-12.36-7.58-19-10.33a39.36,39.36,0,0,0-24.08-1.55,63.42,63.42,0,0,0-8,2.44,103.59,103.59,0,0,0-14.46,6.89c-19.16,10.78-33.54,35.19-52.37,46.37-7,4.17-13.56,8-20,11.75l45.08,38a267.24,267.24,0,0,1,22.19-16.08c11.06-6.27,22.23-6.4,34.66-8.12a179.06,179.06,0,0,0,25.3-6,11.17,11.17,0,0,0,7.48-4.65,7.09,7.09,0,0,0-4.84-8.81,67.38,67.38,0,0,0-13.12-1.72c-3.25-.48-11.93,1.34-13.84-1.76-1-1.65.25-3.65,1.48-5.13,7.81-9.26,17.67-19.18,30.14-22a27.07,27.07,0,0,0,10.85-4.17A8,8,0,0,0,810.47,566.43Z"/><path class="cls-6" d="M541.59,523.74c-47.74-24.83-91.23-8.89-106.88,23-14.2,28.88-44,140.64-44,140.64C405,713.09,541.59,523.74,541.59,523.74Z"/><path class="cls-6" d="M534.44,532.69l7.23-9c-53.93-24.37-102.19,7.64-144.58,70.65C351.26,662.24,327.22,759.61,327,862.58c0,0,9.15,46.24,70.45,69.34,65.06,24.55,155.82,14.15,184.12-50.09,0,0,.58-64.14,21-95.75,13.26-20.45,44.17-65.86,67.15-98.46,20-28.37,35.61-93-6.21-116.55a363,363,0,0,0-34-16.52C591.29,566.53,529.52,547.08,534.44,532.69Z"/><path class="cls-32" d="M534.58,532.93l7-9.23c-53.92-24.37-102.18,7.64-144.58,70.65-45.83,67.89-69.86,165.26-70.08,268.23,0,0,9.14,46.24,70.45,69.34,65.06,24.55,155.82,14.15,184.12-50.09,0,0,.58-64.14,21-95.75,13.27-20.45,44.17-65.86,67.16-98.46,20-28.37,35.6-93-6.22-116.55a361.62,361.62,0,0,0-34-16.52C591.29,566.53,529.67,547.32,534.58,532.93Z"/><path class="cls-33" d="M687,646.47a99.11,99.11,0,0,0,1.67-37.39h0A199.3,199.3,0,0,1,648,668.34c-21.94,22-49,39.14-69.36,62.48-21.69,24.72-37.05,54.64-55.12,81.63-7.23,10.85-17.14,31.75-30.58,32.61-16.41,1-32.1-18-41-31.19-14.46-20.94-26.53-47.14-44.28-65.42-15.5-16.08-39.5-36.67-60.61-27.34h0c-1.59,5.34-3.07,10.75-4.48,16.19s-2.71,11.08-3.94,16.63v.65q-1.79,8.37-3.36,16.8a6.76,6.76,0,0,1,0,.9q-1.53,8.36-2.71,16.73a516.72,516.72,0,0,0-5.39,73.71s9.15,46.24,70.45,69.34c65.06,24.55,155.82,14.15,184.12-50.09,0,0,.58-64.15,21-95.75,2.06-3.17,4.6-6.89,7.23-11.26h0l.47-.72c2.35-3.44,4.88-7.34,7.63-11.4,0-.24.33-.48.51-.72a.81.81,0,0,1,0-.31c5.85-8.71,12.43-18.35,19.23-28.3l3.07-4.51c6.58-9.57,13.26-19.25,19.62-28.37h0c2.14-3.06,4.23-6.06,6.33-9,.87-1.27,1.77-2.51,2.6-3.75h0c.72-1,1.45-2.1,2.13-3.2l.65-1,1.52-2.55.65-1.17,1.63-3a7.31,7.31,0,0,1,.4-.79c.68-1.35,1.34-2.72,2-4.13v-.42c.57-1.31,1.15-2.61,1.69-3.92,0-.35.26-.66.37-1,.5-1.27,1-2.54,1.48-3.82v-.76c.87-2.37,1.66-4.85,2.38-7.33h0c.73-2.51,1.38-5.06,2-7.61v-.31Z"/><path class="cls-28" d="M937.09,709a97.17,97.17,0,0,1-11.2,11c-16.49,14.22-35.75,21.07-58.16,34.91-18.07,11.19-46,27.54-69.54,41.49a360.12,360.12,0,0,1-75.91,33.32c-21.69,6.13-34.08,6.37-47-27C669,786.39,663.94,769.59,658.45,753q-12.18-37.14-24-74.4c-11.82-37.25-28.92-68.27,36.14-102.56,28.31,15.42,39.08,21.65,48,54,10.63,38.66,27.83,114.95,27.83,114.95a582.67,582.67,0,0,0,67.19-27.26c8.24-3.89,18.4-6.61,24.29-13.6a103.75,103.75,0,0,0,10.34-15.36c2.78-4.75,4.77-9.91,7.84-14.46a130.54,130.54,0,0,1,21.37-22.41,8.88,8.88,0,0,1,5.16-2.93,6.06,6.06,0,0,1,5.24,3c2.39,4,.19,7.89-1,12-1.41,4.65-2.82,9.3-4.2,13.77A125.21,125.21,0,0,0,924,640.79a20.29,20.29,0,0,1,3.25-3.92,6.48,6.48,0,0,1,4.85-1.69c4.34.52,8.64,7.2,8.85,11a59.9,59.9,0,0,0,.33,11.67c1,3.44,3.61,6.54,4.73,10a55.66,55.66,0,0,1,2.46,11.16,36.76,36.76,0,0,1-6.58,23.37A53.57,53.57,0,0,1,937.09,709Z"/><path class="cls-6" d="M666.69,573.14c24.76,9.54,42.62,20.31,53.89,56.33s23.57,93.95,23.57,93.95.22,12.09-29.86,29a77.2,77.2,0,0,1-58.23,7.47l-22.69-69.54S593.1,597.17,666.69,573.14Z"/><path class="cls-6" d="M521.39,1115.6c-19.88-1-35.46-14.88-82.74-33.64-87.32-34.67-152.82-62.45-177.79-106S218.24,806.67,224.5,752.2a67.08,67.08,0,0,1,4.26-18l-6.14-.86,15.9-12.91h0c16.34-12.67,42.87-1.38,62.89,9C358.59,759,403.3,787.94,438.76,891.81c26.57,78.19,44.1,149.53,80.82,187.67"/><path class="cls-34" d="M228.76,734.16l-6.14-.86,15.9-12.91h0c16.34-12.67,42.87-1.38,62.89,9C358.59,759,403.3,787.94,438.76,891.81c26.57,78.19,44.1,149.53,80.82,187.67l1.92,36.08c-19.88-1-35.46-14.87-82.74-33.63-87.43-34.64-152.93-62.42-177.9-105.94S218.24,806.67,224.5,752.2A68.72,68.72,0,0,1,228.76,734.16Z"/><path class="cls-6" d="M284.86,742.84c57.14,29.61,101.85,58.53,137.35,162.4s54.68,195.83,124.34,213.63c0,0-31.49,12-128-27-30.73-12.36-68-34.91-92.46-48-48-25.65-77.06-46.65-81.65-54.54-25.3-43.34-42.62-169.32-36.4-223.78S256.19,728,284.86,742.84Z"/></g></g><g id="freepik--speech-bubble--inject-7"><g id="freepik--speech-bubble--inject-7-2" data-name="freepik--speech-bubble--inject-7"><path class="cls-6" d="M606.18,281.67,590.5,253.4l12.68-34.94V197.08l-38.85,21.38v21.38L581,267.38a2.18,2.18,0,0,0,1.15,1h0Z"/><path class="cls-35" d="M606.18,281.67,590.5,253.4l12.68-34.94V197.08l-38.85,21.38v21.38L581,267.38a2.18,2.18,0,0,0,1.15,1h0Z"/><path class="cls-6" d="M698.93,27.1A24.35,24.35,0,0,0,687.26,7.86l-9.47-5.2a26.86,26.86,0,0,0-23.32,0L509,82.84a24.35,24.35,0,0,0-11.64,19.25V254.64A24.33,24.33,0,0,0,509,273.85l9.51,5.24a26.91,26.91,0,0,0,23.31,0l46.81-25.76,16.7,27.55a2.52,2.52,0,0,0,3.34.9,2.38,2.38,0,0,0,1.14-1.32L627.44,232l59.93-33.05a24.37,24.37,0,0,0,11.56-19.28Z"/><path class="cls-35" d="M497.35,254.64A24.33,24.33,0,0,0,509,273.85l9.51,5.24a27.23,27.23,0,0,0,21.32.89c-5.49,2-9.68-1-9.68-7.3V120.13a22,22,0,0,1,3.43-10.95l-32.82-18a22,22,0,0,0-3.4,11Z"/><path class="cls-15" d="M698.64,23.94c-1.33-4.72-5.85-6.2-11.24-3.28L541.81,100.88a22.43,22.43,0,0,0-8.2,8.3l-32.82-18a23.09,23.09,0,0,1,8.2-8.26L654.55,2.66a26.84,26.84,0,0,1,23.31,0l9.54,5.23A24.33,24.33,0,0,1,698.64,23.94Z"/><g id="freepik----inject-7"><path class="cls-14" d="M551.57,180a7.86,7.86,0,0,1,.58-3.17,23.58,23.58,0,0,1,1.7-3l31.66-48.71a2.19,2.19,0,0,1,.51-.59l.36-.24a.89.89,0,0,1,1.15,0,1.9,1.9,0,0,1,.51,1.48v18.8a7.7,7.7,0,0,1-.94,3.92,23.51,23.51,0,0,1-1.59,2.58L569.17,174.8,585.51,182a7.15,7.15,0,0,1,1.59.73c.61.37.94,1.34.94,2.85V198.9a4.25,4.25,0,0,1-.51,2,2.91,2.91,0,0,1-1.15,1.38H586a.89.89,0,0,1-.51,0L553.85,188.5a4.14,4.14,0,0,1-1.7-1.1,3.85,3.85,0,0,1-.58-2.51Z"/><path class="cls-14" d="M620.53,104.74a18.72,18.72,0,0,1,1.2-3A5.58,5.58,0,0,1,624,99.33l10.59-6a1,1,0,0,1,1.23,0,2,2,0,0,1,.51,1.51,5.43,5.43,0,0,1,0,1.14L609.62,204.62a14,14,0,0,1-1.12,2.92,5.61,5.61,0,0,1-2.35,2.45l-10.38,5.71a1,1,0,0,1-1.22,0,1.85,1.85,0,0,1-.51-1.51,4.05,4.05,0,0,1,0-1.1Z"/><path class="cls-14" d="M678.69,122.3a7.53,7.53,0,0,1-.58,3.17,23.58,23.58,0,0,1-1.7,3l-31.7,48.75a5.17,5.17,0,0,1-.5.55l-.36.27a.94.94,0,0,1-1.2,0,1.83,1.83,0,0,1-.47-1.48V157.66a7.46,7.46,0,0,1,.91-3.86c.61-1,1.16-1.86,1.62-2.51l13.85-20.38-13.85-5a5.94,5.94,0,0,1-1.62-.79c-.62-.42-.91-1.38-.91-2.93v-18.8a4.45,4.45,0,0,1,.47-2,3.32,3.32,0,0,1,1.2-1.35h.86l31.67,13.77a3,3,0,0,1,2.27,3.45Z"/></g></g></g><g id="freepik--text-box--inject-7"><g id="freepik----inject-7-2" data-name="freepik----inject-7"><g id="freepik--speech-bubble--inject-7-3" data-name="freepik--speech-bubble--inject-7"><g id="freepik--speach-bubble--inject-7"><path class="cls-11" d="M256.16,8,61.37,114.9a10,10,0,0,0-4.84,7.95V226.44a10,10,0,0,0,4.84,8.1L80.6,244.86a11.34,11.34,0,0,0,9.69,0L285.07,138.14a10.24,10.24,0,0,0,4.85-8V26.31a9.91,9.91,0,0,0-4.85-7.92L265.85,8.06A11.34,11.34,0,0,0,256.16,8Z"/><path class="cls-5" d="M289.85,25.48c-.37-2.34-2.35-3.16-4.78-1.85L90.33,130.53A9.61,9.61,0,0,0,86.89,134L58,118.17a9.23,9.23,0,0,1,3.32-3.45L256.09,8a11.31,11.31,0,0,1,9.68,0L285,18.32A10.35,10.35,0,0,1,289.85,25.48Z"/><path class="cls-4" d="M285.07,23.66,90.29,130.39a10.24,10.24,0,0,0-4.81,8v103.7c0,2.92,2.17,4.13,4.81,2.65L285.07,138a10.24,10.24,0,0,0,4.85-8V26.31C289.92,23.38,287.75,22.18,285.07,23.66Z"/></g></g></g><path class="cls-36" d="M133.63,157.07v15.6a19.06,19.06,0,0,0,.54,3.34,5.73,5.73,0,0,0,1.37,2.61,3.73,3.73,0,0,0,2.35,1,7,7,0,0,0,3.62-1.11,13.52,13.52,0,0,0,3.61-2.65,15.36,15.36,0,0,0,3.62-6.06,27.32,27.32,0,0,0,.68-2.75,11.34,11.34,0,0,1,.69-2.44,3.13,3.13,0,0,1,1.45-1.38l7.91-4.48a.81.81,0,0,1,1,0,1.63,1.63,0,0,1,.39,1.21,33.75,33.75,0,0,1-1.55,9.6,43.27,43.27,0,0,1-4.08,9.37,47.17,47.17,0,0,1-6.15,8.16,31.16,31.16,0,0,1-7.63,6.09,16.81,16.81,0,0,1-8,2.45,9.49,9.49,0,0,1-6-2,12.67,12.67,0,0,1-3.83-5.78,31.12,31.12,0,0,1-1.52-8.71V162.92a45.1,45.1,0,0,1,1.48-10.32,49.4,49.4,0,0,1,3.83-10,42.27,42.27,0,0,1,6-8.64,30.89,30.89,0,0,1,8-6.37,17.63,17.63,0,0,1,7.63-2.41,10.72,10.72,0,0,1,6.15,1.41,10.48,10.48,0,0,1,4.08,4.86,19.11,19.11,0,0,1,1.55,7.88,4,4,0,0,1-.39,1.65,2.52,2.52,0,0,1-1,1.14l-8.13,4.47c-.72.38-1.19.45-1.45.18a3.78,3.78,0,0,1-.68-1.66,11.71,11.71,0,0,0-.69-2,3.75,3.75,0,0,0-1.34-1.59,4.14,4.14,0,0,0-2.24-.55,8.07,8.07,0,0,0-3.61,1.21,12.53,12.53,0,0,0-3.62,2.79,16.72,16.72,0,0,0-2.35,3.65,18.21,18.21,0,0,0-1.37,4.13A28.14,28.14,0,0,0,133.63,157.07Z"/><path class="cls-36" d="M186.54,102.78a17,17,0,0,1,7.23-2.31,10.66,10.66,0,0,1,5.75,1.17,9.08,9.08,0,0,1,3.79,3.75,11.72,11.72,0,0,1,1.52,5.2,4,4,0,0,1-.39,1.66,2.39,2.39,0,0,1-.91,1.06l-8.17,4.51a2.26,2.26,0,0,1-1.41.38,2.46,2.46,0,0,1-1.08-.48l-.58-.59a2.83,2.83,0,0,0-1.16-.68,4.26,4.26,0,0,0-1.88,0,7.69,7.69,0,0,0-2.71,1,21.56,21.56,0,0,0-2.27,1.48,14.18,14.18,0,0,0-1.92,1.79,8.54,8.54,0,0,0-1.37,2.17,6.28,6.28,0,0,0-.55,2.59,2.81,2.81,0,0,0,.62,2,2.77,2.77,0,0,0,2,.58,15.77,15.77,0,0,0,3.61-.55l5.71-1.41a19.4,19.4,0,0,1,6-.72,7.19,7.19,0,0,1,4.26,1.55,8.21,8.21,0,0,1,2.57,4.06,24.64,24.64,0,0,1,.83,6.89,29.49,29.49,0,0,1-1.41,9.08,36.3,36.3,0,0,1-10.05,15.74,37.52,37.52,0,0,1-7.7,5.61,19.26,19.26,0,0,1-7.7,2.58,10.44,10.44,0,0,1-6-1,9,9,0,0,1-3.94-3.89,12.88,12.88,0,0,1-1.59-6,3.57,3.57,0,0,1,.44-1.65,2.2,2.2,0,0,1,.9-1.1l8.13-4.48a2.68,2.68,0,0,1,1.38-.41,2,2,0,0,1,1,.41,7.79,7.79,0,0,1,.76.76,4.18,4.18,0,0,0,3.44,1.31,7.57,7.57,0,0,0,3.14-1.1,23.18,23.18,0,0,0,5.53-4.07,7.22,7.22,0,0,0,2.21-5,1.93,1.93,0,0,0-.84-1.83,4.35,4.35,0,0,0-2.42-.34,24.1,24.1,0,0,0-4.12.76c-1.7.44-3.61.93-5.93,1.44a9.31,9.31,0,0,1-9.36-1.55,15.57,15.57,0,0,1-3-10.91,30.1,30.1,0,0,1,1.19-8.16,37.46,37.46,0,0,1,3.62-8.23,35.76,35.76,0,0,1,5.56-7.37A30.72,30.72,0,0,1,186.54,102.78Z"/><path class="cls-36" d="M231.58,78a17,17,0,0,1,7.23-2.34,11.4,11.4,0,0,1,5.75,1.17,9.45,9.45,0,0,1,3.61,3.76,11.78,11.78,0,0,1,1.45,5.33,3.54,3.54,0,0,1-.44,1.65,2.19,2.19,0,0,1-.9,1.07l-8.13,4.48a2.35,2.35,0,0,1-1.41.41,2.29,2.29,0,0,1-1.09-.48l-.58-.59a3.13,3.13,0,0,0-1.15-.69,4.26,4.26,0,0,0-1.88,0,7.57,7.57,0,0,0-2.71,1,19.35,19.35,0,0,0-2.28,1.48,13.86,13.86,0,0,0-2,1.79,8.43,8.43,0,0,0-1.34,2.17,6.1,6.1,0,0,0-.54,2.58,2.56,2.56,0,0,0,.58,1.93,2.67,2.67,0,0,0,2,.62,16.33,16.33,0,0,0,3.62-.55l5.71-1.41a19.78,19.78,0,0,1,6.4-.9,7.48,7.48,0,0,1,4.26,1.52,8.32,8.32,0,0,1,2.57,4.1,24.61,24.61,0,0,1,.83,6.88,28.72,28.72,0,0,1-1.45,9.09,34.58,34.58,0,0,1-4,8.47,38.42,38.42,0,0,1-6.07,7.3,38.86,38.86,0,0,1-7.7,5.61,19.11,19.11,0,0,1-7.7,2.58,11.26,11.26,0,0,1-6-1,9.14,9.14,0,0,1-3.94-3.89,12.27,12.27,0,0,1-1.52-6,3.27,3.27,0,0,1,.43-1.62,2.24,2.24,0,0,1,.87-1.1l8.17-4.48a3.26,3.26,0,0,1,1.37-.45,2,2,0,0,1,1,.42,9.45,9.45,0,0,1,.76.79,4,4,0,0,0,1.33.93,3.79,3.79,0,0,0,2.1.34,7.48,7.48,0,0,0,3.15-1.07,23.46,23.46,0,0,0,5.53-4.09,7.1,7.1,0,0,0,2.2-5,1.93,1.93,0,0,0-.83-1.82,4,4,0,0,0-2.42-.34,21.2,21.2,0,0,0-4.12.75q-2.53.66-6,1.45a9.41,9.41,0,0,1-9.36-1.55A15.89,15.89,0,0,1,214,107.36a29.67,29.67,0,0,1,1.2-8.16,39.44,39.44,0,0,1,9.18-15.63A30.24,30.24,0,0,1,231.58,78Z"/></g><g id="freepik--text-box--inject-7-2" data-name="freepik--text-box--inject-7"><g id="freepik----inject-7-3" data-name="freepik----inject-7"><g id="freepik--speech-bubble--inject-7-4" data-name="freepik--speech-bubble--inject-7"><g id="freepik--speach-bubble--inject-7-2" data-name="freepik--speach-bubble--inject-7"><path class="cls-11" d="M256.16,223.24,61.37,330a10.26,10.26,0,0,0-4.84,8V441.52a10,10,0,0,0,4.84,7.92L80.6,459.77a11.34,11.34,0,0,0,9.69,0L285.07,353a10.24,10.24,0,0,0,4.85-8V241.42a10,10,0,0,0-4.85-7.92l-19.22-10.33A11.37,11.37,0,0,0,256.16,223.24Z"/><path class="cls-5" d="M289.85,240.7c-.37-2.31-2.35-3.13-4.78-1.83L90.33,345.6A9.77,9.77,0,0,0,86.89,349L58,333.24A9.21,9.21,0,0,1,61.3,330L256.09,223.24a11.31,11.31,0,0,1,9.68,0L285,233.57A10.08,10.08,0,0,1,289.85,240.7Z"/><path class="cls-4" d="M285.07,238.87,90.29,345.6a10.25,10.25,0,0,0-4.81,8v103.7c0,2.92,2.17,4.13,4.81,2.65L285.07,353.21a10.24,10.24,0,0,0,4.85-8V241.42C289.92,238.6,287.75,237.39,285.07,238.87Z"/></g></g></g><path class="cls-36" d="M134.53,347.53a.92.92,0,0,1,1.19,0,1.9,1.9,0,0,1,.51,1.48v58.91a4.49,4.49,0,0,1-.51,2,2.72,2.72,0,0,1-1.19,1.38l-8.13,4.48a.9.9,0,0,1-1.19,0,1.91,1.91,0,0,1-.51-1.45V392l-13.81,7.57V421.9a4.65,4.65,0,0,1-.47,2,3.41,3.41,0,0,1-1.19,1.37l-8.13,4.48a1,1,0,0,1-1.2,0,1.93,1.93,0,0,1-.5-1.51V369.32a4.68,4.68,0,0,1,.5-2,3.2,3.2,0,0,1,1.2-1.38l8.13-4.47a1,1,0,0,1,1.19,0,1.84,1.84,0,0,1,.47,1.45v22l13.81-7.57v-21.9a4.71,4.71,0,0,1,.51-2A2.92,2.92,0,0,1,126.4,352Z"/><path class="cls-36" d="M180,322.53a.9.9,0,0,1,1.19,0,1.91,1.91,0,0,1,.51,1.45v9.68a4.36,4.36,0,0,1-.51,2,3,3,0,0,1-1.19,1.41l-10.84,6v46.79a4.61,4.61,0,0,1-.47,2,3.68,3.68,0,0,1-1.19,1.38l-8.14,4.48a1,1,0,0,1-1.19,0,2,2,0,0,1-.51-1.48V349.46l-10.84,6a1,1,0,0,1-1.19,0,1.91,1.91,0,0,1-.47-1.48v-9.64a4.65,4.65,0,0,1,.47-2,3.18,3.18,0,0,1,1.19-1.38Z"/><path class="cls-36" d="M208.59,354.55a3.91,3.91,0,0,1-.87-1l-5.82-11.84v30.19a4.52,4.52,0,0,1-.5,2,2.9,2.9,0,0,1-1.19,1.38l-8.14,4.47a.9.9,0,0,1-1.19,0,1.91,1.91,0,0,1-.51-1.45v-59a4.63,4.63,0,0,1,.51-2,3,3,0,0,1,1.19-1.38l7.23-4c.8-.48,1.45-.48,1.85,0a6.35,6.35,0,0,1,.83,1L212,332.66l10.08-30.78a19.12,19.12,0,0,1,.8-1.93,4.48,4.48,0,0,1,1.87-2l7.23-4a.93.93,0,0,1,1.16,0,2,2,0,0,1,.51,1.48v58.91a4.84,4.84,0,0,1-.51,2,3.43,3.43,0,0,1-1.16,1.38l-8.17,4.47a1,1,0,0,1-1.19,0,1.83,1.83,0,0,1-.47-1.44v-30.2l-5.85,18.28a20,20,0,0,1-.83,2,3.55,3.55,0,0,1-1.49,1.58l-4,2.17C209.42,355,209,355,208.59,354.55Z"/><path class="cls-36" d="M276,319a.92.92,0,0,1,1.19,0,1.89,1.89,0,0,1,.51,1.44v9.68a4.71,4.71,0,0,1-.51,2,2.83,2.83,0,0,1-1.19,1.37l-28.92,15.84a.92.92,0,0,1-1.19,0,1.91,1.91,0,0,1-.51-1.45V289a4.63,4.63,0,0,1,.51-2,2.8,2.8,0,0,1,1.19-1.38l8.13-4.47a.91.91,0,0,1,1.2,0,1.91,1.91,0,0,1,.47,1.44v46.79Z"/></g><g id="freepik----inject-7-4" data-name="freepik----inject-7"><g id="freepik--speech-bubble--inject-7-5" data-name="freepik--speech-bubble--inject-7"><g id="freepik--speach-bubble--inject-7-3" data-name="freepik--speach-bubble--inject-7"><path class="cls-11" d="M256.16,438.46,61.37,545.36a10,10,0,0,0-4.84,7.95V656.87a9.88,9.88,0,0,0,4.84,7.92L80.6,675.12a11.34,11.34,0,0,0,9.69,0l194.78-106.9a10.07,10.07,0,0,0,4.85-8V456.77a10,10,0,0,0-4.85-7.95l-19.22-10.33A11.34,11.34,0,0,0,256.16,438.46Z"/><path class="cls-5" d="M289.85,455.91c-.37-2.31-2.35-3.13-4.78-1.82L90.33,560.82a9.46,9.46,0,0,0-3.44,3.44L58,548.46A9.3,9.3,0,0,1,61.3,545L256.09,438.28a11.31,11.31,0,0,1,9.68,0L285,448.61A10.09,10.09,0,0,1,289.85,455.91Z"/><path class="cls-4" d="M285.07,454.09,90.29,560.82a10.24,10.24,0,0,0-4.81,7.95V672.33c0,3,2.17,4.13,4.81,2.68l194.78-106.9a10,10,0,0,0,4.85-8V456.77C289.92,453.81,287.75,452.64,285.07,454.09Z"/></g></g></g><g class="cls-37"><g class="cls-38"><path class="cls-36" d="M179.56,538.46a30.83,30.83,0,0,0-6,2.19,39.48,39.48,0,0,0-5.84,3.45,40.63,40.63,0,0,0-5.86,5.22,38.89,38.89,0,0,0-5.15,6.82,32.94,32.94,0,0,0-3.48,8.55,33.91,33.91,0,0,0-1.07,10.15l.31,3.09q.3,2.9.78,5.48a41.62,41.62,0,0,0,1.44,5.38,24.54,24.54,0,0,0,2.23,4.91,14.83,14.83,0,0,0,3.27,3.77,11.39,11.39,0,0,0,4.41,2.3,14.51,14.51,0,0,0,5.82.11c.51-.08,1-.18,1.55-.31a29.28,29.28,0,0,0,5.83-2.12,34.48,34.48,0,0,0,7.77-5.05,33.87,33.87,0,0,0,6.09-6.92,31.28,31.28,0,0,0,4-8.8A37.19,37.19,0,0,0,197,566.27c-.14-.76-.48-1.08-1-.94l-.17,0-16,7.58a6.48,6.48,0,0,0-.54,2q-.19,1.39-.33,2.64a7.49,7.49,0,0,1-.73,2.47,3.45,3.45,0,0,1-1.63,1.73,3,3,0,0,1-.54.17q-3.42.82-4.24-7.3c0-.46-.09-1.08-.12-1.84s-.07-1.29-.1-1.58q0-.78-.18-2.46c-.1-1.12-.16-2-.2-2.7s-.06-1.53-.07-2.54a12,12,0,0,1,.21-2.57,17.16,17.16,0,0,1,.59-2.17,5.12,5.12,0,0,1,1.13-1.92,6.11,6.11,0,0,1,1.8-1.3,3,3,0,0,1,.57-.2,1.38,1.38,0,0,1,1.16.17,2.57,2.57,0,0,1,1,1.47c.2.66.39,1.33.55,2a3.79,3.79,0,0,0,.71,1.59.86.86,0,0,0,.92.31,1.45,1.45,0,0,0,.31-.11c.1,0,.24-.13.44-.24a3.91,3.91,0,0,1,.44-.25l3.57-1.62c1.81-.82,3.22-1.46,4.24-2,4.3-2,6.42-3.44,6.34-4.18l-.34-3.37a18.8,18.8,0,0,0-2.35-6.32,11.2,11.2,0,0,0-4.15-3.92,10.8,10.8,0,0,0-6.29-1,18.06,18.06,0,0,0-2.47.43"/><path class="cls-36" d="M217.6,553.39c-.31.07-.5-.17-.55-.75,0-.87.15-2.17.34-3.89s.32-3,.37-3.72l-.09-.91,1.28-.61a13.12,13.12,0,0,1,1.31-.47l1.41-.67a.9.9,0,0,1,.21-.08c.36-.09.6.13.71.66l-.28,8.21-4.58,2.18-.13,0m11.91-38a2.84,2.84,0,0,0-.57.23L221.89,519a13.57,13.57,0,0,0-.8,3.82,42.49,42.49,0,0,0-.25,5.86l.53,5.25-2.87,1.37q.09-2.35.12-7t.12-7a.74.74,0,0,0-.8-.51l-.31.06a7.1,7.1,0,0,0-1.28.48l-2,.95c-.7.33-1.23.59-1.58.77s-.74.39-1.16.64a4.5,4.5,0,0,0-.85.61,3.44,3.44,0,0,0-.48.63,2.1,2.1,0,0,0-.3.78,4.29,4.29,0,0,0,0,1l-.2,12.43-.77.31q-.73.3-1.26.54-3.34,1.6-3.22,2.86t.36,4.11c.13,1.8.25,3.14.34,4a.7.7,0,0,0,.2.47.61.61,0,0,0,.49.13l.6-.07.13,0a4.53,4.53,0,0,0,.68-.23c.35-.14.61-.26.81-.35l.85-.4.51,5-3.41,1.62a5.55,5.55,0,0,0-1.5,1,1.5,1.5,0,0,0-.42,1.27c.09.89.2,2.1.34,3.66s.22,2.58.28,3.09c.13,1.29.39,2,.77,2a1.45,1.45,0,0,0,.51,0,14.54,14.54,0,0,0,2.5-1l.71-.34-.18,12.87,1,1.2c2.83-1.25,5-2.24,6.53-3a3.31,3.31,0,0,0,.91-.64,4.11,4.11,0,0,0,.57-.71,3,3,0,0,0,.29-.91,9.18,9.18,0,0,0,.11-.92c0-.22,0-.56,0-1s0-.82,0-1l-.06-10.32,1.17-.56a9.49,9.49,0,0,0,1.17-.63q-.07,2.68-.06,7.15c0,3,0,5,0,6.11.14.5.67.63,1.6.41a11.75,11.75,0,0,0,2.35-.9c.43-.2.92-.44,1.48-.73s.87-.46,1-.51a5,5,0,0,0,1.9-1.51A4.6,4.6,0,0,0,230,569a13.88,13.88,0,0,0,.18-2.12,18.48,18.48,0,0,0-.11-2.23c-.08-.84-.13-1.4-.14-1.69v-6.69c.54-.25,1.32-.61,2.35-1s1.79-.78,2.29-1a1.08,1.08,0,0,0,.57-1.08l-.93-9.24L229.84,546c0-.67,0-1.64,0-2.91s0-2.24,0-2.91l.38-.14.78-.29.92-.4q3.28-1.56,3.13-3l-.61-6c-.15-1.58-.46-2.31-.91-2.21l-.05,0-3.57,1.7L230,516a.75.75,0,0,0-.2-.53.35.35,0,0,0-.31-.06"/></g></g></g></g></svg>