<svg xmlns="http://www.w3.org/2000/svg" xmlns:xlink="http://www.w3.org/1999/xlink" viewBox="0 0 1494.85 1368.29"><defs><style>.cls-1{fill:#407bff;}.cls-2{opacity:0.7;isolation:isolate;}.cls-3,.cls-4,.cls-69{fill:#fff;}.cls-4,.cls-49,.cls-56{stroke:#263238;}.cls-13,.cls-4,.cls-49,.cls-56,.cls-69,.cls-70,.cls-72{stroke-linecap:round;}.cls-4,.cls-49,.cls-56,.cls-69,.cls-70,.cls-72{stroke-linejoin:round;}.cls-5{fill:url(#Áåçûìÿííûé_ãðàäèåíò_65);}.cls-6{fill:url(#Áåçûìÿííûé_ãðàäèåíò_14);}.cls-7{fill:url(#Áåçûìÿííûé_ãðàäèåíò_302);}.cls-8{fill:url(#Áåçûìÿííûé_ãðàäèåíò_322);}.cls-9{fill:#ff1d9c;}.cls-10{fill:#744ca2;}.cls-11{fill:#333;}.cls-12{fill:#29abe2;}.cls-13,.cls-49,.cls-70,.cls-72{fill:none;}.cls-13{stroke:#4d4d4d;stroke-width:8px;stroke-dasharray:0 8 8 40 0 0;}.cls-14{opacity:0.73;}.cls-15{fill:url(#Áåçûìÿííûé_ãðàäèåíò_97);}.cls-16{fill:url(#Áåçûìÿííûé_ãðàäèåíò_97-2);}.cls-17{fill:url(#Áåçûìÿííûé_ãðàäèåíò_97-3);}.cls-18{fill:url(#Áåçûìÿííûé_ãðàäèåíò_97-4);}.cls-19{fill:url(#Áåçûìÿííûé_ãðàäèåíò_97-5);}.cls-20{fill:url(#Áåçûìÿííûé_ãðàäèåíò_97-6);}.cls-21{fill:url(#Áåçûìÿííûé_ãðàäèåíò_97-7);}.cls-22{fill:url(#Áåçûìÿííûé_ãðàäèåíò_97-8);}.cls-23{fill:url(#Áåçûìÿííûé_ãðàäèåíò_97-9);}.cls-24{fill:url(#Áåçûìÿííûé_ãðàäèåíò_97-10);}.cls-25{fill:url(#Áåçûìÿííûé_ãðàäèåíò_97-11);}.cls-26{fill:url(#Áåçûìÿííûé_ãðàäèåíò_97-12);}.cls-27{fill:url(#Áåçûìÿííûé_ãðàäèåíò_97-13);}.cls-28{fill:url(#Áåçûìÿííûé_ãðàäèåíò_97-14);}.cls-29{fill:url(#Áåçûìÿííûé_ãðàäèåíò_97-15);}.cls-30{fill:url(#Áåçûìÿííûé_ãðàäèåíò_97-16);}.cls-31{fill:url(#Áåçûìÿííûé_ãðàäèåíò_97-17);}.cls-32{fill:url(#Áåçûìÿííûé_ãðàäèåíò_97-18);}.cls-33{fill:url(#Áåçûìÿííûé_ãðàäèåíò_97-19);}.cls-34{fill:url(#Áåçûìÿííûé_ãðàäèåíò_97-20);}.cls-35{fill:url(#Áåçûìÿííûé_ãðàäèåíò_97-21);}.cls-36{fill:url(#Áåçûìÿííûé_ãðàäèåíò_97-22);}.cls-37{fill:url(#Áåçûìÿííûé_ãðàäèåíò_97-23);}.cls-38{fill:#ff6df9;}.cls-39{fill:url(#Áåçûìÿííûé_ãðàäèåíò_97-24);}.cls-40{fill:url(#Áåçûìÿííûé_ãðàäèåíò_97-25);}.cls-41{fill:url(#Áåçûìÿííûé_ãðàäèåíò_97-26);}.cls-42{fill:url(#Áåçûìÿííûé_ãðàäèåíò_97-27);}.cls-43{fill:url(#Áåçûìÿííûé_ãðàäèåíò_97-28);}.cls-44{fill:url(#Áåçûìÿííûé_ãðàäèåíò_97-29);}.cls-45{fill:url(#Áåçûìÿííûé_ãðàäèåíò_97-30);}.cls-46{fill:url(#Áåçûìÿííûé_ãðàäèåíò_97-31);}.cls-47{fill:url(#Áåçûìÿííûé_ãðàäèåíò_97-32);}.cls-48{fill:url(#Áåçûìÿííûé_ãðàäèåíò_97-33);}.cls-50{fill:url(#Áåçûìÿííûé_ãðàäèåíò_97-34);}.cls-51{fill:url(#Áåçûìÿííûé_ãðàäèåíò_97-35);}.cls-52,.cls-56{fill:#263238;}.cls-53{fill:url(#Áåçûìÿííûé_ãðàäèåíò_97-36);}.cls-54{fill:url(#linear-gradient);}.cls-55{fill:url(#linear-gradient-2);}.cls-57{fill:#0071bc;}.cls-58{fill:url(#linear-gradient-3);}.cls-59{fill:url(#linear-gradient-4);}.cls-60{fill:url(#linear-gradient-5);}.cls-61{fill:url(#Áåçûìÿííûé_ãðàäèåíò_97-37);}.cls-62{fill:url(#linear-gradient-6);}.cls-63{fill:url(#linear-gradient-7);}.cls-64{fill:url(#Áåçûìÿííûé_ãðàäèåíò_97-38);}.cls-65{fill:url(#Áåçûìÿííûé_ãðàäèåíò_97-39);}.cls-66{fill:url(#linear-gradient-8);}.cls-67{fill:url(#linear-gradient-9);}.cls-68{fill:url(#linear-gradient-10);}.cls-69,.cls-70{stroke:#707070;}.cls-71{fill:url(#Áåçûìÿííûé_ãðàäèåíò_97-40);}.cls-72{stroke:#333;stroke-width:4px;stroke-dasharray:0 8 8 20 0 0;}</style><linearGradient id="Áåçûìÿííûé_ãðàäèåíò_65" x1="1314.61" y1="68.09" x2="1314.61" gradientUnits="userSpaceOnUse"><stop offset="0" stop-color="#d93de3"/><stop offset="1" stop-color="#ff6dba"/></linearGradient><linearGradient id="Áåçûìÿííûé_ãðàäèåíò_14" x1="1356.23" y1="68.09" x2="1356.23" gradientUnits="userSpaceOnUse"><stop offset="0" stop-color="#a242ea"/><stop offset="1" stop-color="#fe117e"/></linearGradient><linearGradient id="Áåçûìÿííûé_ãðàäèåíò_302" x1="76.94" y1="679.83" x2="76.94" y2="647.4" gradientUnits="userSpaceOnUse"><stop offset="0" stop-color="#459fff"/><stop offset="1" stop-color="#a96dff"/></linearGradient><linearGradient id="Áåçûìÿííûé_ãðàäèåíò_322" x1="1351.54" y1="710.83" x2="1351.54" y2="679.6" gradientUnits="userSpaceOnUse"><stop offset="0" stop-color="#b31a8f"/><stop offset="1" stop-color="#fe117e"/></linearGradient><linearGradient id="Áåçûìÿííûé_ãðàäèåíò_97" x1="-3879.25" y1="-1753.52" x2="-3846.05" y2="-1753.52" gradientTransform="translate(2293.52 4016.24) rotate(34.69)" gradientUnits="userSpaceOnUse"><stop offset="0" stop-color="#d906e3"/><stop offset="1" stop-color="#ff6df9"/></linearGradient><linearGradient id="Áåçûìÿííûé_ãðàäèåíò_97-2" x1="-3915.18" y1="-1631.15" x2="-3866.42" y2="-1631.15" xlink:href="#Áåçûìÿííûé_ãðàäèåíò_97"/><linearGradient id="Áåçûìÿííûé_ãðàäèåíò_97-3" x1="-3890.23" y1="-1731.13" x2="-3833.47" y2="-1731.13" xlink:href="#Áåçûìÿííûé_ãðàäèåíò_97"/><linearGradient id="Áåçûìÿííûé_ãðàäèåíò_97-4" x1="-3858.34" y1="-1630.83" x2="-3809.5" y2="-1630.83" xlink:href="#Áåçûìÿííûé_ãðàäèåíò_97"/><linearGradient id="Áåçûìÿííûé_ãðàäèåíò_97-5" x1="-3885.85" y1="-1741.33" x2="-3837.81" y2="-1741.33" xlink:href="#Áåçûìÿííûé_ãðàäèåíò_97"/><linearGradient id="Áåçûìÿííûé_ãðàäèåíò_97-6" x1="-3836.68" y1="-1665.96" x2="-3813.92" y2="-1665.96" xlink:href="#Áåçûìÿííûé_ãðàäèåíò_97"/><linearGradient id="Áåçûìÿííûé_ãðàäèåíò_97-7" x1="-3910.67" y1="-1666.19" x2="-3887.81" y2="-1666.19" xlink:href="#Áåçûìÿííûé_ãðàäèåíò_97"/><linearGradient id="Áåçûìÿííûé_ãðàäèåíò_97-8" x1="-3874.49" y1="-1621.5" x2="-3850.27" y2="-1621.5" xlink:href="#Áåçûìÿííûé_ãðàäèåíò_97"/><linearGradient id="Áåçûìÿííûé_ãðàäèåíò_97-9" x1="-3866.66" y1="-1596.17" x2="-3858.42" y2="-1596.17" xlink:href="#Áåçûìÿííûé_ãðàäèåíò_97"/><linearGradient id="Áåçûìÿííûé_ãðàäèåíò_97-10" x1="-3842.16" y1="-1716.46" x2="-3827.14" y2="-1716.46" xlink:href="#Áåçûìÿííûé_ãðàäèåíò_97"/><linearGradient id="Áåçûìÿííûé_ãðàäèåíò_97-11" x1="-3896.83" y1="-1716.97" x2="-3881.63" y2="-1716.97" xlink:href="#Áåçûìÿííûé_ãðàäèåíò_97"/><linearGradient id="Áåçûìÿííûé_ãðàäèåíò_97-12" x1="-3898.7" y1="-1686.15" x2="-3890.17" y2="-1686.15" xlink:href="#Áåçûìÿííûé_ãðàäèåíò_97"/><linearGradient id="Áåçûìÿííûé_ãðàäèåíò_97-13" x1="-3834.1" y1="-1685.94" x2="-3825.44" y2="-1685.94" xlink:href="#Áåçûìÿííûé_ãðàäèåíò_97"/><linearGradient id="Áåçûìÿííûé_ãðàäèåíò_97-14" x1="-3882.9" y1="-1599.5" x2="-3874.7" y2="-1599.5" xlink:href="#Áåçûìÿííûé_ãðàäèåíò_97"/><linearGradient id="Áåçûìÿííûé_ãðàäèåíò_97-15" x1="-3850.35" y1="-1599.34" x2="-3842.14" y2="-1599.34" xlink:href="#Áåçûìÿííûé_ãðàäèåíò_97"/><linearGradient id="Áåçûìÿííûé_ãðàäèåíò_97-16" x1="-3866.72" y1="-1577.41" x2="-3858.49" y2="-1577.41" xlink:href="#Áåçûìÿííûé_ãðàäèåíò_97"/><linearGradient id="Áåçûìÿííûé_ãðàäèåíò_97-17" x1="-3827.17" y1="-1620.47" x2="-3811.02" y2="-1620.47" xlink:href="#Áåçûìÿííûé_ãðàäèåíò_97"/><linearGradient id="Áåçûìÿííûé_ãðàäèåíò_97-18" x1="-3913.62" y1="-1620.77" x2="-3897.74" y2="-1620.77" xlink:href="#Áåçûìÿííûé_ãðàäèåíò_97"/><linearGradient id="Áåçûìÿííûé_ãðàäèåíò_97-19" x1="-3822.56" y1="-1651.07" x2="-3810.42" y2="-1651.07" xlink:href="#Áåçûìÿííûé_ãðàäèåíò_97"/><linearGradient id="Áåçûìÿííûé_ãðàäèåíò_97-20" x1="-3914.25" y1="-1651.38" x2="-3901.92" y2="-1651.38" xlink:href="#Áåçûìÿííûé_ãðàäèåíò_97"/><linearGradient id="Áåçûìÿííûé_ãðàäèåíò_97-21" x1="-3915.21" y1="-1640.69" x2="-3906.1" y2="-1640.69" xlink:href="#Áåçûìÿííûé_ãðàäèåíò_97"/><linearGradient id="Áåçûìÿííûé_ãðàäèåíò_97-22" x1="-3818.47" y1="-1640.37" x2="-3809.45" y2="-1640.37" xlink:href="#Áåçûìÿííûé_ãðàäèåíò_97"/><linearGradient id="Áåçûìÿííûé_ãðàäèåíò_97-23" x1="-3898.33" y1="-1701.58" x2="-3888.73" y2="-1701.58" xlink:href="#Áåçûìÿííûé_ãðàäèåíò_97"/><linearGradient id="Áåçûìÿííûé_ãðàäèåíò_97-24" x1="-3897.72" y1="-1641.94" x2="-3866.37" y2="-1641.94" xlink:href="#Áåçûìÿííûé_ãðàäèåíò_97"/><linearGradient id="Áåçûìÿííûé_ãðàäèåíò_97-25" x1="-3858.24" y1="-1641.76" x2="-3826.68" y2="-1641.76" xlink:href="#Áåçûìÿííûé_ãðàäèåíò_97"/><linearGradient id="Áåçûìÿííûé_ãðàäèåíò_97-26" x1="-3839.08" y1="-1650.44" x2="-3828.62" y2="-1650.44" xlink:href="#Áåçûìÿííûé_ãðàäèåíò_97"/><linearGradient id="Áåçûìÿííûé_ãðàäèåíò_97-27" x1="-3895.86" y1="-1650.95" x2="-3885.5" y2="-1650.95" xlink:href="#Áåçûìÿííûé_ãðàäèåíò_97"/><linearGradient id="Áåçûìÿííûé_ãðàäèåíò_97-28" x1="-3874.49" y1="-1663.84" x2="-3850.02" y2="-1663.84" xlink:href="#Áåçûìÿííûé_ãðàäèåíò_97"/><linearGradient id="Áåçûìÿííûé_ãðàäèåíò_97-29" x1="-3858.19" y1="-1652.16" x2="-3850.03" y2="-1652.16" xlink:href="#Áåçûìÿííûé_ãðàäèåíò_97"/><linearGradient id="Áåçûìÿííûé_ãðàäèåíò_97-30" x1="-3874.48" y1="-1651.27" x2="-3866.32" y2="-1651.27" xlink:href="#Áåçûìÿííûé_ãðàäèåíò_97"/><linearGradient id="Áåçûìÿííûé_ãðàäèåíò_97-31" x1="-3877.76" y1="-1713.81" x2="-3845.79" y2="-1713.81" xlink:href="#Áåçûìÿííûé_ãðàäèåíò_97"/><linearGradient id="Áåçûìÿííûé_ãðàäèåíò_97-32" x1="-3878.26" y1="-1702.22" x2="-3845.76" y2="-1702.22" xlink:href="#Áåçûìÿííûé_ãðàäèåíò_97"/><linearGradient id="Áåçûìÿííûé_ãðàäèåíò_97-33" x1="-3875.03" y1="-1692.48" x2="-3849.06" y2="-1692.48" xlink:href="#Áåçûìÿííûé_ãðàäèåíò_97"/><linearGradient id="Áåçûìÿííûé_ãðàäèåíò_97-34" x1="176.02" y1="64.01" x2="1258.11" y2="64.01" gradientTransform="matrix(1, 0, 0, 1, 0, 0)" xlink:href="#Áåçûìÿííûé_ãðàäèåíò_97"/><linearGradient id="Áåçûìÿííûé_ãðàäèåíò_97-35" x1="1061.25" y1="252.54" x2="1169.18" y2="252.54" gradientTransform="matrix(1, 0, 0, 1, 0, 0)" xlink:href="#Áåçûìÿííûé_ãðàäèåíò_97"/><linearGradient id="Áåçûìÿííûé_ãðàäèåíò_97-36" x1="754.67" y1="1080.93" x2="1090.48" y2="1080.93" gradientTransform="matrix(1, 0, 0, 1, 0, 0)" xlink:href="#Áåçûìÿííûé_ãðàäèåíò_97"/><linearGradient id="linear-gradient" x1="634.72" y1="882.87" x2="837.26" y2="882.87" gradientUnits="userSpaceOnUse"><stop offset="0.02" stop-color="#ffc2a9"/><stop offset="1" stop-color="#ffbdbd"/></linearGradient><linearGradient id="linear-gradient-2" x1="519" y1="1305.22" x2="683.94" y2="1305.22" xlink:href="#linear-gradient"/><linearGradient id="linear-gradient-3" x1="598.76" y1="1144.69" x2="859.82" y2="1144.69" gradientUnits="userSpaceOnUse"><stop offset="0" stop-color="#0071bc"/><stop offset="1" stop-color="#29abe2"/></linearGradient><linearGradient id="linear-gradient-4" x1="741.6" y1="1243.32" x2="851.17" y2="1243.32" xlink:href="#linear-gradient"/><linearGradient id="linear-gradient-5" x1="934.26" y1="940.03" x2="622.14" y2="1135.51" gradientUnits="userSpaceOnUse"><stop offset="0.21" stop-color="#0071bc"/><stop offset="0.41" stop-color="#0375bf"/><stop offset="0.63" stop-color="#0c82c7"/><stop offset="0.85" stop-color="#1c98d6"/><stop offset="1" stop-color="#29abe2"/></linearGradient><linearGradient id="Áåçûìÿííûé_ãðàäèåíò_97-37" x1="825.07" y1="785.83" x2="1009.15" y2="785.83" gradientTransform="matrix(1, 0, 0, 1, 0, 0)" xlink:href="#Áåçûìÿííûé_ãðàäèåíò_97"/><linearGradient id="linear-gradient-6" x1="713.28" y1="607.28" x2="851.14" y2="607.28" xlink:href="#linear-gradient"/><linearGradient id="linear-gradient-7" x1="835.47" y1="556.79" x2="854.19" y2="694.31" gradientUnits="userSpaceOnUse"><stop offset="0.05" stop-color="#0071bc"/><stop offset="0.12" stop-color="#0679c1"/><stop offset="0.37" stop-color="#1994d3"/><stop offset="0.59" stop-color="#25a5de"/><stop offset="0.76" stop-color="#29abe2"/></linearGradient><linearGradient id="Áåçûìÿííûé_ãðàäèåíò_97-38" x1="670.34" y1="570.59" x2="786.33" y2="570.59" gradientTransform="matrix(1, 0, 0, 1, 0, 0)" xlink:href="#Áåçûìÿííûé_ãðàäèåíò_97"/><linearGradient id="Áåçûìÿííûé_ãðàäèåíò_97-39" x1="688.51" y1="505.85" x2="912.38" y2="505.85" gradientTransform="matrix(1, 0, 0, 1, 0, 0)" xlink:href="#Áåçûìÿííûé_ãðàäèåíò_97"/><linearGradient id="linear-gradient-8" x1="612.67" y1="898.34" x2="920.07" y2="898.34" xlink:href="#linear-gradient"/><linearGradient id="linear-gradient-9" x1="780.16" y1="900.9" x2="920.26" y2="900.9" xlink:href="#linear-gradient"/><linearGradient id="linear-gradient-10" x1="839.21" y1="806.49" x2="954.44" y2="806.49" gradientUnits="userSpaceOnUse"><stop offset="0.02" stop-color="#d906e3"/><stop offset="0.23" stop-color="#da09e4"/><stop offset="0.42" stop-color="#de14e6"/><stop offset="0.6" stop-color="#e526ea"/><stop offset="0.78" stop-color="#ee40ef"/><stop offset="0.94" stop-color="#fa60f6"/><stop offset="1" stop-color="#ff6df9"/></linearGradient><linearGradient id="Áåçûìÿííûé_ãðàäèåíò_97-40" x1="410.64" y1="872.14" x2="482.82" y2="872.14" gradientTransform="matrix(1, 0, 0, 1, 0, 0)" xlink:href="#Áåçûìÿííûé_ãðàäèåíò_97"/></defs><g id="Layer_2" data-name="Layer 2"><g id="Layer_1-2" data-name="Layer 1"><g id="freepik--background-simple--inject-2"><path class="cls-1" d="M1419.85,507.57c-50.48-165-180.3-297.12-333.94-366.75-146.47-66.44-331.72-99.09-470.53,3C523.89,211.11,472.15,319,388.45,394.5c-41.61,37.54-87.16,49.75-136.66,72.18-120.67,54.74-221.66,160.23-230,299.45C8,998.86,192.45,1159.85,398.3,1212.63c272,69.78,475.36,69.78,662.22-5.58,97-39.12,195.78-88.65,265.76-169.67,105.81-122.56,135-296.55,111-454.07A538.22,538.22,0,0,0,1419.85,507.57Z"/><path class="cls-1" d="M1419.85,507.57c-50.48-165-180.3-297.12-333.94-366.75-146.47-66.44-331.72-99.09-470.53,3C523.89,211.11,472.15,319,388.45,394.5c-41.61,37.54-87.16,49.75-136.66,72.18-120.67,54.74-221.66,160.23-230,299.45C8,998.86,192.45,1159.85,398.3,1212.63c272,69.78,475.36,69.78,662.22-5.58,97-39.12,195.78-88.65,265.76-169.67,105.81-122.56,135-296.55,111-454.07A538.22,538.22,0,0,0,1419.85,507.57Z"/></g><g id="freepik--background-simple--inject-2-2" data-name="freepik--background-simple--inject-2" class="cls-2"><path class="cls-3" d="M1416.85,505.57c-50.48-165-180.3-297.12-333.94-366.75-146.47-66.44-331.72-99.09-470.53,3C520.89,209.11,469.15,317,385.45,392.5c-41.61,37.54-87.16,49.75-136.66,72.18-120.67,54.74-221.66,160.23-230,299.45C5,996.86,189.45,1157.85,395.3,1210.63c272,69.78,475.36,69.78,662.22-5.58,97-39.12,195.78-88.65,265.76-169.67,105.81-122.56,135-296.55,111-454.07A538.22,538.22,0,0,0,1416.85,505.57Z"/><path class="cls-3" d="M1416.85,505.57c-50.48-165-180.3-297.12-333.94-366.75-146.47-66.44-331.72-99.09-470.53,3C520.89,209.11,469.15,317,385.45,392.5c-41.61,37.54-87.16,49.75-136.66,72.18-120.67,54.74-221.66,160.23-230,299.45C5,996.86,189.45,1157.85,395.3,1210.63c272,69.78,475.36,69.78,662.22-5.58,97-39.12,195.78-88.65,265.76-169.67,105.81-122.56,135-296.55,111-454.07A538.22,538.22,0,0,0,1416.85,505.57Z"/></g><rect class="cls-4" x="183.15" y="40.35" width="1074.96" height="656.2"/><polygon class="cls-5" points="1275.01 2.09 1275.01 67.43 1353.15 68.09 1354.21 0 1275.01 2.09"/><polygon class="cls-6" points="1354.21 0 1359.31 8.58 1356.76 68.03 1353.15 68.09 1354.21 0"/><polygon class="cls-3" points="1288.97 24.14 1296.18 13.67 1335.2 46.42 1329.22 54.41 1288.97 24.14"/><polygon class="cls-3" points="1336.21 24.14 1328.99 13.67 1289.97 46.42 1295.95 54.41 1336.21 24.14"/><path class="cls-7" d="M93.15,663.62A16.21,16.21,0,1,1,76.94,647.4,16.21,16.21,0,0,1,93.15,663.62Z"/><circle class="cls-8" cx="1351.54" cy="695.21" r="15.62"/><polygon class="cls-9" points="183.98 755.79 210.95 809.83 192.93 818.03 167.71 768.39 183.98 755.79"/><polygon class="cls-10" points="102.92 908.54 55.59 874.2 56.59 872.82 103.93 907.16 102.92 908.54"/><polygon class="cls-10" points="1322.92 882.54 1275.59 848.2 1276.59 846.82 1323.93 881.16 1322.92 882.54"/><rect class="cls-10" x="213.52" y="1000.83" width="58.48" height="1.71" transform="translate(-701.17 587.8) rotate(-52.7)"/><rect class="cls-10" x="1268.52" y="862.83" width="58.48" height="1.71" transform="translate(-175.7 1372.67) rotate(-52.7)"/><path class="cls-11" d="M1456,651.69a8.53,8.53,0,0,0,1.87-1.63l11.5-12.59a5.83,5.83,0,0,1,3.88-2,4.7,4.7,0,0,1,2.84.61,3.63,3.63,0,0,1,1.88,3.22c0,1.67.08,3.34.12,5q.46,19.88.93,39.75a5.16,5.16,0,0,1-2.68,4.72.62.62,0,0,1-.27.09,2.32,2.32,0,0,1-.74-.69,24.94,24.94,0,0,1-1.71-2.49c-2.31-3.73-4.4-7.59-6.47-11.47-1-1.89-2-3.79-3-5.7q-2.06-3.94-4-7.93c-.61-1.23-1.22-2.45-1.81-3.69s-1.33-2.74-1.93-4.14A4.47,4.47,0,0,1,1456,651.69Z"/><path class="cls-12" d="M1456,651.69a4.47,4.47,0,0,0,.38,1.08c.6,1.4,1.26,2.77,1.93,4.14s1.2,2.46,1.81,3.69q2,4,4,7.93c1,1.91,2,3.81,3,5.7,2.07,3.88,4.16,7.74,6.47,11.47a24.94,24.94,0,0,0,1.71,2.49,2.32,2.32,0,0,0,.74.69c0,.11-.14.13-.22.17a5.47,5.47,0,0,1-3.33.48,4.7,4.7,0,0,1-1.77-.74l-11.12-7.33-10.08-6.64-12.09-8c-1.27-.85-2.56-1.68-3.83-2.54a3.75,3.75,0,0,1-1.47-4.36,5.42,5.42,0,0,1,4.23-3.81c2.5-.57,5-1.08,7.51-1.61q5-1.08,10-2.14A7.66,7.66,0,0,0,1456,651.69Z"/><path class="cls-13" d="M1370,153.77c124.68,154.57,132.73,240.41,112.13,291-13.18,32.39-57.57,98.33-40.3,177.3a172.28,172.28,0,0,0,5.81,20.43"/><g class="cls-14"><path class="cls-15" d="M97.5,373l7-2.34,11.76-2.07c.74.38,1.48,0,2.22,0,2.5,0,3.69.86,4.57,3.2.22.61.07,1.37.71,1.81L126,385.88c-.32,1.47.2,2.95-.06,4.42-.61.2-1-.14-1.48-.46q-2.72-1.9-5.44-3.8c-.44-.31-.83-.73-1.45-.62-.41-2.39-.86-4.78-1.2-7.18-.15-1.09-.62-1.27-1.62-1.11-3.3.52-6.54,1.25-9.79,2-.11-.57-.61-.76-1-1-1.69-1.2-3.4-2.39-5.11-3.58A2.82,2.82,0,0,1,97.5,373Z"/><path class="cls-16" d="M34.12,472.92c.7-1.05,1.37-2.12,2.1-3.14.42-.58.33-.9-.24-1.29-3.23-2.22-6.4-4.55-9.68-6.7a11.85,11.85,0,0,0-11.39-1c-.29.11-.6.19-.9.29a3.61,3.61,0,0,1-1.4-.79C9.13,457.9,5.66,455.46,2.18,453c-.43-.3-.81-.76-1.43-.66A26.65,26.65,0,0,1,5.39,443a4.39,4.39,0,0,0,1.71,1.81L11.67,448A26.76,26.76,0,0,0,8.38,455a21.41,21.41,0,0,1,12.14-3.28c0,.8.69,1,1.18,1.36l24.13,17c-1.7,2.58-3.42,5.15-5.33,7.57-1.73-1.17-3.46-2.34-5.18-3.53C34.86,473.78,34.26,473.57,34.12,472.92Z"/><path class="cls-17" d="M125.78,404.94a54.16,54.16,0,0,1-1.29,9.49l-6.21-4.3a1.43,1.43,0,0,0-1.11-.38,6.53,6.53,0,0,1,.13-1.48c.48-1.45-.12-2.24-1.32-3.07-8.45-5.82-16.91-11.65-25.21-17.68-2.06-1.49-3.72-2.07-5.8-.45,0,0-.08,0-.13,0-1.19-1.57-3-2.3-4.5-3.52-.75-.62-1.76-.91-2.24-1.85a57.23,57.23,0,0,1,8.33-4.33c.09.57.58.78,1,1.06l37.06,25.92C124.85,404.66,125.22,405,125.78,404.94Z"/><path class="cls-18" d="M92,503.52a26.51,26.51,0,0,1-6.91,7.33c-2.82-2-5.65-4-8.46-6a44.51,44.51,0,0,1-4.66-3.41c.27-5.55-2.1-9.62-6.76-12.55-2.6-1.63-5.07-3.48-7.56-5.28-.65-.47-1-.5-1.49.23-.65,1-1.43,2-2.15,2.95-1.17-.09-1.9-1-2.74-1.59-1.32-1-2.9-1.62-3.88-3l5.28-7.36a4.3,4.3,0,0,0,.58.55L77,492a2.59,2.59,0,0,0,1.61.59,20.16,20.16,0,0,1,.86,12.27,25.2,25.2,0,0,0,5.63-5.56c2,.91,3.59,2.41,5.41,3.56C91,503.18,91.35,503.62,92,503.52Z"/><path class="cls-19" d="M125.78,404.94c-.56.1-.93-.28-1.32-.56L87.4,378.46c-.39-.28-.88-.49-1-1.06A61.86,61.86,0,0,1,97.5,373a2.82,2.82,0,0,0,1.3,1.5c1.71,1.19,3.42,2.38,5.11,3.58.4.28.9.47,1,1-2.69.93-5.48,1.58-7.67,2.51l20.83,14.57c.12-3.41-.32-7.08-.55-10.77.62-.11,1,.31,1.45.62q2.73,1.89,5.44,3.8c.45.32.87.66,1.48.46a48.48,48.48,0,0,1,.28,9.17C126.08,401.3,125.92,403.12,125.78,404.94Z"/><path class="cls-20" d="M101.41,460.72a17,17,0,0,1-2,2.39A1.92,1.92,0,0,0,99,465.6a33.22,33.22,0,0,1,1.66,17.63,1.71,1.71,0,0,1-1.64-.37c-1.53-1.11-3.1-2.18-4.65-3.26-.41-.28-.77-.66-1.34-.55a27.45,27.45,0,0,0-.77-7.64l-4.18,4.16c-.09-.15-.15-.36-.28-.44-2.18-1.3-4.18-2.85-6.24-4.32,4.61-4.73,9-9.68,13.29-14.66,1.07.05,1.73.87,2.49,1.43C98.71,458.6,100.36,459.29,101.41,460.72Z"/><path class="cls-21" d="M21.2,428a32.45,32.45,0,0,1,15.16-4.58c1.1,0,2.21-.31,3.34-.26.51,0,.64-.42.85-.75.61-1,1.21-2,1.81-3,2.26,1.43,4.45,2.95,6.55,4.59-3.2,5.7-6.29,11.46-9.13,17.34-.57.06-.9-.36-1.31-.63-1.85-1.2-3.54-2.64-5.48-3.69l2.47-5.35A28.4,28.4,0,0,0,28,433.55c-1.51-1.85-3.71-2.79-5.52-4.25C22,428.92,21.36,428.71,21.2,428Z"/><path class="cls-22" d="M47.35,482.19c1,1.4,2.56,2.05,3.88,3,.84.62,1.57,1.5,2.74,1.59a11.42,11.42,0,0,1-11.15,4.65,11.58,11.58,0,0,1-9.75-7.58,11.29,11.29,0,0,1,1-10.95c.14.65.74.86,1.2,1.19,1.72,1.19,3.45,2.36,5.18,3.53a6.43,6.43,0,0,0,.08,3.17C41.72,483.55,44.57,484.15,47.35,482.19Z"/><path class="cls-23" d="M16.52,512.11q5.16-7.39,10.32-14.78A4.09,4.09,0,1,1,33.53,502q-4.79,6.9-9.62,13.75a11.32,11.32,0,0,1-1,1.08c-1.86-1-3.46-2.35-5.2-3.52C17.24,513,16.65,512.77,16.52,512.11Z"/><path class="cls-24" d="M117.17,409.75a1.43,1.43,0,0,1,1.11.38l6.21,4.3a81.87,81.87,0,0,1-5.81,19.06c-.18.4-.34.81-.51,1.21a1.78,1.78,0,0,1-1.34-.52l-4.29-3c-.4-.27-.76-.64-1.32-.54.74-2,1.5-4,2.21-6A98.51,98.51,0,0,0,117.17,409.75Z"/><path class="cls-25" d="M78.1,381.73c.48.94,1.49,1.23,2.24,1.85,1.46,1.22,3.31,1.95,4.5,3.52a97,97,0,0,0-17.26,12.46c-2.29-1.45-4.69-2.75-6.52-4.81A85.59,85.59,0,0,1,78.1,381.73Z"/><path class="cls-26" d="M48.91,424c-2.1-1.64-4.29-3.16-6.55-4.59a115.29,115.29,0,0,1,11.32-16.64c2.3,1.38,4.46,3,6.62,4.56-2.08,2.71-4.18,5.4-6,8.27S50.7,421.2,48.91,424Z"/><path class="cls-27" d="M101.41,460.72c-1-1.43-2.7-2.12-4.07-3.14-.76-.56-1.42-1.38-2.49-1.43a166.54,166.54,0,0,0,11.75-16.41c2.08.78,3.62,2.4,5.47,3.54.44.27,1,.5,1.09,1.11A113.78,113.78,0,0,1,101.41,460.72Z"/><path class="cls-28" d="M13.06,500.68a3.79,3.79,0,0,1-3.92-1.55,3.57,3.57,0,0,1-.37-4.19,91.81,91.81,0,0,1,5.34-7.65,3.86,3.86,0,0,1,5.38-.5,4,4,0,0,1,1,5.32c-1.57,2.43-3.26,4.77-4.95,7.11A3.54,3.54,0,0,1,13.06,500.68Z"/><path class="cls-29" d="M39.68,519.38a3.86,3.86,0,0,1-4-1.74,3.76,3.76,0,0,1-.12-4.34q2.37-3.63,5-7.1a4,4,0,0,1,5.46-.86,3.93,3.93,0,0,1,1.22,5.38c-1.6,2.51-3.36,4.91-5.12,7.32A3.47,3.47,0,0,1,39.68,519.38Z"/><path class="cls-30" d="M16.52,512.11c.13.66.72.88,1.19,1.19,1.74,1.17,3.34,2.52,5.2,3.52a15.85,15.85,0,0,1-2.22,3.52c-1.29,1.91-2.6,3.8-4,5.66a4.07,4.07,0,1,1-6.65-4.7C12.19,518.21,14.37,515.17,16.52,512.11Z"/><path class="cls-31" d="M71.93,501.45a44.51,44.51,0,0,0,4.66,3.41c2.81,2,5.64,4,8.46,6-3.68,2.89-7.74,4.23-12.36,2.76-3.72-1.18-4.65-3.83-2.59-7.14A16.12,16.12,0,0,0,71.93,501.45Z"/><path class="cls-32" d="M.75,452.38c.62-.1,1,.36,1.43.66,3.48,2.42,7,4.86,10.43,7.29a3.61,3.61,0,0,0,1.4.79,20.08,20.08,0,0,0-4.48,4.06,4,4,0,0,1-6.17.27c-3.23-3.23-3.83-7.21-3-11.53A14.16,14.16,0,0,1,.75,452.38Z"/><path class="cls-33" d="M93,479.05c.57-.11.93.27,1.34.55,1.55,1.08,3.12,2.15,4.65,3.26a1.71,1.71,0,0,0,1.64.37A35.33,35.33,0,0,1,97.44,494c-.71.21-1.18-.24-1.72-.58-1.78-1.11-3.3-2.64-5.29-3.43A41.34,41.34,0,0,0,93,479.05Z"/><path class="cls-34" d="M21.2,428c.16.71.82.92,1.3,1.3,1.81,1.46,4,2.4,5.52,4.25a40.35,40.35,0,0,0-9.39,6.2c-.18-.58-.74-.75-1.16-1.07-1.74-1.35-3.71-2.37-5.3-3.91A36,36,0,0,1,21.2,428Z"/><path class="cls-35" d="M12.17,434.77c1.59,1.54,3.56,2.56,5.3,3.91.42.32,1,.49,1.16,1.07a55.59,55.59,0,0,0-7,8.2L7.1,444.76A4.39,4.39,0,0,1,5.39,443,40.65,40.65,0,0,1,12.17,434.77Z"/><path class="cls-36" d="M90.43,490c2,.79,3.51,2.32,5.29,3.43.54.34,1,.79,1.72.58A39.34,39.34,0,0,1,92,503.52c-.61.1-1-.34-1.44-.62-1.82-1.15-3.42-2.65-5.41-3.56A56,56,0,0,0,90.43,490Z"/><path class="cls-37" d="M60.3,407.33c-2.16-1.59-4.32-3.18-6.62-4.56a63.68,63.68,0,0,1,7.38-8c1.83,2.06,4.23,3.36,6.52,4.81C65.08,402.08,62.63,404.65,60.3,407.33Z"/><path class="cls-38" d="M113.16,444.39c-.12-.61-.65-.84-1.09-1.11-1.85-1.14-3.39-2.76-5.47-3.54l4.62-9.1c.56-.1.92.27,1.32.54l4.29,3a1.78,1.78,0,0,0,1.34.52A63,63,0,0,1,113.16,444.39Z"/><path class="cls-39" d="M20.52,451.74a18.55,18.55,0,0,1,5,.81c.71.24,1,.06,1.27-.65a37.45,37.45,0,0,1,1.82-4.9,54.69,54.69,0,0,0,6.74,4.77c-.46,1.41-.88,2.84-1.38,4.23a1.13,1.13,0,0,0,.49,1.57c2.07,1.37,4.09,2.8,6.1,4.26.62.45.93.41,1.37-.23,1.16-1.72,2.4-3.38,3.6-5.06,1.35,1.79,3.48,2.59,5.15,4a2.2,2.2,0,0,0,1.52.44q-3.06,4.65-6.39,9.12l-24.13-17C21.21,452.75,20.52,452.54,20.52,451.74Z"/><path class="cls-40" d="M79.82,483.39c-1,.91-2,1.88-3.15,2.71-.9.68-1.22,1.21-.36,2.2a17.32,17.32,0,0,1,2.31,4.33A2.59,2.59,0,0,1,77,492l-23.8-16.66a4.3,4.3,0,0,1-.58-.55q3.06-4.65,6.38-9.13a1.72,1.72,0,0,0,.9,1.27c1.12.75,2.19,1.57,3.33,2.3.69.45,1.24,1.22,2.2,1.18-1.17,1.71-2.31,3.44-3.52,5.12-.46.63-.39.94.25,1.37,2.06,1.38,4.09,2.79,6.09,4.26a1.12,1.12,0,0,0,1.64-.06c1.14-.95,2.33-1.84,3.5-2.76l5.34,3.87C79.17,482.56,79.7,482.78,79.82,483.39Z"/><path class="cls-41" d="M79.82,483.39c-.12-.61-.65-.83-1.08-1.14l-5.34-3.87,8.16-7.57c2.06,1.47,4.06,3,6.24,4.32.13.08.19.29.28.44A83.65,83.65,0,0,1,79.82,483.39Z"/><path class="cls-42" d="M39.78,441.34,36,450.19c-.22.52-.43,1.05-.65,1.58A54.69,54.69,0,0,1,28.63,447,84.19,84.19,0,0,1,33,437c1.94,1.05,3.63,2.49,5.48,3.69C38.88,441,39.21,441.4,39.78,441.34Z"/><path class="cls-43" d="M49.93,450.28c1.89-2.73,3.37-5.84,6.3-7.67,4.64-2.89,10.94-2.93,15.25,1.23a12.2,12.2,0,0,1,2.08,15c-.79,1.31-1.76,2.51-2.65,3.76-.09-.55-.56-.77-1-1.05l-4.26-3c-.4-.28-.85-.51-1-1.06.55-.82,1.11-1.64,1.64-2.48a4.07,4.07,0,1,0-6.69-4.65c-1,1.3-1.9,2.63-2.85,4-2.07-.66-3.54-2.28-5.35-3.36C51,450.7,50.6,450.18,49.93,450.28Z"/><path class="cls-44" d="M64.73,457.53c.11.55.56.78,1,1.06l4.26,3c.4.28.87.5,1,1.05q-2.58,4-5.47,7.82c-1,0-1.51-.73-2.2-1.18-1.14-.73-2.21-1.55-3.33-2.3a1.72,1.72,0,0,1-.9-1.27Q61.74,461.53,64.73,457.53Z"/><path class="cls-45" d="M49.93,450.28c.67-.1,1.06.42,1.55.71,1.81,1.08,3.28,2.7,5.35,3.36q-2.17,3.39-4.61,6.6a2.2,2.2,0,0,1-1.52-.44c-1.67-1.38-3.8-2.18-5.15-4C46.91,454.38,48.37,452.3,49.93,450.28Z"/><path class="cls-46" d="M77.87,404c4.85-5,13.62-5.65,19.89-1.53A16.44,16.44,0,0,1,103,423.77c-.16.27-.36.52-.54.77A24.52,24.52,0,0,0,96,419.85a8.52,8.52,0,0,0,.08-7.44,8.19,8.19,0,0,0-11.68-3.33c-1.62-1.58-3.63-2.62-5.4-4C78.53,404.78,78,404.57,77.87,404Z"/><path class="cls-47" d="M77.87,404c.12.61.66.82,1.08,1.14,1.77,1.36,3.78,2.4,5.4,4-3.89,3.12-4.88,7-2.72,11a7.73,7.73,0,0,0,7.74,4.17A8.28,8.28,0,0,0,96,419.85a24.52,24.52,0,0,1,6.55,4.69,15,15,0,0,1-8.71,6.85c-.09-.62-.6-.87-1-1.17L74,417.08c-.44-.31-.86-.69-1.47-.56A15.48,15.48,0,0,1,77.87,404Z"/><path class="cls-48" d="M72.51,416.52c.61-.13,1,.25,1.47.56l18.77,13.14c.44.3,1,.55,1,1.17C83.75,435,72.71,427.31,72.51,416.52Z"/></g><rect class="cls-49" x="212.83" y="126.57" width="586.79" height="51.27"/><rect class="cls-49" x="212.83" y="206.89" width="586.79" height="296.17"/><rect class="cls-49" x="832.88" y="421.01" width="397.41" height="235.92"/><line class="cls-49" x1="832.88" y1="656.92" x2="1230.28" y2="421.01"/><line class="cls-49" x1="1230.28" y1="656.92" x2="832.88" y2="421.01"/><line class="cls-49" x1="696.78" y1="548.05" x2="792.94" y2="548.05"/><line class="cls-49" x1="526.2" y1="548.05" x2="676.81" y2="548.05"/><line class="cls-49" x1="293.91" y1="548.05" x2="497.14" y2="548.05"/><line class="cls-49" x1="215.89" y1="548.05" x2="270.31" y2="548.05"/><line class="cls-49" x1="357.42" y1="575.24" x2="792.94" y2="575.24"/><line class="cls-49" x1="215.89" y1="575.24" x2="335.65" y2="575.24"/><line class="cls-49" x1="587.87" y1="602.47" x2="792.94" y2="602.47"/><line class="cls-49" x1="384.64" y1="602.47" x2="558.85" y2="602.47"/><line class="cls-49" x1="215.89" y1="602.47" x2="364.67" y2="602.47"/><line class="cls-49" x1="555.22" y1="629.7" x2="792.94" y2="629.7"/><line class="cls-49" x1="361.04" y1="629.7" x2="531.62" y2="629.7"/><line class="cls-49" x1="215.89" y1="629.7" x2="341.11" y2="629.7"/><line class="cls-49" x1="687.69" y1="656.92" x2="792.94" y2="656.92"/><line class="cls-49" x1="439.09" y1="656.92" x2="667.72" y2="656.92"/><line class="cls-49" x1="335.65" y1="656.92" x2="419.12" y2="656.92"/><line class="cls-49" x1="254" y1="656.92" x2="303" y2="656.92"/><line class="cls-49" x1="215.89" y1="656.92" x2="254" y2="656.92"/><rect class="cls-50" x="176.02" y="40.35" width="1082.09" height="47.32"/><rect class="cls-4" x="331.45" y="54.55" width="902.27" height="19.09"/><rect class="cls-4" x="192.67" y="54.55" width="119.98" height="19.09"/><rect class="cls-4" x="910.14" y="153.8" width="410.12" height="233.45"/><rect class="cls-4" x="910.14" y="343.08" width="410.12" height="44.17"/><polygon class="cls-51" points="1169.18 252.54 1061.25 190.23 1061.25 314.85 1169.18 252.54"/><rect class="cls-4" x="900.01" y="141.55" width="23.6" height="23.6"/><rect class="cls-4" x="1307.39" y="141.55" width="23.6" height="23.6"/><rect class="cls-4" x="900.01" y="371.1" width="23.6" height="23.6"/><rect class="cls-4" x="1307.39" y="371.1" width="23.6" height="23.6"/><path class="cls-52" d="M420,345.86v41H409.82V295.63H420v41h22.43v-41H452.6v91.3H442.44v-41Z"/><path class="cls-52" d="M476.19,386.93v-82H459.38v-9.28h43.69v9.28H486.26v82Z"/><path class="cls-52" d="M543.61,386.81h-9.78l-15.11-72.56V387h-8.86v-91.4h14.19l15,72.82,14.48-72.91h14.2v91.3h-9.66V313.52Z"/><path class="cls-52" d="M578.19,386.93v-91.3h10.16v82h26.18v9.27Z"/><rect class="cls-52" x="1323.03" y="460.76" width="4.42" height="4.42"/><rect class="cls-52" x="1337.99" y="460.76" width="4.42" height="4.42"/><rect class="cls-52" x="1352.31" y="460.76" width="4.42" height="4.42"/><rect class="cls-52" x="1323.03" y="475.65" width="4.42" height="4.42"/><rect class="cls-52" x="1337.99" y="475.65" width="4.42" height="4.42"/><rect class="cls-52" x="1352.31" y="475.65" width="4.42" height="4.42"/><rect class="cls-52" x="1323.03" y="489.97" width="4.42" height="4.42"/><rect class="cls-52" x="1337.99" y="489.97" width="4.42" height="4.42"/><rect class="cls-52" x="1352.31" y="489.97" width="4.42" height="4.42"/><polygon class="cls-4" points="552.92 916.88 543.58 918.71 516.54 785.04 525.88 783.21 552.92 916.88"/><rect class="cls-4" x="543.01" y="914.23" width="177.61" height="6.34"/><rect class="cls-11" x="769.78" y="1247.21" width="274.44" height="13.41"/><path class="cls-53" d="M1085.64,834.06s-26,206.07-33.19,269.93,21.07,264.3,21.07,264.3H1057l-32.4-227.14H782.52L767,1364.23H754.67L775.43,1105v-28.17a11,11,0,0,1,11-11h232l36.31-254.47s4.1-23.69,24.7-16.47S1085.64,834.06,1085.64,834.06Z"/><path class="cls-11" d="M1079.45,794.94c-.53-.2-1.08-.38-1.64-.53,1.58,3.15,2.53,8.64.63,18.93-4.13,22.68-47.63,292.6-47.63,292.6H775.27l-20.48,261.28h12.37L794.1,1141h230.55l32.4,227.15h16.5s-28.39-200.43-21.07-264.31,38-265.23,38-265.23S1100.09,802.14,1079.45,794.94Z"/><path class="cls-54" d="M832.53,852.05l-128.94,7.31-57.51,33.26-11.36,19.46,8.9,1.61,20.28-8.93s22.72-4,29.22-6.47,24.26-21.92,24.26-21.92l119.88,19.46Z"/><path class="cls-55" d="M646.55,1250.53s-22.71,39.75-26,39.75-29.56,5.83-50.48-4.7-36.5-18.65-43-8.93a73.17,73.17,0,0,0-8.11,14.61s19.47,27.57,37.33,37.28,25.49,4.71,44.16,15.24,20.29,18.65,35.68,15.43,24.36-52.72,28.4-58.4,19.37-37.32,19.37-37.32Z"/><path class="cls-56" d="M624.5,1286.18c-1.86,2.52-3.15,4.1-3.91,4.1-3.16,0-29.56,5.83-50.48-4.7s-36.5-18.65-43-8.93a73.17,73.17,0,0,0-8.11,14.61s19.47,27.57,37.33,37.28,25.49,4.71,44.16,15.24,20.29,18.65,35.68,15.43c13.66-2.9,22.09-42,26.82-54.86C649,1300.75,634,1292.2,624.5,1286.18Z"/><path class="cls-57" d="M636,1359.21a9,9,0,0,0,1.36-.44,3.43,3.43,0,0,0,.44-.19l.89-.44.5-.32.79-.54.5-.41.76-.66.47-.47a8.72,8.72,0,0,0,.79-.82l.45-.51c.25-.31.53-.63.78-1l.38-.48.92-1.32.22-.32a32.4,32.4,0,0,0,1.83-3.15c-15.78,0-26.5-9.94-43.51-15.78-21.07-7.28-22.27-1.42-37.66-12s-17-17-17-17l13.66-21.58c-17.26-8.52-29.84-13.75-35.56-5.2a73.83,73.83,0,0,0-8.1,14.6s19.46,27.58,37.32,37.29,25.49,4.7,44.17,15.24S620.59,1362.43,636,1359.21Z"/><path class="cls-58" d="M670.88,1047.77l-72.12,180,86,48.68s91.48-207.62,92.43-211.69,17-8.1,17-8.1l65.62,9s-98.94-43.79-128.12-50.29S683,1013.73,670.88,1047.77Z"/><path class="cls-59" d="M745.74,1187.81l40.57,38.11s-13.79,34.07-30,56-17.86,34.7-10.57,39.71,21.89,4.07,31.55-2.43,64.86-60.82,71.36-70.54a16.3,16.3,0,0,0-3.16-21.07c-2.43-1.64-55.93-65.71-55.93-65.71Z"/><path class="cls-56" d="M848.74,1248.63a16.3,16.3,0,0,0-3.15-21.07c-1.14-.79-13.72-15.52-26.69-30.85-11.86,14.35-33.28,22.36-38,24l5.53,5.17s-13.79,34.07-30,56-17.85,34.7-10.57,39.71,21.9,4.07,31.55-2.43S842.24,1258.35,848.74,1248.63Z"/><path class="cls-57" d="M846.54,1228.44a28.52,28.52,0,0,1-5.9,15.34c-9.72,12.14-64.08,62.43-64.08,62.43l-25.24-17.42c-11.61,17.73-12.21,28.4-5.74,32.81,7.32,4.89,21.9,4.07,31.55-2.43s64.86-60.82,71.36-70.54A16.35,16.35,0,0,0,846.54,1228.44Z"/><path class="cls-57" d="M823.6,1224.31a8.52,8.52,0,1,1-8.92-8.1h.4A8.33,8.33,0,0,1,823.6,1224.31Z"/><path class="cls-60" d="M849.56,931.55l-4.07,13.78s-122.43,1.61-176,16.22-68.11,22.71-64.07,52.71,86.78,202.83,86.78,202.83a334.83,334.83,0,0,0,48.65-17.83,307.7,307.7,0,0,0,52.72-32.65L732,1049s70.58,14.61,149.22,21.89,111.94-.82,124.9-24.32S997.14,929,997.14,929L850.38,924.1Z"/><path class="cls-49" d="M677.63,1010.29a48.68,48.68,0,0,1-7.23-9"/><path class="cls-49" d="M732,1049.12a360.34,360.34,0,0,1-46.75-31.76"/><path class="cls-49" d="M741,1116.86l6.5,3.15"/><path class="cls-49" d="M627.5,1021.24a342.54,342.54,0,0,0,102.28,89.43"/><path class="cls-49" d="M967.27,985.3a90.49,90.49,0,0,1,8.8,7.8"/><path class="cls-49" d="M853.6,946.94S913,951.55,955,976.85"/><path class="cls-49" d="M934.71,960.73s38.93.82,54.33,17"/><path class="cls-61" d="M858.92,688.25s-27.57,82-31.55,107-1.61,134.62-1.61,134.62,64.87,19.46,101.37,15.42,82-11.36,82-11.36S1001,788.85,993.76,738.54,969.43,659,953.22,646.89a254.62,254.62,0,0,0-34.07-21.11Z"/><path class="cls-62" d="M718.17,561.74a87.66,87.66,0,0,0,10.57,29.18c8.1,13,19.46,18.65,16.21,31.55s-3.15,21.9,6.31,22.68L761,646s19.46,33.26,34.07,33.26S851.14,642,851.14,642s-21.89-103-21.89-106.25-116,12.17-116,12.17Z"/><path class="cls-52" d="M766.31,603.42c1.76,3.15,1.15,6.72-1.4,7.79s-6-.7-7.75-4-1.15-6.71,1.4-7.76S764.55,600.2,766.31,603.42Z"/><path class="cls-49" d="M746.56,601.17s-.82-11.35,16.22-8.93"/><path class="cls-49" d="M770.25,648.66c.51,1.79,19.81.72,16.85-16.38"/><path class="cls-63" d="M882.69,523.6C880,490.76,839.12,503.35,820,513.28l-.53-1-77,21.9a15.24,15.24,0,0,0,7.28,16.21A112.35,112.35,0,0,0,804.86,572c5.74,34.33,13.76,85.63,13.76,104.9,0,30-11.36,41.36-11.36,41.36s51.89-16.22,82-44.61a271.49,271.49,0,0,0,45.43-55.14S886.06,563.35,882.69,523.6Z"/><line class="cls-49" x1="804.99" y1="571.99" x2="802.68" y2="561.27"/><path class="cls-49" d="M843.48,646.64c.66,3.69,1.19,7.13,1.57,10.12"/><path class="cls-49" d="M823.41,561.27s11.45,42.3,17.92,74.07"/><line class="cls-49" x1="861.71" y1="571.9" x2="877.45" y2="613.51"/><line class="cls-49" x1="854.96" y1="554.04" x2="859.03" y2="564.8"/><line class="cls-49" x1="874.77" y1="554.96" x2="881.96" y2="572.97"/><path class="cls-64" d="M710.22,560.48S656,589.28,674,589.28,782.59,551.9,786.18,551.9,725.9,558.05,710.22,560.48Z"/><path class="cls-65" d="M710.22,560.48s-32.47,10.28-18-24.7,113.07-86,154.08-86,71.33,61.2,65.31,80.51S892.31,552,886.38,552,710.22,560.48,710.22,560.48Z"/><path class="cls-49" d="M725.9,549.63s59.09,1.2,109.75-6,71.14-14.48,71.14-14.48"/><line class="cls-49" x1="899.57" y1="544.8" x2="819.97" y2="546"/><path class="cls-66" d="M849.56,863.4,839,873.21s-131.4-17-140.33-14.6S658.16,870,658.16,870l-25.24,1.61-20.25,34.07h6.47l14.6-20.28h9.19L627.5,903.22l-6.66,9.65,22.68.82,3.32-2.81,12.93-11-4.07,12.18h4.86l11.36-19.46,15.42-8.11,16.22-11.36S869,930.73,873,933.09s13,8.93,20.28,2.43,26.75-60.82,26.75-60.82Z"/><path class="cls-49" d="M631,911.77a113.38,113.38,0,0,0,22.08-23.07s1.11-8.55,8.55-9.9"/><polyline class="cls-49" points="659.8 899.9 663.46 885.8 667.5 882.55"/><path class="cls-49" d="M642.93,885.3a44.49,44.49,0,0,1,7.69-9.28c2.75-1.64,4.42-2.46,4.42-2.46"/><path class="cls-67" d="M780.16,899.9c43.91,15.4,90.79,32,93.06,33.25,4.07,2.43,13,8.93,20.29,2.43s26.75-60.82,26.75-60.82L849.72,863.4,839,873.21s-24.17-3.15-52.44-6.53Z"/><path class="cls-68" d="M872.32,746.53,839.21,857.72S842.36,874,874.89,883A201.83,201.83,0,0,0,930,891.07L954.1,755.79a22,22,0,0,0-6.6-20c-27.4-25.37-55.13-10-67.12-1A22.82,22.82,0,0,0,872.32,746.53Z"/><line class="cls-69" x1="954.08" y1="760.93" x2="933.65" y2="864.5"/><line class="cls-70" x1="859.97" y1="791.38" x2="856.95" y2="801.92"/><line class="cls-70" x1="871.97" y1="769.38" x2="868.95" y2="779.92"/><g id="freepik--Table--inject-2"><rect class="cls-11" x="553.01" y="928.42" width="28.39" height="422.11"/><rect class="cls-11" x="352.34" y="920.98" width="422.62" height="17.45"/><path class="cls-11" d="M719.37,1367.79H415.12a17.48,17.48,0,0,1,17.44-17.45H701.92A17.49,17.49,0,0,1,719.37,1367.79Z"/></g><polygon class="cls-71" points="474.49 924.07 418.97 924.07 410.64 820.21 482.82 820.21 474.49 924.07"/><rect class="cls-4" x="405.59" y="809.96" width="80.19" height="23.66"/><polygon class="cls-4" points="476.79 895.27 479.85 857.25 413.6 857.25 416.66 895.27 476.79 895.27"/><polygon class="cls-9" points="1297.73 979.06 1244.46 1007.51 1235.77 989.72 1284.69 963.15 1297.73 979.06"/><path class="cls-3" d="M214.24,892.34a6.87,6.87,0,0,0-1.86-1L199,886.16a4.91,4.91,0,0,1-2.75-2.43,4,4,0,0,1-.39-2.42,3,3,0,0,1,2-2.46l3.91-1.63q15.48-6.42,31-12.86a4.32,4.32,0,0,1,4.52.67.55.55,0,0,1,.16.18,2.07,2.07,0,0,1-.32.8,21,21,0,0,1-1.43,2.1c-2.23,3-4.63,5.78-7,8.59-1.18,1.37-2.38,2.73-3.57,4.09q-2.48,2.82-5,5.59-1.17,1.29-2.34,2.55c-.88.94-1.76,1.88-2.67,2.78A4,4,0,0,1,214.24,892.34Z"/><path class="cls-12" d="M214.24,892.34a4,4,0,0,0,.73-.63c.91-.9,1.79-1.84,2.67-2.78s1.56-1.69,2.34-2.55q2.53-2.77,5-5.59c1.19-1.36,2.39-2.72,3.57-4.09,2.41-2.81,4.81-5.63,7-8.59A21,21,0,0,0,237,866a2.07,2.07,0,0,0,.32-.8c.09,0,.14.07.2.13a4.57,4.57,0,0,1,1.39,2.47,4,4,0,0,1,0,1.62l-2.37,11q-1.08,5-2.15,10-1.27,6-2.56,11.92c-.27,1.26-.54,2.53-.82,3.79a3.16,3.16,0,0,1-3,2.48,4.56,4.56,0,0,1-4.28-2.16c-1.21-1.79-2.38-3.61-3.56-5.41l-4.74-7.23A6.7,6.7,0,0,0,214.24,892.34Z"/><path class="cls-72" d="M174.15,1243c-82.25-94.29-45.7-121.39-34-147,7.72-16.9,21.44-22.2,30-49,11.81-37-4.91-56.29,2-90,3.69-18,14.77-43.29,50-70"/></g></g></svg>