<svg xmlns="http://www.w3.org/2000/svg" viewBox="0 0 389.95 402.05"><defs><style>.cls-1{fill:#fff;}.cls-2{fill:#29abe2;}</style></defs><g id="Layer_2" data-name="Layer 2"><g id="Layer_1-2" data-name="Layer 1"><path class="cls-1" d="M166.5,255.69c-5.05-3.94-10.8-6.48-16.73-8.78Q89.25,223.5,28.77,200c-11-4.27-19.53-11.31-24.79-22A35.62,35.62,0,0,1,.45,156.13c1.72-10.67,7.75-18,17.65-22.19,11.73-4.94,23.51-9.76,35.27-14.64q139.71-58,279.42-116c14.95-6.22,28.27-3.25,40.81,6A4.2,4.2,0,0,1,375,11a18.26,18.26,0,0,1-2.84,7.14,191.28,191.28,0,0,1-12.95,19c-20.12,26.69-41.76,52.14-63.53,77.48-10.63,12.39-21.43,24.65-32.18,36.93Q241.17,177,218.32,202q-10.53,11.53-21.15,23c-7.9,8.47-15.83,16.92-24.08,25C171,252,169.05,254.2,166.5,255.69Z"/><path class="cls-2" d="M166.5,255.69c2.55-1.49,4.53-3.67,6.59-5.71,8.25-8.12,16.18-16.57,24.08-25q10.64-11.43,21.15-23,22.8-25,45.17-50.47c10.75-12.28,21.55-24.54,32.18-36.93,21.77-25.34,43.41-50.79,63.53-77.48a191.28,191.28,0,0,0,12.95-19A18.26,18.26,0,0,0,375,11c.88-.07,1.31.63,1.83,1.13,6.39,6.17,10.83,13.44,12.56,22.25A35.83,35.83,0,0,1,389,49q-10.7,49.51-21.36,99-9.67,44.89-19.35,89.78-11.58,53.79-23.14,107.59c-2.45,11.38-4.87,22.78-7.41,34.14-3.14,14.11-14.77,21.7-26.94,22.45-16.62,1-29.45-5.95-38.62-19.5C241.23,366.31,230.71,349.9,220,333.6Q198.63,301,177.28,268.41A58.94,58.94,0,0,0,166.5,255.69Z"/></g></g></svg>