<svg xmlns="http://www.w3.org/2000/svg" viewBox="0 0 750.06 62"><defs><style>.cls-1{fill:#fff;stroke:#333;stroke-miterlimit:10;}.cls-2{fill:gray;}</style></defs><g id="Layer_2" data-name="Layer 2"><g id="Layer_1-2" data-name="Layer 1"><path class="cls-1" d="M747.2,61.5H2.86Q37,49.2,73.82,39.16,117,27.39,163.49,19q23.94-4.32,48.62-7.66A1214.37,1214.37,0,0,1,375,.5C463.23.5,547.53,9.76,625,26.62q19.54,4.24,38.5,9.15,9.33,2.41,18.51,5Q715.69,50.15,747.2,61.5Z"/><path class="cls-2" d="M213.48,19.5a25,25,0,0,1-50,0c0-.17,0-.34,0-.51q23.94-4.32,48.62-7.66A24.84,24.84,0,0,1,213.48,19.5Z"/><circle class="cls-2" cx="249.48" cy="43.5" r="10.5"/><circle class="cls-2" cx="120.48" cy="44.5" r="10.5"/><circle class="cls-2" cx="259.48" cy="23.5" r="4.5"/><circle class="cls-2" cx="510.48" cy="19.5" r="4.5"/><circle class="cls-2" cx="641.48" cy="54.5" r="4.5"/><path class="cls-2" d="M682,41a10,10,0,1,1-18.52-5.23q9.33,2.41,18.51,5A2.17,2.17,0,0,1,682,41Z"/></g></g></svg>