<svg xmlns="http://www.w3.org/2000/svg" viewBox="0 0 744.34 61"><defs><style>.cls-1{fill:#fff;}.cls-2{fill:gray;}</style></defs><g id="Layer_2" data-name="Layer 2"><g id="Layer_1-2" data-name="Layer 1"><path class="cls-1" d="M744.34,61H0Q34.13,48.7,71,38.66q43.22-11.77,89.67-20.17,23.94-4.32,48.62-7.66A1214.37,1214.37,0,0,1,372.17,0c88.2,0,172.5,9.26,249.93,26.12q19.54,4.24,38.5,9.15,9.33,2.41,18.51,5Q712.83,49.65,744.34,61Z"/><path class="cls-2" d="M210.62,19a25,25,0,0,1-50,0c0-.17,0-.34,0-.51q23.94-4.32,48.62-7.66A24.84,24.84,0,0,1,210.62,19Z"/><circle class="cls-2" cx="246.62" cy="43" r="10.5"/><circle class="cls-2" cx="117.62" cy="44" r="10.5"/><circle class="cls-2" cx="256.62" cy="23" r="4.5"/><circle class="cls-2" cx="507.62" cy="19" r="4.5"/><circle class="cls-2" cx="638.62" cy="54" r="4.5"/><path class="cls-2" d="M679.12,40.5a10,10,0,1,1-18.52-5.23q9.33,2.41,18.51,5A2.17,2.17,0,0,1,679.12,40.5Z"/></g></g></svg>